  0
SECTION
  2
HEADER
  9
$ACADVER
  1
AC1024
  9
$ACADMAINTVER
 70
6
  9
$DWGCODEPAGE
  3
ANSI_1252
  9
$LASTSAVEDBY
  1
ezdxf
  9
$INSBASE
 10
0.0
 20
0.0
 30
0.0
  9
$EXTMIN
 10
1e+20
 20
1e+20
 30
1e+20
  9
$EXTMAX
 10
-1e+20
 20
-1e+20
 30
-1e+20
  9
$LIMMIN
 10
0.0
 20
0.0
  9
$LIMMAX
 10
420.0
 20
297.0
  9
$ORTHOMODE
 70
0
  9
$REGENMODE
 70
1
  9
$FILLMODE
 70
1
  9
$QTEXTMODE
 70
0
  9
$MIRRTEXT
 70
1
  9
$LTSCALE
 40
1.0
  9
$ATTMODE
 70
1
  9
$TEXTSIZE
 40
2.5
  9
$TRACEWID
 40
1.0
  9
$TEXTSTYLE
  7
Standard
  9
$CLAYER
  8
0
  9
$CELTYPE
  6
ByLayer
  9
$CECOLOR
 62
256
  9
$CELTSCALE
 40
1.0
  9
$DISPSILH
 70
0
  9
$DIMSCALE
 40
1.0
  9
$DIMASZ
 40
2.5
  9
$DIMEXO
 40
0.625
  9
$DIMDLI
 40
3.75
  9
$DIMRND
 40
0.0
  9
$DIMDLE
 40
0.0
  9
$DIMEXE
 40
1.25
  9
$DIMTP
 40
0.0
  9
$DIMTM
 40
0.0
  9
$DIMTXT
 40
2.5
  9
$DIMCEN
 40
2.5
  9
$DIMTSZ
 40
0.0
  9
$DIMTOL
 70
0
  9
$DIMLIM
 70
0
  9
$DIMTIH
 70
0
  9
$DIMTOH
 70
0
  9
$DIMSE1
 70
0
  9
$DIMSE2
 70
0
  9
$DIMTAD
 70
1
  9
$DIMZIN
 70
8
  9
$DIMBLK
  1

  9
$DIMASO
 70
1
  9
$DIMSHO
 70
1
  9
$DIMPOST
  1

  9
$DIMAPOST
  1

  9
$DIMALT
 70
0
  9
$DIMALTD
 70
3
  9
$DIMALTF
 40
0.03937007874
  9
$DIMLFAC
 40
1.0
  9
$DIMTOFL
 70
1
  9
$DIMTVP
 40
0.0
  9
$DIMTIX
 70
0
  9
$DIMSOXD
 70
0
  9
$DIMSAH
 70
0
  9
$DIMBLK1
  1

  9
$DIMBLK2
  1

  9
$DIMSTYLE
  2
ISO-25
  9
$DIMCLRD
 70
0
  9
$DIMCLRE
 70
0
  9
$DIMCLRT
 70
0
  9
$DIMTFAC
 40
1.0
  9
$DIMGAP
 40
0.625
  9
$DIMJUST
 70
0
  9
$DIMSD1
 70
0
  9
$DIMSD2
 70
0
  9
$DIMTOLJ
 70
0
  9
$DIMTZIN
 70
8
  9
$DIMALTZ
 70
0
  9
$DIMALTTZ
 70
0
  9
$DIMUPT
 70
0
  9
$DIMDEC
 70
2
  9
$DIMTDEC
 70
2
  9
$DIMALTU
 70
2
  9
$DIMALTTD
 70
3
  9
$DIMTXSTY
  7
Standard
  9
$DIMAUNIT
 70
0
  9
$DIMADEC
 70
0
  9
$DIMALTRND
 40
0.0
  9
$DIMAZIN
 70
0
  9
$DIMDSEP
 70
44
  9
$DIMATFIT
 70
3
  9
$DIMFRAC
 70
0
  9
$DIMLDRBLK
  1

  9
$DIMLUNIT
 70
2
  9
$DIMLWD
 70
-2
  9
$DIMLWE
 70
-2
  9
$DIMTMOVE
 70
0
  9
$DIMFXL
 40
1.0
  9
$DIMFXLON
 70
0
  9
$DIMJOGANG
 40
0.785398163397
  9
$DIMTFILL
 70
0
  9
$DIMTFILLCLR
 70
0
  9
$DIMARCSYM
 70
0
  9
$DIMLTYPE
  6

  9
$DIMLTEX1
  6

  9
$DIMLTEX2
  6

  9
$DIMTXTDIRECTION
 70
0
  9
$LUNITS
 70
2
  9
$LUPREC
 70
4
  9
$SKETCHINC
 40
1.0
  9
$FILLETRAD
 40
10.0
  9
$AUNITS
 70
0
  9
$AUPREC
 70
2
  9
$MENU
  1
.
  9
$ELEVATION
 40
0.0
  9
$PELEVATION
 40
0.0
  9
$THICKNESS
 40
0.0
  9
$LIMCHECK
 70
0
  9
$CHAMFERA
 40
0.0
  9
$CHAMFERB
 40
0.0
  9
$CHAMFERC
 40
0.0
  9
$CHAMFERD
 40
0.0
  9
$SKPOLY
 70
0
  9
$TDCREATE
 40
2461303.447662037
  9
$TDUCREATE
 40
2458532.153996898
  9
$TDUPDATE
 40
2461303.447662037
  9
$TDUUPDATE
 40
2458532.1544311
  9
$TDINDWG
 40
0.0
  9
$TDUSRTIMER
 40
0.0
  9
$USRTIMER
 70
1
  9
$ANGBASE
 50
0.0
  9
$ANGDIR
 70
0
  9
$PDMODE
 70
0
  9
$PDSIZE
 40
0.0
  9
$PLINEWID
 40
0.0
  9
$SPLFRAME
 70
0
  9
$SPLINETYPE
 70
6
  9
$SPLINESEGS
 70
8
  9
$HANDSEED
  5
A8
  9
$SURFTAB1
 70
6
  9
$SURFTAB2
 70
6
  9
$SURFTYPE
 70
6
  9
$SURFU
 70
6
  9
$SURFV
 70
6
  9
$UCSBASE
  2

  9
$UCSNAME
  2

  9
$UCSORG
 10
0.0
 20
0.0
 30
0.0
  9
$UCSXDIR
 10
1.0
 20
0.0
 30
0.0
  9
$UCSYDIR
 10
0.0
 20
1.0
 30
0.0
  9
$UCSORTHOREF
  2

  9
$UCSORTHOVIEW
 70
0
  9
$UCSORGTOP
 10
0.0
 20
0.0
 30
0.0
  9
$UCSORGBOTTOM
 10
0.0
 20
0.0
 30
0.0
  9
$UCSORGLEFT
 10
0.0
 20
0.0
 30
0.0
  9
$UCSORGRIGHT
 10
0.0
 20
0.0
 30
0.0
  9
$UCSORGFRONT
 10
0.0
 20
0.0
 30
0.0
  9
$UCSORGBACK
 10
0.0
 20
0.0
 30
0.0
  9
$PUCSBASE
  2

  9
$PUCSNAME
  2

  9
$PUCSORG
 10
0.0
 20
0.0
 30
0.0
  9
$PUCSXDIR
 10
1.0
 20
0.0
 30
0.0
  9
$PUCSYDIR
 10
0.0
 20
1.0
 30
0.0
  9
$PUCSORTHOREF
  2

  9
$PUCSORTHOVIEW
 70
0
  9
$PUCSORGTOP
 10
0.0
 20
0.0
 30
0.0
  9
$PUCSORGBOTTOM
 10
0.0
 20
0.0
 30
0.0
  9
$PUCSORGLEFT
 10
0.0
 20
0.0
 30
0.0
  9
$PUCSORGRIGHT
 10
0.0
 20
0.0
 30
0.0
  9
$PUCSORGFRONT
 10
0.0
 20
0.0
 30
0.0
  9
$PUCSORGBACK
 10
0.0
 20
0.0
 30
0.0
  9
$USERI1
 70
0
  9
$USERI2
 70
0
  9
$USERI3
 70
0
  9
$USERI4
 70
0
  9
$USERI5
 70
0
  9
$USERR1
 40
0.0
  9
$USERR2
 40
0.0
  9
$USERR3
 40
0.0
  9
$USERR4
 40
0.0
  9
$USERR5
 40
0.0
  9
$WORLDVIEW
 70
1
  9
$SHADEDGE
 70
3
  9
$SHADEDIF
 70
70
  9
$TILEMODE
 70
1
  9
$MAXACTVP
 70
64
  9
$PINSBASE
 10
0.0
 20
0.0
 30
0.0
  9
$PLIMCHECK
 70
0
  9
$PEXTMIN
 10
1e+20
 20
1e+20
 30
1e+20
  9
$PEXTMAX
 10
-1e+20
 20
-1e+20
 30
-1e+20
  9
$PLIMMIN
 10
0.0
 20
0.0
  9
$PLIMMAX
 10
420.0
 20
297.0
  9
$UNITMODE
 70
0
  9
$VISRETAIN
 70
1
  9
$PLINEGEN
 70
0
  9
$PSLTSCALE
 70
1
  9
$TREEDEPTH
 70
3020
  9
$CMLSTYLE
  2
Standard
  9
$CMLJUST
 70
0
  9
$CMLSCALE
 40
20.0
  9
$PROXYGRAPHICS
 70
1
  9
$MEASUREMENT
 70
1
  9
$CELWEIGHT
370
-1
  9
$ENDCAPS
280
0
  9
$JOINSTYLE
280
0
  9
$LWDISPLAY
290
0
  9
$INSUNITS
 70
4
  9
$HYPERLINKBASE
  1

  9
$STYLESHEET
  1

  9
$XEDIT
290
1
  9
$CEPSNTYPE
380
0
  9
$PSTYLEMODE
290
1
  9
$FINGERPRINTGUID
  2
{3AE342A4-1FF9-44A3-9A88-96D691B4975C}
  9
$VERSIONGUID
  2
{A529E684-4D2B-4CD8-8AD1-529EA5465A52}
  9
$EXTNAMES
290
1
  9
$PSVPSCALE
 40
0.0
  9
$OLESTARTUP
290
0
  9
$SORTENTS
280
127
  9
$INDEXCTL
280
0
  9
$HIDETEXT
280
1
  9
$XCLIPFRAME
280
1
  9
$HALOGAP
280
0
  9
$OBSCOLOR
 70
257
  9
$OBSLTYPE
280
0
  9
$INTERSECTIONDISPLAY
280
0
  9
$INTERSECTIONCOLOR
 70
257
  9
$DIMASSOC
280
2
  9
$PROJECTNAME
  1

  9
$CAMERADISPLAY
290
0
  9
$LENSLENGTH
 40
50.0
  9
$CAMERAHEIGHT
 40
0.0
  9
$STEPSPERSEC
 40
24.0
  9
$STEPSIZE
 40
100.0
  9
$3DDWFPREC
 40
2.0
  9
$PSOLWIDTH
 40
0.005
  9
$PSOLHEIGHT
 40
0.08
  9
$LOFTANG1
 40
1.570796326795
  9
$LOFTANG2
 40
1.570796326795
  9
$LOFTMAG1
 40
0.0
  9
$LOFTMAG2
 40
0.0
  9
$LOFTPARAM
 70
7
  9
$LOFTNORMALS
280
1
  9
$LATITUDE
 40
37.795
  9
$LONGITUDE
 40
-122.394
  9
$NORTHDIRECTION
 40
0.0
  9
$TIMEZONE
 70
-8000
  9
$LIGHTGLYPHDISPLAY
280
1
  9
$TILEMODELIGHTSYNCH
280
1
  9
$CMATERIAL
347
20
  9
$SOLIDHIST
280
0
  9
$SHOWHIST
280
1
  9
$DWFFRAME
280
2
  9
$DGNFRAME
280
2
  9
$REALWORLDSCALE
290
1
  9
$INTERFERECOLOR
 62
256
  9
$CSHADOW
280
0
  9
$SHADOWPLANELOCATION
 40
0.0
  0
ENDSEC
  0
SECTION
  2
CLASSES
  0
CLASS
  1
ACDBDICTIONARYWDFLT
  2
AcDbDictionaryWithDefault
  3
ObjectDBX Classes
 90
0
 91
0
280
0
281
0
  0
CLASS
  1
SUN
  2
AcDbSun
  3
SCENEOE
 90
1153
 91
0
280
0
281
0
  0
CLASS
  1
VISUALSTYLE
  2
AcDbVisualStyle
  3
ObjectDBX Classes
 90
4095
 91
0
280
0
281
0
  0
CLASS
  1
MATERIAL
  2
AcDbMaterial
  3
ObjectDBX Classes
 90
1153
 91
0
280
0
281
0
  0
CLASS
  1
SCALE
  2
AcDbScale
  3
ObjectDBX Classes
 90
1153
 91
0
280
0
281
0
  0
CLASS
  1
TABLESTYLE
  2
AcDbTableStyle
  3
ObjectDBX Classes
 90
4095
 91
0
280
0
281
0
  0
CLASS
  1
MLEADERSTYLE
  2
AcDbMLeaderStyle
  3
ACDB_MLEADERSTYLE_CLASS
 90
4095
 91
0
280
0
281
0
  0
CLASS
  1
DICTIONARYVAR
  2
AcDbDictionaryVar
  3
ObjectDBX Classes
 90
0
 91
0
280
0
281
0
  0
CLASS
  1
CELLSTYLEMAP
  2
AcDbCellStyleMap
  3
ObjectDBX Classes
 90
1152
 91
0
280
0
281
0
  0
CLASS
  1
MENTALRAYRENDERSETTINGS
  2
AcDbMentalRayRenderSettings
  3
SCENEOE
 90
1024
 91
0
280
0
281
0
  0
CLASS
  1
ACDBDETAILVIEWSTYLE
  2
AcDbDetailViewStyle
  3
ObjectDBX Classes
 90
1025
 91
0
280
0
281
0
  0
CLASS
  1
ACDBSECTIONVIEWSTYLE
  2
AcDbSectionViewStyle
  3
ObjectDBX Classes
 90
1025
 91
0
280
0
281
0
  0
CLASS
  1
RASTERVARIABLES
  2
AcDbRasterVariables
  3
ISM
 90
0
 91
0
280
0
281
0
  0
CLASS
  1
ACDBPLACEHOLDER
  2
AcDbPlaceHolder
  3
ObjectDBX Classes
 90
0
 91
0
280
0
281
0
  0
CLASS
  1
LAYOUT
  2
AcDbLayout
  3
ObjectDBX Classes
 90
0
 91
0
280
0
281
0
  0
ENDSEC
  0
SECTION
  2
TABLES
  0
TABLE
  2
VPORT
  5
8
330
0
100
AcDbSymbolTable
 70
1
  0
VPORT
  5
23
330
8
100
AcDbSymbolTableRecord
100
AcDbViewportTableRecord
  2
*Active
 70
0
 10
0.0
 20
0.0
 11
1.0
 21
1.0
 12
0.0
 22
0.0
 13
0.0
 23
0.0
 14
0.5
 24
0.5
 15
0.5
 25
0.5
 16
0.0
 26
0.0
 36
1.0
 17
0.0
 27
0.0
 37
0.0
 40
1000.0
 41
1.34
 42
50.0
 43
0.0
 44
0.0
 50
0.0
 51
0.0
 71
0
 72
1000
 73
1
 74
3
 75
0
 76
0
 77
0
 78
0
281
0
 65
0
146
0.0
  0
ENDTAB
  0
TABLE
  2
LTYPE
  5
2
330
0
100
AcDbSymbolTable
 70
3
  0
LTYPE
  5
24
330
2
100
AcDbSymbolTableRecord
100
AcDbLinetypeTableRecord
  2
ByBlock
 70
0
  3

 72
65
 73
0
 40
0.0
  0
LTYPE
  5
25
330
2
100
AcDbSymbolTableRecord
100
AcDbLinetypeTableRecord
  2
ByLayer
 70
0
  3

 72
65
 73
0
 40
0.0
  0
LTYPE
  5
26
330
2
100
AcDbSymbolTableRecord
100
AcDbLinetypeTableRecord
  2
Continuous
 70
0
  3

 72
65
 73
0
 40
0.0
  0
ENDTAB
  0
TABLE
  2
LAYER
  5
1
330
0
100
AcDbSymbolTable
 70
3
  0
LAYER
  5
27
330
1
100
AcDbSymbolTableRecord
100
AcDbLayerTableRecord
  2
0
 70
0
 62
7
  6
Continuous
370
-3
390
13
347
21
  0
LAYER
  5
28
330
1
100
AcDbSymbolTableRecord
100
AcDbLayerTableRecord
  2
Defpoints
 70
0
 62
7
  6
Continuous
290
0
370
-3
390
13
347
21
  0
LAYER
  5
2F
330
1
100
AcDbSymbolTableRecord
100
AcDbLayerTableRecord
  2
ID_CUT_SINGLELINE
 70
0
 62
3
  6
Continuous
370
0
390
13
347
21
  0
ENDTAB
  0
TABLE
  2
STYLE
  5
5
330
0
100
AcDbSymbolTable
 70
1
  0
STYLE
  5
29
330
5
100
AcDbSymbolTableRecord
100
AcDbTextStyleTableRecord
  2
Standard
 70
0
 40
0.0
 41
1.0
 50
0.0
 71
0
 42
2.5
  3
txt
  4

  0
ENDTAB
  0
TABLE
  2
VIEW
  5
7
330
0
100
AcDbSymbolTable
 70
0
  0
ENDTAB
  0
TABLE
  2
UCS
  5
6
330
0
100
AcDbSymbolTable
 70
0
  0
ENDTAB
  0
TABLE
  2
APPID
  5
3
330
0
100
AcDbSymbolTable
 70
3
  0
APPID
  5
2A
330
3
100
AcDbSymbolTableRecord
100
AcDbRegAppTableRecord
  2
ACAD
 70
0
  0
APPID
  5
A5
330
3
100
AcDbSymbolTableRecord
100
AcDbRegAppTableRecord
  2
HATCHBACKGROUNDCOLOR
 70
0
  0
APPID
  5
A6
330
3
100
AcDbSymbolTableRecord
100
AcDbRegAppTableRecord
  2
EZDXF
 70
0
  0
ENDTAB
  0
TABLE
  2
DIMSTYLE
  5
4
330
0
100
AcDbSymbolTable
 70
1
100
AcDbDimStyleTable
  0
DIMSTYLE
105
2B
330
4
100
AcDbSymbolTableRecord
100
AcDbDimStyleTableRecord
  2
Standard
 70
0
 40
1.0
 41
2.5
 42
0.625
 43
3.75
 44
1.25
 45
0.0
 46
0.0
 47
0.0
 48
0.0
 49
2.5
140
2.5
141
2.5
142
0.0
143
0.03937007874
144
1.0
145
0.0
146
1.0
147
0.625
148
0.0
 69
0
 70
0
 71
0
 72
0
 73
0
 74
0
 75
0
 76
0
 77
1
 78
8
 79
3
170
0
171
3
172
1
173
0
174
0
175
0
176
0
177
0
178
0
179
2
271
2
272
2
273
2
274
3
275
0
276
0
277
2
278
44
279
0
280
0
281
0
282
0
283
0
284
8
285
0
286
0
288
0
289
3
290
0
371
-2
372
-2
  0
ENDTAB
  0
TABLE
  2
BLOCK_RECORD
  5
9
330
0
100
AcDbSymbolTable
 70
2
  0
BLOCK_RECORD
  5
17
330
9
100
AcDbSymbolTableRecord
100
AcDbBlockTableRecord
  2
*Model_Space
340
1A
 70
0
280
1
281
0
  0
BLOCK_RECORD
  5
1B
330
9
100
AcDbSymbolTableRecord
100
AcDbBlockTableRecord
  2
*Paper_Space
340
1E
 70
0
280
1
281
0
  0
ENDTAB
  0
ENDSEC
  0
SECTION
  2
BLOCKS
  0
BLOCK
  5
18
330
17
100
AcDbEntity
  8
0
100
AcDbBlockBegin
  2
*Model_Space
 70
0
 10
0.0
 20
0.0
 30
0.0
  3
*Model_Space
  1

  0
ENDBLK
  5
19
330
17
100
AcDbEntity
  8
0
100
AcDbBlockEnd
  0
BLOCK
  5
1C
330
1B
100
AcDbEntity
  8
0
100
AcDbBlockBegin
  2
*Paper_Space
 70
0
 10
0.0
 20
0.0
 30
0.0
  3
*Paper_Space
  1

  0
ENDBLK
  5
1D
330
1B
100
AcDbEntity
  8
0
100
AcDbBlockEnd
  0
ENDSEC
  0
SECTION
  2
ENTITIES
  0
SPLINE
  5
30
330
17
100
AcDbEntity
  8
ID_CUT_SINGLELINE
100
AcDbSpline
 70
0
 71
3
 72
20
 73
16
 74
0
 40
0.0
 40
0.0
 40
0.0
 40
0.0
 40
1.0
 40
1.0
 40
1.0
 40
2.0
 40
2.0
 40
2.0
 40
3.0
 40
3.0
 40
3.0
 40
4.0
 40
4.0
 40
4.0
 40
5.0
 40
5.0
 40
5.0
 40
5.0
 10
0.0
 20
0.0
 30
0.0
 10
0.8595506233646434
 20
2.292134995639049
 30
0.0
 10
1.7191012467292868
 20
4.584269991278098
 30
0.0
 10
2.57865187009393
 20
6.876404986917146
 30
0.0
 10
2.8595506233646435
 20
7.625468328972382
 30
0.0
 10
3.4000000000000004
 20
8.0
 30
0.0
 10
4.2
 20
8.0
 30
0.0
 10
6.066666666666667
 20
8.0
 30
0.0
 10
7.933333333333334
 20
8.0
 30
0.0
 10
9.8
 20
8.0
 30
0.0
 10
10.6
 20
8.0
 30
0.0
 10
11.140449376635356
 20
7.625468328972382
 30
0.0
 10
11.42134812990607
 20
6.876404986917146
 30
0.0
 10
12.280898753270714
 20
4.584269991278098
 30
0.0
 10
13.140449376635358
 20
2.292134995639049
 30
0.0
 10
14.0
 20
0.0
 30
0.0
  0
SPLINE
  5
31
330
17
100
AcDbEntity
  8
ID_CUT_SINGLELINE
100
AcDbSpline
 70
0
 71
3
 72
17
 73
13
 74
0
 40
0.0
 40
0.0
 40
0.0
 40
0.0
 40
1.0
 40
1.0
 40
1.0
 40
2.0
 40
2.0
 40
2.0
 40
3.0
 40
3.0
 40
3.0
 40
4.0
 40
4.0
 40
4.0
 40
4.0
 10
4.2
 20
11.2
 30
0.0
 10
4.633333333333334
 20
13.066666666666668
 30
0.0
 10
5.066666666666666
 20
14.933333333333332
 30
0.0
 10
5.5
 20
16.8
 30
0.0
 10
6.02
 20
19.04
 30
0.0
 10
6.2
 20
20.0
 30
0.0
 10
7.0
 20
20.0
 30
0.0
 10
7.8
 20
20.0
 30
0.0
 10
7.98
 20
19.04
 30
0.0
 10
8.5
 20
16.8
 30
0.0
 10
8.933333333333334
 20
14.933333333333332
 30
0.0
 10
9.366666666666667
 20
13.066666666666668
 30
0.0
 10
9.8
 20
11.2
 30
0.0
  0
SPLINE
  5
32
330
17
100
AcDbEntity
  8
ID_CUT_SINGLELINE
100
AcDbSpline
 70
0
 71
3
 72
26
 73
22
 74
0
 40
0.0
 40
0.0
 40
0.0
 40
0.0
 40
1.0
 40
1.0
 40
1.0
 40
2.0
 40
2.0
 40
2.0
 40
3.0
 40
3.0
 40
3.0
 40
4.0
 40
4.0
 40
4.0
 40
5.0
 40
5.0
 40
5.0
 40
6.0
 40
6.0
 40
6.0
 40
7.0
 40
7.0
 40
7.0
 40
7.0
 10
27.646572751793556
 20
19.34543407053208
 30
0.0
 10
26.710368368179118
 20
19.790510099762436
 30
0.0
 10
25.494844117581266
 20
19.999999999999996
 30
0.0
 10
24.0
 20
19.999999999999996
 30
0.0
 10
22.666666666666664
 20
19.999999999999996
 30
0.0
 10
21.333333333333332
 20
19.999999999999996
 30
0.0
 10
20.0
 20
19.999999999999996
 30
0.0
 10
18.667
 20
19.999999999999996
 30
0.0
 10
18.0
 20
19.332999999999995
 30
0.0
 10
18.0
 20
17.999999999999996
 30
0.0
 10
18.0
 20
12.666666666666664
 30
0.0
 10
18.0
 20
7.333333333333332
 30
0.0
 10
18.0
 20
1.9999999999999996
 30
0.0
 10
18.0
 20
0.6669999999999999
 30
0.0
 10
18.667
 20
0.0
 30
0.0
 10
20.0
 20
0.0
 30
0.0
 10
21.333333333333332
 20
0.0
 30
0.0
 10
22.666666666666664
 20
0.0
 30
0.0
 10
24.0
 20
0.0
 30
0.0
 10
25.494844117581266
 20
0.0
 30
0.0
 10
26.710368368179118
 20
0.20948990023756048
 30
0.0
 10
27.646572751793556
 20
0.6545659294679175
 30
0.0
  0
SPLINE
  5
33
330
17
100
AcDbEntity
  8
ID_CUT_SINGLELINE
100
AcDbSpline
 70
0
 71
3
 72
11
 73
7
 74
0
 40
0.0
 40
0.0
 40
0.0
 40
0.0
 40
1.0
 40
1.0
 40
1.0
 40
2.0
 40
2.0
 40
2.0
 40
2.0
 10
29.672274928433886
 20
17.132623484070912
 30
0.0
 10
29.89075830947796
 20
16.52673551524518
 30
0.0
 10
29.999999999999996
 20
15.817988602883606
 30
0.0
 10
29.999999999999996
 20
14.999999999999996
 30
0.0
 10
29.999999999999996
 20
12.865330854087727
 30
0.0
 10
28.987375030553373
 20
11.236974192898773
 30
0.0
 10
26.96212509166012
 20
10.475199896209475
 30
0.0
  0
SPLINE
  5
34
330
17
100
AcDbEntity
  8
ID_CUT_SINGLELINE
100
AcDbSpline
 70
0
 71
3
 72
11
 73
7
 74
0
 40
0.0
 40
0.0
 40
0.0
 40
0.0
 40
1.0
 40
1.0
 40
1.0
 40
2.0
 40
2.0
 40
2.0
 40
2.0
 10
29.672274928433886
 20
2.867376515929084
 30
0.0
 10
29.89075830947796
 20
3.473264484754817
 30
0.0
 10
29.999999999999996
 20
4.18201139711639
 30
0.0
 10
29.999999999999996
 20
4.999999999999999
 30
0.0
 10
29.999999999999996
 20
7.134669145912268
 30
0.0
 10
28.987375030553373
 20
8.763025807101224
 30
0.0
 10
26.96212509166012
 20
9.524800103790522
 30
0.0
  0
LINE
  5
35
330
17
100
AcDbEntity
  8
ID_CUT_SINGLELINE
100
AcDbLine
 10
18.0
 20
9.999999999999998
 30
0.0
 11
24.0
 21
9.999999999999998
 31
0.0
  0
SPLINE
  5
36
330
17
100
AcDbEntity
  8
ID_CUT_SINGLELINE
100
AcDbSpline
 70
0
 71
3
 72
20
 73
16
 74
0
 40
0.0
 40
0.0
 40
0.0
 40
0.0
 40
1.0
 40
1.0
 40
1.0
 40
2.0
 40
2.0
 40
2.0
 40
3.0
 40
3.0
 40
3.0
 40
4.0
 40
4.0
 40
4.0
 40
5.0
 40
5.0
 40
5.0
 40
5.0
 10
46.0
 20
18.0
 30
0.0
 10
44.0
 20
19.5
 30
0.0
 10
42.5
 20
20.0
 30
0.0
 10
40.0
 20
20.0
 30
0.0
 10
36.0
 20
20.0
 30
0.0
 10
34.0
 20
17.0
 30
0.0
 10
34.0
 20
13.0
 30
0.0
 10
34.0
 20
11.0
 30
0.0
 10
34.0
 20
9.0
 30
0.0
 10
34.0
 20
7.0
 30
0.0
 10
34.0
 20
3.0
 30
0.0
 10
36.0
 20
0.0
 30
0.0
 10
40.0
 20
0.0
 30
0.0
 10
42.5
 20
0.0
 30
0.0
 10
44.0
 20
0.5
 30
0.0
 10
46.0
 20
2.0
 30
0.0
  0
SPLINE
  5
37
330
17
100
AcDbEntity
  8
ID_CUT_SINGLELINE
100
AcDbSpline
 70
0
 71
3
 72
17
 73
13
 74
0
 40
0.0
 40
0.0
 40
0.0
 40
0.0
 40
1.0
 40
1.0
 40
1.0
 40
2.0
 40
2.0
 40
2.0
 40
3.0
 40
3.0
 40
3.0
 40
4.0
 40
4.0
 40
4.0
 40
4.0
 10
50.0
 20
11.499999999999998
 30
0.0
 10
50.0
 20
13.666666666666664
 30
0.0
 10
50.0
 20
15.83333333333333
 30
0.0
 10
50.0
 20
17.999999999999996
 30
0.0
 10
50.0
 20
19.329999999999995
 30
0.0
 10
50.67
 20
19.999999999999996
 30
0.0
 10
52.0
 20
19.999999999999996
 30
0.0
 10
53.0
 20
19.999999999999996
 30
0.0
 10
54.0
 20
19.999999999999996
 30
0.0
 10
55.0
 20
19.999999999999996
 30
0.0
 10
60.0
 20
19.999999999999996
 30
0.0
 10
63.0
 20
16.999999999999996
 30
0.0
 10
63.0
 20
11.499999999999998
 30
0.0
  0
SPLINE
  5
38
330
17
100
AcDbEntity
  8
ID_CUT_SINGLELINE
100
AcDbSpline
 70
0
 71
3
 72
17
 73
13
 74
0
 40
0.0
 40
0.0
 40
0.0
 40
0.0
 40
1.0
 40
1.0
 40
1.0
 40
2.0
 40
2.0
 40
2.0
 40
3.0
 40
3.0
 40
3.0
 40
4.0
 40
4.0
 40
4.0
 40
4.0
 10
50.0
 20
8.499999999999998
 30
0.0
 10
50.0
 20
6.333333333333332
 30
0.0
 10
50.0
 20
4.166666666666665
 30
0.0
 10
50.0
 20
1.9999999999999996
 30
0.0
 10
50.0
 20
0.6700000000000016
 30
0.0
 10
50.67
 20
0.0
 30
0.0
 10
52.0
 20
0.0
 30
0.0
 10
53.0
 20
0.0
 30
0.0
 10
54.0
 20
0.0
 30
0.0
 10
55.0
 20
0.0
 30
0.0
 10
60.0
 20
0.0
 30
0.0
 10
63.0
 20
2.999999999999999
 30
0.0
 10
63.0
 20
8.499999999999998
 30
0.0
  0
SPLINE
  5
39
330
17
100
AcDbEntity
  8
ID_CUT_SINGLELINE
100
AcDbSpline
 70
0
 71
3
 72
20
 73
16
 74
0
 40
0.0
 40
0.0
 40
0.0
 40
0.0
 40
1.0
 40
1.0
 40
1.0
 40
2.0
 40
2.0
 40
2.0
 40
3.0
 40
3.0
 40
3.0
 40
4.0
 40
4.0
 40
4.0
 40
5.0
 40
5.0
 40
5.0
 40
5.0
 10
79.0
 20
19.999999999999996
 30
0.0
 10
75.66666666666666
 20
19.999999999999996
 30
0.0
 10
72.33333333333333
 20
19.999999999999996
 30
0.0
 10
69.0
 20
19.999999999999996
 30
0.0
 10
67.66666666666667
 20
19.999999999999996
 30
0.0
 10
67.0
 20
19.33333333333333
 30
0.0
 10
67.0
 20
17.999999999999996
 30
0.0
 10
67.0
 20
12.666666666666664
 30
0.0
 10
67.0
 20
7.333333333333332
 30
0.0
 10
67.0
 20
1.9999999999999996
 30
0.0
 10
67.0
 20
0.6666666666666666
 30
0.0
 10
67.66666666666667
 20
0.0
 30
0.0
 10
69.0
 20
0.0
 30
0.0
 10
72.33333333333333
 20
0.0
 30
0.0
 10
75.66666666666666
 20
0.0
 30
0.0
 10
79.0
 20
0.0
 30
0.0
  0
LINE
  5
3A
330
17
100
AcDbEntity
  8
ID_CUT_SINGLELINE
100
AcDbLine
 10
67.0
 20
9.999999999999998
 30
0.0
 11
76.0
 21
9.999999999999998
 31
0.0
  0
SPLINE
  5
3B
330
17
100
AcDbEntity
  8
ID_CUT_SINGLELINE
100
AcDbSpline
 70
0
 71
3
 72
14
 73
10
 74
0
 40
0.0
 40
0.0
 40
0.0
 40
0.0
 40
1.0
 40
1.0
 40
1.0
 40
2.0
 40
2.0
 40
2.0
 40
3.0
 40
3.0
 40
3.0
 40
3.0
 10
83.0
 20
0.0
 30
0.0
 10
83.0
 20
5.999999999999999
 30
0.0
 10
83.0
 20
11.999999999999998
 30
0.0
 10
83.0
 20
17.999999999999996
 30
0.0
 10
83.0
 20
19.33333333333333
 30
0.0
 10
83.66666666666667
 20
19.999999999999996
 30
0.0
 10
85.0
 20
19.999999999999996
 30
0.0
 10
88.33333333333333
 20
19.999999999999996
 30
0.0
 10
91.66666666666666
 20
19.999999999999996
 30
0.0
 10
95.0
 20
19.999999999999996
 30
0.0
  0
LINE
  5
3C
330
17
100
AcDbEntity
  8
ID_CUT_SINGLELINE
100
AcDbLine
 10
83.0
 20
10.999999999999998
 30
0.0
 11
92.0
 21
10.999999999999998
 31
0.0
  0
SPLINE
  5
3D
330
17
100
AcDbEntity
  8
ID_CUT_SINGLELINE
100
AcDbSpline
 70
0
 71
3
 72
29
 73
25
 74
0
 40
0.0
 40
0.0
 40
0.0
 40
0.0
 40
1.0
 40
1.0
 40
1.0
 40
2.0
 40
2.0
 40
2.0
 40
3.0
 40
3.0
 40
3.0
 40
4.0
 40
4.0
 40
4.0
 40
5.0
 40
5.0
 40
5.0
 40
6.0
 40
6.0
 40
6.0
 40
7.0
 40
7.0
 40
7.0
 40
8.0
 40
8.0
 40
8.0
 40
8.0
 10
111.0
 20
18.0
 30
0.0
 10
109.0
 20
19.5
 30
0.0
 10
107.5
 20
20.0
 30
0.0
 10
105.0
 20
20.0
 30
0.0
 10
101.0
 20
20.0
 30
0.0
 10
99.0
 20
17.0
 30
0.0
 10
99.0
 20
13.0
 30
0.0
 10
99.0
 20
11.0
 30
0.0
 10
99.0
 20
9.0
 30
0.0
 10
99.0
 20
7.0
 30
0.0
 10
99.0
 20
3.0
 30
0.0
 10
101.0
 20
0.0
 30
0.0
 10
105.0
 20
0.0
 30
0.0
 10
109.0
 20
0.0
 30
0.0
 10
111.0
 20
2.0
 30
0.0
 10
111.0
 20
6.0
 30
0.0
 10
111.0
 20
6.666666666666667
 30
0.0
 10
111.0
 20
7.333333333333333
 30
0.0
 10
111.0
 20
8.0
 30
0.0
 10
111.0
 20
9.33
 30
0.0
 10
110.33
 20
10.0
 30
0.0
 10
109.0
 20
10.0
 30
0.0
 10
108.0
 20
10.0
 30
0.0
 10
107.0
 20
10.0
 30
0.0
 10
106.0
 20
10.0
 30
0.0
  0
LINE
  5
3E
330
17
100
AcDbEntity
  8
ID_CUT_SINGLELINE
100
AcDbLine
 10
115.0
 20
0.0
 30
0.0
 11
115.0
 21
20.0
 31
0.0
  0
LINE
  5
3F
330
17
100
AcDbEntity
  8
ID_CUT_SINGLELINE
100
AcDbLine
 10
127.0
 20
0.0
 30
0.0
 11
127.0
 21
20.0
 31
0.0
  0
LINE
  5
40
330
17
100
AcDbEntity
  8
ID_CUT_SINGLELINE
100
AcDbLine
 10
115.0
 20
10.0
 30
0.0
 11
127.0
 21
10.0
 31
0.0
  0
LINE
  5
41
330
17
100
AcDbEntity
  8
ID_CUT_SINGLELINE
100
AcDbLine
 10
131.0
 20
19.999999999999996
 30
0.0
 11
139.0
 21
19.999999999999996
 31
0.0
  0
LINE
  5
42
330
17
100
AcDbEntity
  8
ID_CUT_SINGLELINE
100
AcDbLine
 10
135.0
 20
19.999999999999996
 30
0.0
 11
135.0
 21
0.0
 31
0.0
  0
LINE
  5
43
330
17
100
AcDbEntity
  8
ID_CUT_SINGLELINE
100
AcDbLine
 10
131.0
 20
0.0
 30
0.0
 11
139.0
 21
0.0
 31
0.0
  0
SPLINE
  5
44
330
17
100
AcDbEntity
  8
ID_CUT_SINGLELINE
100
AcDbSpline
 70
0
 71
3
 72
14
 73
10
 74
0
 40
0.0
 40
0.0
 40
0.0
 40
0.0
 40
1.0
 40
1.0
 40
1.0
 40
2.0
 40
2.0
 40
2.0
 40
3.0
 40
3.0
 40
3.0
 40
3.0
 10
154.0
 20
20.0
 30
0.0
 10
154.0
 20
15.333333333333334
 30
0.0
 10
154.0
 20
10.666666666666666
 30
0.0
 10
154.0
 20
6.0
 30
0.0
 10
154.0
 20
2.0
 30
0.0
 10
152.0
 20
0.0
 30
0.0
 10
148.5
 20
0.0
 30
0.0
 10
145.0
 20
0.0
 30
0.0
 10
143.0
 20
2.0
 30
0.0
 10
143.0
 20
5.0
 30
0.0
  0
LINE
  5
45
330
17
100
AcDbEntity
  8
ID_CUT_SINGLELINE
100
AcDbLine
 10
158.0
 20
0.0
 30
0.0
 11
158.0
 21
20.0
 31
0.0
  0
SPLINE
  5
46
330
17
100
AcDbEntity
  8
ID_CUT_SINGLELINE
100
AcDbSpline
 70
0
 71
3
 72
11
 73
7
 74
0
 40
0.0
 40
0.0
 40
0.0
 40
0.0
 40
1.0
 40
1.0
 40
1.0
 40
2.0
 40
2.0
 40
2.0
 40
2.0
 10
170.0
 20
20.0
 30
0.0
 10
164.0
 20
15.0
 30
0.0
 10
158.0
 20
14.0
 30
0.0
 10
158.0
 20
10.0
 30
0.0
 10
158.0
 20
6.0
 30
0.0
 10
164.0
 20
5.0
 30
0.0
 10
170.0
 20
0.0
 30
0.0
  0
SPLINE
  5
47
330
17
100
AcDbEntity
  8
ID_CUT_SINGLELINE
100
AcDbSpline
 70
0
 71
3
 72
14
 73
10
 74
0
 40
0.0
 40
0.0
 40
0.0
 40
0.0
 40
1.0
 40
1.0
 40
1.0
 40
2.0
 40
2.0
 40
2.0
 40
3.0
 40
3.0
 40
3.0
 40
3.0
 10
174.0
 20
20.0
 30
0.0
 10
174.0
 20
14.0
 30
0.0
 10
174.0
 20
8.0
 30
0.0
 10
174.0
 20
2.0
 30
0.0
 10
174.0
 20
0.6666666666666667
 30
0.0
 10
174.66666666666666
 20
0.0
 30
0.0
 10
176.0
 20
0.0
 30
0.0
 10
179.33333333333334
 20
0.0
 30
0.0
 10
182.66666666666666
 20
0.0
 30
0.0
 10
186.0
 20
0.0
 30
0.0
  0
SPLINE
  5
48
330
17
100
AcDbEntity
  8
ID_CUT_SINGLELINE
100
AcDbSpline
 70
0
 71
3
 72
26
 73
22
 74
0
 40
0.0
 40
0.0
 40
0.0
 40
0.0
 40
1.0
 40
1.0
 40
1.0
 40
2.0
 40
2.0
 40
2.0
 40
3.0
 40
3.0
 40
3.0
 40
4.0
 40
4.0
 40
4.0
 40
5.0
 40
5.0
 40
5.0
 40
6.0
 40
6.0
 40
6.0
 40
7.0
 40
7.0
 40
7.0
 40
7.0
 10
190.0
 20
0.0
 30
0.0
 10
190.0
 20
6.4406879979869
 30
0.0
 10
190.0
 20
12.8813759959738
 30
0.0
 10
190.0
 20
19.3220639939607
 30
0.0
 10
190.0
 20
20.14427948306541
 30
0.0
 10
190.2357548109769
 20
20.218594640507888
 30
0.0
 10
190.70726443293074
 20
19.545009466288132
 30
0.0
 10
192.63388332086566
 20
16.79269676923826
 30
0.0
 10
194.56050220880056
 20
14.040384072188388
 30
0.0
 10
196.48712109673548
 20
11.288071375138514
 30
0.0
 10
196.9586307186893
 20
10.614486200918758
 30
0.0
 10
197.43014034064313
 20
10.614486200918758
 30
0.0
 10
197.90164996259696
 20
11.288071375138514
 30
0.0
 10
199.82826885053186
 20
14.040384072188388
 30
0.0
 10
201.75488773846678
 20
16.79269676923826
 30
0.0
 10
203.6815066264017
 20
19.545009466288132
 30
0.0
 10
204.15301624835553
 20
20.218594640507888
 30
0.0
 10
204.38877105933244
 20
20.14427948306541
 30
0.0
 10
204.38877105933244
 20
19.3220639939607
 30
0.0
 10
204.38877105933244
 20
12.8813759959738
 30
0.0
 10
204.38877105933244
 20
6.4406879979869
 30
0.0
 10
204.38877105933244
 20
0.0
 30
0.0
  0
SPLINE
  5
49
330
17
100
AcDbEntity
  8
ID_CUT_SINGLELINE
100
AcDbSpline
 70
0
 71
3
 72
20
 73
16
 74
0
 40
0.0
 40
0.0
 40
0.0
 40
0.0
 40
1.0
 40
1.0
 40
1.0
 40
2.0
 40
2.0
 40
2.0
 40
3.0
 40
3.0
 40
3.0
 40
4.0
 40
4.0
 40
4.0
 40
5.0
 40
5.0
 40
5.0
 40
5.0
 10
0.0
 20
-35.0
 30
0.0
 10
0.0
 20
-28.8
 30
0.0
 10
0.0
 20
-22.6
 30
0.0
 10
0.0
 20
-16.4
 30
0.0
 10
0.0
 20
-15.466666666666665
 30
0.0
 10
0.2543278969445266
 20
-15.391273687606965
 30
0.0
 10
0.7629836908335798
 20
-16.173821062820892
 30
0.0
 10
4.5876612302778605
 20
-22.057940354273633
 30
0.0
 10
8.41233876972214
 20
-27.94205964572637
 30
0.0
 10
12.237016309166421
 20
-33.82617893717911
 30
0.0
 10
12.745672103055474
 20
-34.60872631239304
 30
0.0
 10
13.0
 20
-34.53333333333333
 30
0.0
 10
13.0
 20
-33.6
 30
0.0
 10
13.0
 20
-27.4
 30
0.0
 10
13.0
 20
-21.200000000000003
 30
0.0
 10
13.0
 20
-15.0
 30
0.0
  0
SPLINE
  5
4A
330
17
100
AcDbEntity
  8
ID_CUT_SINGLELINE
100
AcDbSpline
 70
0
 71
3
 72
11
 73
7
 74
0
 40
0.0
 40
0.0
 40
0.0
 40
0.0
 40
1.0
 40
1.0
 40
1.0
 40
2.0
 40
2.0
 40
2.0
 40
2.0
 10
28.864231959971114
 20
-23.5
 30
0.0
 10
28.419307982028144
 20
-18.612332149195865
 30
0.0
 10
25.89827583293869
 20
-15.0
 30
0.0
 10
22.932115979985557
 20
-15.0
 30
0.0
 10
19.965956127032424
 20
-15.0
 30
0.0
 10
17.44492397794297
 20
-18.612332149195865
 30
0.0
 10
17.0
 20
-23.5
 30
0.0
  0
SPLINE
  5
4B
330
17
100
AcDbEntity
  8
ID_CUT_SINGLELINE
100
AcDbSpline
 70
0
 71
3
 72
11
 73
7
 74
0
 40
0.0
 40
0.0
 40
0.0
 40
0.0
 40
1.0
 40
1.0
 40
1.0
 40
2.0
 40
2.0
 40
2.0
 40
2.0
 10
17.0
 20
-26.5
 30
0.0
 10
17.44492397794297
 20
-31.38766785080413
 30
0.0
 10
19.965956127032424
 20
-35.0
 30
0.0
 10
22.932115979985557
 20
-35.0
 30
0.0
 10
25.898275832938687
 20
-35.0
 30
0.0
 10
28.419307982028144
 20
-31.38766785080414
 30
0.0
 10
28.864231959971114
 20
-26.500000000000007
 30
0.0
  0
SPLINE
  5
4C
330
17
100
AcDbEntity
  8
ID_CUT_SINGLELINE
100
AcDbSpline
 70
0
 71
3
 72
17
 73
13
 74
0
 40
0.0
 40
0.0
 40
0.0
 40
0.0
 40
1.0
 40
1.0
 40
1.0
 40
2.0
 40
2.0
 40
2.0
 40
3.0
 40
3.0
 40
3.0
 40
4.0
 40
4.0
 40
4.0
 40
4.0
 10
32.864231959971114
 20
-35.0
 30
0.0
 10
32.864231959971114
 20
-28.833333333333336
 30
0.0
 10
32.864231959971114
 20
-22.66666666666667
 30
0.0
 10
32.864231959971114
 20
-16.500000000000004
 30
0.0
 10
32.864231959971114
 20
-15.500000000000004
 30
0.0
 10
33.364231959971114
 20
-15.000000000000004
 30
0.0
 10
34.364231959971114
 20
-15.000000000000004
 30
0.0
 10
35.864231959971114
 20
-15.000000000000004
 30
0.0
 10
37.364231959971114
 20
-15.000000000000004
 30
0.0
 10
38.864231959971114
 20
-15.000000000000004
 30
0.0
 10
40.373435783757174
 20
-15.000000000000004
 30
0.0
 10
41.59792758482693
 20
-15.284712022716313
 30
0.0
 10
42.537707363180374
 20
-15.800425008978767
 30
0.0
  0
SPLINE
  5
4D
330
17
100
AcDbEntity
  8
ID_CUT_SINGLELINE
100
AcDbSpline
 70
0
 71
3
 72
14
 73
10
 74
0
 40
0.0
 40
0.0
 40
0.0
 40
0.0
 40
1.0
 40
1.0
 40
1.0
 40
2.0
 40
2.0
 40
2.0
 40
3.0
 40
3.0
 40
3.0
 40
3.0
 10
44.52636149781233
 20
-18.046589458170146
 30
0.0
 10
44.75160847258485
 20
-18.632506008014037
 30
0.0
 10
44.86423195997111
 20
-19.288097132160456
 30
0.0
 10
44.86423195997111
 20
-20.000000000000004
 30
0.0
 10
44.86423195997111
 20
-23.000000000000004
 30
0.0
 10
42.864231959971114
 20
-25.0
 30
0.0
 10
38.864231959971114
 20
-25.0
 30
0.0
 10
37.864231959971114
 20
-25.0
 30
0.0
 10
36.864231959971114
 20
-25.0
 30
0.0
 10
35.864231959971114
 20
-25.0
 30
0.0
  0
SPLINE
  5
4E
330
17
100
AcDbEntity
  8
ID_CUT_SINGLELINE
100
AcDbSpline
 70
0
 71
3
 72
11
 73
7
 74
0
 40
0.0
 40
0.0
 40
0.0
 40
0.0
 40
1.0
 40
1.0
 40
1.0
 40
2.0
 40
2.0
 40
2.0
 40
2.0
 10
60.72846391994222
 20
-23.5
 30
0.0
 10
60.28353994199925
 20
-18.612332149195865
 30
0.0
 10
57.7625077929098
 20
-15.0
 30
0.0
 10
54.79634793995666
 20
-15.0
 30
0.0
 10
51.830188087003535
 20
-15.0
 30
0.0
 10
49.30915593791408
 20
-18.612332149195865
 30
0.0
 10
48.86423195997111
 20
-23.5
 30
0.0
  0
SPLINE
  5
4F
330
17
100
AcDbEntity
  8
ID_CUT_SINGLELINE
100
AcDbSpline
 70
0
 71
3
 72
11
 73
7
 74
0
 40
0.0
 40
0.0
 40
0.0
 40
0.0
 40
1.0
 40
1.0
 40
1.0
 40
2.0
 40
2.0
 40
2.0
 40
2.0
 10
48.86423195997111
 20
-26.5
 30
0.0
 10
49.30915593791408
 20
-31.38766785080413
 30
0.0
 10
51.830188087003535
 20
-35.0
 30
0.0
 10
54.79634793995666
 20
-35.0
 30
0.0
 10
57.762507792909794
 20
-35.0
 30
0.0
 10
60.28353994199925
 20
-31.38766785080414
 30
0.0
 10
60.72846391994222
 20
-26.500000000000007
 30
0.0
  0
LINE
  5
50
330
17
100
AcDbEntity
  8
ID_CUT_SINGLELINE
100
AcDbLine
 10
59.01520393082887
 20
-32.11062635857214
 30
0.0
 11
62.79634793995666
 21
-35.0
 31
0.0
  0
SPLINE
  5
51
330
17
100
AcDbEntity
  8
ID_CUT_SINGLELINE
100
AcDbSpline
 70
0
 71
3
 72
17
 73
13
 74
0
 40
0.0
 40
0.0
 40
0.0
 40
0.0
 40
1.0
 40
1.0
 40
1.0
 40
2.0
 40
2.0
 40
2.0
 40
3.0
 40
3.0
 40
3.0
 40
4.0
 40
4.0
 40
4.0
 40
4.0
 10
66.79634793995666
 20
-35.0
 30
0.0
 10
66.79634793995666
 20
-28.833333333333336
 30
0.0
 10
66.79634793995666
 20
-22.66666666666667
 30
0.0
 10
66.79634793995666
 20
-16.500000000000004
 30
0.0
 10
66.79634793995666
 20
-15.500000000000004
 30
0.0
 10
67.29634793995666
 20
-15.000000000000004
 30
0.0
 10
68.29634793995666
 20
-15.000000000000004
 30
0.0
 10
69.79634793995666
 20
-15.000000000000004
 30
0.0
 10
71.29634793995666
 20
-15.000000000000004
 30
0.0
 10
72.79634793995666
 20
-15.000000000000004
 30
0.0
 10
74.30555176374273
 20
-15.000000000000004
 30
0.0
 10
75.53004356481247
 20
-15.284712022716313
 30
0.0
 10
76.46982334316593
 20
-15.800425008978767
 30
0.0
  0
SPLINE
  5
52
330
17
100
AcDbEntity
  8
ID_CUT_SINGLELINE
100
AcDbSpline
 70
0
 71
3
 72
14
 73
10
 74
0
 40
0.0
 40
0.0
 40
0.0
 40
0.0
 40
1.0
 40
1.0
 40
1.0
 40
2.0
 40
2.0
 40
2.0
 40
3.0
 40
3.0
 40
3.0
 40
3.0
 10
78.45847747779789
 20
-18.046589458170146
 30
0.0
 10
78.6837244525704
 20
-18.632506008014037
 30
0.0
 10
78.79634793995666
 20
-19.288097132160456
 30
0.0
 10
78.79634793995666
 20
-20.000000000000004
 30
0.0
 10
78.79634793995666
 20
-23.000000000000004
 30
0.0
 10
76.79634793995666
 20
-25.0
 30
0.0
 10
72.79634793995666
 20
-25.0
 30
0.0
 10
71.79634793995666
 20
-25.0
 30
0.0
 10
70.79634793995666
 20
-25.0
 30
0.0
 10
69.79634793995666
 20
-25.0
 30
0.0
  0
LINE
  5
53
330
17
100
AcDbEntity
  8
ID_CUT_SINGLELINE
100
AcDbLine
 10
66.79634793995666
 20
-25.0
 30
0.0
 11
78.79634793995666
 21
-35.0
 31
0.0
  0
SPLINE
  5
54
330
17
100
AcDbEntity
  8
ID_CUT_SINGLELINE
100
AcDbSpline
 70
0
 71
3
 72
23
 73
19
 74
0
 40
0.0
 40
0.0
 40
0.0
 40
0.0
 40
1.0
 40
1.0
 40
1.0
 40
2.0
 40
2.0
 40
2.0
 40
3.0
 40
3.0
 40
3.0
 40
4.0
 40
4.0
 40
4.0
 40
5.0
 40
5.0
 40
5.0
 40
6.0
 40
6.0
 40
6.0
 40
6.0
 10
94.79634793995666
 20
-17.0
 30
0.0
 10
93.29634793995666
 20
-15.5
 30
0.0
 10
91.29634793995666
 20
-15.0
 30
0.0
 10
88.79634793995666
 20
-15.0
 30
0.0
 10
85.19634793995667
 20
-15.0
 30
0.0
 10
82.79634793995666
 20
-16.8
 30
0.0
 10
82.79634793995666
 20
-19.8
 30
0.0
 10
82.79634793995666
 20
-22.8
 30
0.0
 10
86.29634793995666
 20
-24.0
 30
0.0
 10
88.79634793995666
 20
-25.0
 30
0.0
 10
91.29634793995666
 20
-26.0
 30
0.0
 10
94.79634793995666
 20
-27.2
 30
0.0
 10
94.79634793995666
 20
-30.2
 30
0.0
 10
94.79634793995666
 20
-33.2
 30
0.0
 10
92.39634793995666
 20
-35.0
 30
0.0
 10
88.79634793995666
 20
-35.0
 30
0.0
 10
86.29634793995666
 20
-35.0
 30
0.0
 10
84.29634793995666
 20
-34.5
 30
0.0
 10
82.79634793995666
 20
-33.0
 30
0.0
  0
LINE
  5
55
330
17
100
AcDbEntity
  8
ID_CUT_SINGLELINE
100
AcDbLine
 10
98.79634793995666
 20
-15.000000000000004
 30
0.0
 11
112.79634793995666
 21
-15.000000000000004
 31
0.0
  0
LINE
  5
56
330
17
100
AcDbEntity
  8
ID_CUT_SINGLELINE
100
AcDbLine
 10
105.79634793995666
 20
-15.000000000000004
 30
0.0
 11
105.79634793995666
 21
-35.0
 31
0.0
  0
SPLINE
  5
57
330
17
100
AcDbEntity
  8
ID_CUT_SINGLELINE
100
AcDbSpline
 70
0
 71
3
 72
17
 73
13
 74
0
 40
0.0
 40
0.0
 40
0.0
 40
0.0
 40
1.0
 40
1.0
 40
1.0
 40
2.0
 40
2.0
 40
2.0
 40
3.0
 40
3.0
 40
3.0
 40
4.0
 40
4.0
 40
4.0
 40
4.0
 10
116.79634793995666
 20
-15.0
 30
0.0
 10
116.79634793995666
 20
-19.666666666666664
 30
0.0
 10
116.79634793995666
 20
-24.333333333333336
 30
0.0
 10
116.79634793995666
 20
-29.0
 30
0.0
 10
116.79634793995666
 20
-33.0
 30
0.0
 10
118.79634793995666
 20
-35.0
 30
0.0
 10
122.79634793995666
 20
-35.0
 30
0.0
 10
126.79634793995666
 20
-35.0
 30
0.0
 10
128.79634793995666
 20
-33.0
 30
0.0
 10
128.79634793995666
 20
-29.0
 30
0.0
 10
128.79634793995666
 20
-24.333333333333336
 30
0.0
 10
128.79634793995666
 20
-19.666666666666664
 30
0.0
 10
128.79634793995666
 20
-15.0
 30
0.0
  0
SPLINE
  5
58
330
17
100
AcDbEntity
  8
ID_CUT_SINGLELINE
100
AcDbSpline
 70
0
 71
3
 72
14
 73
10
 74
0
 40
0.0
 40
0.0
 40
0.0
 40
0.0
 40
1.0
 40
1.0
 40
1.0
 40
2.0
 40
2.0
 40
2.0
 40
3.0
 40
3.0
 40
3.0
 40
3.0
 10
132.79634793995666
 20
-15.0
 30
0.0
 10
134.6957474203345
 20
-21.33133160125945
 30
0.0
 10
136.59514690071234
 20
-27.662663202518893
 30
0.0
 10
138.49454638109017
 20
-33.99399480377834
 30
0.0
 10
138.89694845957882
 20
-35.33533506540722
 30
0.0
 10
139.2993505380675
 20
-35.33533506540722
 30
0.0
 10
139.70175261655615
 20
-33.99399480377834
 30
0.0
 10
141.601152096934
 20
-27.662663202518893
 30
0.0
 10
143.50055157731182
 20
-21.33133160125945
 30
0.0
 10
145.39995105768966
 20
-15.0
 30
0.0
  0
SPLINE
  5
59
330
17
100
AcDbEntity
  8
ID_CUT_SINGLELINE
100
AcDbSpline
 70
0
 71
3
 72
26
 73
22
 74
0
 40
0.0
 40
0.0
 40
0.0
 40
0.0
 40
1.0
 40
1.0
 40
1.0
 40
2.0
 40
2.0
 40
2.0
 40
3.0
 40
3.0
 40
3.0
 40
4.0
 40
4.0
 40
4.0
 40
5.0
 40
5.0
 40
5.0
 40
6.0
 40
6.0
 40
6.0
 40
7.0
 40
7.0
 40
7.0
 40
7.0
 10
149.39995105768966
 20
-15.0
 30
0.0
 10
150.35678678393705
 20
-21.378904841649224
 30
0.0
 10
151.31362251018442
 20
-27.757809683298447
 30
0.0
 10
152.2704582364318
 20
-34.13671452494767
 30
0.0
 10
152.4348652212972
 20
-35.232761090716835
 30
0.0
 10
152.7648940283173
 20
-35.285133744426616
 30
0.0
 10
153.2605446574921
 20
-34.293832486077
 30
0.0
 10
154.49662605945073
 20
-31.82166968215971
 30
0.0
 10
155.73270746140938
 20
-29.34950687824242
 30
0.0
 10
156.96878886336802
 20
-26.87734407432513
 30
0.0
 10
157.46443949254282
 20
-25.886042815975518
 30
0.0
 10
157.96009012171763
 20
-25.886042815975518
 30
0.0
 10
158.45574075089243
 20
-26.87734407432513
 30
0.0
 10
159.69182215285107
 20
-29.34950687824242
 30
0.0
 10
160.92790355480975
 20
-31.82166968215971
 30
0.0
 10
162.1639849567684
 20
-34.293832486077
 30
0.0
 10
162.6596355859432
 20
-35.285133744426616
 30
0.0
 10
162.98966439296328
 20
-35.232761090716835
 30
0.0
 10
163.15407137782864
 20
-34.13671452494767
 30
0.0
 10
164.11090710407603
 20
-27.757809683298447
 30
0.0
 10
165.06774283032343
 20
-21.378904841649224
 30
0.0
 10
166.02457855657082
 20
-15.0
 30
0.0
  0
LINE
  5
5A
330
17
100
AcDbEntity
  8
ID_CUT_SINGLELINE
100
AcDbLine
 10
170.02457855657082
 20
-15.0
 30
0.0
 11
182.02457855657082
 21
-35.0
 31
0.0
  0
LINE
  5
5B
330
17
100
AcDbEntity
  8
ID_CUT_SINGLELINE
100
AcDbLine
 10
170.02457855657082
 20
-35.0
 30
0.0
 11
175.25283492342953
 21
-26.286239388568816
 31
0.0
  0
LINE
  5
5C
330
17
100
AcDbEntity
  8
ID_CUT_SINGLELINE
100
AcDbLine
 10
176.7963221897121
 20
-23.713760611431184
 30
0.0
 11
182.02457855657082
 21
-15.0
 31
0.0
  0
SPLINE
  5
5D
330
17
100
AcDbEntity
  8
ID_CUT_SINGLELINE
100
AcDbSpline
 70
0
 71
3
 72
14
 73
10
 74
0
 40
0.0
 40
0.0
 40
0.0
 40
0.0
 40
1.0
 40
1.0
 40
1.0
 40
2.0
 40
2.0
 40
2.0
 40
3.0
 40
3.0
 40
3.0
 40
3.0
 10
186.02457855657082
 20
-15.0
 30
0.0
 10
187.76571846499905
 20
-17.61170986264234
 30
0.0
 10
189.50685837342726
 20
-20.22341972528468
 30
0.0
 10
191.2479982818555
 20
-22.83512958792702
 30
0.0
 10
191.76571846499905
 20
-23.61170986264234
 30
0.0
 10
192.28343864814258
 20
-23.61170986264234
 30
0.0
 10
192.80115883128613
 20
-22.83512958792702
 30
0.0
 10
194.54229873971437
 20
-20.22341972528468
 30
0.0
 10
196.28343864814258
 20
-17.61170986264234
 30
0.0
 10
198.02457855657082
 20
-15.0
 30
0.0
  0
LINE
  5
5E
330
17
100
AcDbEntity
  8
ID_CUT_SINGLELINE
100
AcDbLine
 10
192.02457855657082
 20
-23.417564793963507
 30
0.0
 11
192.02457855657082
 21
-35.0
 31
0.0
  0
SPLINE
  5
5F
330
17
100
AcDbEntity
  8
ID_CUT_SINGLELINE
100
AcDbSpline
 70
0
 71
3
 72
20
 73
16
 74
0
 40
0.0
 40
0.0
 40
0.0
 40
0.0
 40
1.0
 40
1.0
 40
1.0
 40
2.0
 40
2.0
 40
2.0
 40
3.0
 40
3.0
 40
3.0
 40
4.0
 40
4.0
 40
4.0
 40
5.0
 40
5.0
 40
5.0
 40
5.0
 10
202.02457855657082
 20
-15.000000000000004
 30
0.0
 10
205.55791188990415
 20
-15.000000000000004
 30
0.0
 10
209.09124522323748
 20
-15.000000000000004
 30
0.0
 10
212.6245785565708
 20
-15.000000000000004
 30
0.0
 10
213.55791188990415
 20
-15.000000000000004
 30
0.0
 10
213.7844805373713
 20
-15.400163365332524
 30
0.0
 10
213.30428449897227
 20
-16.200490095997566
 30
0.0
 10
209.7844805373713
 20
-22.06683003199919
 30
0.0
 10
206.26467657577032
 20
-27.933169968000815
 30
0.0
 10
202.74487261416937
 20
-33.79950990400244
 30
0.0
 10
202.26467657577032
 20
-34.59983663466748
 30
0.0
 10
202.49124522323748
 20
-35.0
 30
0.0
 10
203.42457855657082
 20
-35.0
 30
0.0
 10
206.95791188990415
 20
-35.0
 30
0.0
 10
210.49124522323748
 20
-35.0
 30
0.0
 10
214.02457855657082
 20
-35.0
 30
0.0
  0
SPLINE
  5
60
330
17
100
AcDbEntity
  8
ID_CUT_SINGLELINE
100
AcDbSpline
 70
0
 71
3
 72
11
 73
7
 74
0
 40
0.0
 40
0.0
 40
0.0
 40
0.0
 40
1.0
 40
1.0
 40
1.0
 40
2.0
 40
2.0
 40
2.0
 40
2.0
 10
9.886859966642593
 20
-58.5
 30
0.0
 10
9.516089985023452
 20
-53.612332149195865
 30
0.0
 10
7.415229860782241
 20
-50.0
 30
0.0
 10
4.943429983321297
 20
-50.0
 30
0.0
 10
2.471630105860354
 20
-50.0
 30
0.0
 10
0.3707699816191425
 20
-53.612332149195865
 30
0.0
 10
8.881784197001252e-16
 20
-58.5
 30
0.0
  0
SPLINE
  5
61
330
17
100
AcDbEntity
  8
ID_CUT_SINGLELINE
100
AcDbSpline
 70
0
 71
3
 72
11
 73
7
 74
0
 40
0.0
 40
0.0
 40
0.0
 40
0.0
 40
1.0
 40
1.0
 40
1.0
 40
2.0
 40
2.0
 40
2.0
 40
2.0
 10
0.0
 20
-61.5
 30
0.0
 10
0.370769981619141
 20
-66.38766785080414
 30
0.0
 10
2.471630105860353
 20
-70.0
 30
0.0
 10
4.9434299833212965
 20
-70.0
 30
0.0
 10
7.415229860782239
 20
-70.0
 30
0.0
 10
9.516089985023452
 20
-66.38766785080414
 30
0.0
 10
9.886859966642593
 20
-61.50000000000001
 30
0.0
  0
LINE
  5
62
330
17
100
AcDbEntity
  8
ID_CUT_SINGLELINE
100
AcDbLine
 10
2.9434299833212973
 20
-65.0
 30
0.0
 11
6.943429983321297
 21
-55.0
 31
0.0
  0
SPLINE
  5
63
330
17
100
AcDbEntity
  8
ID_CUT_SINGLELINE
100
AcDbSpline
 70
0
 71
3
 72
14
 73
10
 74
0
 40
0.0
 40
0.0
 40
0.0
 40
0.0
 40
1.0
 40
1.0
 40
1.0
 40
2.0
 40
2.0
 40
2.0
 40
3.0
 40
3.0
 40
3.0
 40
3.0
 10
14.908008703347136
 20
-53.6616202127273
 30
0.0
 10
16.02885328684524
 20
-52.54077562922919
 30
0.0
 10
17.149697870343346
 20
-51.41993104573109
 30
0.0
 10
18.27054245384145
 20
-50.29908646223298
 30
0.0
 10
18.751916584724025
 20
-49.81771233135041
 30
0.0
 10
18.99260365016531
 20
-49.91740817814397
 30
0.0
 10
18.99260365016531
 20
-50.59817400261367
 30
0.0
 10
18.99260365016531
 20
-57.065449335075776
 30
0.0
 10
18.99260365016531
 20
-63.53272466753789
 30
0.0
 10
18.99260365016531
 20
-70.0
 30
0.0
  0
LINE
  5
64
330
17
100
AcDbEntity
  8
ID_CUT_SINGLELINE
100
AcDbLine
 10
13.886859966642593
 20
-70.0
 30
0.0
 11
24.098347333688032
 21
-70.0
 31
0.0
  0
SPLINE
  5
65
330
17
100
AcDbEntity
  8
ID_CUT_SINGLELINE
100
AcDbSpline
 70
0
 71
3
 72
20
 73
16
 74
0
 40
0.0
 40
0.0
 40
0.0
 40
0.0
 40
1.0
 40
1.0
 40
1.0
 40
2.0
 40
2.0
 40
2.0
 40
3.0
 40
3.0
 40
3.0
 40
4.0
 40
4.0
 40
4.0
 40
5.0
 40
5.0
 40
5.0
 40
5.0
 10
28.098347333688032
 20
-54.0
 30
0.0
 10
28.098347333688032
 20
-51.5
 30
0.0
 10
30.598347333688032
 20
-50.0
 30
0.0
 10
34.09834733368803
 20
-50.0
 30
0.0
 10
37.59834733368803
 20
-50.0
 30
0.0
 10
40.09834733368803
 20
-51.5
 30
0.0
 10
40.09834733368803
 20
-54.5
 30
0.0
 10
40.09834733368803
 20
-59.0
 30
0.0
 10
31.098347333688032
 20
-64.0
 30
0.0
 10
29.098347333688032
 20
-68.0
 30
0.0
 10
28.49834733368803
 20
-69.2
 30
0.0
 10
28.698347333688034
 20
-70.0
 30
0.0
 10
30.098347333688032
 20
-70.0
 30
0.0
 10
33.43168066702137
 20
-70.0
 30
0.0
 10
36.7650140003547
 20
-70.0
 30
0.0
 10
40.09834733368803
 20
-70.0
 30
0.0
  0
SPLINE
  5
66
330
17
100
AcDbEntity
  8
ID_CUT_SINGLELINE
100
AcDbSpline
 70
0
 71
3
 72
23
 73
19
 74
0
 40
0.0
 40
0.0
 40
0.0
 40
0.0
 40
1.0
 40
1.0
 40
1.0
 40
2.0
 40
2.0
 40
2.0
 40
3.0
 40
3.0
 40
3.0
 40
4.0
 40
4.0
 40
4.0
 40
5.0
 40
5.0
 40
5.0
 40
6.0
 40
6.0
 40
6.0
 40
6.0
 10
44.09834733368803
 20
-52.0
 30
0.0
 10
45.59834733368803
 20
-50.5
 30
0.0
 10
47.59834733368803
 20
-50.0
 30
0.0
 10
50.09834733368803
 20
-50.0
 30
0.0
 10
53.59834733368803
 20
-50.0
 30
0.0
 10
56.09834733368803
 20
-52.0
 30
0.0
 10
56.09834733368803
 20
-54.5
 30
0.0
 10
56.09834733368803
 20
-57.3
 30
0.0
 10
49.09834733368803
 20
-57.2
 30
0.0
 10
49.09834733368803
 20
-60.0
 30
0.0
 10
49.09834733368803
 20
-62.8
 30
0.0
 10
56.09834733368803
 20
-62.7
 30
0.0
 10
56.09834733368803
 20
-65.5
 30
0.0
 10
56.09834733368803
 20
-68.0
 30
0.0
 10
53.59834733368803
 20
-70.0
 30
0.0
 10
50.09834733368803
 20
-70.0
 30
0.0
 10
47.59834733368803
 20
-70.0
 30
0.0
 10
45.59834733368803
 20
-69.5
 30
0.0
 10
44.09834733368803
 20
-68.0
 30
0.0
  0
SPLINE
  5
67
330
17
100
AcDbEntity
  8
ID_CUT_SINGLELINE
100
AcDbSpline
 70
0
 71
3
 72
14
 73
10
 74
0
 40
0.0
 40
0.0
 40
0.0
 40
0.0
 40
1.0
 40
1.0
 40
1.0
 40
2.0
 40
2.0
 40
2.0
 40
3.0
 40
3.0
 40
3.0
 40
3.0
 10
65.75842710158875
 20
-50.0
 30
0.0
 10
63.922405419938734
 20
-53.672043363300034
 30
0.0
 10
62.08638373828872
 20
-57.34408672660006
 30
0.0
 10
60.2503620566387
 20
-61.016130089900095
 30
0.0
 10
59.922405419938734
 20
-61.672043363300034
 30
0.0
 10
60.12509376825542
 20
-62.0
 30
0.0
 10
60.85842710158875
 20
-62.0
 30
0.0
 10
62.825093768255414
 20
-62.0
 30
0.0
 10
64.79176043492208
 20
-62.0
 30
0.0
 10
66.75842710158875
 20
-62.0
 30
0.0
  0
LINE
  5
68
330
17
100
AcDbEntity
  8
ID_CUT_SINGLELINE
100
AcDbLine
 10
69.75842710158875
 20
-50.0
 30
0.0
 11
69.75842710158875
 21
-70.0
 31
0.0
  0
SPLINE
  5
69
330
17
100
AcDbEntity
  8
ID_CUT_SINGLELINE
100
AcDbSpline
 70
0
 71
3
 72
29
 73
25
 74
0
 40
0.0
 40
0.0
 40
0.0
 40
0.0
 40
1.0
 40
1.0
 40
1.0
 40
2.0
 40
2.0
 40
2.0
 40
3.0
 40
3.0
 40
3.0
 40
4.0
 40
4.0
 40
4.0
 40
5.0
 40
5.0
 40
5.0
 40
6.0
 40
6.0
 40
6.0
 40
7.0
 40
7.0
 40
7.0
 40
8.0
 40
8.0
 40
8.0
 40
8.0
 10
85.75842710158875
 20
-50.0
 30
0.0
 10
82.29176043492208
 20
-50.0
 30
0.0
 10
78.82509376825541
 20
-50.0
 30
0.0
 10
75.35842710158875
 20
-50.0
 30
0.0
 10
74.29176043492208
 20
-50.0
 30
0.0
 10
73.75842710158875
 20
-50.53333333333334
 30
0.0
 10
73.75842710158875
 20
-51.60000000000001
 30
0.0
 10
73.75842710158875
 20
-53.53333333333334
 30
0.0
 10
73.75842710158875
 20
-55.46666666666667
 30
0.0
 10
73.75842710158875
 20
-57.400000000000006
 30
0.0
 10
73.75842710158875
 20
-58.46666666666667
 30
0.0
 10
74.29176043492208
 20
-59.0
 30
0.0
 10
75.35842710158875
 20
-59.0
 30
0.0
 10
76.82509376825541
 20
-59.0
 30
0.0
 10
78.29176043492208
 20
-59.0
 30
0.0
 10
79.75842710158875
 20
-59.0
 30
0.0
 10
83.75842710158875
 20
-59.0
 30
0.0
 10
85.75842710158875
 20
-61.0
 30
0.0
 10
85.75842710158875
 20
-64.5
 30
0.0
 10
85.75842710158875
 20
-68.0
 30
0.0
 10
83.25842710158875
 20
-70.0
 30
0.0
 10
79.75842710158875
 20
-70.0
 30
0.0
 10
77.25842710158875
 20
-70.0
 30
0.0
 10
75.25842710158875
 20
-69.5
 30
0.0
 10
73.75842710158875
 20
-68.2
 30
0.0
  0
SPLINE
  5
6A
330
17
100
AcDbEntity
  8
ID_CUT_SINGLELINE
100
AcDbSpline
 70
0
 71
3
 72
20
 73
16
 74
0
 40
0.0
 40
0.0
 40
0.0
 40
0.0
 40
1.0
 40
1.0
 40
1.0
 40
2.0
 40
2.0
 40
2.0
 40
3.0
 40
3.0
 40
3.0
 40
4.0
 40
4.0
 40
4.0
 40
5.0
 40
5.0
 40
5.0
 40
5.0
 10
100.75842710158875
 20
-51.0
 30
0.0
 10
99.25842710158875
 20
-50.0
 30
0.0
 10
97.75842710158875
 20
-50.0
 30
0.0
 10
95.75842710158875
 20
-50.0
 30
0.0
 10
91.75842710158875
 20
-50.0
 30
0.0
 10
89.75842710158875
 20
-54.0
 30
0.0
 10
89.75842710158875
 20
-59.0
 30
0.0
 10
89.75842710158875
 20
-60.666666666666664
 30
0.0
 10
89.75842710158875
 20
-62.333333333333336
 30
0.0
 10
89.75842710158875
 20
-64.0
 30
0.0
 10
89.75842710158875
 20
-68.0
 30
0.0
 10
91.75842710158875
 20
-70.0
 30
0.0
 10
95.75842710158875
 20
-70.0
 30
0.0
 10
97.3381497368232
 20
-70.0
 30
0.0
 10
98.60593192152365
 20
-69.68805954946599
 30
0.0
 10
99.56177365569008
 20
-69.06417864839797
 30
0.0
  0
SPLINE
  5
6B
330
17
100
AcDbEntity
  8
ID_CUT_SINGLELINE
100
AcDbSpline
 70
0
 71
3
 72
14
 73
10
 74
0
 40
0.0
 40
0.0
 40
0.0
 40
0.0
 40
1.0
 40
1.0
 40
1.0
 40
2.0
 40
2.0
 40
2.0
 40
3.0
 40
3.0
 40
3.0
 40
3.0
 10
101.3684892567852
 20
-66.66923006089979
 30
0.0
 10
101.62844781998757
 20
-65.90946598886771
 30
0.0
 10
101.75842710158875
 20
-65.01972263523444
 30
0.0
 10
101.75842710158875
 20
-64.0
 30
0.0
 10
101.75842710158875
 20
-60.5
 30
0.0
 10
99.25842710158875
 20
-58.0
 30
0.0
 10
95.75842710158875
 20
-58.0
 30
0.0
 10
94.25842710158875
 20
-58.0
 30
0.0
 10
93.25842710158875
 20
-58.5
 30
0.0
 10
92.75842710158875
 20
-59.0
 30
0.0
  0
SPLINE
  5
6C
330
17
100
AcDbEntity
  8
ID_CUT_SINGLELINE
100
AcDbSpline
 70
0
 71
3
 72
14
 73
10
 74
0
 40
0.0
 40
0.0
 40
0.0
 40
0.0
 40
1.0
 40
1.0
 40
1.0
 40
2.0
 40
2.0
 40
2.0
 40
3.0
 40
3.0
 40
3.0
 40
3.0
 10
105.75842710158875
 20
-50.0
 30
0.0
 10
109.25842710158875
 20
-50.0
 30
0.0
 10
112.75842710158875
 20
-50.0
 30
0.0
 10
116.25842710158875
 20
-50.0
 30
0.0
 10
117.25842710158875
 20
-50.0
 30
0.0
 10
117.53482030383877
 20
-50.44721359549996
 30
0.0
 10
117.08760670833881
 20
-51.34164078649988
 30
0.0
 10
113.97788017275546
 20
-57.561093857666584
 30
0.0
 10
110.8681536371721
 20
-63.78054692883329
 30
0.0
 10
107.75842710158875
 20
-70.0
 30
0.0
  0
SPLINE
  5
6D
330
17
100
AcDbEntity
  8
ID_CUT_SINGLELINE
100
AcDbSpline
 70
0
 71
3
 72
14
 73
10
 74
0
 40
0.0
 40
0.0
 40
0.0
 40
0.0
 40
1.0
 40
1.0
 40
1.0
 40
2.0
 40
2.0
 40
2.0
 40
3.0
 40
3.0
 40
3.0
 40
3.0
 10
124.39489951236244
 20
-58.7
 30
0.0
 10
123.29489951236245
 20
-57.7
 30
0.0
 10
122.79489951236245
 20
-56.0
 30
0.0
 10
123.29489951236245
 20
-54.5
 30
0.0
 10
123.79489951236245
 20
-53.0
 30
0.0
 10
124.79489951236245
 20
-50.0
 30
0.0
 10
127.29489951236245
 20
-50.0
 30
0.0
 10
131.29489951236246
 20
-50.0
 30
0.0
 10
133.29489951236246
 20
-54.0
 30
0.0
 10
131.79489951236246
 20
-56.3
 30
0.0
  0
SPLINE
  5
6E
330
17
100
AcDbEntity
  8
ID_CUT_SINGLELINE
100
AcDbSpline
 70
0
 71
3
 72
14
 73
10
 74
0
 40
0.0
 40
0.0
 40
0.0
 40
0.0
 40
1.0
 40
1.0
 40
1.0
 40
2.0
 40
2.0
 40
2.0
 40
3.0
 40
3.0
 40
3.0
 40
3.0
 10
129.79489951236246
 20
-58.8
 30
0.0
 10
128.59489951236245
 20
-59.63
 30
0.0
 10
127.09489951236245
 20
-60.67
 30
0.0
 10
125.89489951236244
 20
-61.5
 30
0.0
 10
124.09489951236245
 20
-62.745
 30
0.0
 10
121.29489951236245
 20
-63.3
 30
0.0
 10
121.29489951236245
 20
-65.5
 30
0.0
 10
121.29489951236245
 20
-66.7
 30
0.0
 10
121.79489951236245
 20
-67.9
 30
0.0
 10
122.49489951236245
 20
-68.5
 30
0.0
  0
SPLINE
  5
6F
330
17
100
AcDbEntity
  8
ID_CUT_SINGLELINE
100
AcDbSpline
 70
0
 71
3
 72
14
 73
10
 74
0
 40
0.0
 40
0.0
 40
0.0
 40
0.0
 40
1.0
 40
1.0
 40
1.0
 40
2.0
 40
2.0
 40
2.0
 40
3.0
 40
3.0
 40
3.0
 40
3.0
 10
125.49489951236245
 20
-69.7
 30
0.0
 10
126.09489951236245
 20
-70.0
 30
0.0
 10
126.69489951236245
 20
-70.0
 30
0.0
 10
127.29489951236245
 20
-70.0
 30
0.0
 10
131.29489951236246
 20
-70.0
 30
0.0
 10
133.29489951236246
 20
-68.0
 30
0.0
 10
133.29489951236246
 20
-65.0
 30
0.0
 10
133.29489951236246
 20
-63.5
 30
0.0
 10
131.29489951236246
 20
-62.5
 30
0.0
 10
129.79489951236246
 20
-61.8
 30
0.0
  0
SPLINE
  5
70
330
17
100
AcDbEntity
  8
ID_CUT_SINGLELINE
100
AcDbSpline
 70
0
 71
3
 72
20
 73
16
 74
0
 40
0.0
 40
0.0
 40
0.0
 40
0.0
 40
1.0
 40
1.0
 40
1.0
 40
2.0
 40
2.0
 40
2.0
 40
3.0
 40
3.0
 40
3.0
 40
4.0
 40
4.0
 40
4.0
 40
5.0
 40
5.0
 40
5.0
 40
5.0
 10
138.29489951236246
 20
-69.0
 30
0.0
 10
139.79489951236246
 20
-70.0
 30
0.0
 10
141.29489951236246
 20
-70.0
 30
0.0
 10
143.29489951236246
 20
-70.0
 30
0.0
 10
147.29489951236246
 20
-70.0
 30
0.0
 10
149.29489951236246
 20
-66.0
 30
0.0
 10
149.29489951236246
 20
-61.0
 30
0.0
 10
149.29489951236246
 20
-59.333333333333336
 30
0.0
 10
149.29489951236246
 20
-57.666666666666664
 30
0.0
 10
149.29489951236246
 20
-56.0
 30
0.0
 10
149.29489951236246
 20
-52.0
 30
0.0
 10
147.29489951236246
 20
-50.0
 30
0.0
 10
143.29489951236246
 20
-50.0
 30
0.0
 10
141.71517687712802
 20
-50.0
 30
0.0
 10
140.44739469242757
 20
-50.31194045053401
 30
0.0
 10
139.49155295826114
 20
-50.93582135160203
 30
0.0
  0
SPLINE
  5
71
330
17
100
AcDbEntity
  8
ID_CUT_SINGLELINE
100
AcDbSpline
 70
0
 71
3
 72
14
 73
10
 74
0
 40
0.0
 40
0.0
 40
0.0
 40
0.0
 40
1.0
 40
1.0
 40
1.0
 40
2.0
 40
2.0
 40
2.0
 40
3.0
 40
3.0
 40
3.0
 40
3.0
 10
137.68483735716603
 20
-53.33076993910021
 30
0.0
 10
137.42487879396364
 20
-54.090534011132284
 30
0.0
 10
137.29489951236246
 20
-54.98027736476555
 30
0.0
 10
137.29489951236246
 20
-56.0
 30
0.0
 10
137.29489951236246
 20
-59.5
 30
0.0
 10
139.79489951236246
 20
-62.0
 30
0.0
 10
143.29489951236246
 20
-62.0
 30
0.0
 10
144.79489951236246
 20
-62.0
 30
0.0
 10
145.79489951236246
 20
-61.5
 30
0.0
 10
146.29489951236246
 20
-61.0
 30
0.0
  0
LINE
  5
72
330
17
100
AcDbEntity
  8
ID_CUT_SINGLELINE
100
AcDbLine
 10
153.29489951236246
 20
-60.0
 30
0.0
 11
161.29489951236246
 21
-60.0
 31
0.0
  0
SPLINE
  5
73
330
17
100
AcDbEntity
  8
ID_CUT_SINGLELINE
100
AcDbSpline
 70
0
 71
3
 72
17
 73
13
 74
0
 40
0.0
 40
0.0
 40
0.0
 40
0.0
 40
1.0
 40
1.0
 40
1.0
 40
2.0
 40
2.0
 40
2.0
 40
3.0
 40
3.0
 40
3.0
 40
4.0
 40
4.0
 40
4.0
 40
4.0
 10
0.0
 20
-105.0
 30
0.0
 10
0.0
 20
-98.83333333333333
 30
0.0
 10
0.0
 20
-92.66666666666667
 30
0.0
 10
0.0
 20
-86.5
 30
0.0
 10
0.0
 20
-85.5
 30
0.0
 10
0.4999999999999999
 20
-85.0
 30
0.0
 10
1.4999999999999996
 20
-85.0
 30
0.0
 10
2.9999999999999987
 20
-85.0
 30
0.0
 10
4.499999999999999
 20
-85.0
 30
0.0
 10
5.999999999999998
 20
-85.0
 30
0.0
 10
7.509203823786061
 20
-85.0
 30
0.0
 10
8.733695624855814
 20
-85.28471202271632
 30
0.0
 10
9.67347540320926
 20
-85.80042500897876
 30
0.0
  0
SPLINE
  5
74
330
17
100
AcDbEntity
  8
ID_CUT_SINGLELINE
100
AcDbSpline
 70
0
 71
3
 72
14
 73
10
 74
0
 40
0.0
 40
0.0
 40
0.0
 40
0.0
 40
1.0
 40
1.0
 40
1.0
 40
2.0
 40
2.0
 40
2.0
 40
3.0
 40
3.0
 40
3.0
 40
3.0
 10
11.662129537841217
 20
-88.04658945817015
 30
0.0
 10
11.887376512613738
 20
-88.63250600801403
 30
0.0
 10
11.999999999999996
 20
-89.28809713216046
 30
0.0
 10
11.999999999999996
 20
-90.0
 30
0.0
 10
11.999999999999996
 20
-93.0
 30
0.0
 10
9.999999999999998
 20
-95.0
 30
0.0
 10
5.999999999999998
 20
-95.0
 30
0.0
 10
4.999999999999999
 20
-95.0
 30
0.0
 10
3.9999999999999987
 20
-95.0
 30
0.0
 10
2.999999999999999
 20
-95.0
 30
0.0
  0
SPLINE
  5
75
330
17
100
AcDbEntity
  8
ID_CUT_SINGLELINE
100
AcDbSpline
 70
0
 71
3
 72
20
 73
16
 74
0
 40
0.0
 40
0.0
 40
0.0
 40
0.0
 40
1.0
 40
1.0
 40
1.0
 40
2.0
 40
2.0
 40
2.0
 40
3.0
 40
3.0
 40
3.0
 40
4.0
 40
4.0
 40
4.0
 40
5.0
 40
5.0
 40
5.0
 40
5.0
 10
15.999999999999996
 20
-105.0
 30
0.0
 10
16.85955062336464
 20
-102.70786500436095
 30
0.0
 10
17.719101246729284
 20
-100.41573000872191
 30
0.0
 10
18.57865187009393
 20
-98.12359501308285
 30
0.0
 10
18.85955062336464
 20
-97.37453167102761
 30
0.0
 10
19.4
 20
-97.0
 30
0.0
 10
20.199999999999996
 20
-97.0
 30
0.0
 10
22.066666666666663
 20
-97.0
 30
0.0
 10
23.93333333333333
 20
-97.0
 30
0.0
 10
25.799999999999997
 20
-97.0
 30
0.0
 10
26.599999999999994
 20
-97.0
 30
0.0
 10
27.140449376635353
 20
-97.37453167102761
 30
0.0
 10
27.421348129906065
 20
-98.12359501308285
 30
0.0
 10
28.280898753270712
 20
-100.41573000872191
 30
0.0
 10
29.140449376635353
 20
-102.70786500436095
 30
0.0
 10
29.999999999999996
 20
-105.0
 30
0.0
  0
SPLINE
  5
76
330
17
100
AcDbEntity
  8
ID_CUT_SINGLELINE
100
AcDbSpline
 70
0
 71
3
 72
17
 73
13
 74
0
 40
0.0
 40
0.0
 40
0.0
 40
0.0
 40
1.0
 40
1.0
 40
1.0
 40
2.0
 40
2.0
 40
2.0
 40
3.0
 40
3.0
 40
3.0
 40
4.0
 40
4.0
 40
4.0
 40
4.0
 10
20.199999999999996
 20
-93.8
 30
0.0
 10
20.63333333333333
 20
-91.93333333333334
 30
0.0
 10
21.066666666666663
 20
-90.06666666666666
 30
0.0
 10
21.499999999999996
 20
-88.2
 30
0.0
 10
22.019999999999996
 20
-85.96000000000001
 30
0.0
 10
22.199999999999996
 20
-85.0
 30
0.0
 10
22.999999999999996
 20
-85.0
 30
0.0
 10
23.799999999999997
 20
-85.0
 30
0.0
 10
23.979999999999997
 20
-85.96000000000001
 30
0.0
 10
24.499999999999996
 20
-88.2
 30
0.0
 10
24.93333333333333
 20
-90.06666666666666
 30
0.0
 10
25.366666666666664
 20
-91.93333333333334
 30
0.0
 10
25.799999999999997
 20
-93.8
 30
0.0
  0
SPLINE
  5
77
330
17
100
AcDbEntity
  8
ID_CUT_SINGLELINE
100
AcDbSpline
 70
0
 71
3
 72
20
 73
16
 74
0
 40
0.0
 40
0.0
 40
0.0
 40
0.0
 40
1.0
 40
1.0
 40
1.0
 40
2.0
 40
2.0
 40
2.0
 40
3.0
 40
3.0
 40
3.0
 40
4.0
 40
4.0
 40
4.0
 40
5.0
 40
5.0
 40
5.0
 40
5.0
 10
34.0
 20
-105.0
 30
0.0
 10
34.0
 20
-98.8
 30
0.0
 10
34.0
 20
-92.6
 30
0.0
 10
34.0
 20
-86.4
 30
0.0
 10
34.0
 20
-85.46666666666667
 30
0.0
 10
34.254327896944524
 20
-85.39127368760697
 30
0.0
 10
34.76298369083358
 20
-86.17382106282089
 30
0.0
 10
38.58766123027786
 20
-92.05794035427363
 30
0.0
 10
42.41233876972214
 20
-97.94205964572637
 30
0.0
 10
46.23701630916642
 20
-103.82617893717911
 30
0.0
 10
46.745672103055476
 20
-104.60872631239303
 30
0.0
 10
47.0
 20
-104.53333333333333
 30
0.0
 10
47.0
 20
-103.6
 30
0.0
 10
47.0
 20
-97.4
 30
0.0
 10
47.0
 20
-91.2
 30
0.0
 10
47.0
 20
-85.0
 30
0.0
  0
SPLINE
  5
78
330
17
100
AcDbEntity
  8
ID_CUT_SINGLELINE
100
AcDbSpline
 70
0
 71
3
 72
20
 73
16
 74
0
 40
0.0
 40
0.0
 40
0.0
 40
0.0
 40
1.0
 40
1.0
 40
1.0
 40
2.0
 40
2.0
 40
2.0
 40
3.0
 40
3.0
 40
3.0
 40
4.0
 40
4.0
 40
4.0
 40
5.0
 40
5.0
 40
5.0
 40
5.0
 10
63.0
 20
-85.0
 30
0.0
 10
59.666666666666664
 20
-85.0
 30
0.0
 10
56.33333333333333
 20
-85.0
 30
0.0
 10
53.0
 20
-85.0
 30
0.0
 10
51.666666666666664
 20
-85.0
 30
0.0
 10
51.0
 20
-85.66666666666667
 30
0.0
 10
51.0
 20
-87.0
 30
0.0
 10
51.0
 20
-92.33333333333334
 30
0.0
 10
51.0
 20
-97.66666666666667
 30
0.0
 10
51.0
 20
-103.0
 30
0.0
 10
51.0
 20
-104.33333333333333
 30
0.0
 10
51.666666666666664
 20
-105.0
 30
0.0
 10
53.0
 20
-105.0
 30
0.0
 10
56.33333333333333
 20
-105.0
 30
0.0
 10
59.666666666666664
 20
-105.0
 30
0.0
 10
63.0
 20
-105.0
 30
0.0
  0
LINE
  5
79
330
17
100
AcDbEntity
  8
ID_CUT_SINGLELINE
100
AcDbLine
 10
51.0
 20
-95.0
 30
0.0
 11
60.0
 21
-95.0
 31
0.0
  0
SPLINE
  5
7A
330
17
100
AcDbEntity
  8
ID_CUT_SINGLELINE
100
AcDbSpline
 70
0
 71
3
 72
14
 73
10
 74
0
 40
0.0
 40
0.0
 40
0.0
 40
0.0
 40
1.0
 40
1.0
 40
1.0
 40
2.0
 40
2.0
 40
2.0
 40
3.0
 40
3.0
 40
3.0
 40
3.0
 10
67.0
 20
-85.0
 30
0.0
 10
67.0
 20
-91.0
 30
0.0
 10
67.0
 20
-97.0
 30
0.0
 10
67.0
 20
-103.0
 30
0.0
 10
67.0
 20
-104.33333333333333
 30
0.0
 10
67.66666666666667
 20
-105.0
 30
0.0
 10
69.0
 20
-105.0
 30
0.0
 10
72.33333333333333
 20
-105.0
 30
0.0
 10
75.66666666666667
 20
-105.0
 30
0.0
 10
79.0
 20
-105.0
 30
0.0
  0
LINE
  5
7B
330
17
100
AcDbEntity
  8
ID_CUT_SINGLELINE
100
AcDbLine
 10
83.0
 20
-95.0
 30
0.0
 11
91.0
 21
-95.0
 31
0.0
  0
SPLINE
  5
7C
330
17
100
AcDbEntity
  8
ID_CUT_SINGLELINE
100
AcDbSpline
 70
0
 71
3
 72
20
 73
16
 74
0
 40
0.0
 40
0.0
 40
0.0
 40
0.0
 40
1.0
 40
1.0
 40
1.0
 40
2.0
 40
2.0
 40
2.0
 40
3.0
 40
3.0
 40
3.0
 40
4.0
 40
4.0
 40
4.0
 40
5.0
 40
5.0
 40
5.0
 40
5.0
 10
95.0
 20
-105.0
 30
0.0
 10
95.85955062336464
 20
-102.70786500436095
 30
0.0
 10
96.71910124672928
 20
-100.41573000872191
 30
0.0
 10
97.57865187009394
 20
-98.12359501308285
 30
0.0
 10
97.85955062336464
 20
-97.37453167102761
 30
0.0
 10
98.4
 20
-97.0
 30
0.0
 10
99.2
 20
-97.0
 30
0.0
 10
101.06666666666666
 20
-97.0
 30
0.0
 10
102.93333333333334
 20
-97.0
 30
0.0
 10
104.8
 20
-97.0
 30
0.0
 10
105.6
 20
-97.0
 30
0.0
 10
106.14044937663536
 20
-97.37453167102761
 30
0.0
 10
106.42134812990606
 20
-98.12359501308285
 30
0.0
 10
107.28089875327072
 20
-100.41573000872191
 30
0.0
 10
108.14044937663536
 20
-102.70786500436095
 30
0.0
 10
109.0
 20
-105.0
 30
0.0
  0
SPLINE
  5
7D
330
17
100
AcDbEntity
  8
ID_CUT_SINGLELINE
100
AcDbSpline
 70
0
 71
3
 72
17
 73
13
 74
0
 40
0.0
 40
0.0
 40
0.0
 40
0.0
 40
1.0
 40
1.0
 40
1.0
 40
2.0
 40
2.0
 40
2.0
 40
3.0
 40
3.0
 40
3.0
 40
4.0
 40
4.0
 40
4.0
 40
4.0
 10
99.2
 20
-93.8
 30
0.0
 10
99.63333333333334
 20
-91.93333333333334
 30
0.0
 10
100.06666666666666
 20
-90.06666666666666
 30
0.0
 10
100.5
 20
-88.2
 30
0.0
 10
101.02
 20
-85.96000000000001
 30
0.0
 10
101.2
 20
-85.0
 30
0.0
 10
102.0
 20
-85.0
 30
0.0
 10
102.8
 20
-85.0
 30
0.0
 10
102.98
 20
-85.96000000000001
 30
0.0
 10
103.5
 20
-88.2
 30
0.0
 10
103.93333333333334
 20
-90.06666666666666
 30
0.0
 10
104.36666666666667
 20
-91.93333333333334
 30
0.0
 10
104.8
 20
-93.8
 30
0.0
  0
SPLINE
  5
7E
330
17
100
AcDbEntity
  8
ID_CUT_SINGLELINE
100
AcDbSpline
 70
0
 71
3
 72
11
 73
7
 74
0
 40
0.0
 40
0.0
 40
0.0
 40
0.0
 40
1.0
 40
1.0
 40
1.0
 40
2.0
 40
2.0
 40
2.0
 40
2.0
 10
122.88685996664259
 20
-93.5
 30
0.0
 10
122.51608998502346
 20
-88.61233214919586
 30
0.0
 10
120.41522986078225
 20
-85.0
 30
0.0
 10
117.9434299833213
 20
-85.0
 30
0.0
 10
115.47163010586036
 20
-85.0
 30
0.0
 10
113.37076998161915
 20
-88.61233214919586
 30
0.0
 10
113.0
 20
-93.5
 30
0.0
  0
SPLINE
  5
7F
330
17
100
AcDbEntity
  8
ID_CUT_SINGLELINE
100
AcDbSpline
 70
0
 71
3
 72
11
 73
7
 74
0
 40
0.0
 40
0.0
 40
0.0
 40
0.0
 40
1.0
 40
1.0
 40
1.0
 40
2.0
 40
2.0
 40
2.0
 40
2.0
 10
113.0
 20
-96.5
 30
0.0
 10
113.37076998161915
 20
-101.38766785080414
 30
0.0
 10
115.47163010586036
 20
-105.0
 30
0.0
 10
117.9434299833213
 20
-105.0
 30
0.0
 10
120.41522986078223
 20
-105.0
 30
0.0
 10
122.51608998502346
 20
-101.38766785080414
 30
0.0
 10
122.88685996664259
 20
-96.5
 30
0.0
  0
LINE
  5
80
330
17
100
AcDbEntity
  8
ID_CUT_SINGLELINE
100
AcDbLine
 10
115.9434299833213
 20
-100.0
 30
0.0
 11
119.9434299833213
 21
-90.0
 31
0.0
  0
SPLINE
  5
81
330
17
100
AcDbEntity
  8
ID_CUT_SINGLELINE
100
AcDbSpline
 70
0
 71
3
 72
14
 73
10
 74
0
 40
0.0
 40
0.0
 40
0.0
 40
0.0
 40
1.0
 40
1.0
 40
1.0
 40
2.0
 40
2.0
 40
2.0
 40
3.0
 40
3.0
 40
3.0
 40
3.0
 10
127.90800870334714
 20
-88.6616202127273
 30
0.0
 10
129.02885328684525
 20
-87.54077562922919
 30
0.0
 10
130.14969787034335
 20
-86.41993104573109
 30
0.0
 10
131.27054245384144
 20
-85.29908646223298
 30
0.0
 10
131.75191658472403
 20
-84.8177123313504
 30
0.0
 10
131.9926036501653
 20
-84.91740817814397
 30
0.0
 10
131.9926036501653
 20
-85.59817400261366
 30
0.0
 10
131.9926036501653
 20
-92.06544933507578
 30
0.0
 10
131.9926036501653
 20
-98.53272466753789
 30
0.0
 10
131.9926036501653
 20
-105.0
 30
0.0
  0
LINE
  5
82
330
17
100
AcDbEntity
  8
ID_CUT_SINGLELINE
100
AcDbLine
 10
126.88685996664259
 20
-105.0
 30
0.0
 11
137.09834733368803
 21
-105.0
 31
0.0
  0
SPLINE
  5
83
330
17
100
AcDbEntity
  8
ID_CUT_SINGLELINE
100
AcDbSpline
 70
0
 71
3
 72
14
 73
10
 74
0
 40
0.0
 40
0.0
 40
0.0
 40
0.0
 40
1.0
 40
1.0
 40
1.0
 40
2.0
 40
2.0
 40
2.0
 40
3.0
 40
3.0
 40
3.0
 40
3.0
 10
0.0
 20
-120.0
 30
0.0
 10
0.0
 20
-126.0
 30
0.0
 10
0.0
 20
-132.0
 30
0.0
 10
0.0
 20
-138.0
 30
0.0
 10
0.0
 20
-139.33333333333334
 30
0.0
 10
0.6666666666666667
 20
-140.0
 30
0.0
 10
2.0
 20
-140.0
 30
0.0
 10
5.333333333333333
 20
-140.0
 30
0.0
 10
8.666666666666666
 20
-140.0
 30
0.0
 10
12.0
 20
-140.0
 30
0.0
  0
SPLINE
  5
84
330
17
100
AcDbEntity
  8
ID_CUT_SINGLELINE
100
AcDbSpline
 70
0
 71
3
 72
20
 73
16
 74
0
 40
0.0
 40
0.0
 40
0.0
 40
0.0
 40
1.0
 40
1.0
 40
1.0
 40
2.0
 40
2.0
 40
2.0
 40
3.0
 40
3.0
 40
3.0
 40
4.0
 40
4.0
 40
4.0
 40
5.0
 40
5.0
 40
5.0
 40
5.0
 10
16.0
 20
-140.0
 30
0.0
 10
16.859550623364644
 20
-137.70786500436094
 30
0.0
 10
17.719101246729288
 20
-135.4157300087219
 30
0.0
 10
18.57865187009393
 20
-133.12359501308285
 30
0.0
 10
18.859550623364644
 20
-132.37453167102763
 30
0.0
 10
19.4
 20
-132.0
 30
0.0
 10
20.2
 20
-132.0
 30
0.0
 10
22.066666666666666
 20
-132.0
 30
0.0
 10
23.933333333333334
 20
-132.0
 30
0.0
 10
25.8
 20
-132.0
 30
0.0
 10
26.6
 20
-132.0
 30
0.0
 10
27.140449376635356
 20
-132.37453167102763
 30
0.0
 10
27.42134812990607
 20
-133.12359501308285
 30
0.0
 10
28.280898753270712
 20
-135.4157300087219
 30
0.0
 10
29.14044937663536
 20
-137.70786500436094
 30
0.0
 10
30.0
 20
-140.0
 30
0.0
  0
SPLINE
  5
85
330
17
100
AcDbEntity
  8
ID_CUT_SINGLELINE
100
AcDbSpline
 70
0
 71
3
 72
17
 73
13
 74
0
 40
0.0
 40
0.0
 40
0.0
 40
0.0
 40
1.0
 40
1.0
 40
1.0
 40
2.0
 40
2.0
 40
2.0
 40
3.0
 40
3.0
 40
3.0
 40
4.0
 40
4.0
 40
4.0
 40
4.0
 10
20.2
 20
-128.8
 30
0.0
 10
20.633333333333333
 20
-126.93333333333334
 30
0.0
 10
21.066666666666666
 20
-125.06666666666666
 30
0.0
 10
21.5
 20
-123.2
 30
0.0
 10
22.02
 20
-120.96000000000001
 30
0.0
 10
22.2
 20
-120.0
 30
0.0
 10
23.0
 20
-120.0
 30
0.0
 10
23.8
 20
-120.0
 30
0.0
 10
23.98
 20
-120.96000000000001
 30
0.0
 10
24.5
 20
-123.2
 30
0.0
 10
24.933333333333334
 20
-125.06666666666666
 30
0.0
 10
25.366666666666667
 20
-126.93333333333334
 30
0.0
 10
25.8
 20
-128.8
 30
0.0
  0
SPLINE
  5
86
330
17
100
AcDbEntity
  8
ID_CUT_SINGLELINE
100
AcDbSpline
 70
0
 71
3
 72
23
 73
19
 74
0
 40
0.0
 40
0.0
 40
0.0
 40
0.0
 40
1.0
 40
1.0
 40
1.0
 40
2.0
 40
2.0
 40
2.0
 40
3.0
 40
3.0
 40
3.0
 40
4.0
 40
4.0
 40
4.0
 40
5.0
 40
5.0
 40
5.0
 40
6.0
 40
6.0
 40
6.0
 40
6.0
 10
46.0
 20
-122.0
 30
0.0
 10
44.5
 20
-120.5
 30
0.0
 10
42.5
 20
-120.0
 30
0.0
 10
40.0
 20
-120.0
 30
0.0
 10
36.4
 20
-120.0
 30
0.0
 10
34.0
 20
-121.8
 30
0.0
 10
34.0
 20
-124.8
 30
0.0
 10
34.0
 20
-127.8
 30
0.0
 10
37.5
 20
-129.0
 30
0.0
 10
40.0
 20
-130.0
 30
0.0
 10
42.5
 20
-131.0
 30
0.0
 10
46.0
 20
-132.2
 30
0.0
 10
46.0
 20
-135.2
 30
0.0
 10
46.0
 20
-138.2
 30
0.0
 10
43.6
 20
-140.0
 30
0.0
 10
40.0
 20
-140.0
 30
0.0
 10
37.5
 20
-140.0
 30
0.0
 10
35.5
 20
-139.5
 30
0.0
 10
34.0
 20
-138.0
 30
0.0
  0
SPLINE
  5
87
330
17
100
AcDbEntity
  8
ID_CUT_SINGLELINE
100
AcDbSpline
 70
0
 71
3
 72
20
 73
16
 74
0
 40
0.0
 40
0.0
 40
0.0
 40
0.0
 40
1.0
 40
1.0
 40
1.0
 40
2.0
 40
2.0
 40
2.0
 40
3.0
 40
3.0
 40
3.0
 40
4.0
 40
4.0
 40
4.0
 40
5.0
 40
5.0
 40
5.0
 40
5.0
 10
62.0
 20
-120.0
 30
0.0
 10
58.666666666666664
 20
-120.0
 30
0.0
 10
55.33333333333333
 20
-120.0
 30
0.0
 10
52.0
 20
-120.0
 30
0.0
 10
50.666666666666664
 20
-120.0
 30
0.0
 10
50.0
 20
-120.66666666666667
 30
0.0
 10
50.0
 20
-122.0
 30
0.0
 10
50.0
 20
-127.33333333333334
 30
0.0
 10
50.0
 20
-132.66666666666666
 30
0.0
 10
50.0
 20
-138.0
 30
0.0
 10
50.0
 20
-139.33333333333334
 30
0.0
 10
50.666666666666664
 20
-140.0
 30
0.0
 10
52.0
 20
-140.0
 30
0.0
 10
55.33333333333333
 20
-140.0
 30
0.0
 10
58.666666666666664
 20
-140.0
 30
0.0
 10
62.0
 20
-140.0
 30
0.0
  0
LINE
  5
88
330
17
100
AcDbEntity
  8
ID_CUT_SINGLELINE
100
AcDbLine
 10
50.0
 20
-130.0
 30
0.0
 11
59.0
 21
-130.0
 31
0.0
  0
SPLINE
  5
89
330
17
100
AcDbEntity
  8
ID_CUT_SINGLELINE
100
AcDbSpline
 70
0
 71
3
 72
17
 73
13
 74
0
 40
0.0
 40
0.0
 40
0.0
 40
0.0
 40
1.0
 40
1.0
 40
1.0
 40
2.0
 40
2.0
 40
2.0
 40
3.0
 40
3.0
 40
3.0
 40
4.0
 40
4.0
 40
4.0
 40
4.0
 10
66.0
 20
-140.0
 30
0.0
 10
66.0
 20
-133.83333333333334
 30
0.0
 10
66.0
 20
-127.66666666666667
 30
0.0
 10
66.0
 20
-121.5
 30
0.0
 10
66.0
 20
-120.5
 30
0.0
 10
66.5
 20
-120.0
 30
0.0
 10
67.5
 20
-120.0
 30
0.0
 10
69.0
 20
-120.0
 30
0.0
 10
70.5
 20
-120.0
 30
0.0
 10
72.0
 20
-120.0
 30
0.0
 10
73.50920382378607
 20
-120.0
 30
0.0
 10
74.73369562485581
 20
-120.28471202271632
 30
0.0
 10
75.67347540320927
 20
-120.80042500897876
 30
0.0
  0
SPLINE
  5
8A
330
17
100
AcDbEntity
  8
ID_CUT_SINGLELINE
100
AcDbSpline
 70
0
 71
3
 72
14
 73
10
 74
0
 40
0.0
 40
0.0
 40
0.0
 40
0.0
 40
1.0
 40
1.0
 40
1.0
 40
2.0
 40
2.0
 40
2.0
 40
3.0
 40
3.0
 40
3.0
 40
3.0
 10
77.66212953784122
 20
-123.04658945817015
 30
0.0
 10
77.88737651261374
 20
-123.63250600801403
 30
0.0
 10
78.0
 20
-124.28809713216046
 30
0.0
 10
78.0
 20
-125.0
 30
0.0
 10
78.0
 20
-128.0
 30
0.0
 10
76.0
 20
-130.0
 30
0.0
 10
72.0
 20
-130.0
 30
0.0
 10
71.0
 20
-130.0
 30
0.0
 10
70.0
 20
-130.0
 30
0.0
 10
69.0
 20
-130.0
 30
0.0
  0
LINE
  5
8B
330
17
100
AcDbEntity
  8
ID_CUT_SINGLELINE
100
AcDbLine
 10
66.0
 20
-130.0
 30
0.0
 11
78.0
 21
-140.0
 31
0.0
  0
LINE
  5
8C
330
17
100
AcDbEntity
  8
ID_CUT_SINGLELINE
100
AcDbLine
 10
82.0
 20
-130.0
 30
0.0
 11
90.0
 21
-130.0
 31
0.0
  0
SPLINE
  5
8D
330
17
100
AcDbEntity
  8
ID_CUT_SINGLELINE
100
AcDbSpline
 70
0
 71
3
 72
11
 73
7
 74
0
 40
0.0
 40
0.0
 40
0.0
 40
0.0
 40
1.0
 40
1.0
 40
1.0
 40
2.0
 40
2.0
 40
2.0
 40
2.0
 10
103.88685996664259
 20
-128.5
 30
0.0
 10
103.51608998502346
 20
-123.61233214919586
 30
0.0
 10
101.41522986078225
 20
-120.0
 30
0.0
 10
98.9434299833213
 20
-120.0
 30
0.0
 10
96.47163010586036
 20
-120.0
 30
0.0
 10
94.37076998161915
 20
-123.61233214919586
 30
0.0
 10
94.0
 20
-128.5
 30
0.0
  0
SPLINE
  5
8E
330
17
100
AcDbEntity
  8
ID_CUT_SINGLELINE
100
AcDbSpline
 70
0
 71
3
 72
11
 73
7
 74
0
 40
0.0
 40
0.0
 40
0.0
 40
0.0
 40
1.0
 40
1.0
 40
1.0
 40
2.0
 40
2.0
 40
2.0
 40
2.0
 10
94.0
 20
-131.5
 30
0.0
 10
94.37076998161915
 20
-136.38766785080412
 30
0.0
 10
96.47163010586036
 20
-140.0
 30
0.0
 10
98.9434299833213
 20
-140.0
 30
0.0
 10
101.41522986078223
 20
-140.0
 30
0.0
 10
103.51608998502346
 20
-136.38766785080415
 30
0.0
 10
103.88685996664259
 20
-131.5
 30
0.0
  0
LINE
  5
8F
330
17
100
AcDbEntity
  8
ID_CUT_SINGLELINE
100
AcDbLine
 10
96.9434299833213
 20
-135.0
 30
0.0
 11
100.9434299833213
 21
-125.0
 31
0.0
  0
SPLINE
  5
90
330
17
100
AcDbEntity
  8
ID_CUT_SINGLELINE
100
AcDbSpline
 70
0
 71
3
 72
20
 73
16
 74
0
 40
0.0
 40
0.0
 40
0.0
 40
0.0
 40
1.0
 40
1.0
 40
1.0
 40
2.0
 40
2.0
 40
2.0
 40
3.0
 40
3.0
 40
3.0
 40
4.0
 40
4.0
 40
4.0
 40
5.0
 40
5.0
 40
5.0
 40
5.0
 10
107.88685996664259
 20
-124.0
 30
0.0
 10
107.88685996664259
 20
-121.5
 30
0.0
 10
110.38685996664259
 20
-120.0
 30
0.0
 10
113.88685996664259
 20
-120.0
 30
0.0
 10
117.38685996664259
 20
-120.0
 30
0.0
 10
119.88685996664259
 20
-121.5
 30
0.0
 10
119.88685996664259
 20
-124.5
 30
0.0
 10
119.88685996664259
 20
-129.0
 30
0.0
 10
110.88685996664259
 20
-134.0
 30
0.0
 10
108.88685996664259
 20
-138.0
 30
0.0
 10
108.2868599666426
 20
-139.2
 30
0.0
 10
108.48685996664258
 20
-140.0
 30
0.0
 10
109.88685996664259
 20
-140.0
 30
0.0
 10
113.22019329997592
 20
-140.0
 30
0.0
 10
116.55352663330926
 20
-140.0
 30
0.0
 10
119.88685996664259
 20
-140.0
 30
0.0
  0
SPLINE
  5
91
330
17
100
AcDbEntity
  8
ID_CUT_SINGLELINE
100
AcDbSpline
 70
0
 71
3
 72
26
 73
22
 74
0
 40
0.0
 40
0.0
 40
0.0
 40
0.0
 40
1.0
 40
1.0
 40
1.0
 40
2.0
 40
2.0
 40
2.0
 40
3.0
 40
3.0
 40
3.0
 40
4.0
 40
4.0
 40
4.0
 40
5.0
 40
5.0
 40
5.0
 40
6.0
 40
6.0
 40
6.0
 40
7.0
 40
7.0
 40
7.0
 40
7.0
 10
9.646572751793558
 20
-155.65456592946794
 30
0.0
 10
8.71036836817912
 20
-155.20948990023757
 30
0.0
 10
7.494844117581266
 20
-155.0
 30
0.0
 10
5.999999999999998
 20
-155.0
 30
0.0
 10
4.666666666666665
 20
-155.0
 30
0.0
 10
3.333333333333332
 20
-155.0
 30
0.0
 10
1.9999999999999996
 20
-155.0
 30
0.0
 10
0.6669999999999999
 20
-155.0
 30
0.0
 10
0.0
 20
-155.667
 30
0.0
 10
0.0
 20
-157.0
 30
0.0
 10
0.0
 20
-162.33333333333334
 30
0.0
 10
0.0
 20
-167.66666666666666
 30
0.0
 10
0.0
 20
-173.0
 30
0.0
 10
0.0
 20
-174.333
 30
0.0
 10
0.6669999999999999
 20
-175.0
 30
0.0
 10
1.9999999999999996
 20
-175.0
 30
0.0
 10
3.333333333333332
 20
-175.0
 30
0.0
 10
4.666666666666665
 20
-175.0
 30
0.0
 10
5.999999999999998
 20
-175.0
 30
0.0
 10
7.494844117581266
 20
-175.0
 30
0.0
 10
8.71036836817912
 20
-174.79051009976243
 30
0.0
 10
9.646572751793558
 20
-174.3454340705321
 30
0.0
  0
SPLINE
  5
92
330
17
100
AcDbEntity
  8
ID_CUT_SINGLELINE
100
AcDbSpline
 70
0
 71
3
 72
11
 73
7
 74
0
 40
0.0
 40
0.0
 40
0.0
 40
0.0
 40
1.0
 40
1.0
 40
1.0
 40
2.0
 40
2.0
 40
2.0
 40
2.0
 10
11.672274928433886
 20
-157.8673765159291
 30
0.0
 10
11.890758309477961
 20
-158.47326448475482
 30
0.0
 10
11.999999999999996
 20
-159.18201139711638
 30
0.0
 10
11.999999999999996
 20
-160.0
 30
0.0
 10
11.999999999999996
 20
-162.13466914591228
 30
0.0
 10
10.987375030553373
 20
-163.76302580710123
 30
0.0
 10
8.962125091660122
 20
-164.52480010379054
 30
0.0
  0
SPLINE
  5
93
330
17
100
AcDbEntity
  8
ID_CUT_SINGLELINE
100
AcDbSpline
 70
0
 71
3
 72
11
 73
7
 74
0
 40
0.0
 40
0.0
 40
0.0
 40
0.0
 40
1.0
 40
1.0
 40
1.0
 40
2.0
 40
2.0
 40
2.0
 40
2.0
 10
11.672274928433886
 20
-172.1326234840709
 30
0.0
 10
11.890758309477961
 20
-171.52673551524518
 30
0.0
 10
11.999999999999996
 20
-170.81798860288362
 30
0.0
 10
11.999999999999996
 20
-170.0
 30
0.0
 10
11.999999999999996
 20
-167.86533085408774
 30
0.0
 10
10.987375030553373
 20
-166.23697419289877
 30
0.0
 10
8.962125091660122
 20
-165.4751998962095
 30
0.0
  0
LINE
  5
94
330
17
100
AcDbEntity
  8
ID_CUT_SINGLELINE
100
AcDbLine
 10
0.0
 20
-165.0
 30
0.0
 11
5.999999999999998
 21
-165.0
 31
0.0
  0
SPLINE
  5
95
330
17
100
AcDbEntity
  8
ID_CUT_SINGLELINE
100
AcDbSpline
 70
0
 71
3
 72
14
 73
10
 74
0
 40
0.0
 40
0.0
 40
0.0
 40
0.0
 40
1.0
 40
1.0
 40
1.0
 40
2.0
 40
2.0
 40
2.0
 40
3.0
 40
3.0
 40
3.0
 40
3.0
 10
19.099999999999998
 20
-163.7
 30
0.0
 10
17.999999999999996
 20
-162.7
 30
0.0
 10
17.499999999999996
 20
-161.0
 30
0.0
 10
17.999999999999996
 20
-159.5
 30
0.0
 10
18.499999999999996
 20
-158.0
 30
0.0
 10
19.499999999999996
 20
-155.0
 30
0.0
 10
21.999999999999996
 20
-155.0
 30
0.0
 10
25.999999999999996
 20
-155.0
 30
0.0
 10
27.999999999999996
 20
-159.0
 30
0.0
 10
26.499999999999996
 20
-161.3
 30
0.0
  0
SPLINE
  5
96
330
17
100
AcDbEntity
  8
ID_CUT_SINGLELINE
100
AcDbSpline
 70
0
 71
3
 72
14
 73
10
 74
0
 40
0.0
 40
0.0
 40
0.0
 40
0.0
 40
1.0
 40
1.0
 40
1.0
 40
2.0
 40
2.0
 40
2.0
 40
3.0
 40
3.0
 40
3.0
 40
3.0
 10
24.499999999999996
 20
-163.8
 30
0.0
 10
23.299999999999997
 20
-164.63
 30
0.0
 10
21.799999999999997
 20
-165.67
 30
0.0
 10
20.599999999999994
 20
-166.5
 30
0.0
 10
18.799999999999997
 20
-167.745
 30
0.0
 10
15.999999999999996
 20
-168.3
 30
0.0
 10
15.999999999999996
 20
-170.5
 30
0.0
 10
15.999999999999996
 20
-171.7
 30
0.0
 10
16.499999999999996
 20
-172.9
 30
0.0
 10
17.199999999999996
 20
-173.5
 30
0.0
  0
SPLINE
  5
97
330
17
100
AcDbEntity
  8
ID_CUT_SINGLELINE
100
AcDbSpline
 70
0
 71
3
 72
14
 73
10
 74
0
 40
0.0
 40
0.0
 40
0.0
 40
0.0
 40
1.0
 40
1.0
 40
1.0
 40
2.0
 40
2.0
 40
2.0
 40
3.0
 40
3.0
 40
3.0
 40
3.0
 10
20.199999999999996
 20
-174.7
 30
0.0
 10
20.799999999999997
 20
-175.0
 30
0.0
 10
21.4
 20
-175.0
 30
0.0
 10
21.999999999999996
 20
-175.0
 30
0.0
 10
25.999999999999996
 20
-175.0
 30
0.0
 10
27.999999999999996
 20
-173.0
 30
0.0
 10
27.999999999999996
 20
-170.0
 30
0.0
 10
27.999999999999996
 20
-168.5
 30
0.0
 10
25.999999999999996
 20
-167.5
 30
0.0
 10
24.499999999999996
 20
-166.8
 30
0.0
  0
LINE
  5
98
330
17
100
AcDbEntity
  8
ID_CUT_SINGLELINE
100
AcDbLine
 10
31.999999999999996
 20
-165.0
 30
0.0
 11
40.0
 21
-165.0
 31
0.0
  0
SPLINE
  5
99
330
17
100
AcDbEntity
  8
ID_CUT_SINGLELINE
100
AcDbSpline
 70
0
 71
3
 72
23
 73
19
 74
0
 40
0.0
 40
0.0
 40
0.0
 40
0.0
 40
1.0
 40
1.0
 40
1.0
 40
2.0
 40
2.0
 40
2.0
 40
3.0
 40
3.0
 40
3.0
 40
4.0
 40
4.0
 40
4.0
 40
5.0
 40
5.0
 40
5.0
 40
6.0
 40
6.0
 40
6.0
 40
6.0
 10
56.0
 20
-157.0
 30
0.0
 10
54.5
 20
-155.5
 30
0.0
 10
52.5
 20
-155.0
 30
0.0
 10
50.0
 20
-155.0
 30
0.0
 10
46.4
 20
-155.0
 30
0.0
 10
44.0
 20
-156.8
 30
0.0
 10
44.0
 20
-159.8
 30
0.0
 10
44.0
 20
-162.8
 30
0.0
 10
47.5
 20
-164.0
 30
0.0
 10
50.0
 20
-165.0
 30
0.0
 10
52.5
 20
-166.0
 30
0.0
 10
56.0
 20
-167.2
 30
0.0
 10
56.0
 20
-170.2
 30
0.0
 10
56.0
 20
-173.2
 30
0.0
 10
53.6
 20
-175.0
 30
0.0
 10
50.0
 20
-175.0
 30
0.0
 10
47.5
 20
-175.0
 30
0.0
 10
45.5
 20
-174.5
 30
0.0
 10
44.0
 20
-173.0
 30
0.0
  0
SPLINE
  5
9A
330
17
100
AcDbEntity
  8
ID_CUT_SINGLELINE
100
AcDbSpline
 70
0
 71
3
 72
29
 73
25
 74
0
 40
0.0
 40
0.0
 40
0.0
 40
0.0
 40
1.0
 40
1.0
 40
1.0
 40
2.0
 40
2.0
 40
2.0
 40
3.0
 40
3.0
 40
3.0
 40
4.0
 40
4.0
 40
4.0
 40
5.0
 40
5.0
 40
5.0
 40
6.0
 40
6.0
 40
6.0
 40
7.0
 40
7.0
 40
7.0
 40
8.0
 40
8.0
 40
8.0
 40
8.0
 10
72.0
 20
-155.0
 30
0.0
 10
68.53333333333333
 20
-155.0
 30
0.0
 10
65.06666666666666
 20
-155.0
 30
0.0
 10
61.6
 20
-155.0
 30
0.0
 10
60.53333333333333
 20
-155.0
 30
0.0
 10
60.0
 20
-155.53333333333333
 30
0.0
 10
60.0
 20
-156.6
 30
0.0
 10
60.0
 20
-158.53333333333333
 30
0.0
 10
60.0
 20
-160.46666666666667
 30
0.0
 10
60.0
 20
-162.4
 30
0.0
 10
60.0
 20
-163.46666666666667
 30
0.0
 10
60.53333333333333
 20
-164.0
 30
0.0
 10
61.6
 20
-164.0
 30
0.0
 10
63.06666666666666
 20
-164.0
 30
0.0
 10
64.53333333333333
 20
-164.0
 30
0.0
 10
66.0
 20
-164.0
 30
0.0
 10
70.0
 20
-164.0
 30
0.0
 10
72.0
 20
-166.0
 30
0.0
 10
72.0
 20
-169.5
 30
0.0
 10
72.0
 20
-173.0
 30
0.0
 10
69.5
 20
-175.0
 30
0.0
 10
66.0
 20
-175.0
 30
0.0
 10
63.5
 20
-175.0
 30
0.0
 10
61.5
 20
-174.5
 30
0.0
 10
60.0
 20
-173.2
 30
0.0
  0
LINE
  5
9B
330
17
100
AcDbEntity
  8
ID_CUT_SINGLELINE
100
AcDbLine
 10
76.0
 20
-165.0
 30
0.0
 11
84.0
 21
-165.0
 31
0.0
  0
SPLINE
  5
9C
330
17
100
AcDbEntity
  8
ID_CUT_SINGLELINE
100
AcDbSpline
 70
0
 71
3
 72
14
 73
10
 74
0
 40
0.0
 40
0.0
 40
0.0
 40
0.0
 40
1.0
 40
1.0
 40
1.0
 40
2.0
 40
2.0
 40
2.0
 40
3.0
 40
3.0
 40
3.0
 40
3.0
 10
99.0
 20
-155.0
 30
0.0
 10
99.0
 20
-159.66666666666666
 30
0.0
 10
99.0
 20
-164.33333333333334
 30
0.0
 10
99.0
 20
-169.0
 30
0.0
 10
99.0
 20
-173.0
 30
0.0
 10
97.0
 20
-175.0
 30
0.0
 10
93.5
 20
-175.0
 30
0.0
 10
90.0
 20
-175.0
 30
0.0
 10
88.0
 20
-173.0
 30
0.0
 10
88.0
 20
-170.0
 30
0.0
  0
SPLINE
  5
9D
330
17
100
AcDbEntity
  8
ID_CUT_SINGLELINE
100
AcDbSpline
 70
0
 71
3
 72
14
 73
10
 74
0
 40
0.0
 40
0.0
 40
0.0
 40
0.0
 40
1.0
 40
1.0
 40
1.0
 40
2.0
 40
2.0
 40
2.0
 40
3.0
 40
3.0
 40
3.0
 40
3.0
 10
104.02114873670455
 20
-158.6616202127273
 30
0.0
 10
105.14199332020264
 20
-157.5407756292292
 30
0.0
 10
106.26283790370076
 20
-156.4199310457311
 30
0.0
 10
107.38368248719885
 20
-155.299086462233
 30
0.0
 10
107.86505661808144
 20
-154.8177123313504
 30
0.0
 10
108.10574368352272
 20
-154.91740817814397
 30
0.0
 10
108.10574368352272
 20
-155.59817400261366
 30
0.0
 10
108.10574368352272
 20
-162.06544933507578
 30
0.0
 10
108.10574368352272
 20
-168.53272466753788
 30
0.0
 10
108.10574368352272
 20
-175.0
 30
0.0
  0
LINE
  5
9E
330
17
100
AcDbEntity
  8
ID_CUT_SINGLELINE
100
AcDbLine
 10
103.0
 20
-175.0
 30
0.0
 11
113.21148736704544
 21
-175.0
 31
0.0
  0
LINE
  5
9F
330
17
100
AcDbEntity
  8
ID_CUT_SINGLELINE
100
AcDbLine
 10
117.21148736704544
 20
-165.0
 30
0.0
 11
125.21148736704544
 21
-165.0
 31
0.0
  0
SPLINE
  5
A0
330
17
100
AcDbEntity
  8
ID_CUT_SINGLELINE
100
AcDbSpline
 70
0
 71
3
 72
11
 73
7
 74
0
 40
0.0
 40
0.0
 40
0.0
 40
0.0
 40
1.0
 40
1.0
 40
1.0
 40
2.0
 40
2.0
 40
2.0
 40
2.0
 10
141.07571932701654
 20
-163.5
 30
0.0
 10
140.6307953490736
 20
-158.61233214919588
 30
0.0
 10
138.10976319998412
 20
-155.0
 30
0.0
 10
135.143603347031
 20
-155.0
 30
0.0
 10
132.17744349407786
 20
-155.0
 30
0.0
 10
129.6564113449884
 20
-158.61233214919588
 30
0.0
 10
129.21148736704544
 20
-163.5
 30
0.0
  0
SPLINE
  5
A1
330
17
100
AcDbEntity
  8
ID_CUT_SINGLELINE
100
AcDbSpline
 70
0
 71
3
 72
11
 73
7
 74
0
 40
0.0
 40
0.0
 40
0.0
 40
0.0
 40
1.0
 40
1.0
 40
1.0
 40
2.0
 40
2.0
 40
2.0
 40
2.0
 10
129.21148736704544
 20
-166.5
 30
0.0
 10
129.6564113449884
 20
-171.38766785080412
 30
0.0
 10
132.17744349407786
 20
-175.0
 30
0.0
 10
135.143603347031
 20
-175.0
 30
0.0
 10
138.10976319998412
 20
-175.0
 30
0.0
 10
140.63079534907357
 20
-171.38766785080415
 30
0.0
 10
141.07571932701654
 20
-166.5
 30
0.0
  0
SPLINE
  5
A2
330
17
100
AcDbEntity
  8
ID_CUT_SINGLELINE
100
AcDbSpline
 70
0
 71
3
 72
11
 73
7
 74
0
 40
0.0
 40
0.0
 40
0.0
 40
0.0
 40
1.0
 40
1.0
 40
1.0
 40
2.0
 40
2.0
 40
2.0
 40
2.0
 10
154.96257929365913
 20
-163.5
 30
0.0
 10
154.59180931204
 20
-158.61233214919588
 30
0.0
 10
152.49094918779878
 20
-155.0
 30
0.0
 10
150.01914931033784
 20
-155.0
 30
0.0
 10
147.5473494328769
 20
-155.0
 30
0.0
 10
145.44648930863568
 20
-158.61233214919588
 30
0.0
 10
145.07571932701654
 20
-163.5
 30
0.0
  0
SPLINE
  5
A3
330
17
100
AcDbEntity
  8
ID_CUT_SINGLELINE
100
AcDbSpline
 70
0
 71
3
 72
11
 73
7
 74
0
 40
0.0
 40
0.0
 40
0.0
 40
0.0
 40
1.0
 40
1.0
 40
1.0
 40
2.0
 40
2.0
 40
2.0
 40
2.0
 10
145.07571932701654
 20
-166.5
 30
0.0
 10
145.44648930863568
 20
-171.38766785080412
 30
0.0
 10
147.5473494328769
 20
-175.0
 30
0.0
 10
150.01914931033784
 20
-175.0
 30
0.0
 10
152.49094918779878
 20
-175.0
 30
0.0
 10
154.59180931204
 20
-171.38766785080415
 30
0.0
 10
154.96257929365913
 20
-166.5
 30
0.0
  0
LINE
  5
A4
330
17
100
AcDbEntity
  8
ID_CUT_SINGLELINE
100
AcDbLine
 10
148.01914931033784
 20
-170.0
 30
0.0
 11
152.01914931033784
 21
-160.0
 31
0.0
  0
ENDSEC
  0
SECTION
  2
OBJECTS
  0
DICTIONARY
  5
A
330
0
100
AcDbDictionary
281
1
  3
ACAD_COLOR
350
B
  3
ACAD_GROUP
350
C
  3
ACAD_LAYOUT
350
D
  3
ACAD_MATERIAL
350
E
  3
ACAD_MLEADERSTYLE
350
F
  3
ACAD_MLINESTYLE
350
10
  3
ACAD_PLOTSETTINGS
350
11
  3
ACAD_PLOTSTYLENAME
350
12
  3
ACAD_SCALELIST
350
14
  3
ACAD_TABLESTYLE
350
15
  3
ACAD_VISUALSTYLE
350
16
  3
EZDXF_META
350
2D
  0
DICTIONARY
  5
B
330
A
100
AcDbDictionary
281
1
  0
DICTIONARY
  5
C
330
A
100
AcDbDictionary
281
1
  0
DICTIONARY
  5
D
330
A
100
AcDbDictionary
281
1
  3
Model
350
1A
  3
Layout1
350
1E
  0
DICTIONARY
  5
E
330
A
100
AcDbDictionary
281
1
  3
ByBlock
350
1F
  3
ByLayer
350
20
  3
Global
350
21
  0
DICTIONARY
  5
F
330
A
100
AcDbDictionary
281
1
  3
Standard
350
2C
  0
DICTIONARY
  5
10
330
A
100
AcDbDictionary
281
1
  3
Standard
350
22
  0
DICTIONARY
  5
11
330
A
100
AcDbDictionary
281
1
  0
ACDBDICTIONARYWDFLT
  5
12
330
A
100
AcDbDictionary
281
1
  3
Normal
350
13
100
AcDbDictionaryWithDefault
340
13
  0
ACDBPLACEHOLDER
  5
13
330
12
  0
DICTIONARY
  5
14
330
A
100
AcDbDictionary
281
1
  0
DICTIONARY
  5
15
330
A
100
AcDbDictionary
281
1
  0
DICTIONARY
  5
16
330
A
100
AcDbDictionary
281
1
  0
LAYOUT
  5
1A
330
D
100
AcDbPlotSettings
  1

  4
A3
  6

 40
7.5
 41
20.0
 42
7.5
 43
20.0
 44
420.0
 45
297.0
 46
0.0
 47
0.0
 48
0.0
 49
0.0
140
0.0
141
0.0
142
1.0
143
1.0
 70
1024
 72
1
 73
0
 74
5
  7

 75
16
 76
0
 77
2
 78
300
147
1.0
148
0.0
149
0.0
100
AcDbLayout
  1
Model
 70
1
 71
0
 10
0.0
 20
0.0
 11
420.0
 21
297.0
 12
0.0
 22
0.0
 32
0.0
 14
1e+20
 24
1e+20
 34
1e+20
 15
-1e+20
 25
-1e+20
 35
-1e+20
146
0.0
 13
0.0
 23
0.0
 33
0.0
 16
1.0
 26
0.0
 36
0.0
 17
0.0
 27
1.0
 37
0.0
 76
1
330
17
  0
LAYOUT
  5
1E
330
D
100
AcDbPlotSettings
  1

  4
A3
  6

 40
7.5
 41
20.0
 42
7.5
 43
20.0
 44
420.0
 45
297.0
 46
0.0
 47
0.0
 48
0.0
 49
0.0
140
0.0
141
0.0
142
1.0
143
1.0
 70
0
 72
1
 73
0
 74
5
  7

 75
16
 76
0
 77
2
 78
300
147
1.0
148
0.0
149
0.0
100
AcDbLayout
  1
Layout1
 70
1
 71
1
 10
0.0
 20
0.0
 11
420.0
 21
297.0
 12
0.0
 22
0.0
 32
0.0
 14
1e+20
 24
1e+20
 34
1e+20
 15
-1e+20
 25
-1e+20
 35
-1e+20
146
0.0
 13
0.0
 23
0.0
 33
0.0
 16
1.0
 26
0.0
 36
0.0
 17
0.0
 27
1.0
 37
0.0
 76
1
330
1B
  0
MATERIAL
  5
1F
102
{ACAD_REACTORS
330
E
102
}
330
E
100
AcDbMaterial
  1
ByBlock
  2

 70
0
 40
1.0
 71
1
 41
1.0
 91
-1023410177
 42
1.0
 72
1
  3

 73
1
 74
1
 75
1
 44
0.5
 73
0
 45
1.0
 46
1.0
 77
1
  4

 78
1
 79
1
170
1
 48
1.0
171
1
  6

172
1
173
1
174
1
140
1.0
141
1.0
175
1
  7

176
1
177
1
178
1
143
1.0
179
1
  8

270
1
271
1
272
1
145
1.0
146
1.0
273
1
  9

274
1
275
1
276
1
 42
1.0
 72
1
  3

 73
1
 74
1
 75
1
 94
63
  0
MATERIAL
  5
20
102
{ACAD_REACTORS
330
E
102
}
330
E
100
AcDbMaterial
  1
ByLayer
  2

 70
0
 40
1.0
 71
1
 41
1.0
 91
-1023410177
 42
1.0
 72
1
  3

 73
1
 74
1
 75
1
 44
0.5
 73
0
 45
1.0
 46
1.0
 77
1
  4

 78
1
 79
1
170
1
 48
1.0
171
1
  6

172
1
173
1
174
1
140
1.0
141
1.0
175
1
  7

176
1
177
1
178
1
143
1.0
179
1
  8

270
1
271
1
272
1
145
1.0
146
1.0
273
1
  9

274
1
275
1
276
1
 42
1.0
 72
1
  3

 73
1
 74
1
 75
1
 94
63
  0
MATERIAL
  5
21
102
{ACAD_REACTORS
330
E
102
}
330
E
100
AcDbMaterial
  1
Global
  2

 70
0
 40
1.0
 71
1
 41
1.0
 91
-1023410177
 42
1.0
 72
1
  3

 73
1
 74
1
 75
1
 44
0.5
 73
0
 45
1.0
 46
1.0
 77
1
  4

 78
1
 79
1
170
1
 48
1.0
171
1
  6

172
1
173
1
174
1
140
1.0
141
1.0
175
1
  7

176
1
177
1
178
1
143
1.0
179
1
  8

270
1
271
1
272
1
145
1.0
146
1.0
273
1
  9

274
1
275
1
276
1
 42
1.0
 72
1
  3

 73
1
 74
1
 75
1
 94
63
  0
MLINESTYLE
  5
22
102
{ACAD_REACTORS
330
10
102
}
330
10
100
AcDbMlineStyle
  2
Standard
 70
0
  3

 62
256
 51
90.0
 52
90.0
 71
2
 49
0.5
 62
256
  6
BYLAYER
 49
-0.5
 62
256
  6
BYLAYER
  0
MLEADERSTYLE
  5
2C
102
{ACAD_REACTORS
330
F
102
}
330
F
100
AcDbMLeaderStyle
179
2
170
2
171
1
172
0
 90
2
 40
0.0
 41
0.0
173
1
 91
-1056964608
 92
-2
290
1
 42
2.0
291
1
 43
8.0
  3
Standard
 44
4.0
300

342
29
174
1
175
1
176
0
178
1
 93
-1056964608
 45
4.0
292
0
297
0
 46
4.0
 94
-1056964608
 47
1.0
 49
1.0
140
1.0
294
1
141
0.0
177
0
142
1.0
295
0
296
0
143
3.75
271
0
272
9
273
9
  0
DICTIONARY
  5
2D
330
A
100
AcDbDictionary
280
1
281
1
  3
CREATED_BY_EZDXF
350
2E
  3
WRITTEN_BY_EZDXF
350
A7
  0
DICTIONARYVAR
  5
2E
330
2D
100
DictionaryVariables
280
0
  1
1.4.2 @ 2026-09-19T06:44:38.284940+00:00
  0
DICTIONARYVAR
  5
A7
330
2D
100
DictionaryVariables
280
0
  1
1.4.2 @ 2026-09-19T06:44:38.296896+00:00
  0
ENDSEC
  0
EOF
