  0
SECTION
  2
HEADER
  9
$ACADVER
  1
AC1024
  9
$ACADMAINTVER
 70
6
  9
$DWGCODEPAGE
  3
ANSI_1252
  9
$LASTSAVEDBY
  1
ezdxf
  9
$INSBASE
 10
0.0
 20
0.0
 30
0.0
  9
$EXTMIN
 10
1e+20
 20
1e+20
 30
1e+20
  9
$EXTMAX
 10
-1e+20
 20
-1e+20
 30
-1e+20
  9
$LIMMIN
 10
0.0
 20
0.0
  9
$LIMMAX
 10
420.0
 20
297.0
  9
$ORTHOMODE
 70
0
  9
$REGENMODE
 70
1
  9
$FILLMODE
 70
1
  9
$QTEXTMODE
 70
0
  9
$MIRRTEXT
 70
1
  9
$LTSCALE
 40
1.0
  9
$ATTMODE
 70
1
  9
$TEXTSIZE
 40
2.5
  9
$TRACEWID
 40
1.0
  9
$TEXTSTYLE
  7
Standard
  9
$CLAYER
  8
0
  9
$CELTYPE
  6
ByLayer
  9
$CECOLOR
 62
256
  9
$CELTSCALE
 40
1.0
  9
$DISPSILH
 70
0
  9
$DIMSCALE
 40
1.0
  9
$DIMASZ
 40
2.5
  9
$DIMEXO
 40
0.625
  9
$DIMDLI
 40
3.75
  9
$DIMRND
 40
0.0
  9
$DIMDLE
 40
0.0
  9
$DIMEXE
 40
1.25
  9
$DIMTP
 40
0.0
  9
$DIMTM
 40
0.0
  9
$DIMTXT
 40
2.5
  9
$DIMCEN
 40
2.5
  9
$DIMTSZ
 40
0.0
  9
$DIMTOL
 70
0
  9
$DIMLIM
 70
0
  9
$DIMTIH
 70
0
  9
$DIMTOH
 70
0
  9
$DIMSE1
 70
0
  9
$DIMSE2
 70
0
  9
$DIMTAD
 70
1
  9
$DIMZIN
 70
8
  9
$DIMBLK
  1

  9
$DIMASO
 70
1
  9
$DIMSHO
 70
1
  9
$DIMPOST
  1

  9
$DIMAPOST
  1

  9
$DIMALT
 70
0
  9
$DIMALTD
 70
3
  9
$DIMALTF
 40
0.03937007874
  9
$DIMLFAC
 40
1.0
  9
$DIMTOFL
 70
1
  9
$DIMTVP
 40
0.0
  9
$DIMTIX
 70
0
  9
$DIMSOXD
 70
0
  9
$DIMSAH
 70
0
  9
$DIMBLK1
  1

  9
$DIMBLK2
  1

  9
$DIMSTYLE
  2
ISO-25
  9
$DIMCLRD
 70
0
  9
$DIMCLRE
 70
0
  9
$DIMCLRT
 70
0
  9
$DIMTFAC
 40
1.0
  9
$DIMGAP
 40
0.625
  9
$DIMJUST
 70
0
  9
$DIMSD1
 70
0
  9
$DIMSD2
 70
0
  9
$DIMTOLJ
 70
0
  9
$DIMTZIN
 70
8
  9
$DIMALTZ
 70
0
  9
$DIMALTTZ
 70
0
  9
$DIMUPT
 70
0
  9
$DIMDEC
 70
2
  9
$DIMTDEC
 70
2
  9
$DIMALTU
 70
2
  9
$DIMALTTD
 70
3
  9
$DIMTXSTY
  7
Standard
  9
$DIMAUNIT
 70
0
  9
$DIMADEC
 70
0
  9
$DIMALTRND
 40
0.0
  9
$DIMAZIN
 70
0
  9
$DIMDSEP
 70
44
  9
$DIMATFIT
 70
3
  9
$DIMFRAC
 70
0
  9
$DIMLDRBLK
  1

  9
$DIMLUNIT
 70
2
  9
$DIMLWD
 70
-2
  9
$DIMLWE
 70
-2
  9
$DIMTMOVE
 70
0
  9
$DIMFXL
 40
1.0
  9
$DIMFXLON
 70
0
  9
$DIMJOGANG
 40
0.785398163397
  9
$DIMTFILL
 70
0
  9
$DIMTFILLCLR
 70
0
  9
$DIMARCSYM
 70
0
  9
$DIMLTYPE
  6

  9
$DIMLTEX1
  6

  9
$DIMLTEX2
  6

  9
$DIMTXTDIRECTION
 70
0
  9
$LUNITS
 70
2
  9
$LUPREC
 70
4
  9
$SKETCHINC
 40
1.0
  9
$FILLETRAD
 40
10.0
  9
$AUNITS
 70
0
  9
$AUPREC
 70
2
  9
$MENU
  1
.
  9
$ELEVATION
 40
0.0
  9
$PELEVATION
 40
0.0
  9
$THICKNESS
 40
0.0
  9
$LIMCHECK
 70
0
  9
$CHAMFERA
 40
0.0
  9
$CHAMFERB
 40
0.0
  9
$CHAMFERC
 40
0.0
  9
$CHAMFERD
 40
0.0
  9
$SKPOLY
 70
0
  9
$TDCREATE
 40
2461322.733912037
  9
$TDUCREATE
 40
2458532.153996898
  9
$TDUPDATE
 40
2461322.733912037
  9
$TDUUPDATE
 40
2458532.1544311
  9
$TDINDWG
 40
0.0
  9
$TDUSRTIMER
 40
0.0
  9
$USRTIMER
 70
1
  9
$ANGBASE
 50
0.0
  9
$ANGDIR
 70
0
  9
$PDMODE
 70
0
  9
$PDSIZE
 40
0.0
  9
$PLINEWID
 40
0.0
  9
$SPLFRAME
 70
0
  9
$SPLINETYPE
 70
6
  9
$SPLINESEGS
 70
8
  9
$HANDSEED
  5
C4
  9
$SURFTAB1
 70
6
  9
$SURFTAB2
 70
6
  9
$SURFTYPE
 70
6
  9
$SURFU
 70
6
  9
$SURFV
 70
6
  9
$UCSBASE
  2

  9
$UCSNAME
  2

  9
$UCSORG
 10
0.0
 20
0.0
 30
0.0
  9
$UCSXDIR
 10
1.0
 20
0.0
 30
0.0
  9
$UCSYDIR
 10
0.0
 20
1.0
 30
0.0
  9
$UCSORTHOREF
  2

  9
$UCSORTHOVIEW
 70
0
  9
$UCSORGTOP
 10
0.0
 20
0.0
 30
0.0
  9
$UCSORGBOTTOM
 10
0.0
 20
0.0
 30
0.0
  9
$UCSORGLEFT
 10
0.0
 20
0.0
 30
0.0
  9
$UCSORGRIGHT
 10
0.0
 20
0.0
 30
0.0
  9
$UCSORGFRONT
 10
0.0
 20
0.0
 30
0.0
  9
$UCSORGBACK
 10
0.0
 20
0.0
 30
0.0
  9
$PUCSBASE
  2

  9
$PUCSNAME
  2

  9
$PUCSORG
 10
0.0
 20
0.0
 30
0.0
  9
$PUCSXDIR
 10
1.0
 20
0.0
 30
0.0
  9
$PUCSYDIR
 10
0.0
 20
1.0
 30
0.0
  9
$PUCSORTHOREF
  2

  9
$PUCSORTHOVIEW
 70
0
  9
$PUCSORGTOP
 10
0.0
 20
0.0
 30
0.0
  9
$PUCSORGBOTTOM
 10
0.0
 20
0.0
 30
0.0
  9
$PUCSORGLEFT
 10
0.0
 20
0.0
 30
0.0
  9
$PUCSORGRIGHT
 10
0.0
 20
0.0
 30
0.0
  9
$PUCSORGFRONT
 10
0.0
 20
0.0
 30
0.0
  9
$PUCSORGBACK
 10
0.0
 20
0.0
 30
0.0
  9
$USERI1
 70
0
  9
$USERI2
 70
0
  9
$USERI3
 70
0
  9
$USERI4
 70
0
  9
$USERI5
 70
0
  9
$USERR1
 40
0.0
  9
$USERR2
 40
0.0
  9
$USERR3
 40
0.0
  9
$USERR4
 40
0.0
  9
$USERR5
 40
0.0
  9
$WORLDVIEW
 70
1
  9
$SHADEDGE
 70
3
  9
$SHADEDIF
 70
70
  9
$TILEMODE
 70
1
  9
$MAXACTVP
 70
64
  9
$PINSBASE
 10
0.0
 20
0.0
 30
0.0
  9
$PLIMCHECK
 70
0
  9
$PEXTMIN
 10
1e+20
 20
1e+20
 30
1e+20
  9
$PEXTMAX
 10
-1e+20
 20
-1e+20
 30
-1e+20
  9
$PLIMMIN
 10
0.0
 20
0.0
  9
$PLIMMAX
 10
420.0
 20
297.0
  9
$UNITMODE
 70
0
  9
$VISRETAIN
 70
1
  9
$PLINEGEN
 70
0
  9
$PSLTSCALE
 70
1
  9
$TREEDEPTH
 70
3020
  9
$CMLSTYLE
  2
Standard
  9
$CMLJUST
 70
0
  9
$CMLSCALE
 40
20.0
  9
$PROXYGRAPHICS
 70
1
  9
$MEASUREMENT
 70
1
  9
$CELWEIGHT
370
-1
  9
$ENDCAPS
280
0
  9
$JOINSTYLE
280
0
  9
$LWDISPLAY
290
0
  9
$INSUNITS
 70
4
  9
$HYPERLINKBASE
  1

  9
$STYLESHEET
  1

  9
$XEDIT
290
1
  9
$CEPSNTYPE
380
0
  9
$PSTYLEMODE
290
1
  9
$FINGERPRINTGUID
  2
{F043D314-0284-4CBB-8938-F11B2562AD44}
  9
$VERSIONGUID
  2
{1E4DDFA3-C732-4E51-9F62-9A664684E8F6}
  9
$EXTNAMES
290
1
  9
$PSVPSCALE
 40
0.0
  9
$OLESTARTUP
290
0
  9
$SORTENTS
280
127
  9
$INDEXCTL
280
0
  9
$HIDETEXT
280
1
  9
$XCLIPFRAME
280
1
  9
$HALOGAP
280
0
  9
$OBSCOLOR
 70
257
  9
$OBSLTYPE
280
0
  9
$INTERSECTIONDISPLAY
280
0
  9
$INTERSECTIONCOLOR
 70
257
  9
$DIMASSOC
280
2
  9
$PROJECTNAME
  1

  9
$CAMERADISPLAY
290
0
  9
$LENSLENGTH
 40
50.0
  9
$CAMERAHEIGHT
 40
0.0
  9
$STEPSPERSEC
 40
24.0
  9
$STEPSIZE
 40
100.0
  9
$3DDWFPREC
 40
2.0
  9
$PSOLWIDTH
 40
0.005
  9
$PSOLHEIGHT
 40
0.08
  9
$LOFTANG1
 40
1.570796326795
  9
$LOFTANG2
 40
1.570796326795
  9
$LOFTMAG1
 40
0.0
  9
$LOFTMAG2
 40
0.0
  9
$LOFTPARAM
 70
7
  9
$LOFTNORMALS
280
1
  9
$LATITUDE
 40
37.795
  9
$LONGITUDE
 40
-122.394
  9
$NORTHDIRECTION
 40
0.0
  9
$TIMEZONE
 70
-8000
  9
$LIGHTGLYPHDISPLAY
280
1
  9
$TILEMODELIGHTSYNCH
280
1
  9
$CMATERIAL
347
20
  9
$SOLIDHIST
280
0
  9
$SHOWHIST
280
1
  9
$DWFFRAME
280
2
  9
$DGNFRAME
280
2
  9
$REALWORLDSCALE
290
1
  9
$INTERFERECOLOR
 62
256
  9
$CSHADOW
280
0
  9
$SHADOWPLANELOCATION
 40
0.0
  0
ENDSEC
  0
SECTION
  2
CLASSES
  0
CLASS
  1
ACDBDICTIONARYWDFLT
  2
AcDbDictionaryWithDefault
  3
ObjectDBX Classes
 90
0
 91
0
280
0
281
0
  0
CLASS
  1
SUN
  2
AcDbSun
  3
SCENEOE
 90
1153
 91
0
280
0
281
0
  0
CLASS
  1
VISUALSTYLE
  2
AcDbVisualStyle
  3
ObjectDBX Classes
 90
4095
 91
0
280
0
281
0
  0
CLASS
  1
MATERIAL
  2
AcDbMaterial
  3
ObjectDBX Classes
 90
1153
 91
0
280
0
281
0
  0
CLASS
  1
SCALE
  2
AcDbScale
  3
ObjectDBX Classes
 90
1153
 91
0
280
0
281
0
  0
CLASS
  1
TABLESTYLE
  2
AcDbTableStyle
  3
ObjectDBX Classes
 90
4095
 91
0
280
0
281
0
  0
CLASS
  1
MLEADERSTYLE
  2
AcDbMLeaderStyle
  3
ACDB_MLEADERSTYLE_CLASS
 90
4095
 91
0
280
0
281
0
  0
CLASS
  1
DICTIONARYVAR
  2
AcDbDictionaryVar
  3
ObjectDBX Classes
 90
0
 91
0
280
0
281
0
  0
CLASS
  1
CELLSTYLEMAP
  2
AcDbCellStyleMap
  3
ObjectDBX Classes
 90
1152
 91
0
280
0
281
0
  0
CLASS
  1
MENTALRAYRENDERSETTINGS
  2
AcDbMentalRayRenderSettings
  3
SCENEOE
 90
1024
 91
0
280
0
281
0
  0
CLASS
  1
ACDBDETAILVIEWSTYLE
  2
AcDbDetailViewStyle
  3
ObjectDBX Classes
 90
1025
 91
0
280
0
281
0
  0
CLASS
  1
ACDBSECTIONVIEWSTYLE
  2
AcDbSectionViewStyle
  3
ObjectDBX Classes
 90
1025
 91
0
280
0
281
0
  0
CLASS
  1
RASTERVARIABLES
  2
AcDbRasterVariables
  3
ISM
 90
0
 91
0
280
0
281
0
  0
CLASS
  1
ACDBPLACEHOLDER
  2
AcDbPlaceHolder
  3
ObjectDBX Classes
 90
0
 91
0
280
0
281
0
  0
CLASS
  1
LAYOUT
  2
AcDbLayout
  3
ObjectDBX Classes
 90
0
 91
0
280
0
281
0
  0
ENDSEC
  0
SECTION
  2
TABLES
  0
TABLE
  2
VPORT
  5
8
330
0
100
AcDbSymbolTable
 70
1
  0
VPORT
  5
23
330
8
100
AcDbSymbolTableRecord
100
AcDbViewportTableRecord
  2
*Active
 70
0
 10
0.0
 20
0.0
 11
1.0
 21
1.0
 12
0.0
 22
0.0
 13
0.0
 23
0.0
 14
0.5
 24
0.5
 15
0.5
 25
0.5
 16
0.0
 26
0.0
 36
1.0
 17
0.0
 27
0.0
 37
0.0
 40
1000.0
 41
1.34
 42
50.0
 43
0.0
 44
0.0
 50
0.0
 51
0.0
 71
0
 72
1000
 73
1
 74
3
 75
0
 76
0
 77
0
 78
0
281
0
 65
0
146
0.0
  0
ENDTAB
  0
TABLE
  2
LTYPE
  5
2
330
0
100
AcDbSymbolTable
 70
3
  0
LTYPE
  5
24
330
2
100
AcDbSymbolTableRecord
100
AcDbLinetypeTableRecord
  2
ByBlock
 70
0
  3

 72
65
 73
0
 40
0.0
  0
LTYPE
  5
25
330
2
100
AcDbSymbolTableRecord
100
AcDbLinetypeTableRecord
  2
ByLayer
 70
0
  3

 72
65
 73
0
 40
0.0
  0
LTYPE
  5
26
330
2
100
AcDbSymbolTableRecord
100
AcDbLinetypeTableRecord
  2
Continuous
 70
0
  3

 72
65
 73
0
 40
0.0
  0
ENDTAB
  0
TABLE
  2
LAYER
  5
1
330
0
100
AcDbSymbolTable
 70
3
  0
LAYER
  5
27
330
1
100
AcDbSymbolTableRecord
100
AcDbLayerTableRecord
  2
0
 70
0
 62
7
  6
Continuous
370
-3
390
13
347
21
  0
LAYER
  5
28
330
1
100
AcDbSymbolTableRecord
100
AcDbLayerTableRecord
  2
Defpoints
 70
0
 62
7
  6
Continuous
290
0
370
-3
390
13
347
21
  0
LAYER
  5
2F
330
1
100
AcDbSymbolTableRecord
100
AcDbLayerTableRecord
  2
ID_CUT_SINGLELINE
 70
0
 62
3
  6
Continuous
370
0
390
13
347
21
  0
ENDTAB
  0
TABLE
  2
STYLE
  5
5
330
0
100
AcDbSymbolTable
 70
1
  0
STYLE
  5
29
330
5
100
AcDbSymbolTableRecord
100
AcDbTextStyleTableRecord
  2
Standard
 70
0
 40
0.0
 41
1.0
 50
0.0
 71
0
 42
2.5
  3
txt
  4

  0
ENDTAB
  0
TABLE
  2
VIEW
  5
7
330
0
100
AcDbSymbolTable
 70
0
  0
ENDTAB
  0
TABLE
  2
UCS
  5
6
330
0
100
AcDbSymbolTable
 70
0
  0
ENDTAB
  0
TABLE
  2
APPID
  5
3
330
0
100
AcDbSymbolTable
 70
3
  0
APPID
  5
2A
330
3
100
AcDbSymbolTableRecord
100
AcDbRegAppTableRecord
  2
ACAD
 70
0
  0
APPID
  5
C1
330
3
100
AcDbSymbolTableRecord
100
AcDbRegAppTableRecord
  2
HATCHBACKGROUNDCOLOR
 70
0
  0
APPID
  5
C2
330
3
100
AcDbSymbolTableRecord
100
AcDbRegAppTableRecord
  2
EZDXF
 70
0
  0
ENDTAB
  0
TABLE
  2
DIMSTYLE
  5
4
330
0
100
AcDbSymbolTable
 70
1
100
AcDbDimStyleTable
  0
DIMSTYLE
105
2B
330
4
100
AcDbSymbolTableRecord
100
AcDbDimStyleTableRecord
  2
Standard
 70
0
 40
1.0
 41
2.5
 42
0.625
 43
3.75
 44
1.25
 45
0.0
 46
0.0
 47
0.0
 48
0.0
 49
2.5
140
2.5
141
2.5
142
0.0
143
0.03937007874
144
1.0
145
0.0
146
1.0
147
0.625
148
0.0
 69
0
 70
0
 71
0
 72
0
 73
0
 74
0
 75
0
 76
0
 77
1
 78
8
 79
3
170
0
171
3
172
1
173
0
174
0
175
0
176
0
177
0
178
0
179
2
271
2
272
2
273
2
274
3
275
0
276
0
277
2
278
44
279
0
280
0
281
0
282
0
283
0
284
8
285
0
286
0
288
0
289
3
290
0
371
-2
372
-2
  0
ENDTAB
  0
TABLE
  2
BLOCK_RECORD
  5
9
330
0
100
AcDbSymbolTable
 70
2
  0
BLOCK_RECORD
  5
17
330
9
100
AcDbSymbolTableRecord
100
AcDbBlockTableRecord
  2
*Model_Space
340
1A
 70
0
280
1
281
0
  0
BLOCK_RECORD
  5
1B
330
9
100
AcDbSymbolTableRecord
100
AcDbBlockTableRecord
  2
*Paper_Space
340
1E
 70
0
280
1
281
0
  0
ENDTAB
  0
ENDSEC
  0
SECTION
  2
BLOCKS
  0
BLOCK
  5
18
330
17
100
AcDbEntity
  8
0
100
AcDbBlockBegin
  2
*Model_Space
 70
0
 10
0.0
 20
0.0
 30
0.0
  3
*Model_Space
  1

  0
ENDBLK
  5
19
330
17
100
AcDbEntity
  8
0
100
AcDbBlockEnd
  0
BLOCK
  5
1C
330
1B
100
AcDbEntity
  8
0
100
AcDbBlockBegin
  2
*Paper_Space
 70
0
 10
0.0
 20
0.0
 30
0.0
  3
*Paper_Space
  1

  0
ENDBLK
  5
1D
330
1B
100
AcDbEntity
  8
0
100
AcDbBlockEnd
  0
ENDSEC
  0
SECTION
  2
ENTITIES
  0
LWPOLYLINE
  5
30
102
{ACAD_REACTORS
330
33
102
}
330
17
100
AcDbEntity
  8
ID_CUT_SINGLELINE
100
AcDbPolyline
 90
5
 70
0
 10
0.0
 20
5.0
 10
0.0
 20
0.8
 10
0.8
 20
0.0
 10
3.0
 20
0.0
 10
3.0
 20
1.5
  0
SPLINE
  5
31
102
{ACAD_REACTORS
330
33
102
}
330
17
100
AcDbEntity
  8
ID_CUT_SINGLELINE
100
AcDbSpline
 70
0
 71
3
 72
20
 73
16
 74
0
 40
0.0
 40
0.0
 40
0.0
 40
0.0
 40
1.0
 40
1.0
 40
1.0
 40
2.0
 40
2.0
 40
2.0
 40
3.0
 40
3.0
 40
3.0
 40
4.0
 40
4.0
 40
4.0
 40
5.0
 40
5.0
 40
5.0
 40
5.0
 10
4.5
 20
0.0
 30
0.0
 10
4.714887655841161
 20
0.5730337489097622
 30
0.0
 10
4.929775311682322
 20
1.1460674978195244
 30
0.0
 10
5.144662967523482
 20
1.7191012467292865
 30
0.0
 10
5.214887655841161
 20
1.9063670822430956
 30
0.0
 10
5.35
 20
2.0
 30
0.0
 10
5.55
 20
2.0
 30
0.0
 10
6.016666666666667
 20
2.0
 30
0.0
 10
6.483333333333333
 20
2.0
 30
0.0
 10
6.95
 20
2.0
 30
0.0
 10
7.15
 20
2.0
 30
0.0
 10
7.285112344158839
 20
1.9063670822430956
 30
0.0
 10
7.355337032476518
 20
1.7191012467292865
 30
0.0
 10
7.570224688317678
 20
1.1460674978195244
 30
0.0
 10
7.78511234415884
 20
0.5730337489097622
 30
0.0
 10
8.0
 20
0.0
 30
0.0
  0
SPLINE
  5
32
102
{ACAD_REACTORS
330
33
102
}
330
17
100
AcDbEntity
  8
ID_CUT_SINGLELINE
100
AcDbSpline
 70
0
 71
3
 72
17
 73
13
 74
0
 40
0.0
 40
0.0
 40
0.0
 40
0.0
 40
1.0
 40
1.0
 40
1.0
 40
2.0
 40
2.0
 40
2.0
 40
3.0
 40
3.0
 40
3.0
 40
4.0
 40
4.0
 40
4.0
 40
4.0
 10
5.55
 20
2.8
 30
0.0
 10
5.658333333333333
 20
3.266666666666667
 30
0.0
 10
5.766666666666667
 20
3.733333333333333
 30
0.0
 10
5.875
 20
4.2
 30
0.0
 10
6.005
 20
4.76
 30
0.0
 10
6.05
 20
5.0
 30
0.0
 10
6.25
 20
5.0
 30
0.0
 10
6.45
 20
5.0
 30
0.0
 10
6.495
 20
4.76
 30
0.0
 10
6.625
 20
4.2
 30
0.0
 10
6.733333333333333
 20
3.733333333333333
 30
0.0
 10
6.841666666666667
 20
3.266666666666667
 30
0.0
 10
6.95
 20
2.8
 30
0.0
  0
LWPOLYLINE
  5
34
102
{ACAD_REACTORS
330
39
102
}
330
17
100
AcDbEntity
  8
ID_CUT_SINGLELINE
100
AcDbPolyline
 90
5
 70
0
 10
18.0
 20
5.0
 10
18.0
 20
0.8
 10
18.8
 20
0.0
 10
21.0
 20
0.0
 10
21.0
 20
1.5
  0
SPLINE
  5
35
102
{ACAD_REACTORS
330
39
102
}
330
17
100
AcDbEntity
  8
ID_CUT_SINGLELINE
100
AcDbSpline
 70
0
 71
3
 72
26
 73
22
 74
0
 40
0.0
 40
0.0
 40
0.0
 40
0.0
 40
1.0
 40
1.0
 40
1.0
 40
2.0
 40
2.0
 40
2.0
 40
3.0
 40
3.0
 40
3.0
 40
4.0
 40
4.0
 40
4.0
 40
5.0
 40
5.0
 40
5.0
 40
6.0
 40
6.0
 40
6.0
 40
7.0
 40
7.0
 40
7.0
 40
7.0
 10
24.91164318794839
 20
4.83635851763302
 30
0.0
 10
24.67759209204478
 20
4.947627524940609
 30
0.0
 10
24.373711029395317
 20
4.999999999999999
 30
0.0
 10
24.0
 20
4.999999999999999
 30
0.0
 10
23.666666666666668
 20
4.999999999999999
 30
0.0
 10
23.333333333333332
 20
4.999999999999999
 30
0.0
 10
23.0
 20
4.999999999999999
 30
0.0
 10
22.66675
 20
4.999999999999999
 30
0.0
 10
22.5
 20
4.833249999999999
 30
0.0
 10
22.5
 20
4.499999999999999
 30
0.0
 10
22.5
 20
3.166666666666666
 30
0.0
 10
22.5
 20
1.833333333333333
 30
0.0
 10
22.5
 20
0.4999999999999999
 30
0.0
 10
22.5
 20
0.16674999999999998
 30
0.0
 10
22.66675
 20
0.0
 30
0.0
 10
23.0
 20
0.0
 30
0.0
 10
23.333333333333332
 20
0.0
 30
0.0
 10
23.666666666666668
 20
0.0
 30
0.0
 10
24.0
 20
0.0
 30
0.0
 10
24.373711029395317
 20
0.0
 30
0.0
 10
24.67759209204478
 20
0.05237247505939012
 30
0.0
 10
24.91164318794839
 20
0.16364148236697937
 30
0.0
  0
SPLINE
  5
36
102
{ACAD_REACTORS
330
39
102
}
330
17
100
AcDbEntity
  8
ID_CUT_SINGLELINE
100
AcDbSpline
 70
0
 71
3
 72
11
 73
7
 74
0
 40
0.0
 40
0.0
 40
0.0
 40
0.0
 40
1.0
 40
1.0
 40
1.0
 40
2.0
 40
2.0
 40
2.0
 40
2.0
 10
25.418068732108473
 20
4.283155871017728
 30
0.0
 10
25.47268957736949
 20
4.131683878811295
 30
0.0
 10
25.5
 20
3.9544971507209015
 30
0.0
 10
25.5
 20
3.749999999999999
 30
0.0
 10
25.5
 20
3.2163327135219317
 30
0.0
 10
25.246843757638345
 20
2.809243548224693
 30
0.0
 10
24.74053127291503
 20
2.6187999740523686
 30
0.0
  0
SPLINE
  5
37
102
{ACAD_REACTORS
330
39
102
}
330
17
100
AcDbEntity
  8
ID_CUT_SINGLELINE
100
AcDbSpline
 70
0
 71
3
 72
11
 73
7
 74
0
 40
0.0
 40
0.0
 40
0.0
 40
0.0
 40
1.0
 40
1.0
 40
1.0
 40
2.0
 40
2.0
 40
2.0
 40
2.0
 10
25.418068732108473
 20
0.716844128982271
 30
0.0
 10
25.47268957736949
 20
0.8683161211887043
 30
0.0
 10
25.5
 20
1.0455028492790974
 30
0.0
 10
25.5
 20
1.2499999999999998
 30
0.0
 10
25.5
 20
1.783667286478067
 30
0.0
 10
25.246843757638345
 20
2.190756451775306
 30
0.0
 10
24.74053127291503
 20
2.3812000259476305
 30
0.0
  0
LINE
  5
38
102
{ACAD_REACTORS
330
39
102
}
330
17
100
AcDbEntity
  8
ID_CUT_SINGLELINE
100
AcDbLine
 10
22.5
 20
2.4999999999999996
 30
0.0
 11
24.0
 21
2.4999999999999996
 31
0.0
  0
LWPOLYLINE
  5
3A
102
{ACAD_REACTORS
330
3C
102
}
330
17
100
AcDbEntity
  8
ID_CUT_SINGLELINE
100
AcDbPolyline
 90
5
 70
0
 10
36.0
 20
5.0
 10
36.0
 20
0.8
 10
36.8
 20
0.0
 10
39.0
 20
0.0
 10
39.0
 20
1.5
  0
SPLINE
  5
3B
102
{ACAD_REACTORS
330
3C
102
}
330
17
100
AcDbEntity
  8
ID_CUT_SINGLELINE
100
AcDbSpline
 70
0
 71
3
 72
20
 73
16
 74
0
 40
0.0
 40
0.0
 40
0.0
 40
0.0
 40
1.0
 40
1.0
 40
1.0
 40
2.0
 40
2.0
 40
2.0
 40
3.0
 40
3.0
 40
3.0
 40
4.0
 40
4.0
 40
4.0
 40
5.0
 40
5.0
 40
5.0
 40
5.0
 10
43.5
 20
4.5
 30
0.0
 10
43.0
 20
4.875
 30
0.0
 10
42.625
 20
5.0
 30
0.0
 10
42.0
 20
5.0
 30
0.0
 10
41.0
 20
5.0
 30
0.0
 10
40.5
 20
4.25
 30
0.0
 10
40.5
 20
3.25
 30
0.0
 10
40.5
 20
2.75
 30
0.0
 10
40.5
 20
2.25
 30
0.0
 10
40.5
 20
1.75
 30
0.0
 10
40.5
 20
0.75
 30
0.0
 10
41.0
 20
0.0
 30
0.0
 10
42.0
 20
0.0
 30
0.0
 10
42.625
 20
0.0
 30
0.0
 10
43.0
 20
0.125
 30
0.0
 10
43.5
 20
0.5
 30
0.0
  0
LWPOLYLINE
  5
3D
102
{ACAD_REACTORS
330
40
102
}
330
17
100
AcDbEntity
  8
ID_CUT_SINGLELINE
100
AcDbPolyline
 90
5
 70
0
 10
54.0
 20
5.0
 10
54.0
 20
0.8
 10
54.8
 20
0.0
 10
57.0
 20
0.0
 10
57.0
 20
1.5
  0
SPLINE
  5
3E
102
{ACAD_REACTORS
330
40
102
}
330
17
100
AcDbEntity
  8
ID_CUT_SINGLELINE
100
AcDbSpline
 70
0
 71
3
 72
17
 73
13
 74
0
 40
0.0
 40
0.0
 40
0.0
 40
0.0
 40
1.0
 40
1.0
 40
1.0
 40
2.0
 40
2.0
 40
2.0
 40
3.0
 40
3.0
 40
3.0
 40
4.0
 40
4.0
 40
4.0
 40
4.0
 10
58.5
 20
2.8749999999999996
 30
0.0
 10
58.5
 20
3.416666666666666
 30
0.0
 10
58.5
 20
3.9583333333333326
 30
0.0
 10
58.5
 20
4.499999999999999
 30
0.0
 10
58.5
 20
4.832499999999999
 30
0.0
 10
58.6675
 20
4.999999999999999
 30
0.0
 10
59.0
 20
4.999999999999999
 30
0.0
 10
59.25
 20
4.999999999999999
 30
0.0
 10
59.5
 20
4.999999999999999
 30
0.0
 10
59.75
 20
4.999999999999999
 30
0.0
 10
61.0
 20
4.999999999999999
 30
0.0
 10
61.75
 20
4.249999999999999
 30
0.0
 10
61.75
 20
2.8749999999999996
 30
0.0
  0
SPLINE
  5
3F
102
{ACAD_REACTORS
330
40
102
}
330
17
100
AcDbEntity
  8
ID_CUT_SINGLELINE
100
AcDbSpline
 70
0
 71
3
 72
17
 73
13
 74
0
 40
0.0
 40
0.0
 40
0.0
 40
0.0
 40
1.0
 40
1.0
 40
1.0
 40
2.0
 40
2.0
 40
2.0
 40
3.0
 40
3.0
 40
3.0
 40
4.0
 40
4.0
 40
4.0
 40
4.0
 10
58.5
 20
2.1249999999999996
 30
0.0
 10
58.5
 20
1.583333333333333
 30
0.0
 10
58.5
 20
1.0416666666666663
 30
0.0
 10
58.5
 20
0.4999999999999999
 30
0.0
 10
58.5
 20
0.1675000000000004
 30
0.0
 10
58.6675
 20
0.0
 30
0.0
 10
59.0
 20
0.0
 30
0.0
 10
59.25
 20
0.0
 30
0.0
 10
59.5
 20
0.0
 30
0.0
 10
59.75
 20
0.0
 30
0.0
 10
61.0
 20
0.0
 30
0.0
 10
61.75
 20
0.7499999999999998
 30
0.0
 10
61.75
 20
2.1249999999999996
 30
0.0
  0
LWPOLYLINE
  5
41
102
{ACAD_REACTORS
330
44
102
}
330
17
100
AcDbEntity
  8
ID_CUT_SINGLELINE
100
AcDbPolyline
 90
5
 70
0
 10
72.0
 20
5.0
 10
72.0
 20
0.8
 10
72.8
 20
0.0
 10
75.0
 20
0.0
 10
75.0
 20
1.5
  0
SPLINE
  5
42
102
{ACAD_REACTORS
330
44
102
}
330
17
100
AcDbEntity
  8
ID_CUT_SINGLELINE
100
AcDbSpline
 70
0
 71
3
 72
20
 73
16
 74
0
 40
0.0
 40
0.0
 40
0.0
 40
0.0
 40
1.0
 40
1.0
 40
1.0
 40
2.0
 40
2.0
 40
2.0
 40
3.0
 40
3.0
 40
3.0
 40
4.0
 40
4.0
 40
4.0
 40
5.0
 40
5.0
 40
5.0
 40
5.0
 10
79.5
 20
4.999999999999999
 30
0.0
 10
78.66666666666667
 20
4.999999999999999
 30
0.0
 10
77.83333333333333
 20
4.999999999999999
 30
0.0
 10
77.0
 20
4.999999999999999
 30
0.0
 10
76.66666666666667
 20
4.999999999999999
 30
0.0
 10
76.5
 20
4.833333333333332
 30
0.0
 10
76.5
 20
4.499999999999999
 30
0.0
 10
76.5
 20
3.166666666666666
 30
0.0
 10
76.5
 20
1.833333333333333
 30
0.0
 10
76.5
 20
0.4999999999999999
 30
0.0
 10
76.5
 20
0.16666666666666666
 30
0.0
 10
76.66666666666667
 20
0.0
 30
0.0
 10
77.0
 20
0.0
 30
0.0
 10
77.83333333333333
 20
0.0
 30
0.0
 10
78.66666666666667
 20
0.0
 30
0.0
 10
79.5
 20
0.0
 30
0.0
  0
LINE
  5
43
102
{ACAD_REACTORS
330
44
102
}
330
17
100
AcDbEntity
  8
ID_CUT_SINGLELINE
100
AcDbLine
 10
76.5
 20
2.4999999999999996
 30
0.0
 11
78.75
 21
2.4999999999999996
 31
0.0
  0
LWPOLYLINE
  5
45
102
{ACAD_REACTORS
330
48
102
}
330
17
100
AcDbEntity
  8
ID_CUT_SINGLELINE
100
AcDbPolyline
 90
5
 70
0
 10
90.0
 20
5.0
 10
90.0
 20
0.8
 10
90.8
 20
0.0
 10
93.0
 20
0.0
 10
93.0
 20
1.5
  0
SPLINE
  5
46
102
{ACAD_REACTORS
330
48
102
}
330
17
100
AcDbEntity
  8
ID_CUT_SINGLELINE
100
AcDbSpline
 70
0
 71
3
 72
14
 73
10
 74
0
 40
0.0
 40
0.0
 40
0.0
 40
0.0
 40
1.0
 40
1.0
 40
1.0
 40
2.0
 40
2.0
 40
2.0
 40
3.0
 40
3.0
 40
3.0
 40
3.0
 10
94.5
 20
0.0
 30
0.0
 10
94.5
 20
1.4999999999999998
 30
0.0
 10
94.5
 20
2.9999999999999996
 30
0.0
 10
94.5
 20
4.499999999999999
 30
0.0
 10
94.5
 20
4.833333333333332
 30
0.0
 10
94.66666666666667
 20
4.999999999999999
 30
0.0
 10
95.0
 20
4.999999999999999
 30
0.0
 10
95.83333333333333
 20
4.999999999999999
 30
0.0
 10
96.66666666666667
 20
4.999999999999999
 30
0.0
 10
97.5
 20
4.999999999999999
 30
0.0
  0
LINE
  5
47
102
{ACAD_REACTORS
330
48
102
}
330
17
100
AcDbEntity
  8
ID_CUT_SINGLELINE
100
AcDbLine
 10
94.5
 20
2.7499999999999996
 30
0.0
 11
96.75
 21
2.7499999999999996
 31
0.0
  0
LWPOLYLINE
  5
49
102
{ACAD_REACTORS
330
4B
102
}
330
17
100
AcDbEntity
  8
ID_CUT_SINGLELINE
100
AcDbPolyline
 90
5
 70
0
 10
108.0
 20
5.0
 10
108.0
 20
0.8
 10
108.8
 20
0.0
 10
111.0
 20
0.0
 10
111.0
 20
1.5
  0
SPLINE
  5
4A
102
{ACAD_REACTORS
330
4B
102
}
330
17
100
AcDbEntity
  8
ID_CUT_SINGLELINE
100
AcDbSpline
 70
0
 71
3
 72
29
 73
25
 74
0
 40
0.0
 40
0.0
 40
0.0
 40
0.0
 40
1.0
 40
1.0
 40
1.0
 40
2.0
 40
2.0
 40
2.0
 40
3.0
 40
3.0
 40
3.0
 40
4.0
 40
4.0
 40
4.0
 40
5.0
 40
5.0
 40
5.0
 40
6.0
 40
6.0
 40
6.0
 40
7.0
 40
7.0
 40
7.0
 40
8.0
 40
8.0
 40
8.0
 40
8.0
 10
115.5
 20
4.5
 30
0.0
 10
115.0
 20
4.875
 30
0.0
 10
114.625
 20
5.0
 30
0.0
 10
114.0
 20
5.0
 30
0.0
 10
113.0
 20
5.0
 30
0.0
 10
112.5
 20
4.25
 30
0.0
 10
112.5
 20
3.25
 30
0.0
 10
112.5
 20
2.75
 30
0.0
 10
112.5
 20
2.25
 30
0.0
 10
112.5
 20
1.75
 30
0.0
 10
112.5
 20
0.75
 30
0.0
 10
113.0
 20
0.0
 30
0.0
 10
114.0
 20
0.0
 30
0.0
 10
115.0
 20
0.0
 30
0.0
 10
115.5
 20
0.5
 30
0.0
 10
115.5
 20
1.5
 30
0.0
 10
115.5
 20
1.6666666666666667
 30
0.0
 10
115.5
 20
1.8333333333333333
 30
0.0
 10
115.5
 20
2.0
 30
0.0
 10
115.5
 20
2.3325
 30
0.0
 10
115.3325
 20
2.5
 30
0.0
 10
115.0
 20
2.5
 30
0.0
 10
114.75
 20
2.5
 30
0.0
 10
114.5
 20
2.5
 30
0.0
 10
114.25
 20
2.5
 30
0.0
  0
LWPOLYLINE
  5
4C
102
{ACAD_REACTORS
330
50
102
}
330
17
100
AcDbEntity
  8
ID_CUT_SINGLELINE
100
AcDbPolyline
 90
5
 70
0
 10
126.0
 20
5.0
 10
126.0
 20
0.8
 10
126.8
 20
0.0
 10
129.0
 20
0.0
 10
129.0
 20
1.5
  0
LINE
  5
4D
102
{ACAD_REACTORS
330
50
102
}
330
17
100
AcDbEntity
  8
ID_CUT_SINGLELINE
100
AcDbLine
 10
130.5
 20
0.0
 30
0.0
 11
130.5
 21
5.0
 31
0.0
  0
LINE
  5
4E
102
{ACAD_REACTORS
330
50
102
}
330
17
100
AcDbEntity
  8
ID_CUT_SINGLELINE
100
AcDbLine
 10
133.5
 20
0.0
 30
0.0
 11
133.5
 21
5.0
 31
0.0
  0
LINE
  5
4F
102
{ACAD_REACTORS
330
50
102
}
330
17
100
AcDbEntity
  8
ID_CUT_SINGLELINE
100
AcDbLine
 10
130.5
 20
2.5
 30
0.0
 11
133.5
 21
2.5
 31
0.0
  0
LWPOLYLINE
  5
51
102
{ACAD_REACTORS
330
55
102
}
330
17
100
AcDbEntity
  8
ID_CUT_SINGLELINE
100
AcDbPolyline
 90
5
 70
0
 10
0.0
 20
-7.0
 10
0.0
 20
-11.2
 10
0.8
 20
-12.0
 10
3.0
 20
-12.0
 10
3.0
 20
-10.5
  0
LINE
  5
52
102
{ACAD_REACTORS
330
55
102
}
330
17
100
AcDbEntity
  8
ID_CUT_SINGLELINE
100
AcDbLine
 10
4.5
 20
-7.000000000000001
 30
0.0
 11
6.5
 21
-7.000000000000001
 31
0.0
  0
LINE
  5
53
102
{ACAD_REACTORS
330
55
102
}
330
17
100
AcDbEntity
  8
ID_CUT_SINGLELINE
100
AcDbLine
 10
5.5
 20
-7.000000000000001
 30
0.0
 11
5.5
 21
-12.0
 31
0.0
  0
LINE
  5
54
102
{ACAD_REACTORS
330
55
102
}
330
17
100
AcDbEntity
  8
ID_CUT_SINGLELINE
100
AcDbLine
 10
4.5
 20
-12.0
 30
0.0
 11
6.5
 21
-12.0
 31
0.0
  0
LWPOLYLINE
  5
56
102
{ACAD_REACTORS
330
58
102
}
330
17
100
AcDbEntity
  8
ID_CUT_SINGLELINE
100
AcDbPolyline
 90
5
 70
0
 10
18.0
 20
-7.0
 10
18.0
 20
-11.2
 10
18.8
 20
-12.0
 10
21.0
 20
-12.0
 10
21.0
 20
-10.5
  0
SPLINE
  5
57
102
{ACAD_REACTORS
330
58
102
}
330
17
100
AcDbEntity
  8
ID_CUT_SINGLELINE
100
AcDbSpline
 70
0
 71
3
 72
14
 73
10
 74
0
 40
0.0
 40
0.0
 40
0.0
 40
0.0
 40
1.0
 40
1.0
 40
1.0
 40
2.0
 40
2.0
 40
2.0
 40
3.0
 40
3.0
 40
3.0
 40
3.0
 10
25.25
 20
-7.0
 30
0.0
 10
25.25
 20
-8.166666666666666
 30
0.0
 10
25.25
 20
-9.333333333333334
 30
0.0
 10
25.25
 20
-10.5
 30
0.0
 10
25.25
 20
-11.5
 30
0.0
 10
24.75
 20
-12.0
 30
0.0
 10
23.875
 20
-12.0
 30
0.0
 10
23.0
 20
-12.0
 30
0.0
 10
22.5
 20
-11.5
 30
0.0
 10
22.5
 20
-10.75
 30
0.0
  0
LWPOLYLINE
  5
59
102
{ACAD_REACTORS
330
5C
102
}
330
17
100
AcDbEntity
  8
ID_CUT_SINGLELINE
100
AcDbPolyline
 90
5
 70
0
 10
36.0
 20
-7.0
 10
36.0
 20
-11.2
 10
36.8
 20
-12.0
 10
39.0
 20
-12.0
 10
39.0
 20
-10.5
  0
LINE
  5
5A
102
{ACAD_REACTORS
330
5C
102
}
330
17
100
AcDbEntity
  8
ID_CUT_SINGLELINE
100
AcDbLine
 10
40.5
 20
-12.0
 30
0.0
 11
40.5
 21
-7.0
 31
0.0
  0
SPLINE
  5
5B
102
{ACAD_REACTORS
330
5C
102
}
330
17
100
AcDbEntity
  8
ID_CUT_SINGLELINE
100
AcDbSpline
 70
0
 71
3
 72
11
 73
7
 74
0
 40
0.0
 40
0.0
 40
0.0
 40
0.0
 40
1.0
 40
1.0
 40
1.0
 40
2.0
 40
2.0
 40
2.0
 40
2.0
 10
43.5
 20
-7.0
 30
0.0
 10
42.0
 20
-8.25
 30
0.0
 10
40.5
 20
-8.5
 30
0.0
 10
40.5
 20
-9.5
 30
0.0
 10
40.5
 20
-10.5
 30
0.0
 10
42.0
 20
-10.75
 30
0.0
 10
43.5
 20
-12.0
 30
0.0
  0
LWPOLYLINE
  5
5D
102
{ACAD_REACTORS
330
5F
102
}
330
17
100
AcDbEntity
  8
ID_CUT_SINGLELINE
100
AcDbPolyline
 90
5
 70
0
 10
54.0
 20
-7.0
 10
54.0
 20
-11.2
 10
54.8
 20
-12.0
 10
57.0
 20
-12.0
 10
57.0
 20
-10.5
  0
SPLINE
  5
5E
102
{ACAD_REACTORS
330
5F
102
}
330
17
100
AcDbEntity
  8
ID_CUT_SINGLELINE
100
AcDbSpline
 70
0
 71
3
 72
14
 73
10
 74
0
 40
0.0
 40
0.0
 40
0.0
 40
0.0
 40
1.0
 40
1.0
 40
1.0
 40
2.0
 40
2.0
 40
2.0
 40
3.0
 40
3.0
 40
3.0
 40
3.0
 10
58.5
 20
-7.0
 30
0.0
 10
58.5
 20
-8.5
 30
0.0
 10
58.5
 20
-10.0
 30
0.0
 10
58.5
 20
-11.5
 30
0.0
 10
58.5
 20
-11.833333333333334
 30
0.0
 10
58.666666666666664
 20
-12.0
 30
0.0
 10
59.0
 20
-12.0
 30
0.0
 10
59.833333333333336
 20
-12.0
 30
0.0
 10
60.666666666666664
 20
-12.0
 30
0.0
 10
61.5
 20
-12.0
 30
0.0
  0
LWPOLYLINE
  5
60
102
{ACAD_REACTORS
330
62
102
}
330
17
100
AcDbEntity
  8
ID_CUT_SINGLELINE
100
AcDbPolyline
 90
5
 70
0
 10
72.0
 20
-7.0
 10
72.0
 20
-11.2
 10
72.8
 20
-12.0
 10
75.0
 20
-12.0
 10
75.0
 20
-10.5
  0
SPLINE
  5
61
102
{ACAD_REACTORS
330
62
102
}
330
17
100
AcDbEntity
  8
ID_CUT_SINGLELINE
100
AcDbSpline
 70
0
 71
3
 72
26
 73
22
 74
0
 40
0.0
 40
0.0
 40
0.0
 40
0.0
 40
1.0
 40
1.0
 40
1.0
 40
2.0
 40
2.0
 40
2.0
 40
3.0
 40
3.0
 40
3.0
 40
4.0
 40
4.0
 40
4.0
 40
5.0
 40
5.0
 40
5.0
 40
6.0
 40
6.0
 40
6.0
 40
7.0
 40
7.0
 40
7.0
 40
7.0
 10
76.5
 20
-12.0
 30
0.0
 10
76.5
 20
-10.389828000503275
 30
0.0
 10
76.5
 20
-8.77965600100655
 30
0.0
 10
76.5
 20
-7.169484001509825
 30
0.0
 10
76.5
 20
-6.963930129233647
 30
0.0
 10
76.55893870274423
 20
-6.945351339873028
 30
0.0
 10
76.67681610823269
 20
-7.113747633427967
 30
0.0
 10
77.15847083021642
 20
-7.801825807690435
 30
0.0
 10
77.64012555220015
 20
-8.489903981952903
 30
0.0
 10
78.12178027418386
 20
-9.177982156215371
 30
0.0
 10
78.23965767967232
 20
-9.34637844977031
 30
0.0
 10
78.35753508516078
 20
-9.34637844977031
 30
0.0
 10
78.47541249064923
 20
-9.177982156215371
 30
0.0
 10
78.95706721263296
 20
-8.489903981952903
 30
0.0
 10
79.4387219346167
 20
-7.801825807690435
 30
0.0
 10
79.92037665660042
 20
-7.113747633427967
 30
0.0
 10
80.03825406208888
 20
-6.945351339873028
 30
0.0
 10
80.09719276483311
 20
-6.963930129233647
 30
0.0
 10
80.09719276483311
 20
-7.169484001509825
 30
0.0
 10
80.09719276483311
 20
-8.77965600100655
 30
0.0
 10
80.09719276483311
 20
-10.389828000503275
 30
0.0
 10
80.09719276483311
 20
-12.0
 30
0.0
  0
LWPOLYLINE
  5
63
102
{ACAD_REACTORS
330
65
102
}
330
17
100
AcDbEntity
  8
ID_CUT_SINGLELINE
100
AcDbPolyline
 90
5
 70
0
 10
90.0
 20
-7.0
 10
90.0
 20
-11.2
 10
90.8
 20
-12.0
 10
93.0
 20
-12.0
 10
93.0
 20
-10.5
  0
SPLINE
  5
64
102
{ACAD_REACTORS
330
65
102
}
330
17
100
AcDbEntity
  8
ID_CUT_SINGLELINE
100
AcDbSpline
 70
0
 71
3
 72
20
 73
16
 74
0
 40
0.0
 40
0.0
 40
0.0
 40
0.0
 40
1.0
 40
1.0
 40
1.0
 40
2.0
 40
2.0
 40
2.0
 40
3.0
 40
3.0
 40
3.0
 40
4.0
 40
4.0
 40
4.0
 40
5.0
 40
5.0
 40
5.0
 40
5.0
 10
94.5
 20
-12.0
 30
0.0
 10
94.5
 20
-10.45
 30
0.0
 10
94.5
 20
-8.9
 30
0.0
 10
94.5
 20
-7.35
 30
0.0
 10
94.5
 20
-7.116666666666666
 30
0.0
 10
94.56358197423613
 20
-7.097818421901741
 30
0.0
 10
94.6907459227084
 20
-7.293455265705223
 30
0.0
 10
95.64691530756947
 20
-8.764485088568408
 30
0.0
 10
96.60308469243054
 20
-10.235514911431592
 30
0.0
 10
97.5592540772916
 20
-11.706544734294777
 30
0.0
 10
97.68641802576387
 20
-11.90218157809826
 30
0.0
 10
97.75
 20
-11.883333333333333
 30
0.0
 10
97.75
 20
-11.65
 30
0.0
 10
97.75
 20
-10.1
 30
0.0
 10
97.75
 20
-8.55
 30
0.0
 10
97.75
 20
-7.0
 30
0.0
  0
LWPOLYLINE
  5
66
102
{ACAD_REACTORS
330
69
102
}
330
17
100
AcDbEntity
  8
ID_CUT_SINGLELINE
100
AcDbPolyline
 90
5
 70
0
 10
108.0
 20
-7.0
 10
108.0
 20
-11.2
 10
108.8
 20
-12.0
 10
111.0
 20
-12.0
 10
111.0
 20
-10.5
  0
SPLINE
  5
67
102
{ACAD_REACTORS
330
69
102
}
330
17
100
AcDbEntity
  8
ID_CUT_SINGLELINE
100
AcDbSpline
 70
0
 71
3
 72
11
 73
7
 74
0
 40
0.0
 40
0.0
 40
0.0
 40
0.0
 40
1.0
 40
1.0
 40
1.0
 40
2.0
 40
2.0
 40
2.0
 40
2.0
 10
115.46605798999278
 20
-9.125
 30
0.0
 10
115.35482699550704
 20
-7.903083037298966
 30
0.0
 10
114.72456895823467
 20
-7.0
 30
0.0
 10
113.98302899499639
 20
-7.0
 30
0.0
 10
113.2414890317581
 20
-7.0
 30
0.0
 10
112.61123099448574
 20
-7.903083037298966
 30
0.0
 10
112.5
 20
-9.125
 30
0.0
  0
SPLINE
  5
68
102
{ACAD_REACTORS
330
69
102
}
330
17
100
AcDbEntity
  8
ID_CUT_SINGLELINE
100
AcDbSpline
 70
0
 71
3
 72
11
 73
7
 74
0
 40
0.0
 40
0.0
 40
0.0
 40
0.0
 40
1.0
 40
1.0
 40
1.0
 40
2.0
 40
2.0
 40
2.0
 40
2.0
 10
112.5
 20
-9.875
 30
0.0
 10
112.61123099448574
 20
-11.096916962701034
 30
0.0
 10
113.2414890317581
 20
-12.0
 30
0.0
 10
113.98302899499639
 20
-12.0
 30
0.0
 10
114.72456895823467
 20
-12.0
 30
0.0
 10
115.35482699550704
 20
-11.096916962701034
 30
0.0
 10
115.46605798999278
 20
-9.875000000000002
 30
0.0
  0
LWPOLYLINE
  5
6A
102
{ACAD_REACTORS
330
6D
102
}
330
17
100
AcDbEntity
  8
ID_CUT_SINGLELINE
100
AcDbPolyline
 90
5
 70
0
 10
126.0
 20
-7.0
 10
126.0
 20
-11.2
 10
126.8
 20
-12.0
 10
129.0
 20
-12.0
 10
129.0
 20
-10.5
  0
SPLINE
  5
6B
102
{ACAD_REACTORS
330
6D
102
}
330
17
100
AcDbEntity
  8
ID_CUT_SINGLELINE
100
AcDbSpline
 70
0
 71
3
 72
17
 73
13
 74
0
 40
0.0
 40
0.0
 40
0.0
 40
0.0
 40
1.0
 40
1.0
 40
1.0
 40
2.0
 40
2.0
 40
2.0
 40
3.0
 40
3.0
 40
3.0
 40
4.0
 40
4.0
 40
4.0
 40
4.0
 10
130.5
 20
-12.0
 30
0.0
 10
130.5
 20
-10.458333333333334
 30
0.0
 10
130.5
 20
-8.916666666666668
 30
0.0
 10
130.5
 20
-7.375000000000001
 30
0.0
 10
130.5
 20
-7.125000000000001
 30
0.0
 10
130.625
 20
-7.000000000000001
 30
0.0
 10
130.875
 20
-7.000000000000001
 30
0.0
 10
131.25
 20
-7.000000000000001
 30
0.0
 10
131.625
 20
-7.000000000000001
 30
0.0
 10
132.0
 20
-7.000000000000001
 30
0.0
 10
132.3773009559465
 20
-7.000000000000001
 30
0.0
 10
132.68342390621396
 20
-7.071178005679078
 30
0.0
 10
132.91836885080232
 20
-7.200106252244692
 30
0.0
  0
SPLINE
  5
6C
102
{ACAD_REACTORS
330
6D
102
}
330
17
100
AcDbEntity
  8
ID_CUT_SINGLELINE
100
AcDbSpline
 70
0
 71
3
 72
14
 73
10
 74
0
 40
0.0
 40
0.0
 40
0.0
 40
0.0
 40
1.0
 40
1.0
 40
1.0
 40
2.0
 40
2.0
 40
2.0
 40
3.0
 40
3.0
 40
3.0
 40
3.0
 10
133.4155323844603
 20
-7.761647364542537
 30
0.0
 10
133.47184412815344
 20
-7.908126502003509
 30
0.0
 10
133.5
 20
-8.072024283040115
 30
0.0
 10
133.5
 20
-8.25
 30
0.0
 10
133.5
 20
-9.0
 30
0.0
 10
133.0
 20
-9.5
 30
0.0
 10
132.0
 20
-9.5
 30
0.0
 10
131.75
 20
-9.5
 30
0.0
 10
131.5
 20
-9.5
 30
0.0
 10
131.25
 20
-9.5
 30
0.0
  0
LWPOLYLINE
  5
6E
102
{ACAD_REACTORS
330
72
102
}
330
17
100
AcDbEntity
  8
ID_CUT_SINGLELINE
100
AcDbPolyline
 90
5
 70
0
 10
0.0
 20
-19.0
 10
0.0
 20
-23.2
 10
0.8
 20
-24.0
 10
3.0
 20
-24.0
 10
3.0
 20
-22.5
  0
SPLINE
  5
6F
102
{ACAD_REACTORS
330
72
102
}
330
17
100
AcDbEntity
  8
ID_CUT_SINGLELINE
100
AcDbSpline
 70
0
 71
3
 72
11
 73
7
 74
0
 40
0.0
 40
0.0
 40
0.0
 40
0.0
 40
1.0
 40
1.0
 40
1.0
 40
2.0
 40
2.0
 40
2.0
 40
2.0
 10
7.466057989992779
 20
-21.125
 30
0.0
 10
7.354826995507036
 20
-19.903083037298966
 30
0.0
 10
6.724568958234673
 20
-19.0
 30
0.0
 10
5.983028994996389
 20
-19.0
 30
0.0
 10
5.241489031758106
 20
-19.0
 30
0.0
 10
4.611230994485743
 20
-19.903083037298966
 30
0.0
 10
4.5
 20
-21.125
 30
0.0
  0
SPLINE
  5
70
102
{ACAD_REACTORS
330
72
102
}
330
17
100
AcDbEntity
  8
ID_CUT_SINGLELINE
100
AcDbSpline
 70
0
 71
3
 72
11
 73
7
 74
0
 40
0.0
 40
0.0
 40
0.0
 40
0.0
 40
1.0
 40
1.0
 40
1.0
 40
2.0
 40
2.0
 40
2.0
 40
2.0
 10
4.5
 20
-21.875
 30
0.0
 10
4.611230994485743
 20
-23.096916962701034
 30
0.0
 10
5.241489031758106
 20
-24.0
 30
0.0
 10
5.983028994996389
 20
-24.0
 30
0.0
 10
6.724568958234672
 20
-24.0
 30
0.0
 10
7.354826995507036
 20
-23.096916962701034
 30
0.0
 10
7.466057989992779
 20
-21.875
 30
0.0
  0
LINE
  5
71
102
{ACAD_REACTORS
330
72
102
}
330
17
100
AcDbEntity
  8
ID_CUT_SINGLELINE
100
AcDbLine
 10
7.03774299271444
 20
-23.277656589643037
 30
0.0
 11
7.983028994996389
 21
-24.0
 31
0.0
  0
LWPOLYLINE
  5
73
102
{ACAD_REACTORS
330
77
102
}
330
17
100
AcDbEntity
  8
ID_CUT_SINGLELINE
100
AcDbPolyline
 90
5
 70
0
 10
18.0
 20
-19.0
 10
18.0
 20
-23.2
 10
18.8
 20
-24.0
 10
21.0
 20
-24.0
 10
21.0
 20
-22.5
  0
SPLINE
  5
74
102
{ACAD_REACTORS
330
77
102
}
330
17
100
AcDbEntity
  8
ID_CUT_SINGLELINE
100
AcDbSpline
 70
0
 71
3
 72
17
 73
13
 74
0
 40
0.0
 40
0.0
 40
0.0
 40
0.0
 40
1.0
 40
1.0
 40
1.0
 40
2.0
 40
2.0
 40
2.0
 40
3.0
 40
3.0
 40
3.0
 40
4.0
 40
4.0
 40
4.0
 40
4.0
 10
22.5
 20
-24.0
 30
0.0
 10
22.5
 20
-22.458333333333332
 30
0.0
 10
22.5
 20
-20.916666666666668
 30
0.0
 10
22.5
 20
-19.375
 30
0.0
 10
22.5
 20
-19.125
 30
0.0
 10
22.625
 20
-19.0
 30
0.0
 10
22.875
 20
-19.0
 30
0.0
 10
23.25
 20
-19.0
 30
0.0
 10
23.625
 20
-19.0
 30
0.0
 10
24.0
 20
-19.0
 30
0.0
 10
24.377300955946517
 20
-19.0
 30
0.0
 10
24.683423906213953
 20
-19.07117800567908
 30
0.0
 10
24.918368850802317
 20
-19.20010625224469
 30
0.0
  0
SPLINE
  5
75
102
{ACAD_REACTORS
330
77
102
}
330
17
100
AcDbEntity
  8
ID_CUT_SINGLELINE
100
AcDbSpline
 70
0
 71
3
 72
14
 73
10
 74
0
 40
0.0
 40
0.0
 40
0.0
 40
0.0
 40
1.0
 40
1.0
 40
1.0
 40
2.0
 40
2.0
 40
2.0
 40
3.0
 40
3.0
 40
3.0
 40
3.0
 10
25.415532384460306
 20
-19.761647364542537
 30
0.0
 10
25.471844128153435
 20
-19.90812650200351
 30
0.0
 10
25.5
 20
-20.072024283040115
 30
0.0
 10
25.5
 20
-20.25
 30
0.0
 10
25.5
 20
-21.0
 30
0.0
 10
25.0
 20
-21.5
 30
0.0
 10
24.0
 20
-21.5
 30
0.0
 10
23.75
 20
-21.5
 30
0.0
 10
23.5
 20
-21.5
 30
0.0
 10
23.25
 20
-21.5
 30
0.0
  0
LINE
  5
76
102
{ACAD_REACTORS
330
77
102
}
330
17
100
AcDbEntity
  8
ID_CUT_SINGLELINE
100
AcDbLine
 10
22.5
 20
-21.5
 30
0.0
 11
25.5
 21
-24.0
 31
0.0
  0
LWPOLYLINE
  5
78
102
{ACAD_REACTORS
330
7A
102
}
330
17
100
AcDbEntity
  8
ID_CUT_SINGLELINE
100
AcDbPolyline
 90
5
 70
0
 10
36.0
 20
-19.0
 10
36.0
 20
-23.2
 10
36.8
 20
-24.0
 10
39.0
 20
-24.0
 10
39.0
 20
-22.5
  0
SPLINE
  5
79
102
{ACAD_REACTORS
330
7A
102
}
330
17
100
AcDbEntity
  8
ID_CUT_SINGLELINE
100
AcDbSpline
 70
0
 71
3
 72
23
 73
19
 74
0
 40
0.0
 40
0.0
 40
0.0
 40
0.0
 40
1.0
 40
1.0
 40
1.0
 40
2.0
 40
2.0
 40
2.0
 40
3.0
 40
3.0
 40
3.0
 40
4.0
 40
4.0
 40
4.0
 40
5.0
 40
5.0
 40
5.0
 40
6.0
 40
6.0
 40
6.0
 40
6.0
 10
43.5
 20
-19.5
 30
0.0
 10
43.125
 20
-19.125
 30
0.0
 10
42.625
 20
-19.0
 30
0.0
 10
42.0
 20
-19.0
 30
0.0
 10
41.1
 20
-19.0
 30
0.0
 10
40.5
 20
-19.45
 30
0.0
 10
40.5
 20
-20.2
 30
0.0
 10
40.5
 20
-20.95
 30
0.0
 10
41.375
 20
-21.25
 30
0.0
 10
42.0
 20
-21.5
 30
0.0
 10
42.625
 20
-21.75
 30
0.0
 10
43.5
 20
-22.05
 30
0.0
 10
43.5
 20
-22.8
 30
0.0
 10
43.5
 20
-23.55
 30
0.0
 10
42.9
 20
-24.0
 30
0.0
 10
42.0
 20
-24.0
 30
0.0
 10
41.375
 20
-24.0
 30
0.0
 10
40.875
 20
-23.875
 30
0.0
 10
40.5
 20
-23.5
 30
0.0
  0
LWPOLYLINE
  5
7B
102
{ACAD_REACTORS
330
7E
102
}
330
17
100
AcDbEntity
  8
ID_CUT_SINGLELINE
100
AcDbPolyline
 90
5
 70
0
 10
54.0
 20
-19.0
 10
54.0
 20
-23.2
 10
54.8
 20
-24.0
 10
57.0
 20
-24.0
 10
57.0
 20
-22.5
  0
LINE
  5
7C
102
{ACAD_REACTORS
330
7E
102
}
330
17
100
AcDbEntity
  8
ID_CUT_SINGLELINE
100
AcDbLine
 10
58.5
 20
-19.0
 30
0.0
 11
62.0
 21
-19.0
 31
0.0
  0
LINE
  5
7D
102
{ACAD_REACTORS
330
7E
102
}
330
17
100
AcDbEntity
  8
ID_CUT_SINGLELINE
100
AcDbLine
 10
60.25
 20
-19.0
 30
0.0
 11
60.25
 21
-24.0
 31
0.0
  0
LWPOLYLINE
  5
7F
102
{ACAD_REACTORS
330
81
102
}
330
17
100
AcDbEntity
  8
ID_CUT_SINGLELINE
100
AcDbPolyline
 90
5
 70
0
 10
72.0
 20
-19.0
 10
72.0
 20
-23.2
 10
72.8
 20
-24.0
 10
75.0
 20
-24.0
 10
75.0
 20
-22.5
  0
SPLINE
  5
80
102
{ACAD_REACTORS
330
81
102
}
330
17
100
AcDbEntity
  8
ID_CUT_SINGLELINE
100
AcDbSpline
 70
0
 71
3
 72
17
 73
13
 74
0
 40
0.0
 40
0.0
 40
0.0
 40
0.0
 40
1.0
 40
1.0
 40
1.0
 40
2.0
 40
2.0
 40
2.0
 40
3.0
 40
3.0
 40
3.0
 40
4.0
 40
4.0
 40
4.0
 40
4.0
 10
76.5
 20
-19.0
 30
0.0
 10
76.5
 20
-20.166666666666668
 30
0.0
 10
76.5
 20
-21.333333333333332
 30
0.0
 10
76.5
 20
-22.5
 30
0.0
 10
76.5
 20
-23.5
 30
0.0
 10
77.0
 20
-24.0
 30
0.0
 10
78.0
 20
-24.0
 30
0.0
 10
79.0
 20
-24.0
 30
0.0
 10
79.5
 20
-23.5
 30
0.0
 10
79.5
 20
-22.5
 30
0.0
 10
79.5
 20
-21.333333333333332
 30
0.0
 10
79.5
 20
-20.166666666666668
 30
0.0
 10
79.5
 20
-19.0
 30
0.0
  0
LWPOLYLINE
  5
82
102
{ACAD_REACTORS
330
84
102
}
330
17
100
AcDbEntity
  8
ID_CUT_SINGLELINE
100
AcDbPolyline
 90
5
 70
0
 10
90.0
 20
-19.0
 10
90.0
 20
-23.2
 10
90.8
 20
-24.0
 10
93.0
 20
-24.0
 10
93.0
 20
-22.5
  0
SPLINE
  5
83
102
{ACAD_REACTORS
330
84
102
}
330
17
100
AcDbEntity
  8
ID_CUT_SINGLELINE
100
AcDbSpline
 70
0
 71
3
 72
14
 73
10
 74
0
 40
0.0
 40
0.0
 40
0.0
 40
0.0
 40
1.0
 40
1.0
 40
1.0
 40
2.0
 40
2.0
 40
2.0
 40
3.0
 40
3.0
 40
3.0
 40
3.0
 10
94.5
 20
-19.0
 30
0.0
 10
94.97484987009446
 20
-20.582832900314862
 30
0.0
 10
95.44969974018892
 20
-22.165665800629725
 30
0.0
 10
95.92454961028338
 20
-23.748498700944584
 30
0.0
 10
96.02515012990554
 20
-24.083833766351805
 30
0.0
 10
96.1257506495277
 20
-24.083833766351805
 30
0.0
 10
96.22635116914988
 20
-23.748498700944584
 30
0.0
 10
96.70120103924434
 20
-22.165665800629725
 30
0.0
 10
97.17605090933878
 20
-20.582832900314862
 30
0.0
 10
97.65090077943324
 20
-19.0
 30
0.0
  0
LWPOLYLINE
  5
85
102
{ACAD_REACTORS
330
87
102
}
330
17
100
AcDbEntity
  8
ID_CUT_SINGLELINE
100
AcDbPolyline
 90
5
 70
0
 10
108.0
 20
-19.0
 10
108.0
 20
-23.2
 10
108.8
 20
-24.0
 10
111.0
 20
-24.0
 10
111.0
 20
-22.5
  0
SPLINE
  5
86
102
{ACAD_REACTORS
330
87
102
}
330
17
100
AcDbEntity
  8
ID_CUT_SINGLELINE
100
AcDbSpline
 70
0
 71
3
 72
26
 73
22
 74
0
 40
0.0
 40
0.0
 40
0.0
 40
0.0
 40
1.0
 40
1.0
 40
1.0
 40
2.0
 40
2.0
 40
2.0
 40
3.0
 40
3.0
 40
3.0
 40
4.0
 40
4.0
 40
4.0
 40
5.0
 40
5.0
 40
5.0
 40
6.0
 40
6.0
 40
6.0
 40
7.0
 40
7.0
 40
7.0
 40
7.0
 10
112.5
 20
-19.0
 30
0.0
 10
112.73920893156185
 20
-20.594726210412304
 30
0.0
 10
112.9784178631237
 20
-22.189452420824612
 30
0.0
 10
113.21762679468554
 20
-23.784178631236916
 30
0.0
 10
113.25872854090188
 20
-24.05819027267921
 30
0.0
 10
113.3412357426569
 20
-24.071283436106654
 30
0.0
 10
113.4651483999506
 20
-23.82345812151925
 30
0.0
 10
113.77416875044027
 20
-23.205417420539927
 30
0.0
 10
114.08318910092993
 20
-22.587376719560606
 30
0.0
 10
114.39220945141959
 20
-21.96933601858128
 30
0.0
 10
114.51612210871329
 20
-21.72151070399388
 30
0.0
 10
114.64003476600699
 20
-21.72151070399388
 30
0.0
 10
114.76394742330069
 20
-21.96933601858128
 30
0.0
 10
115.07296777379035
 20
-22.587376719560606
 30
0.0
 10
115.38198812428001
 20
-23.205417420539927
 30
0.0
 10
115.69100847476967
 20
-23.82345812151925
 30
0.0
 10
115.81492113206338
 20
-24.071283436106654
 30
0.0
 10
115.8974283338184
 20
-24.05819027267921
 30
0.0
 10
115.93853008003475
 20
-23.784178631236916
 30
0.0
 10
116.1777390115966
 20
-22.189452420824612
 30
0.0
 10
116.41694794315843
 20
-20.594726210412304
 30
0.0
 10
116.65615687472028
 20
-19.0
 30
0.0
  0
LWPOLYLINE
  5
88
102
{ACAD_REACTORS
330
8C
102
}
330
17
100
AcDbEntity
  8
ID_CUT_SINGLELINE
100
AcDbPolyline
 90
5
 70
0
 10
126.0
 20
-19.0
 10
126.0
 20
-23.2
 10
126.8
 20
-24.0
 10
129.0
 20
-24.0
 10
129.0
 20
-22.5
  0
LINE
  5
89
102
{ACAD_REACTORS
330
8C
102
}
330
17
100
AcDbEntity
  8
ID_CUT_SINGLELINE
100
AcDbLine
 10
130.5
 20
-19.0
 30
0.0
 11
133.5
 21
-24.0
 31
0.0
  0
LINE
  5
8A
102
{ACAD_REACTORS
330
8C
102
}
330
17
100
AcDbEntity
  8
ID_CUT_SINGLELINE
100
AcDbLine
 10
130.5
 20
-24.0
 30
0.0
 11
131.80706409171466
 21
-21.821559847142204
 31
0.0
  0
LINE
  5
8B
102
{ACAD_REACTORS
330
8C
102
}
330
17
100
AcDbEntity
  8
ID_CUT_SINGLELINE
100
AcDbLine
 10
132.19293590828534
 20
-21.178440152857796
 30
0.0
 11
133.5
 21
-19.0
 31
0.0
  0
LWPOLYLINE
  5
8D
102
{ACAD_REACTORS
330
90
102
}
330
17
100
AcDbEntity
  8
ID_CUT_SINGLELINE
100
AcDbPolyline
 90
5
 70
0
 10
0.0
 20
-31.0
 10
0.0
 20
-35.2
 10
0.8
 20
-36.0
 10
3.0
 20
-36.0
 10
3.0
 20
-34.5
  0
SPLINE
  5
8E
102
{ACAD_REACTORS
330
90
102
}
330
17
100
AcDbEntity
  8
ID_CUT_SINGLELINE
100
AcDbSpline
 70
0
 71
3
 72
14
 73
10
 74
0
 40
0.0
 40
0.0
 40
0.0
 40
0.0
 40
1.0
 40
1.0
 40
1.0
 40
2.0
 40
2.0
 40
2.0
 40
3.0
 40
3.0
 40
3.0
 40
3.0
 10
4.5
 20
-31.0
 30
0.0
 10
4.935284977107057
 20
-31.652927465660586
 30
0.0
 10
5.370569954214114
 20
-32.30585493132117
 30
0.0
 10
5.80585493132117
 20
-32.95878239698175
 30
0.0
 10
5.935284977107057
 20
-33.15292746566058
 30
0.0
 10
6.064715022892943
 20
-33.15292746566058
 30
0.0
 10
6.19414506867883
 20
-32.95878239698175
 30
0.0
 10
6.629430045785886
 20
-32.30585493132117
 30
0.0
 10
7.064715022892944
 20
-31.652927465660586
 30
0.0
 10
7.5
 20
-31.0
 30
0.0
  0
LINE
  5
8F
102
{ACAD_REACTORS
330
90
102
}
330
17
100
AcDbEntity
  8
ID_CUT_SINGLELINE
100
AcDbLine
 10
6.0
 20
-33.10439119849087
 30
0.0
 11
6.0
 21
-36.0
 31
0.0
  0
LWPOLYLINE
  5
91
102
{ACAD_REACTORS
330
93
102
}
330
17
100
AcDbEntity
  8
ID_CUT_SINGLELINE
100
AcDbPolyline
 90
5
 70
0
 10
18.0
 20
-31.0
 10
18.0
 20
-35.2
 10
18.8
 20
-36.0
 10
21.0
 20
-36.0
 10
21.0
 20
-34.5
  0
SPLINE
  5
92
102
{ACAD_REACTORS
330
93
102
}
330
17
100
AcDbEntity
  8
ID_CUT_SINGLELINE
100
AcDbSpline
 70
0
 71
3
 72
20
 73
16
 74
0
 40
0.0
 40
0.0
 40
0.0
 40
0.0
 40
1.0
 40
1.0
 40
1.0
 40
2.0
 40
2.0
 40
2.0
 40
3.0
 40
3.0
 40
3.0
 40
4.0
 40
4.0
 40
4.0
 40
5.0
 40
5.0
 40
5.0
 40
5.0
 10
22.5
 20
-31.0
 30
0.0
 10
23.383333333333333
 20
-31.0
 30
0.0
 10
24.266666666666666
 20
-31.0
 30
0.0
 10
25.15
 20
-31.0
 30
0.0
 10
25.383333333333333
 20
-31.0
 30
0.0
 10
25.439975495200123
 20
-31.100040841333133
 30
0.0
 10
25.319926485600366
 20
-31.30012252399939
 30
0.0
 10
24.439975495200123
 20
-32.7667075079998
 30
0.0
 10
23.560024504799877
 20
-34.2332924920002
 30
0.0
 10
22.680073514399634
 20
-35.69987747600061
 30
0.0
 10
22.560024504799877
 20
-35.89995915866687
 30
0.0
 10
22.616666666666667
 20
-36.0
 30
0.0
 10
22.85
 20
-36.0
 30
0.0
 10
23.733333333333334
 20
-36.0
 30
0.0
 10
24.616666666666667
 20
-36.0
 30
0.0
 10
25.5
 20
-36.0
 30
0.0
  0
LWPOLYLINE
  5
94
102
{ACAD_REACTORS
330
98
102
}
330
17
100
AcDbEntity
  8
ID_CUT_SINGLELINE
100
AcDbPolyline
 90
5
 70
0
 10
36.0
 20
-31.0
 10
36.0
 20
-35.2
 10
36.8
 20
-36.0
 10
39.0
 20
-36.0
 10
39.0
 20
-34.5
  0
SPLINE
  5
95
102
{ACAD_REACTORS
330
98
102
}
330
17
100
AcDbEntity
  8
ID_CUT_SINGLELINE
100
AcDbSpline
 70
0
 71
3
 72
11
 73
7
 74
0
 40
0.0
 40
0.0
 40
0.0
 40
0.0
 40
1.0
 40
1.0
 40
1.0
 40
2.0
 40
2.0
 40
2.0
 40
2.0
 10
42.97171499166065
 20
-33.125
 30
0.0
 10
42.879022496255864
 20
-31.903083037298966
 30
0.0
 10
42.35380746519556
 20
-31.0
 30
0.0
 10
41.735857495830324
 20
-31.0
 30
0.0
 10
41.11790752646509
 20
-31.0
 30
0.0
 10
40.59269249540478
 20
-31.903083037298966
 30
0.0
 10
40.5
 20
-33.125
 30
0.0
  0
SPLINE
  5
96
102
{ACAD_REACTORS
330
98
102
}
330
17
100
AcDbEntity
  8
ID_CUT_SINGLELINE
100
AcDbSpline
 70
0
 71
3
 72
11
 73
7
 74
0
 40
0.0
 40
0.0
 40
0.0
 40
0.0
 40
1.0
 40
1.0
 40
1.0
 40
2.0
 40
2.0
 40
2.0
 40
2.0
 10
40.5
 20
-33.875
 30
0.0
 10
40.59269249540478
 20
-35.09691696270103
 30
0.0
 10
41.11790752646509
 20
-36.0
 30
0.0
 10
41.735857495830324
 20
-36.0
 30
0.0
 10
42.35380746519556
 20
-36.0
 30
0.0
 10
42.879022496255864
 20
-35.09691696270104
 30
0.0
 10
42.97171499166065
 20
-33.875
 30
0.0
  0
LINE
  5
97
102
{ACAD_REACTORS
330
98
102
}
330
17
100
AcDbEntity
  8
ID_CUT_SINGLELINE
100
AcDbLine
 10
41.235857495830324
 20
-34.75
 30
0.0
 11
42.235857495830324
 21
-32.25
 31
0.0
  0
LWPOLYLINE
  5
99
102
{ACAD_REACTORS
330
9C
102
}
330
17
100
AcDbEntity
  8
ID_CUT_SINGLELINE
100
AcDbPolyline
 90
5
 70
0
 10
54.0
 20
-31.0
 10
54.0
 20
-35.2
 10
54.8
 20
-36.0
 10
57.0
 20
-36.0
 10
57.0
 20
-34.5
  0
SPLINE
  5
9A
102
{ACAD_REACTORS
330
9C
102
}
330
17
100
AcDbEntity
  8
ID_CUT_SINGLELINE
100
AcDbSpline
 70
0
 71
3
 72
14
 73
10
 74
0
 40
0.0
 40
0.0
 40
0.0
 40
0.0
 40
1.0
 40
1.0
 40
1.0
 40
2.0
 40
2.0
 40
2.0
 40
3.0
 40
3.0
 40
3.0
 40
3.0
 10
58.75528718417613
 20
-31.915405053181825
 30
0.0
 10
59.035498330050665
 20
-31.635193907307297
 30
0.0
 10
59.31570947592519
 20
-31.354982761432773
 30
0.0
 10
59.59592062179971
 20
-31.074771615558245
 30
0.0
 10
59.71626415452036
 20
-30.9544280828376
 30
0.0
 10
59.77643592088068
 20
-30.979352044535993
 30
0.0
 10
59.77643592088068
 20
-31.149543500653415
 30
0.0
 10
59.77643592088068
 20
-32.766362333768946
 30
0.0
 10
59.77643592088068
 20
-34.38318116688447
 30
0.0
 10
59.77643592088068
 20
-36.0
 30
0.0
  0
LINE
  5
9B
102
{ACAD_REACTORS
330
9C
102
}
330
17
100
AcDbEntity
  8
ID_CUT_SINGLELINE
100
AcDbLine
 10
58.5
 20
-36.0
 30
0.0
 11
61.05287184176136
 21
-36.0
 31
0.0
  0
LWPOLYLINE
  5
9D
102
{ACAD_REACTORS
330
9F
102
}
330
17
100
AcDbEntity
  8
ID_CUT_SINGLELINE
100
AcDbPolyline
 90
5
 70
0
 10
72.0
 20
-31.0
 10
72.0
 20
-35.2
 10
72.8
 20
-36.0
 10
75.0
 20
-36.0
 10
75.0
 20
-34.5
  0
SPLINE
  5
9E
102
{ACAD_REACTORS
330
9F
102
}
330
17
100
AcDbEntity
  8
ID_CUT_SINGLELINE
100
AcDbSpline
 70
0
 71
3
 72
20
 73
16
 74
0
 40
0.0
 40
0.0
 40
0.0
 40
0.0
 40
1.0
 40
1.0
 40
1.0
 40
2.0
 40
2.0
 40
2.0
 40
3.0
 40
3.0
 40
3.0
 40
4.0
 40
4.0
 40
4.0
 40
5.0
 40
5.0
 40
5.0
 40
5.0
 10
76.5
 20
-32.0
 30
0.0
 10
76.5
 20
-31.375
 30
0.0
 10
77.125
 20
-31.0
 30
0.0
 10
78.0
 20
-31.0
 30
0.0
 10
78.875
 20
-31.0
 30
0.0
 10
79.5
 20
-31.375
 30
0.0
 10
79.5
 20
-32.125
 30
0.0
 10
79.5
 20
-33.25
 30
0.0
 10
77.25
 20
-34.5
 30
0.0
 10
76.75
 20
-35.5
 30
0.0
 10
76.6
 20
-35.8
 30
0.0
 10
76.65
 20
-36.0
 30
0.0
 10
77.0
 20
-36.0
 30
0.0
 10
77.83333333333333
 20
-36.0
 30
0.0
 10
78.66666666666667
 20
-36.0
 30
0.0
 10
79.5
 20
-36.0
 30
0.0
  0
LWPOLYLINE
  5
A0
102
{ACAD_REACTORS
330
A2
102
}
330
17
100
AcDbEntity
  8
ID_CUT_SINGLELINE
100
AcDbPolyline
 90
5
 70
0
 10
90.0
 20
-31.0
 10
90.0
 20
-35.2
 10
90.8
 20
-36.0
 10
93.0
 20
-36.0
 10
93.0
 20
-34.5
  0
SPLINE
  5
A1
102
{ACAD_REACTORS
330
A2
102
}
330
17
100
AcDbEntity
  8
ID_CUT_SINGLELINE
100
AcDbSpline
 70
0
 71
3
 72
23
 73
19
 74
0
 40
0.0
 40
0.0
 40
0.0
 40
0.0
 40
1.0
 40
1.0
 40
1.0
 40
2.0
 40
2.0
 40
2.0
 40
3.0
 40
3.0
 40
3.0
 40
4.0
 40
4.0
 40
4.0
 40
5.0
 40
5.0
 40
5.0
 40
6.0
 40
6.0
 40
6.0
 40
6.0
 10
94.5
 20
-31.5
 30
0.0
 10
94.875
 20
-31.125
 30
0.0
 10
95.375
 20
-31.0
 30
0.0
 10
96.0
 20
-31.0
 30
0.0
 10
96.875
 20
-31.0
 30
0.0
 10
97.5
 20
-31.5
 30
0.0
 10
97.5
 20
-32.125
 30
0.0
 10
97.5
 20
-32.825
 30
0.0
 10
95.75
 20
-32.8
 30
0.0
 10
95.75
 20
-33.5
 30
0.0
 10
95.75
 20
-34.2
 30
0.0
 10
97.5
 20
-34.175
 30
0.0
 10
97.5
 20
-34.875
 30
0.0
 10
97.5
 20
-35.5
 30
0.0
 10
96.875
 20
-36.0
 30
0.0
 10
96.0
 20
-36.0
 30
0.0
 10
95.375
 20
-36.0
 30
0.0
 10
94.875
 20
-35.875
 30
0.0
 10
94.5
 20
-35.5
 30
0.0
  0
LWPOLYLINE
  5
A3
102
{ACAD_REACTORS
330
A6
102
}
330
17
100
AcDbEntity
  8
ID_CUT_SINGLELINE
100
AcDbPolyline
 90
5
 70
0
 10
108.0
 20
-31.0
 10
108.0
 20
-35.2
 10
108.8
 20
-36.0
 10
111.0
 20
-36.0
 10
111.0
 20
-34.5
  0
SPLINE
  5
A4
102
{ACAD_REACTORS
330
A6
102
}
330
17
100
AcDbEntity
  8
ID_CUT_SINGLELINE
100
AcDbSpline
 70
0
 71
3
 72
14
 73
10
 74
0
 40
0.0
 40
0.0
 40
0.0
 40
0.0
 40
1.0
 40
1.0
 40
1.0
 40
2.0
 40
2.0
 40
2.0
 40
3.0
 40
3.0
 40
3.0
 40
3.0
 10
113.91501994197517
 20
-31.0
 30
0.0
 10
113.45601452156268
 20
-31.91801084082501
 30
0.0
 10
112.99700910115017
 20
-32.83602168165002
 30
0.0
 10
112.53800368073767
 20
-33.75403252247502
 30
0.0
 10
112.45601452156268
 20
-33.918010840825005
 30
0.0
 10
112.50668660864184
 20
-34.0
 30
0.0
 10
112.69001994197518
 20
-34.0
 30
0.0
 10
113.18168660864184
 20
-34.0
 30
0.0
 10
113.67335327530851
 20
-34.0
 30
0.0
 10
114.16501994197517
 20
-34.0
 30
0.0
  0
LINE
  5
A5
102
{ACAD_REACTORS
330
A6
102
}
330
17
100
AcDbEntity
  8
ID_CUT_SINGLELINE
100
AcDbLine
 10
114.91501994197517
 20
-31.0
 30
0.0
 11
114.91501994197517
 21
-36.0
 31
0.0
  0
LWPOLYLINE
  5
A7
102
{ACAD_REACTORS
330
A9
102
}
330
17
100
AcDbEntity
  8
ID_CUT_SINGLELINE
100
AcDbPolyline
 90
5
 70
0
 10
126.0
 20
-31.0
 10
126.0
 20
-35.2
 10
126.8
 20
-36.0
 10
129.0
 20
-36.0
 10
129.0
 20
-34.5
  0
SPLINE
  5
A8
102
{ACAD_REACTORS
330
A9
102
}
330
17
100
AcDbEntity
  8
ID_CUT_SINGLELINE
100
AcDbSpline
 70
0
 71
3
 72
29
 73
25
 74
0
 40
0.0
 40
0.0
 40
0.0
 40
0.0
 40
1.0
 40
1.0
 40
1.0
 40
2.0
 40
2.0
 40
2.0
 40
3.0
 40
3.0
 40
3.0
 40
4.0
 40
4.0
 40
4.0
 40
5.0
 40
5.0
 40
5.0
 40
6.0
 40
6.0
 40
6.0
 40
7.0
 40
7.0
 40
7.0
 40
8.0
 40
8.0
 40
8.0
 40
8.0
 10
133.5
 20
-31.0
 30
0.0
 10
132.63333333333333
 20
-31.0
 30
0.0
 10
131.76666666666668
 20
-31.0
 30
0.0
 10
130.9
 20
-31.0
 30
0.0
 10
130.63333333333333
 20
-31.0
 30
0.0
 10
130.5
 20
-31.133333333333333
 30
0.0
 10
130.5
 20
-31.400000000000002
 30
0.0
 10
130.5
 20
-31.883333333333333
 30
0.0
 10
130.5
 20
-32.36666666666667
 30
0.0
 10
130.5
 20
-32.85
 30
0.0
 10
130.5
 20
-33.11666666666667
 30
0.0
 10
130.63333333333333
 20
-33.25
 30
0.0
 10
130.9
 20
-33.25
 30
0.0
 10
131.26666666666668
 20
-33.25
 30
0.0
 10
131.63333333333333
 20
-33.25
 30
0.0
 10
132.0
 20
-33.25
 30
0.0
 10
133.0
 20
-33.25
 30
0.0
 10
133.5
 20
-33.75
 30
0.0
 10
133.5
 20
-34.625
 30
0.0
 10
133.5
 20
-35.5
 30
0.0
 10
132.875
 20
-36.0
 30
0.0
 10
132.0
 20
-36.0
 30
0.0
 10
131.375
 20
-36.0
 30
0.0
 10
130.875
 20
-35.875
 30
0.0
 10
130.5
 20
-35.55
 30
0.0
  0
LWPOLYLINE
  5
AA
102
{ACAD_REACTORS
330
AD
102
}
330
17
100
AcDbEntity
  8
ID_CUT_SINGLELINE
100
AcDbPolyline
 90
5
 70
0
 10
0.0
 20
-43.0
 10
0.0
 20
-47.2
 10
0.8
 20
-48.0
 10
3.0
 20
-48.0
 10
3.0
 20
-46.5
  0
SPLINE
  5
AB
102
{ACAD_REACTORS
330
AD
102
}
330
17
100
AcDbEntity
  8
ID_CUT_SINGLELINE
100
AcDbSpline
 70
0
 71
3
 72
20
 73
16
 74
0
 40
0.0
 40
0.0
 40
0.0
 40
0.0
 40
1.0
 40
1.0
 40
1.0
 40
2.0
 40
2.0
 40
2.0
 40
3.0
 40
3.0
 40
3.0
 40
4.0
 40
4.0
 40
4.0
 40
5.0
 40
5.0
 40
5.0
 40
5.0
 10
7.25
 20
-43.25
 30
0.0
 10
6.875
 20
-43.0
 30
0.0
 10
6.5
 20
-43.0
 30
0.0
 10
6.0
 20
-43.0
 30
0.0
 10
5.0
 20
-43.0
 30
0.0
 10
4.5
 20
-44.0
 30
0.0
 10
4.5
 20
-45.25
 30
0.0
 10
4.5
 20
-45.666666666666664
 30
0.0
 10
4.5
 20
-46.083333333333336
 30
0.0
 10
4.5
 20
-46.5
 30
0.0
 10
4.5
 20
-47.5
 30
0.0
 10
5.0
 20
-48.0
 30
0.0
 10
6.0
 20
-48.0
 30
0.0
 10
6.3949306588086126
 20
-48.0
 30
0.0
 10
6.711876204983723
 20
-47.9220148873665
 30
0.0
 10
6.950836638525331
 20
-47.766044662099496
 30
0.0
  0
SPLINE
  5
AC
102
{ACAD_REACTORS
330
AD
102
}
330
17
100
AcDbEntity
  8
ID_CUT_SINGLELINE
100
AcDbSpline
 70
0
 71
3
 72
14
 73
10
 74
0
 40
0.0
 40
0.0
 40
0.0
 40
0.0
 40
1.0
 40
1.0
 40
1.0
 40
2.0
 40
2.0
 40
2.0
 40
3.0
 40
3.0
 40
3.0
 40
3.0
 10
7.4025155387991095
 20
-47.16730751522495
 30
0.0
 10
7.467505179599703
 20
-46.97736649721693
 30
0.0
 10
7.5
 20
-46.75493065880861
 30
0.0
 10
7.5
 20
-46.5
 30
0.0
 10
7.5
 20
-45.625
 30
0.0
 10
6.875
 20
-45.0
 30
0.0
 10
6.0
 20
-45.0
 30
0.0
 10
5.625
 20
-45.0
 30
0.0
 10
5.375
 20
-45.125
 30
0.0
 10
5.25
 20
-45.25
 30
0.0
  0
LWPOLYLINE
  5
AE
102
{ACAD_REACTORS
330
B0
102
}
330
17
100
AcDbEntity
  8
ID_CUT_SINGLELINE
100
AcDbPolyline
 90
5
 70
0
 10
18.0
 20
-43.0
 10
18.0
 20
-47.2
 10
18.8
 20
-48.0
 10
21.0
 20
-48.0
 10
21.0
 20
-46.5
  0
SPLINE
  5
AF
102
{ACAD_REACTORS
330
B0
102
}
330
17
100
AcDbEntity
  8
ID_CUT_SINGLELINE
100
AcDbSpline
 70
0
 71
3
 72
14
 73
10
 74
0
 40
0.0
 40
0.0
 40
0.0
 40
0.0
 40
1.0
 40
1.0
 40
1.0
 40
2.0
 40
2.0
 40
2.0
 40
3.0
 40
3.0
 40
3.0
 40
3.0
 10
22.5
 20
-43.0
 30
0.0
 10
23.375
 20
-43.0
 30
0.0
 10
24.25
 20
-43.0
 30
0.0
 10
25.125
 20
-43.0
 30
0.0
 10
25.375
 20
-43.0
 30
0.0
 10
25.444098300562505
 20
-43.11180339887499
 30
0.0
 10
25.332294901687515
 20
-43.33541019662497
 30
0.0
 10
24.554863267791678
 20
-44.890273464416644
 30
0.0
 10
23.777431633895837
 20
-46.445136732208326
 30
0.0
 10
23.0
 20
-48.0
 30
0.0
  0
LWPOLYLINE
  5
B1
102
{ACAD_REACTORS
330
B5
102
}
330
17
100
AcDbEntity
  8
ID_CUT_SINGLELINE
100
AcDbPolyline
 90
5
 70
0
 10
36.0
 20
-43.0
 10
36.0
 20
-47.2
 10
36.8
 20
-48.0
 10
39.0
 20
-48.0
 10
39.0
 20
-46.5
  0
SPLINE
  5
B2
102
{ACAD_REACTORS
330
B5
102
}
330
17
100
AcDbEntity
  8
ID_CUT_SINGLELINE
100
AcDbSpline
 70
0
 71
3
 72
14
 73
10
 74
0
 40
0.0
 40
0.0
 40
0.0
 40
0.0
 40
1.0
 40
1.0
 40
1.0
 40
2.0
 40
2.0
 40
2.0
 40
3.0
 40
3.0
 40
3.0
 40
3.0
 10
41.275
 20
-45.175
 30
0.0
 10
41.0
 20
-44.925
 30
0.0
 10
40.875
 20
-44.5
 30
0.0
 10
41.0
 20
-44.125
 30
0.0
 10
41.125
 20
-43.75
 30
0.0
 10
41.375
 20
-43.0
 30
0.0
 10
42.0
 20
-43.0
 30
0.0
 10
43.0
 20
-43.0
 30
0.0
 10
43.5
 20
-44.0
 30
0.0
 10
43.125
 20
-44.575
 30
0.0
  0
SPLINE
  5
B3
102
{ACAD_REACTORS
330
B5
102
}
330
17
100
AcDbEntity
  8
ID_CUT_SINGLELINE
100
AcDbSpline
 70
0
 71
3
 72
14
 73
10
 74
0
 40
0.0
 40
0.0
 40
0.0
 40
0.0
 40
1.0
 40
1.0
 40
1.0
 40
2.0
 40
2.0
 40
2.0
 40
3.0
 40
3.0
 40
3.0
 40
3.0
 10
42.625
 20
-45.2
 30
0.0
 10
42.325
 20
-45.4075
 30
0.0
 10
41.95
 20
-45.6675
 30
0.0
 10
41.65
 20
-45.875
 30
0.0
 10
41.2
 20
-46.18625
 30
0.0
 10
40.5
 20
-46.325
 30
0.0
 10
40.5
 20
-46.875
 30
0.0
 10
40.5
 20
-47.175
 30
0.0
 10
40.625
 20
-47.475
 30
0.0
 10
40.8
 20
-47.625
 30
0.0
  0
SPLINE
  5
B4
102
{ACAD_REACTORS
330
B5
102
}
330
17
100
AcDbEntity
  8
ID_CUT_SINGLELINE
100
AcDbSpline
 70
0
 71
3
 72
14
 73
10
 74
0
 40
0.0
 40
0.0
 40
0.0
 40
0.0
 40
1.0
 40
1.0
 40
1.0
 40
2.0
 40
2.0
 40
2.0
 40
3.0
 40
3.0
 40
3.0
 40
3.0
 10
41.55
 20
-47.925
 30
0.0
 10
41.7
 20
-48.0
 30
0.0
 10
41.85
 20
-48.0
 30
0.0
 10
42.0
 20
-48.0
 30
0.0
 10
43.0
 20
-48.0
 30
0.0
 10
43.5
 20
-47.5
 30
0.0
 10
43.5
 20
-46.75
 30
0.0
 10
43.5
 20
-46.375
 30
0.0
 10
43.0
 20
-46.125
 30
0.0
 10
42.625
 20
-45.95
 30
0.0
  0
LWPOLYLINE
  5
B6
102
{ACAD_REACTORS
330
B9
102
}
330
17
100
AcDbEntity
  8
ID_CUT_SINGLELINE
100
AcDbPolyline
 90
5
 70
0
 10
54.0
 20
-43.0
 10
54.0
 20
-47.2
 10
54.8
 20
-48.0
 10
57.0
 20
-48.0
 10
57.0
 20
-46.5
  0
SPLINE
  5
B7
102
{ACAD_REACTORS
330
B9
102
}
330
17
100
AcDbEntity
  8
ID_CUT_SINGLELINE
100
AcDbSpline
 70
0
 71
3
 72
20
 73
16
 74
0
 40
0.0
 40
0.0
 40
0.0
 40
0.0
 40
1.0
 40
1.0
 40
1.0
 40
2.0
 40
2.0
 40
2.0
 40
3.0
 40
3.0
 40
3.0
 40
4.0
 40
4.0
 40
4.0
 40
5.0
 40
5.0
 40
5.0
 40
5.0
 10
58.75
 20
-47.75
 30
0.0
 10
59.125
 20
-48.0
 30
0.0
 10
59.5
 20
-48.0
 30
0.0
 10
60.0
 20
-48.0
 30
0.0
 10
61.0
 20
-48.0
 30
0.0
 10
61.5
 20
-47.0
 30
0.0
 10
61.5
 20
-45.75
 30
0.0
 10
61.5
 20
-45.333333333333336
 30
0.0
 10
61.5
 20
-44.916666666666664
 30
0.0
 10
61.5
 20
-44.5
 30
0.0
 10
61.5
 20
-43.5
 30
0.0
 10
61.0
 20
-43.0
 30
0.0
 10
60.0
 20
-43.0
 30
0.0
 10
59.60506934119139
 20
-43.0
 30
0.0
 10
59.288123795016276
 20
-43.0779851126335
 30
0.0
 10
59.04916336147467
 20
-43.23395533790051
 30
0.0
  0
SPLINE
  5
B8
102
{ACAD_REACTORS
330
B9
102
}
330
17
100
AcDbEntity
  8
ID_CUT_SINGLELINE
100
AcDbSpline
 70
0
 71
3
 72
14
 73
10
 74
0
 40
0.0
 40
0.0
 40
0.0
 40
0.0
 40
1.0
 40
1.0
 40
1.0
 40
2.0
 40
2.0
 40
2.0
 40
3.0
 40
3.0
 40
3.0
 40
3.0
 10
58.59748446120089
 20
-43.83269248477505
 30
0.0
 10
58.532494820400295
 20
-44.02263350278307
 30
0.0
 10
58.5
 20
-44.24506934119139
 30
0.0
 10
58.5
 20
-44.5
 30
0.0
 10
58.5
 20
-45.375
 30
0.0
 10
59.125
 20
-46.0
 30
0.0
 10
60.0
 20
-46.0
 30
0.0
 10
60.375
 20
-46.0
 30
0.0
 10
60.625
 20
-45.875
 30
0.0
 10
60.75
 20
-45.75
 30
0.0
  0
LWPOLYLINE
  5
BA
102
{ACAD_REACTORS
330
C0
102
}
330
17
100
AcDbEntity
  8
ID_CUT_SINGLELINE
100
AcDbPolyline
 90
5
 70
0
 10
72.0
 20
-43.0
 10
72.0
 20
-47.2
 10
72.8
 20
-48.0
 10
75.0
 20
-48.0
 10
75.0
 20
-46.5
  0
SPLINE
  5
BB
102
{ACAD_REACTORS
330
C0
102
}
330
17
100
AcDbEntity
  8
ID_CUT_SINGLELINE
100
AcDbSpline
 70
0
 71
3
 72
20
 73
16
 74
0
 40
0.0
 40
0.0
 40
0.0
 40
0.0
 40
1.0
 40
1.0
 40
1.0
 40
2.0
 40
2.0
 40
2.0
 40
3.0
 40
3.0
 40
3.0
 40
4.0
 40
4.0
 40
4.0
 40
5.0
 40
5.0
 40
5.0
 40
5.0
 10
76.5
 20
-48.0
 30
0.0
 10
76.71488765584117
 20
-47.426966251090235
 30
0.0
 10
76.92977531168232
 20
-46.85393250218048
 30
0.0
 10
77.14466296752349
 20
-46.28089875327071
 30
0.0
 10
77.21488765584117
 20
-46.093632917756906
 30
0.0
 10
77.35
 20
-46.0
 30
0.0
 10
77.55
 20
-46.0
 30
0.0
 10
78.01666666666667
 20
-46.0
 30
0.0
 10
78.48333333333333
 20
-46.0
 30
0.0
 10
78.95
 20
-46.0
 30
0.0
 10
79.15
 20
-46.0
 30
0.0
 10
79.28511234415883
 20
-46.093632917756906
 30
0.0
 10
79.35533703247651
 20
-46.28089875327071
 30
0.0
 10
79.57022468831768
 20
-46.85393250218048
 30
0.0
 10
79.78511234415883
 20
-47.426966251090235
 30
0.0
 10
80.0
 20
-48.0
 30
0.0
  0
SPLINE
  5
BC
102
{ACAD_REACTORS
330
C0
102
}
330
17
100
AcDbEntity
  8
ID_CUT_SINGLELINE
100
AcDbSpline
 70
0
 71
3
 72
17
 73
13
 74
0
 40
0.0
 40
0.0
 40
0.0
 40
0.0
 40
1.0
 40
1.0
 40
1.0
 40
2.0
 40
2.0
 40
2.0
 40
3.0
 40
3.0
 40
3.0
 40
4.0
 40
4.0
 40
4.0
 40
4.0
 10
77.55
 20
-45.2
 30
0.0
 10
77.65833333333333
 20
-44.733333333333334
 30
0.0
 10
77.76666666666667
 20
-44.266666666666666
 30
0.0
 10
77.875
 20
-43.8
 30
0.0
 10
78.005
 20
-43.24
 30
0.0
 10
78.05
 20
-43.0
 30
0.0
 10
78.25
 20
-43.0
 30
0.0
 10
78.45
 20
-43.0
 30
0.0
 10
78.495
 20
-43.24
 30
0.0
 10
78.625
 20
-43.8
 30
0.0
 10
78.73333333333333
 20
-44.266666666666666
 30
0.0
 10
78.84166666666667
 20
-44.733333333333334
 30
0.0
 10
78.95
 20
-45.2
 30
0.0
  0
LINE
  5
BD
102
{ACAD_REACTORS
330
C0
102
}
330
17
100
AcDbEntity
  8
ID_CUT_SINGLELINE
100
AcDbLine
 10
81.0
 20
-45.5
 30
0.0
 11
83.0
 21
-45.5
 31
0.0
  0
SPLINE
  5
BE
102
{ACAD_REACTORS
330
C0
102
}
330
17
100
AcDbEntity
  8
ID_CUT_SINGLELINE
100
AcDbSpline
 70
0
 71
3
 72
14
 73
10
 74
0
 40
0.0
 40
0.0
 40
0.0
 40
0.0
 40
1.0
 40
1.0
 40
1.0
 40
2.0
 40
2.0
 40
2.0
 40
3.0
 40
3.0
 40
3.0
 40
3.0
 10
84.25528718417614
 20
-43.91540505318183
 30
0.0
 10
84.53549833005066
 20
-43.6351939073073
 30
0.0
 10
84.81570947592519
 20
-43.35498276143277
 30
0.0
 10
85.09592062179972
 20
-43.07477161555825
 30
0.0
 10
85.21626415452036
 20
-42.9544280828376
 30
0.0
 10
85.27643592088069
 20
-42.97935204453599
 30
0.0
 10
85.27643592088069
 20
-43.149543500653415
 30
0.0
 10
85.27643592088069
 20
-44.766362333768946
 30
0.0
 10
85.27643592088069
 20
-46.38318116688447
 30
0.0
 10
85.27643592088069
 20
-48.0
 30
0.0
  0
LINE
  5
BF
102
{ACAD_REACTORS
330
C0
102
}
330
17
100
AcDbEntity
  8
ID_CUT_SINGLELINE
100
AcDbLine
 10
84.0
 20
-48.0
 30
0.0
 11
86.55287184176136
 21
-48.0
 31
0.0
  0
ENDSEC
  0
SECTION
  2
OBJECTS
  0
DICTIONARY
  5
A
330
0
100
AcDbDictionary
281
1
  3
ACAD_COLOR
350
B
  3
ACAD_GROUP
350
C
  3
ACAD_LAYOUT
350
D
  3
ACAD_MATERIAL
350
E
  3
ACAD_MLEADERSTYLE
350
F
  3
ACAD_MLINESTYLE
350
10
  3
ACAD_PLOTSETTINGS
350
11
  3
ACAD_PLOTSTYLENAME
350
12
  3
ACAD_SCALELIST
350
14
  3
ACAD_TABLESTYLE
350
15
  3
ACAD_VISUALSTYLE
350
16
  3
EZDXF_META
350
2D
  0
DICTIONARY
  5
B
330
A
100
AcDbDictionary
281
1
  0
DICTIONARY
  5
C
330
A
100
AcDbDictionary
281
1
  3
*A1
350
33
  3
*A2
350
39
  3
*A3
350
3C
  3
*A4
350
40
  3
*A5
350
44
  3
*A6
350
48
  3
*A7
350
4B
  3
*A8
350
50
  3
*A9
350
55
  3
*A10
350
58
  3
*A11
350
5C
  3
*A12
350
5F
  3
*A13
350
62
  3
*A14
350
65
  3
*A15
350
69
  3
*A16
350
6D
  3
*A17
350
72
  3
*A18
350
77
  3
*A19
350
7A
  3
*A20
350
7E
  3
*A21
350
81
  3
*A22
350
84
  3
*A23
350
87
  3
*A24
350
8C
  3
*A25
350
90
  3
*A26
350
93
  3
*A27
350
98
  3
*A28
350
9C
  3
*A29
350
9F
  3
*A30
350
A2
  3
*A31
350
A6
  3
*A32
350
A9
  3
*A33
350
AD
  3
*A34
350
B0
  3
*A35
350
B5
  3
*A36
350
B9
  3
*A37
350
C0
  0
DICTIONARY
  5
D
330
A
100
AcDbDictionary
281
1
  3
Model
350
1A
  3
Layout1
350
1E
  0
DICTIONARY
  5
E
330
A
100
AcDbDictionary
281
1
  3
ByBlock
350
1F
  3
ByLayer
350
20
  3
Global
350
21
  0
DICTIONARY
  5
F
330
A
100
AcDbDictionary
281
1
  3
Standard
350
2C
  0
DICTIONARY
  5
10
330
A
100
AcDbDictionary
281
1
  3
Standard
350
22
  0
DICTIONARY
  5
11
330
A
100
AcDbDictionary
281
1
  0
ACDBDICTIONARYWDFLT
  5
12
330
A
100
AcDbDictionary
281
1
  3
Normal
350
13
100
AcDbDictionaryWithDefault
340
13
  0
ACDBPLACEHOLDER
  5
13
330
12
  0
DICTIONARY
  5
14
330
A
100
AcDbDictionary
281
1
  0
DICTIONARY
  5
15
330
A
100
AcDbDictionary
281
1
  0
DICTIONARY
  5
16
330
A
100
AcDbDictionary
281
1
  0
LAYOUT
  5
1A
330
D
100
AcDbPlotSettings
  1

  4
A3
  6

 40
7.5
 41
20.0
 42
7.5
 43
20.0
 44
420.0
 45
297.0
 46
0.0
 47
0.0
 48
0.0
 49
0.0
140
0.0
141
0.0
142
1.0
143
1.0
 70
1024
 72
1
 73
0
 74
5
  7

 75
16
 76
0
 77
2
 78
300
147
1.0
148
0.0
149
0.0
100
AcDbLayout
  1
Model
 70
1
 71
0
 10
0.0
 20
0.0
 11
420.0
 21
297.0
 12
0.0
 22
0.0
 32
0.0
 14
1e+20
 24
1e+20
 34
1e+20
 15
-1e+20
 25
-1e+20
 35
-1e+20
146
0.0
 13
0.0
 23
0.0
 33
0.0
 16
1.0
 26
0.0
 36
0.0
 17
0.0
 27
1.0
 37
0.0
 76
1
330
17
  0
LAYOUT
  5
1E
330
D
100
AcDbPlotSettings
  1

  4
A3
  6

 40
7.5
 41
20.0
 42
7.5
 43
20.0
 44
420.0
 45
297.0
 46
0.0
 47
0.0
 48
0.0
 49
0.0
140
0.0
141
0.0
142
1.0
143
1.0
 70
0
 72
1
 73
0
 74
5
  7

 75
16
 76
0
 77
2
 78
300
147
1.0
148
0.0
149
0.0
100
AcDbLayout
  1
Layout1
 70
1
 71
1
 10
0.0
 20
0.0
 11
420.0
 21
297.0
 12
0.0
 22
0.0
 32
0.0
 14
1e+20
 24
1e+20
 34
1e+20
 15
-1e+20
 25
-1e+20
 35
-1e+20
146
0.0
 13
0.0
 23
0.0
 33
0.0
 16
1.0
 26
0.0
 36
0.0
 17
0.0
 27
1.0
 37
0.0
 76
1
330
1B
  0
MATERIAL
  5
1F
102
{ACAD_REACTORS
330
E
102
}
330
E
100
AcDbMaterial
  1
ByBlock
  2

 70
0
 40
1.0
 71
1
 41
1.0
 91
-1023410177
 42
1.0
 72
1
  3

 73
1
 74
1
 75
1
 44
0.5
 73
0
 45
1.0
 46
1.0
 77
1
  4

 78
1
 79
1
170
1
 48
1.0
171
1
  6

172
1
173
1
174
1
140
1.0
141
1.0
175
1
  7

176
1
177
1
178
1
143
1.0
179
1
  8

270
1
271
1
272
1
145
1.0
146
1.0
273
1
  9

274
1
275
1
276
1
 42
1.0
 72
1
  3

 73
1
 74
1
 75
1
 94
63
  0
MATERIAL
  5
20
102
{ACAD_REACTORS
330
E
102
}
330
E
100
AcDbMaterial
  1
ByLayer
  2

 70
0
 40
1.0
 71
1
 41
1.0
 91
-1023410177
 42
1.0
 72
1
  3

 73
1
 74
1
 75
1
 44
0.5
 73
0
 45
1.0
 46
1.0
 77
1
  4

 78
1
 79
1
170
1
 48
1.0
171
1
  6

172
1
173
1
174
1
140
1.0
141
1.0
175
1
  7

176
1
177
1
178
1
143
1.0
179
1
  8

270
1
271
1
272
1
145
1.0
146
1.0
273
1
  9

274
1
275
1
276
1
 42
1.0
 72
1
  3

 73
1
 74
1
 75
1
 94
63
  0
MATERIAL
  5
21
102
{ACAD_REACTORS
330
E
102
}
330
E
100
AcDbMaterial
  1
Global
  2

 70
0
 40
1.0
 71
1
 41
1.0
 91
-1023410177
 42
1.0
 72
1
  3

 73
1
 74
1
 75
1
 44
0.5
 73
0
 45
1.0
 46
1.0
 77
1
  4

 78
1
 79
1
170
1
 48
1.0
171
1
  6

172
1
173
1
174
1
140
1.0
141
1.0
175
1
  7

176
1
177
1
178
1
143
1.0
179
1
  8

270
1
271
1
272
1
145
1.0
146
1.0
273
1
  9

274
1
275
1
276
1
 42
1.0
 72
1
  3

 73
1
 74
1
 75
1
 94
63
  0
MLINESTYLE
  5
22
102
{ACAD_REACTORS
330
10
102
}
330
10
100
AcDbMlineStyle
  2
Standard
 70
0
  3

 62
256
 51
90.0
 52
90.0
 71
2
 49
0.5
 62
256
  6
BYLAYER
 49
-0.5
 62
256
  6
BYLAYER
  0
MLEADERSTYLE
  5
2C
102
{ACAD_REACTORS
330
F
102
}
330
F
100
AcDbMLeaderStyle
179
2
170
2
171
1
172
0
 90
2
 40
0.0
 41
0.0
173
1
 91
-1056964608
 92
-2
290
1
 42
2.0
291
1
 43
8.0
  3
Standard
 44
4.0
300

342
29
174
1
175
1
176
0
178
1
 93
-1056964608
 45
4.0
292
0
297
0
 46
4.0
 94
-1056964608
 47
1.0
 49
1.0
140
1.0
294
1
141
0.0
177
0
142
1.0
295
0
296
0
143
3.75
271
0
272
9
273
9
  0
DICTIONARY
  5
2D
330
A
100
AcDbDictionary
280
1
281
1
  3
CREATED_BY_EZDXF
350
2E
  3
WRITTEN_BY_EZDXF
350
C3
  0
DICTIONARYVAR
  5
2E
330
2D
100
DictionaryVariables
280
0
  1
1.4.2 @ 2026-10-08T13:36:50.313451+00:00
  0
GROUP
  5
33
102
{ACAD_REACTORS
330
C
102
}
330
C
100
AcDbGroup
300
LaserFont 3 outside-face ID: A
 70
1
 71
1
340
30
340
31
340
32
  0
GROUP
  5
39
102
{ACAD_REACTORS
330
C
102
}
330
C
100
AcDbGroup
300
LaserFont 3 outside-face ID: B
 70
1
 71
1
340
34
340
35
340
36
340
37
340
38
  0
GROUP
  5
3C
102
{ACAD_REACTORS
330
C
102
}
330
C
100
AcDbGroup
300
LaserFont 3 outside-face ID: C
 70
1
 71
1
340
3A
340
3B
  0
GROUP
  5
40
102
{ACAD_REACTORS
330
C
102
}
330
C
100
AcDbGroup
300
LaserFont 3 outside-face ID: D
 70
1
 71
1
340
3D
340
3E
340
3F
  0
GROUP
  5
44
102
{ACAD_REACTORS
330
C
102
}
330
C
100
AcDbGroup
300
LaserFont 3 outside-face ID: E
 70
1
 71
1
340
41
340
42
340
43
  0
GROUP
  5
48
102
{ACAD_REACTORS
330
C
102
}
330
C
100
AcDbGroup
300
LaserFont 3 outside-face ID: F
 70
1
 71
1
340
45
340
46
340
47
  0
GROUP
  5
4B
102
{ACAD_REACTORS
330
C
102
}
330
C
100
AcDbGroup
300
LaserFont 3 outside-face ID: G
 70
1
 71
1
340
49
340
4A
  0
GROUP
  5
50
102
{ACAD_REACTORS
330
C
102
}
330
C
100
AcDbGroup
300
LaserFont 3 outside-face ID: H
 70
1
 71
1
340
4C
340
4D
340
4E
340
4F
  0
GROUP
  5
55
102
{ACAD_REACTORS
330
C
102
}
330
C
100
AcDbGroup
300
LaserFont 3 outside-face ID: I
 70
1
 71
1
340
51
340
52
340
53
340
54
  0
GROUP
  5
58
102
{ACAD_REACTORS
330
C
102
}
330
C
100
AcDbGroup
300
LaserFont 3 outside-face ID: J
 70
1
 71
1
340
56
340
57
  0
GROUP
  5
5C
102
{ACAD_REACTORS
330
C
102
}
330
C
100
AcDbGroup
300
LaserFont 3 outside-face ID: K
 70
1
 71
1
340
59
340
5A
340
5B
  0
GROUP
  5
5F
102
{ACAD_REACTORS
330
C
102
}
330
C
100
AcDbGroup
300
LaserFont 3 outside-face ID: L
 70
1
 71
1
340
5D
340
5E
  0
GROUP
  5
62
102
{ACAD_REACTORS
330
C
102
}
330
C
100
AcDbGroup
300
LaserFont 3 outside-face ID: M
 70
1
 71
1
340
60
340
61
  0
GROUP
  5
65
102
{ACAD_REACTORS
330
C
102
}
330
C
100
AcDbGroup
300
LaserFont 3 outside-face ID: N
 70
1
 71
1
340
63
340
64
  0
GROUP
  5
69
102
{ACAD_REACTORS
330
C
102
}
330
C
100
AcDbGroup
300
LaserFont 3 outside-face ID: O
 70
1
 71
1
340
66
340
67
340
68
  0
GROUP
  5
6D
102
{ACAD_REACTORS
330
C
102
}
330
C
100
AcDbGroup
300
LaserFont 3 outside-face ID: P
 70
1
 71
1
340
6A
340
6B
340
6C
  0
GROUP
  5
72
102
{ACAD_REACTORS
330
C
102
}
330
C
100
AcDbGroup
300
LaserFont 3 outside-face ID: Q
 70
1
 71
1
340
6E
340
6F
340
70
340
71
  0
GROUP
  5
77
102
{ACAD_REACTORS
330
C
102
}
330
C
100
AcDbGroup
300
LaserFont 3 outside-face ID: R
 70
1
 71
1
340
73
340
74
340
75
340
76
  0
GROUP
  5
7A
102
{ACAD_REACTORS
330
C
102
}
330
C
100
AcDbGroup
300
LaserFont 3 outside-face ID: S
 70
1
 71
1
340
78
340
79
  0
GROUP
  5
7E
102
{ACAD_REACTORS
330
C
102
}
330
C
100
AcDbGroup
300
LaserFont 3 outside-face ID: T
 70
1
 71
1
340
7B
340
7C
340
7D
  0
GROUP
  5
81
102
{ACAD_REACTORS
330
C
102
}
330
C
100
AcDbGroup
300
LaserFont 3 outside-face ID: U
 70
1
 71
1
340
7F
340
80
  0
GROUP
  5
84
102
{ACAD_REACTORS
330
C
102
}
330
C
100
AcDbGroup
300
LaserFont 3 outside-face ID: V
 70
1
 71
1
340
82
340
83
  0
GROUP
  5
87
102
{ACAD_REACTORS
330
C
102
}
330
C
100
AcDbGroup
300
LaserFont 3 outside-face ID: W
 70
1
 71
1
340
85
340
86
  0
GROUP
  5
8C
102
{ACAD_REACTORS
330
C
102
}
330
C
100
AcDbGroup
300
LaserFont 3 outside-face ID: X
 70
1
 71
1
340
88
340
89
340
8A
340
8B
  0
GROUP
  5
90
102
{ACAD_REACTORS
330
C
102
}
330
C
100
AcDbGroup
300
LaserFont 3 outside-face ID: Y
 70
1
 71
1
340
8D
340
8E
340
8F
  0
GROUP
  5
93
102
{ACAD_REACTORS
330
C
102
}
330
C
100
AcDbGroup
300
LaserFont 3 outside-face ID: Z
 70
1
 71
1
340
91
340
92
  0
GROUP
  5
98
102
{ACAD_REACTORS
330
C
102
}
330
C
100
AcDbGroup
300
LaserFont 3 outside-face ID: 0
 70
1
 71
1
340
94
340
95
340
96
340
97
  0
GROUP
  5
9C
102
{ACAD_REACTORS
330
C
102
}
330
C
100
AcDbGroup
300
LaserFont 3 outside-face ID: 1
 70
1
 71
1
340
99
340
9A
340
9B
  0
GROUP
  5
9F
102
{ACAD_REACTORS
330
C
102
}
330
C
100
AcDbGroup
300
LaserFont 3 outside-face ID: 2
 70
1
 71
1
340
9D
340
9E
  0
GROUP
  5
A2
102
{ACAD_REACTORS
330
C
102
}
330
C
100
AcDbGroup
300
LaserFont 3 outside-face ID: 3
 70
1
 71
1
340
A0
340
A1
  0
GROUP
  5
A6
102
{ACAD_REACTORS
330
C
102
}
330
C
100
AcDbGroup
300
LaserFont 3 outside-face ID: 4
 70
1
 71
1
340
A3
340
A4
340
A5
  0
GROUP
  5
A9
102
{ACAD_REACTORS
330
C
102
}
330
C
100
AcDbGroup
300
LaserFont 3 outside-face ID: 5
 70
1
 71
1
340
A7
340
A8
  0
GROUP
  5
AD
102
{ACAD_REACTORS
330
C
102
}
330
C
100
AcDbGroup
300
LaserFont 3 outside-face ID: 6
 70
1
 71
1
340
AA
340
AB
340
AC
  0
GROUP
  5
B0
102
{ACAD_REACTORS
330
C
102
}
330
C
100
AcDbGroup
300
LaserFont 3 outside-face ID: 7
 70
1
 71
1
340
AE
340
AF
  0
GROUP
  5
B5
102
{ACAD_REACTORS
330
C
102
}
330
C
100
AcDbGroup
300
LaserFont 3 outside-face ID: 8
 70
1
 71
1
340
B1
340
B2
340
B3
340
B4
  0
GROUP
  5
B9
102
{ACAD_REACTORS
330
C
102
}
330
C
100
AcDbGroup
300
LaserFont 3 outside-face ID: 9
 70
1
 71
1
340
B6
340
B7
340
B8
  0
GROUP
  5
C0
102
{ACAD_REACTORS
330
C
102
}
330
C
100
AcDbGroup
300
LaserFont 3 outside-face ID: A-1
 70
1
 71
1
340
BA
340
BB
340
BC
340
BD
340
BE
340
BF
  0
DICTIONARYVAR
  5
C3
330
2D
100
DictionaryVariables
280
0
  1
1.4.2 @ 2026-10-08T13:36:50.330679+00:00
  0
ENDSEC
  0
EOF
