  0
SECTION
  2
HEADER
  9
$ACADVER
  1
AC1024
  9
$ACADMAINTVER
 70
6
  9
$DWGCODEPAGE
  3
ANSI_1252
  9
$LASTSAVEDBY
  1
ezdxf
  9
$INSBASE
 10
0.0
 20
0.0
 30
0.0
  9
$EXTMIN
 10
1e+20
 20
1e+20
 30
1e+20
  9
$EXTMAX
 10
-1e+20
 20
-1e+20
 30
-1e+20
  9
$LIMMIN
 10
0.0
 20
0.0
  9
$LIMMAX
 10
420.0
 20
297.0
  9
$ORTHOMODE
 70
0
  9
$REGENMODE
 70
1
  9
$FILLMODE
 70
1
  9
$QTEXTMODE
 70
0
  9
$MIRRTEXT
 70
1
  9
$LTSCALE
 40
1.0
  9
$ATTMODE
 70
1
  9
$TEXTSIZE
 40
2.5
  9
$TRACEWID
 40
1.0
  9
$TEXTSTYLE
  7
Standard
  9
$CLAYER
  8
0
  9
$CELTYPE
  6
ByLayer
  9
$CECOLOR
 62
256
  9
$CELTSCALE
 40
1.0
  9
$DISPSILH
 70
0
  9
$DIMSCALE
 40
1.0
  9
$DIMASZ
 40
2.5
  9
$DIMEXO
 40
0.625
  9
$DIMDLI
 40
3.75
  9
$DIMRND
 40
0.0
  9
$DIMDLE
 40
0.0
  9
$DIMEXE
 40
1.25
  9
$DIMTP
 40
0.0
  9
$DIMTM
 40
0.0
  9
$DIMTXT
 40
2.5
  9
$DIMCEN
 40
2.5
  9
$DIMTSZ
 40
0.0
  9
$DIMTOL
 70
0
  9
$DIMLIM
 70
0
  9
$DIMTIH
 70
0
  9
$DIMTOH
 70
0
  9
$DIMSE1
 70
0
  9
$DIMSE2
 70
0
  9
$DIMTAD
 70
1
  9
$DIMZIN
 70
8
  9
$DIMBLK
  1

  9
$DIMASO
 70
1
  9
$DIMSHO
 70
1
  9
$DIMPOST
  1

  9
$DIMAPOST
  1

  9
$DIMALT
 70
0
  9
$DIMALTD
 70
3
  9
$DIMALTF
 40
0.03937007874
  9
$DIMLFAC
 40
1.0
  9
$DIMTOFL
 70
1
  9
$DIMTVP
 40
0.0
  9
$DIMTIX
 70
0
  9
$DIMSOXD
 70
0
  9
$DIMSAH
 70
0
  9
$DIMBLK1
  1

  9
$DIMBLK2
  1

  9
$DIMSTYLE
  2
ISO-25
  9
$DIMCLRD
 70
0
  9
$DIMCLRE
 70
0
  9
$DIMCLRT
 70
0
  9
$DIMTFAC
 40
1.0
  9
$DIMGAP
 40
0.625
  9
$DIMJUST
 70
0
  9
$DIMSD1
 70
0
  9
$DIMSD2
 70
0
  9
$DIMTOLJ
 70
0
  9
$DIMTZIN
 70
8
  9
$DIMALTZ
 70
0
  9
$DIMALTTZ
 70
0
  9
$DIMUPT
 70
0
  9
$DIMDEC
 70
2
  9
$DIMTDEC
 70
2
  9
$DIMALTU
 70
2
  9
$DIMALTTD
 70
3
  9
$DIMTXSTY
  7
Standard
  9
$DIMAUNIT
 70
0
  9
$DIMADEC
 70
0
  9
$DIMALTRND
 40
0.0
  9
$DIMAZIN
 70
0
  9
$DIMDSEP
 70
44
  9
$DIMATFIT
 70
3
  9
$DIMFRAC
 70
0
  9
$DIMLDRBLK
  1

  9
$DIMLUNIT
 70
2
  9
$DIMLWD
 70
-2
  9
$DIMLWE
 70
-2
  9
$DIMTMOVE
 70
0
  9
$DIMFXL
 40
1.0
  9
$DIMFXLON
 70
0
  9
$DIMJOGANG
 40
0.785398163397
  9
$DIMTFILL
 70
0
  9
$DIMTFILLCLR
 70
0
  9
$DIMARCSYM
 70
0
  9
$DIMLTYPE
  6

  9
$DIMLTEX1
  6

  9
$DIMLTEX2
  6

  9
$DIMTXTDIRECTION
 70
0
  9
$LUNITS
 70
2
  9
$LUPREC
 70
4
  9
$SKETCHINC
 40
1.0
  9
$FILLETRAD
 40
10.0
  9
$AUNITS
 70
0
  9
$AUPREC
 70
2
  9
$MENU
  1
.
  9
$ELEVATION
 40
0.0
  9
$PELEVATION
 40
0.0
  9
$THICKNESS
 40
0.0
  9
$LIMCHECK
 70
0
  9
$CHAMFERA
 40
0.0
  9
$CHAMFERB
 40
0.0
  9
$CHAMFERC
 40
0.0
  9
$CHAMFERD
 40
0.0
  9
$SKPOLY
 70
0
  9
$TDCREATE
 40
2461303.447662037
  9
$TDUCREATE
 40
2458532.153996898
  9
$TDUPDATE
 40
2461303.447662037
  9
$TDUUPDATE
 40
2458532.1544311
  9
$TDINDWG
 40
0.0
  9
$TDUSRTIMER
 40
0.0
  9
$USRTIMER
 70
1
  9
$ANGBASE
 50
0.0
  9
$ANGDIR
 70
0
  9
$PDMODE
 70
0
  9
$PDSIZE
 40
0.0
  9
$PLINEWID
 40
0.0
  9
$SPLFRAME
 70
0
  9
$SPLINETYPE
 70
6
  9
$SPLINESEGS
 70
8
  9
$HANDSEED
  5
A8
  9
$SURFTAB1
 70
6
  9
$SURFTAB2
 70
6
  9
$SURFTYPE
 70
6
  9
$SURFU
 70
6
  9
$SURFV
 70
6
  9
$UCSBASE
  2

  9
$UCSNAME
  2

  9
$UCSORG
 10
0.0
 20
0.0
 30
0.0
  9
$UCSXDIR
 10
1.0
 20
0.0
 30
0.0
  9
$UCSYDIR
 10
0.0
 20
1.0
 30
0.0
  9
$UCSORTHOREF
  2

  9
$UCSORTHOVIEW
 70
0
  9
$UCSORGTOP
 10
0.0
 20
0.0
 30
0.0
  9
$UCSORGBOTTOM
 10
0.0
 20
0.0
 30
0.0
  9
$UCSORGLEFT
 10
0.0
 20
0.0
 30
0.0
  9
$UCSORGRIGHT
 10
0.0
 20
0.0
 30
0.0
  9
$UCSORGFRONT
 10
0.0
 20
0.0
 30
0.0
  9
$UCSORGBACK
 10
0.0
 20
0.0
 30
0.0
  9
$PUCSBASE
  2

  9
$PUCSNAME
  2

  9
$PUCSORG
 10
0.0
 20
0.0
 30
0.0
  9
$PUCSXDIR
 10
1.0
 20
0.0
 30
0.0
  9
$PUCSYDIR
 10
0.0
 20
1.0
 30
0.0
  9
$PUCSORTHOREF
  2

  9
$PUCSORTHOVIEW
 70
0
  9
$PUCSORGTOP
 10
0.0
 20
0.0
 30
0.0
  9
$PUCSORGBOTTOM
 10
0.0
 20
0.0
 30
0.0
  9
$PUCSORGLEFT
 10
0.0
 20
0.0
 30
0.0
  9
$PUCSORGRIGHT
 10
0.0
 20
0.0
 30
0.0
  9
$PUCSORGFRONT
 10
0.0
 20
0.0
 30
0.0
  9
$PUCSORGBACK
 10
0.0
 20
0.0
 30
0.0
  9
$USERI1
 70
0
  9
$USERI2
 70
0
  9
$USERI3
 70
0
  9
$USERI4
 70
0
  9
$USERI5
 70
0
  9
$USERR1
 40
0.0
  9
$USERR2
 40
0.0
  9
$USERR3
 40
0.0
  9
$USERR4
 40
0.0
  9
$USERR5
 40
0.0
  9
$WORLDVIEW
 70
1
  9
$SHADEDGE
 70
3
  9
$SHADEDIF
 70
70
  9
$TILEMODE
 70
1
  9
$MAXACTVP
 70
64
  9
$PINSBASE
 10
0.0
 20
0.0
 30
0.0
  9
$PLIMCHECK
 70
0
  9
$PEXTMIN
 10
1e+20
 20
1e+20
 30
1e+20
  9
$PEXTMAX
 10
-1e+20
 20
-1e+20
 30
-1e+20
  9
$PLIMMIN
 10
0.0
 20
0.0
  9
$PLIMMAX
 10
420.0
 20
297.0
  9
$UNITMODE
 70
0
  9
$VISRETAIN
 70
1
  9
$PLINEGEN
 70
0
  9
$PSLTSCALE
 70
1
  9
$TREEDEPTH
 70
3020
  9
$CMLSTYLE
  2
Standard
  9
$CMLJUST
 70
0
  9
$CMLSCALE
 40
20.0
  9
$PROXYGRAPHICS
 70
1
  9
$MEASUREMENT
 70
1
  9
$CELWEIGHT
370
-1
  9
$ENDCAPS
280
0
  9
$JOINSTYLE
280
0
  9
$LWDISPLAY
290
0
  9
$INSUNITS
 70
4
  9
$HYPERLINKBASE
  1

  9
$STYLESHEET
  1

  9
$XEDIT
290
1
  9
$CEPSNTYPE
380
0
  9
$PSTYLEMODE
290
1
  9
$FINGERPRINTGUID
  2
{B22FDBDA-E421-4AB2-AE51-16161D5D77C6}
  9
$VERSIONGUID
  2
{FA9273CC-EBC3-4EF5-829F-3D3D5B169364}
  9
$EXTNAMES
290
1
  9
$PSVPSCALE
 40
0.0
  9
$OLESTARTUP
290
0
  9
$SORTENTS
280
127
  9
$INDEXCTL
280
0
  9
$HIDETEXT
280
1
  9
$XCLIPFRAME
280
1
  9
$HALOGAP
280
0
  9
$OBSCOLOR
 70
257
  9
$OBSLTYPE
280
0
  9
$INTERSECTIONDISPLAY
280
0
  9
$INTERSECTIONCOLOR
 70
257
  9
$DIMASSOC
280
2
  9
$PROJECTNAME
  1

  9
$CAMERADISPLAY
290
0
  9
$LENSLENGTH
 40
50.0
  9
$CAMERAHEIGHT
 40
0.0
  9
$STEPSPERSEC
 40
24.0
  9
$STEPSIZE
 40
100.0
  9
$3DDWFPREC
 40
2.0
  9
$PSOLWIDTH
 40
0.005
  9
$PSOLHEIGHT
 40
0.08
  9
$LOFTANG1
 40
1.570796326795
  9
$LOFTANG2
 40
1.570796326795
  9
$LOFTMAG1
 40
0.0
  9
$LOFTMAG2
 40
0.0
  9
$LOFTPARAM
 70
7
  9
$LOFTNORMALS
280
1
  9
$LATITUDE
 40
37.795
  9
$LONGITUDE
 40
-122.394
  9
$NORTHDIRECTION
 40
0.0
  9
$TIMEZONE
 70
-8000
  9
$LIGHTGLYPHDISPLAY
280
1
  9
$TILEMODELIGHTSYNCH
280
1
  9
$CMATERIAL
347
20
  9
$SOLIDHIST
280
0
  9
$SHOWHIST
280
1
  9
$DWFFRAME
280
2
  9
$DGNFRAME
280
2
  9
$REALWORLDSCALE
290
1
  9
$INTERFERECOLOR
 62
256
  9
$CSHADOW
280
0
  9
$SHADOWPLANELOCATION
 40
0.0
  0
ENDSEC
  0
SECTION
  2
CLASSES
  0
CLASS
  1
ACDBDICTIONARYWDFLT
  2
AcDbDictionaryWithDefault
  3
ObjectDBX Classes
 90
0
 91
0
280
0
281
0
  0
CLASS
  1
SUN
  2
AcDbSun
  3
SCENEOE
 90
1153
 91
0
280
0
281
0
  0
CLASS
  1
VISUALSTYLE
  2
AcDbVisualStyle
  3
ObjectDBX Classes
 90
4095
 91
0
280
0
281
0
  0
CLASS
  1
MATERIAL
  2
AcDbMaterial
  3
ObjectDBX Classes
 90
1153
 91
0
280
0
281
0
  0
CLASS
  1
SCALE
  2
AcDbScale
  3
ObjectDBX Classes
 90
1153
 91
0
280
0
281
0
  0
CLASS
  1
TABLESTYLE
  2
AcDbTableStyle
  3
ObjectDBX Classes
 90
4095
 91
0
280
0
281
0
  0
CLASS
  1
MLEADERSTYLE
  2
AcDbMLeaderStyle
  3
ACDB_MLEADERSTYLE_CLASS
 90
4095
 91
0
280
0
281
0
  0
CLASS
  1
DICTIONARYVAR
  2
AcDbDictionaryVar
  3
ObjectDBX Classes
 90
0
 91
0
280
0
281
0
  0
CLASS
  1
CELLSTYLEMAP
  2
AcDbCellStyleMap
  3
ObjectDBX Classes
 90
1152
 91
0
280
0
281
0
  0
CLASS
  1
MENTALRAYRENDERSETTINGS
  2
AcDbMentalRayRenderSettings
  3
SCENEOE
 90
1024
 91
0
280
0
281
0
  0
CLASS
  1
ACDBDETAILVIEWSTYLE
  2
AcDbDetailViewStyle
  3
ObjectDBX Classes
 90
1025
 91
0
280
0
281
0
  0
CLASS
  1
ACDBSECTIONVIEWSTYLE
  2
AcDbSectionViewStyle
  3
ObjectDBX Classes
 90
1025
 91
0
280
0
281
0
  0
CLASS
  1
RASTERVARIABLES
  2
AcDbRasterVariables
  3
ISM
 90
0
 91
0
280
0
281
0
  0
CLASS
  1
ACDBPLACEHOLDER
  2
AcDbPlaceHolder
  3
ObjectDBX Classes
 90
0
 91
0
280
0
281
0
  0
CLASS
  1
LAYOUT
  2
AcDbLayout
  3
ObjectDBX Classes
 90
0
 91
0
280
0
281
0
  0
ENDSEC
  0
SECTION
  2
TABLES
  0
TABLE
  2
VPORT
  5
8
330
0
100
AcDbSymbolTable
 70
1
  0
VPORT
  5
23
330
8
100
AcDbSymbolTableRecord
100
AcDbViewportTableRecord
  2
*Active
 70
0
 10
0.0
 20
0.0
 11
1.0
 21
1.0
 12
0.0
 22
0.0
 13
0.0
 23
0.0
 14
0.5
 24
0.5
 15
0.5
 25
0.5
 16
0.0
 26
0.0
 36
1.0
 17
0.0
 27
0.0
 37
0.0
 40
1000.0
 41
1.34
 42
50.0
 43
0.0
 44
0.0
 50
0.0
 51
0.0
 71
0
 72
1000
 73
1
 74
3
 75
0
 76
0
 77
0
 78
0
281
0
 65
0
146
0.0
  0
ENDTAB
  0
TABLE
  2
LTYPE
  5
2
330
0
100
AcDbSymbolTable
 70
3
  0
LTYPE
  5
24
330
2
100
AcDbSymbolTableRecord
100
AcDbLinetypeTableRecord
  2
ByBlock
 70
0
  3

 72
65
 73
0
 40
0.0
  0
LTYPE
  5
25
330
2
100
AcDbSymbolTableRecord
100
AcDbLinetypeTableRecord
  2
ByLayer
 70
0
  3

 72
65
 73
0
 40
0.0
  0
LTYPE
  5
26
330
2
100
AcDbSymbolTableRecord
100
AcDbLinetypeTableRecord
  2
Continuous
 70
0
  3

 72
65
 73
0
 40
0.0
  0
ENDTAB
  0
TABLE
  2
LAYER
  5
1
330
0
100
AcDbSymbolTable
 70
3
  0
LAYER
  5
27
330
1
100
AcDbSymbolTableRecord
100
AcDbLayerTableRecord
  2
0
 70
0
 62
7
  6
Continuous
370
-3
390
13
347
21
  0
LAYER
  5
28
330
1
100
AcDbSymbolTableRecord
100
AcDbLayerTableRecord
  2
Defpoints
 70
0
 62
7
  6
Continuous
290
0
370
-3
390
13
347
21
  0
LAYER
  5
2F
330
1
100
AcDbSymbolTableRecord
100
AcDbLayerTableRecord
  2
ID_CUT_SINGLELINE
 70
0
 62
3
  6
Continuous
370
0
390
13
347
21
  0
ENDTAB
  0
TABLE
  2
STYLE
  5
5
330
0
100
AcDbSymbolTable
 70
1
  0
STYLE
  5
29
330
5
100
AcDbSymbolTableRecord
100
AcDbTextStyleTableRecord
  2
Standard
 70
0
 40
0.0
 41
1.0
 50
0.0
 71
0
 42
2.5
  3
txt
  4

  0
ENDTAB
  0
TABLE
  2
VIEW
  5
7
330
0
100
AcDbSymbolTable
 70
0
  0
ENDTAB
  0
TABLE
  2
UCS
  5
6
330
0
100
AcDbSymbolTable
 70
0
  0
ENDTAB
  0
TABLE
  2
APPID
  5
3
330
0
100
AcDbSymbolTable
 70
3
  0
APPID
  5
2A
330
3
100
AcDbSymbolTableRecord
100
AcDbRegAppTableRecord
  2
ACAD
 70
0
  0
APPID
  5
A5
330
3
100
AcDbSymbolTableRecord
100
AcDbRegAppTableRecord
  2
HATCHBACKGROUNDCOLOR
 70
0
  0
APPID
  5
A6
330
3
100
AcDbSymbolTableRecord
100
AcDbRegAppTableRecord
  2
EZDXF
 70
0
  0
ENDTAB
  0
TABLE
  2
DIMSTYLE
  5
4
330
0
100
AcDbSymbolTable
 70
1
100
AcDbDimStyleTable
  0
DIMSTYLE
105
2B
330
4
100
AcDbSymbolTableRecord
100
AcDbDimStyleTableRecord
  2
Standard
 70
0
 40
1.0
 41
2.5
 42
0.625
 43
3.75
 44
1.25
 45
0.0
 46
0.0
 47
0.0
 48
0.0
 49
2.5
140
2.5
141
2.5
142
0.0
143
0.03937007874
144
1.0
145
0.0
146
1.0
147
0.625
148
0.0
 69
0
 70
0
 71
0
 72
0
 73
0
 74
0
 75
0
 76
0
 77
1
 78
8
 79
3
170
0
171
3
172
1
173
0
174
0
175
0
176
0
177
0
178
0
179
2
271
2
272
2
273
2
274
3
275
0
276
0
277
2
278
44
279
0
280
0
281
0
282
0
283
0
284
8
285
0
286
0
288
0
289
3
290
0
371
-2
372
-2
  0
ENDTAB
  0
TABLE
  2
BLOCK_RECORD
  5
9
330
0
100
AcDbSymbolTable
 70
2
  0
BLOCK_RECORD
  5
17
330
9
100
AcDbSymbolTableRecord
100
AcDbBlockTableRecord
  2
*Model_Space
340
1A
 70
0
280
1
281
0
  0
BLOCK_RECORD
  5
1B
330
9
100
AcDbSymbolTableRecord
100
AcDbBlockTableRecord
  2
*Paper_Space
340
1E
 70
0
280
1
281
0
  0
ENDTAB
  0
ENDSEC
  0
SECTION
  2
BLOCKS
  0
BLOCK
  5
18
330
17
100
AcDbEntity
  8
0
100
AcDbBlockBegin
  2
*Model_Space
 70
0
 10
0.0
 20
0.0
 30
0.0
  3
*Model_Space
  1

  0
ENDBLK
  5
19
330
17
100
AcDbEntity
  8
0
100
AcDbBlockEnd
  0
BLOCK
  5
1C
330
1B
100
AcDbEntity
  8
0
100
AcDbBlockBegin
  2
*Paper_Space
 70
0
 10
0.0
 20
0.0
 30
0.0
  3
*Paper_Space
  1

  0
ENDBLK
  5
1D
330
1B
100
AcDbEntity
  8
0
100
AcDbBlockEnd
  0
ENDSEC
  0
SECTION
  2
ENTITIES
  0
LWPOLYLINE
  5
30
330
17
100
AcDbEntity
  8
ID_CUT_SINGLELINE
100
AcDbPolyline
 90
10
 70
0
 10
0.0
 20
0.0
 10
2.57865187009393
 20
6.876404986917146
 42
-0.060901145538560054
 10
2.8237671287519355
 20
7.346741906980828
 42
-0.18336909713630262
 10
3.6735441052505884
 20
7.93563774952997
 42
-0.060901145538560165
 10
4.2
 20
8.0
 10
9.8
 20
8.0
 42
-0.06090114553856022
 10
10.326455894749412
 20
7.93563774952997
 42
-0.18336909713630237
 10
11.176232871248065
 20
7.346741906980828
 42
-0.060901145538559034
 10
11.42134812990607
 20
6.876404986917146
 10
14.0
 20
0.0
  0
LWPOLYLINE
  5
31
330
17
100
AcDbEntity
  8
ID_CUT_SINGLELINE
100
AcDbPolyline
 90
18
 70
0
 10
4.2
 20
11.2
 10
5.5
 20
16.8
 42
0.0005684973451910188
 10
5.667057559254645
 20
17.523365423720804
 42
-0.005513249221472223
 10
5.84125
 20
18.244999999999997
 42
-0.007223911951245167
 10
5.97631243197006
 20
18.74799416939145
 42
-0.026766655989858532
 10
6.145
 20
19.24
 42
-0.029632768047935208
 10
6.2917861544685625
 20
19.549328731766302
 42
-0.08285563746265892
 10
6.50125
 20
19.814999999999998
 42
-0.09917558908478553
 10
6.732728940883204
 20
19.953790069542112
 42
-0.17289537674071323
 10
7.267271059116796
 20
19.953790069542112
 42
-0.09917558908478548
 10
7.49875
 20
19.814999999999998
 42
-0.08285563746265884
 10
7.7082138455314375
 20
19.549328731766302
 42
-0.029632768047935222
 10
7.855
 20
19.24
 42
-0.026766655989860128
 10
8.023687568029938
 20
18.74799416939145
 42
-0.0072239119512466175
 10
8.158750000000001
 20
18.244999999999997
 42
-0.0055132492214722715
 10
8.332942440745354
 20
17.523365423720804
 42
0.0005684973451897629
 10
8.5
 20
16.8
 10
9.8
 20
11.2
  0
LWPOLYLINE
  5
32
330
17
100
AcDbEntity
  8
ID_CUT_SINGLELINE
100
AcDbPolyline
 90
18
 70
0
 10
27.646572751793556
 20
19.34543407053208
 42
0.03981469732100631
 10
26.856934193982816
 20
19.64644067641934
 42
0.027188544951180723
 10
26.03277627613434
 20
19.839620546227422
 42
0.026584198127785143
 10
25.020327907506896
 20
19.964496290693358
 42
0.01739292274809276
 10
24.0
 20
19.999999999999996
 10
20.0
 20
19.999999999999996
 42
0.0641887124095951
 10
19.189747212193204
 20
19.895551485841597
 42
0.27084315763380284
 10
18.104448514158396
 20
18.81025278780679
 42
0.06418871240959331
 10
18.0
 20
17.999999999999996
 10
18.0
 20
1.9999999999999996
 42
0.06418871240959298
 10
18.104448514158396
 20
1.1897472121932036
 42
0.27084315763380007
 10
19.189747212193204
 20
0.10444851415839557
 42
0.06418871240959298
 10
20.0
 20
0.0
 10
24.0
 20
0.0
 42
0.017392922748093703
 10
25.020327907506896
 20
0.03550370930664053
 42
0.026584198127785643
 10
26.03277627613434
 20
0.16037945377257487
 42
0.027188544951180612
 10
26.856934193982816
 20
0.35355932358065867
 42
0.039814697321006697
 10
27.646572751793556
 20
0.6545659294679175
  0
LWPOLYLINE
  5
33
330
17
100
AcDbEntity
  8
ID_CUT_SINGLELINE
100
AcDbPolyline
 90
7
 70
0
 10
29.672274928433886
 20
17.132623484070912
 42
-0.05351707773306869
 10
29.92833489352426
 20
16.08242707816306
 42
-0.03306769762496908
 10
29.999999999999996
 20
14.999999999999996
 42
-0.0610258310013109
 10
29.822462131902157
 20
13.550804739728003
 42
-0.08479560352507295
 10
29.240531272915028
 20
12.222764379646122
 42
-0.08854081572307182
 10
28.243433564090836
 20
11.171151608980397
 42
-0.06901223092013728
 10
26.96212509166012
 20
10.475199896209475
  0
LWPOLYLINE
  5
34
330
17
100
AcDbEntity
  8
ID_CUT_SINGLELINE
100
AcDbPolyline
 90
7
 70
0
 10
29.672274928433886
 20
2.867376515929084
 42
0.05351707773306846
 10
29.92833489352426
 20
3.917572921836932
 42
0.033067697624969
 10
29.999999999999996
 20
4.999999999999999
 42
0.06102583100131146
 10
29.822462131902153
 20
6.449195260271994
 42
0.08479560352507319
 10
29.240531272915028
 20
7.777235620353874
 42
0.08854081572307182
 10
28.243433564090836
 20
8.8288483910196
 42
0.06901223092013728
 10
26.96212509166012
 20
9.524800103790522
  0
LWPOLYLINE
  5
35
330
17
100
AcDbEntity
  8
ID_CUT_SINGLELINE
100
AcDbPolyline
 90
2
 70
0
 10
18.0
 20
9.999999999999998
 10
24.0
 20
9.999999999999998
  0
LWPOLYLINE
  5
36
330
17
100
AcDbEntity
  8
ID_CUT_SINGLELINE
100
AcDbPolyline
 90
24
 70
0
 10
46.0
 20
18.0
 42
0.028068867453618758
 10
44.65395278077346
 20
18.89615112081236
 42
0.10513711778054902
 10
41.61452844786865
 20
19.90929256511396
 42
0.02806886745361862
 10
40.0
 20
20.0
 42
0.04624195967075391
 10
38.65669935618632
 20
19.87550007106324
 42
0.06130816796163029
 10
37.375
 20
19.46875
 42
0.05913798717742678
 10
36.35167577792337
 20
18.844296638733763
 42
0.05756755326188651
 10
35.5
 20
18.0
 42
0.054399067375964956
 10
34.83058184879116
 20
16.94647789764795
 42
0.04235116507719652
 10
34.375
 20
15.78125
 42
0.041006255132033306
 10
34.08731762515543
 20
14.405154646189397
 42
0.031040531228061077
 10
34.0
 20
13.0
 10
34.0
 20
7.0
 42
0.031040531228060966
 10
34.08731762515543
 20
5.594845353810604
 42
0.041006255132033306
 10
34.375
 20
4.21875
 42
0.04235116507719641
 10
34.83058184879116
 20
3.0535221023520505
 42
0.054399067375964845
 10
35.5
 20
2.0
 42
0.0575675532618864
 10
36.35167577792337
 20
1.1557033612662369
 42
0.05913798717742667
 10
37.375
 20
0.53125
 42
0.06130816796163079
 10
38.65669935618632
 20
0.12449992893676187
 42
0.04624195967075441
 10
40.0
 20
0.0
 42
0.02806886745361873
 10
41.61452844786865
 20
0.09070743488603866
 42
0.1051371177805488
 10
44.65395278077346
 20
1.10384887918764
 42
0.02806886745361848
 10
46.0
 20
2.0
  0
LWPOLYLINE
  5
37
330
17
100
AcDbEntity
  8
ID_CUT_SINGLELINE
100
AcDbPolyline
 90
14
 70
0
 10
50.0
 20
11.499999999999998
 10
50.0
 20
17.999999999999996
 42
-0.06462354395989649
 10
50.10508500681402
 20
18.80965963904531
 42
-0.26991377342769
 10
51.19034036095468
 20
19.89491499318597
 42
-0.06462354395989678
 10
52.0
 20
19.999999999999996
 10
55.0
 20
19.999999999999996
 42
-0.03726749401347546
 10
56.7067446811063
 20
19.872610879196003
 42
-0.05205419153717439
 10
58.359375
 20
19.445312499999996
 42
-0.05311322036559973
 10
59.71048349006823
 20
18.77058705853753
 42
-0.05965392543458973
 10
60.875
 20
17.812499999999996
 42
-0.059852106008518674
 10
61.808472489433555
 20
16.568173108417202
 42
-0.0489525703727118
 10
62.453125
 20
15.148437499999996
 42
-0.04874496933129242
 10
62.87632221929124
 20
13.349032886206963
 42
-0.03340658709195494
 10
63.0
 20
11.499999999999998
  0
LWPOLYLINE
  5
38
330
17
100
AcDbEntity
  8
ID_CUT_SINGLELINE
100
AcDbPolyline
 90
14
 70
0
 10
50.0
 20
8.499999999999998
 10
50.0
 20
1.9999999999999996
 42
0.06462354395989638
 10
50.10508500681402
 20
1.1903403609546814
 42
0.26991377342768746
 10
51.19034036095468
 20
0.10508500681402516
 42
0.06462354395989656
 10
52.0
 20
0.0
 10
55.0
 20
0.0
 42
0.037267494013475296
 10
56.7067446811063
 20
0.12738912080399278
 42
0.05205419153717422
 10
58.359375
 20
0.5546874999999999
 42
0.05311322036559978
 10
59.71048349006823
 20
1.229412941462467
 42
0.05965392543458981
 10
60.875
 20
2.1874999999999996
 42
0.05985210600851906
 10
61.808472489433555
 20
3.431826891582795
 42
0.04895257037271209
 10
62.453125
 20
4.851562499999998
 42
0.04874496933129235
 10
62.87632221929124
 20
6.650967113793031
 42
0.03340658709195488
 10
63.0
 20
8.499999999999998
  0
LWPOLYLINE
  5
39
330
17
100
AcDbEntity
  8
ID_CUT_SINGLELINE
100
AcDbPolyline
 90
10
 70
0
 10
79.0
 20
19.999999999999996
 10
69.0
 20
19.999999999999996
 42
0.06414042354739848
 10
68.18968130094619
 20
19.89562222132041
 42
0.2709463975677949
 10
67.10437777867959
 20
18.81031869905381
 42
0.0641404235473973
 10
67.0
 20
17.999999999999996
 10
67.0
 20
1.9999999999999996
 42
0.06414042354739775
 10
67.10437777867959
 20
1.1896813009461882
 42
0.2709463975677952
 10
68.18968130094619
 20
0.10437777867958678
 42
0.06414042354739787
 10
69.0
 20
0.0
 10
79.0
 20
0.0
  0
LWPOLYLINE
  5
3A
330
17
100
AcDbEntity
  8
ID_CUT_SINGLELINE
100
AcDbPolyline
 90
2
 70
0
 10
67.0
 20
9.999999999999998
 10
76.0
 20
9.999999999999998
  0
LWPOLYLINE
  5
3B
330
17
100
AcDbEntity
  8
ID_CUT_SINGLELINE
100
AcDbPolyline
 90
6
 70
0
 10
83.0
 20
0.0
 10
83.0
 20
17.999999999999996
 42
-0.0641404235473973
 10
83.10437777867959
 20
18.81031869905381
 42
-0.2709463975677949
 10
84.18968130094619
 20
19.89562222132041
 42
-0.06414042354739848
 10
85.0
 20
19.999999999999996
 10
95.0
 20
19.999999999999996
  0
LWPOLYLINE
  5
3C
330
17
100
AcDbEntity
  8
ID_CUT_SINGLELINE
100
AcDbPolyline
 90
2
 70
0
 10
83.0
 20
10.999999999999998
 10
92.0
 20
10.999999999999998
  0
LWPOLYLINE
  5
3D
330
17
100
AcDbEntity
  8
ID_CUT_SINGLELINE
100
AcDbPolyline
 90
29
 70
0
 10
111.0
 20
18.0
 42
0.028068867453618758
 10
109.65395278077345
 20
18.89615112081236
 42
0.10513711778054902
 10
106.61452844786865
 20
19.90929256511396
 42
0.02806886745361862
 10
105.0
 20
20.0
 42
0.04624195967075391
 10
103.65669935618632
 20
19.87550007106324
 42
0.06130816796163029
 10
102.375
 20
19.46875
 42
0.05913798717742678
 10
101.35167577792336
 20
18.844296638733763
 42
0.05756755326188651
 10
100.5
 20
18.0
 42
0.054399067375964956
 10
99.83058184879116
 20
16.94647789764795
 42
0.04235116507719652
 10
99.375
 20
15.78125
 42
0.041006255132033306
 10
99.08731762515542
 20
14.405154646189397
 42
0.031040531228061077
 10
99.0
 20
13.0
 10
99.0
 20
7.0
 42
0.031040531228060966
 10
99.08731762515542
 20
5.594845353810604
 42
0.041006255132033306
 10
99.375
 20
4.21875
 42
0.04235116507719641
 10
99.83058184879116
 20
3.0535221023520505
 42
0.054399067375964845
 10
100.5
 20
2.0
 42
0.0575675532618864
 10
101.35167577792336
 20
1.1557033612662369
 42
0.05913798717742667
 10
102.375
 20
0.53125
 42
0.06130816796163079
 10
103.65669935618632
 20
0.12449992893676187
 42
0.04624195967075441
 10
105.0
 20
0.0
 42
0.06414042354739775
 10
107.43095609716144
 20
0.31313333603876015
 42
0.27094639756779515
 10
110.68686666396124
 20
3.569043902838565
 42
0.06414042354739773
 10
111.0
 20
6.0
 10
111.0
 20
8.0
 42
0.06462354395989565
 10
110.89491499318598
 20
8.80965963904532
 42
0.26991377342768486
 10
109.80965963904532
 20
9.894914993185976
 42
0.06462354395989565
 10
109.0
 20
10.0
 10
106.0
 20
10.0
  0
LWPOLYLINE
  5
3E
330
17
100
AcDbEntity
  8
ID_CUT_SINGLELINE
100
AcDbPolyline
 90
2
 70
0
 10
115.0
 20
0.0
 10
115.0
 20
20.0
  0
LWPOLYLINE
  5
3F
330
17
100
AcDbEntity
  8
ID_CUT_SINGLELINE
100
AcDbPolyline
 90
2
 70
0
 10
127.0
 20
0.0
 10
127.0
 20
20.0
  0
LWPOLYLINE
  5
40
330
17
100
AcDbEntity
  8
ID_CUT_SINGLELINE
100
AcDbPolyline
 90
2
 70
0
 10
115.0
 20
10.0
 10
127.0
 20
10.0
  0
LWPOLYLINE
  5
41
330
17
100
AcDbEntity
  8
ID_CUT_SINGLELINE
100
AcDbPolyline
 90
2
 70
0
 10
131.0
 20
19.999999999999996
 10
139.0
 20
19.999999999999996
  0
LWPOLYLINE
  5
42
330
17
100
AcDbEntity
  8
ID_CUT_SINGLELINE
100
AcDbPolyline
 90
2
 70
0
 10
135.0
 20
19.999999999999996
 10
135.0
 20
0.0
  0
LWPOLYLINE
  5
43
330
17
100
AcDbEntity
  8
ID_CUT_SINGLELINE
100
AcDbPolyline
 90
2
 70
0
 10
131.0
 20
0.0
 10
139.0
 20
0.0
  0
LWPOLYLINE
  5
44
330
17
100
AcDbEntity
  8
ID_CUT_SINGLELINE
100
AcDbPolyline
 90
14
 70
0
 10
154.0
 20
20.0
 10
154.0
 20
6.0
 42
-0.030508063712927507
 10
153.9188565364182
 20
4.671368646680074
 42
-0.04762396224118283
 10
153.6328125
 20
3.375
 42
-0.04819706629041039
 10
153.20055778808563
 20
2.376827655953744
 42
-0.06212113590743995
 10
152.5625
 20
1.5
 42
-0.06195840444501427
 10
151.76569502270755
 20
0.8371451383809222
 42
-0.05447133079678959
 10
150.8359375
 20
0.375
 42
-0.05256542248904477
 10
149.6862926649768
 20
0.08460066065345888
 42
-0.035612361595440546
 10
148.5
 20
0.0
 42
-0.0702844927307322
 10
146.31919480793545
 20
0.3080754382506443
 42
-0.1181077925319903
 10
144.4375
 20
1.375
 42
-0.11856467970811091
 10
143.34681581184097
 20
3.025875142375641
 42
-0.08717288532595041
 10
143.0
 20
5.0
  0
LWPOLYLINE
  5
45
330
17
100
AcDbEntity
  8
ID_CUT_SINGLELINE
100
AcDbPolyline
 90
2
 70
0
 10
158.0
 20
0.0
 10
158.0
 20
20.0
  0
LWPOLYLINE
  5
46
330
17
100
AcDbEntity
  8
ID_CUT_SINGLELINE
100
AcDbPolyline
 90
20
 70
0
 10
170.0
 20
20.0
 42
-0.02183238610686581
 10
167.8542933751222
 20
18.365163295321175
 42
-0.014719363055184854
 10
165.59375
 20
16.890625
 42
-0.007968944347409487
 10
163.671875
 20
15.7578125
 42
0.007968944347409487
 10
161.75
 20
14.625
 42
0.015535585468194234
 10
160.3101542832201
 20
13.682444281598361
 42
0.0577721957217656
 10
159.03125
 20
12.546875
 42
0.035285598044555534
 10
158.60103592833283
 20
11.99110078668999
 42
0.047974815041939574
 10
158.26953125
 20
11.373046875
 42
0.05177177349505892
 10
158.06655915897997
 20
10.700223267324212
 42
0.09505419497742097
 10
158.06655915897997
 20
9.299776732675788
 42
0.05177177349505892
 10
158.26953125
 20
8.626953125
 42
0.047974815041939574
 10
158.60103592833283
 20
8.00889921331001
 42
0.035285598044555534
 10
159.03125
 20
7.453125
 42
0.057772195721765486
 10
160.3101542832201
 20
6.317555718401638
 42
0.015535585468194123
 10
161.75
 20
5.375
 42
0.007968944347409487
 10
163.671875
 20
4.2421875
 42
-0.007968944347409487
 10
165.59375
 20
3.109375
 42
-0.014719363055184854
 10
167.8542933751222
 20
1.6348367046788255
 42
-0.02183238610686581
 10
170.0
 20
0.0
  0
LWPOLYLINE
  5
47
330
17
100
AcDbEntity
  8
ID_CUT_SINGLELINE
100
AcDbPolyline
 90
6
 70
0
 10
174.0
 20
20.0
 10
174.0
 20
2.0
 42
0.06414042354739775
 10
174.10437777867958
 20
1.1896813009461882
 42
0.270946397567795
 10
175.18968130094618
 20
0.10437777867958675
 42
0.06414042354739781
 10
176.0
 20
0.0
 10
186.0
 20
0.0
  0
LWPOLYLINE
  5
48
330
17
100
AcDbEntity
  8
ID_CUT_SINGLELINE
100
AcDbPolyline
 90
22
 70
0
 10
190.0
 20
0.0
 10
190.0
 20
19.3220639939607
 42
-0.014191076041177333
 10
190.00681851252125
 20
19.562255059956815
 42
-0.05013729283313018
 10
190.04420402705816
 20
19.798494298602566
 42
-0.04810341200965659
 10
190.08818093348356
 20
19.917755687849166
 42
-0.43227090303804216
 10
190.29341704214482
 20
19.982450671865998
 42
-0.048103412009659736
 10
190.39783624352353
 20
19.909967034766282
 42
-0.050137292833122335
 10
190.56393795802163
 20
19.737871494400142
 42
-0.014191076041175556
 10
190.70726443293074
 20
19.545009466288132
 10
196.48712109673548
 20
11.288071375138514
 42
0.05393751728383001
 10
196.79120542879522
 20
10.940312515058237
 42
0.3904707108422253
 10
197.59756563053722
 20
10.940312515058237
 42
0.05393751728383076
 10
197.90164996259696
 20
11.288071375138514
 10
203.6815066264017
 20
19.545009466288132
 42
-0.014191076041176889
 10
203.82483310131082
 20
19.737871494400142
 42
-0.0501372928331235
 10
203.99093481580888
 20
19.909967034766282
 42
-0.04810341200965849
 10
204.09535401718762
 20
19.982450671865998
 42
-0.43227090303804244
 10
204.30059012584888
 20
19.917755687849166
 42
-0.048103412009657495
 10
204.34456703227426
 20
19.798494298602566
 42
-0.0501372928331305
 10
204.3819525468112
 20
19.562255059956815
 42
-0.014191076041177805
 10
204.38877105933244
 20
19.3220639939607
 10
204.38877105933244
 20
0.0
  0
LWPOLYLINE
  5
49
330
17
100
AcDbEntity
  8
ID_CUT_SINGLELINE
100
AcDbPolyline
 90
18
 70
0
 10
0.0
 20
-35.0
 10
0.0
 20
-16.4
 42
-0.01330553146706998
 10
0.007229648243664337
 20
-16.128369800743926
 42
-0.04847823904194228
 10
0.04768648067709874
 20
-15.860863816426303
 42
-0.04412749844208135
 10
0.09398431990163231
 20
-15.727946549854956
 42
-0.45815688784202374
 10
0.31792183647319555
 20
-15.661562497218984
 42
-0.04412749844207818
 10
0.42917832609388873
 20
-15.747774347836753
 42
-0.04847823904193958
 10
0.6088867441511099
 20
-15.95001453033187
 42
-0.013305531467071507
 10
0.7629836908335798
 20
-16.173821062820892
 10
12.237016309166421
 20
-33.82617893717911
 42
0.013305531467071202
 10
12.391113255848891
 20
-34.04998546966813
 42
0.04847823904194195
 10
12.570821673906114
 20
-34.25222565216325
 42
0.044127498442080464
 10
12.682078163526807
 20
-34.33843750278101
 42
0.45815688784201675
 10
12.906015680098369
 20
-34.272053450145044
 42
0.04412749844208057
 10
12.952313519322903
 20
-34.1391361835737
 42
0.04847823904194044
 10
12.992770351756336
 20
-33.87163019925607
 42
0.013305531467069184
 10
13.0
 20
-33.6
 10
13.0
 20
-15.0
  0
LWPOLYLINE
  5
4A
330
17
100
AcDbEntity
  8
ID_CUT_SINGLELINE
100
AcDbPolyline
 90
12
 70
0
 10
28.864231959971114
 20
-23.5
 42
0.0268497110385339
 10
28.614597492492713
 20
-21.784060139116498
 42
0.03162545870687547
 10
28.166752764225215
 20
-20.109890125442007
 42
0.030497226355529705
 10
27.600702467091498
 20
-18.71535725366568
 42
0.040709699081207515
 10
26.843637423107147
 20
-17.417124555948448
 42
0.08607648334181305
 10
25.149081933815427
 20
-15.707741415517045
 42
0.31923873900472066
 10
20.715150026155687
 20
-15.707741415517045
 42
0.08607648334181293
 10
19.020594536863968
 20
-17.417124555948448
 42
0.04070969908120749
 10
18.263529492879616
 20
-18.71535725366568
 42
0.030497226355529344
 10
17.6974791957459
 20
-20.109890125442007
 42
0.03162545870687513
 10
17.2496344674784
 20
-21.784060139116498
 42
0.026849711038533883
 10
17.0
 20
-23.5
  0
LWPOLYLINE
  5
4B
330
17
100
AcDbEntity
  8
ID_CUT_SINGLELINE
100
AcDbPolyline
 90
12
 70
0
 10
17.0
 20
-26.5
 42
0.026849711038533883
 10
17.2496344674784
 20
-28.215939860883502
 42
0.03162545870687524
 10
17.6974791957459
 20
-29.890109874557993
 42
0.0304972263555289
 10
18.263529492879613
 20
-31.28464274633432
 42
0.04070969908120682
 10
19.020594536863968
 20
-32.58287544405155
 42
0.08607648334181317
 10
20.715150026155687
 20
-34.29225858448295
 42
0.3192387390047211
 10
25.149081933815424
 20
-34.29225858448296
 42
0.08607648334181274
 10
26.843637423107147
 20
-32.58287544405155
 42
0.040709699081206474
 10
27.6007024670915
 20
-31.284642746334324
 42
0.030497226355528248
 10
28.166752764225215
 20
-29.890109874558
 42
0.03162545870687546
 10
28.614597492492713
 20
-28.21593986088351
 42
0.0268497110385339
 10
28.864231959971114
 20
-26.500000000000007
  0
LWPOLYLINE
  5
4C
330
17
100
AcDbEntity
  8
ID_CUT_SINGLELINE
100
AcDbPolyline
 90
8
 70
0
 10
32.864231959971114
 20
-35.0
 10
32.864231959971114
 20
-16.500000000000004
 42
-0.06414042354739753
 10
32.942515293980804
 20
-15.892260975709643
 42
-0.2709463975677943
 10
33.756492935680754
 20
-15.078283334009694
 42
-0.06414042354739781
 10
34.364231959971114
 20
-15.000000000000004
 10
38.864231959971114
 20
-15.000000000000004
 42
-0.04484884584842958
 10
40.7598873274713
 20
-15.170378613493465
 42
-0.0808290878192633
 10
42.537707363180374
 20
-15.800425008978767
  0
LWPOLYLINE
  5
4D
330
17
100
AcDbEntity
  8
ID_CUT_SINGLELINE
100
AcDbPolyline
 90
12
 70
0
 10
44.52636149781233
 20
-18.046589458170146
 42
-0.05199180226342398
 10
44.78497554334785
 20
-19.006650656291107
 42
-0.03983023744639161
 10
44.86423195997111
 20
-20.000000000000004
 42
-0.042022023315836675
 10
44.776411395415224
 20
-21.043089785493205
 42
-0.05538840337469763
 10
44.48923195997111
 20
-22.046875000000004
 42
-0.057237813896569144
 10
44.018319116479674
 20
-22.901411137622233
 42
-0.05855375241675868
 10
43.36423195997111
 20
-23.625000000000004
 42
-0.0592017344265931
 10
42.48114091816935
 20
-24.229887286138563
 42
-0.044883671274168334
 10
41.48923195997111
 20
-24.640625000000004
 42
-0.04553978510758998
 10
40.1918960859946
 20
-24.91967711781695
 42
-0.03022207040729149
 10
38.864231959971114
 20
-25.0
 10
35.864231959971114
 20
-25.0
  0
LWPOLYLINE
  5
4E
330
17
100
AcDbEntity
  8
ID_CUT_SINGLELINE
100
AcDbPolyline
 90
12
 70
0
 10
60.72846391994222
 20
-23.5
 42
0.0268497110385339
 10
60.47882945246382
 20
-21.784060139116498
 42
0.03162545870687547
 10
60.03098472419632
 20
-20.109890125442007
 42
0.030497226355529705
 10
59.4649344270626
 20
-18.71535725366568
 42
0.040709699081207515
 10
58.707869383078254
 20
-17.417124555948448
 42
0.08607648334181305
 10
57.01331389378653
 20
-15.707741415517045
 42
0.31923873900472066
 10
52.5793819861268
 20
-15.707741415517045
 42
0.08607648334181293
 10
50.884826496835075
 20
-17.417124555948448
 42
0.04070969908120749
 10
50.12776145285072
 20
-18.71535725366568
 42
0.030497226355529344
 10
49.561711155717006
 20
-20.109890125442007
 42
0.03162545870687513
 10
49.11386642744951
 20
-21.784060139116498
 42
0.026849711038533883
 10
48.86423195997111
 20
-23.5
  0
LWPOLYLINE
  5
4F
330
17
100
AcDbEntity
  8
ID_CUT_SINGLELINE
100
AcDbPolyline
 90
12
 70
0
 10
48.86423195997111
 20
-26.5
 42
0.026849711038533883
 10
49.11386642744951
 20
-28.215939860883502
 42
0.03162545870687524
 10
49.561711155717006
 20
-29.890109874557993
 42
0.0304972263555289
 10
50.12776145285072
 20
-31.28464274633432
 42
0.04070969908120682
 10
50.884826496835075
 20
-32.58287544405155
 42
0.08607648334181317
 10
52.57938198612679
 20
-34.29225858448295
 42
0.3192387390047211
 10
57.01331389378653
 20
-34.29225858448296
 42
0.08607648334181274
 10
58.707869383078254
 20
-32.58287544405155
 42
0.040709699081206474
 10
59.46493442706261
 20
-31.284642746334324
 42
0.030497226355528248
 10
60.03098472419632
 20
-29.890109874558
 42
0.03162545870687546
 10
60.47882945246382
 20
-28.21593986088351
 42
0.0268497110385339
 10
60.72846391994222
 20
-26.500000000000007
  0
LWPOLYLINE
  5
50
330
17
100
AcDbEntity
  8
ID_CUT_SINGLELINE
100
AcDbPolyline
 90
2
 70
0
 10
59.01520393082887
 20
-32.11062635857214
 10
62.79634793995666
 20
-35.0
  0
LWPOLYLINE
  5
51
330
17
100
AcDbEntity
  8
ID_CUT_SINGLELINE
100
AcDbPolyline
 90
8
 70
0
 10
66.79634793995666
 20
-35.0
 10
66.79634793995666
 20
-16.500000000000004
 42
-0.06414042354739753
 10
66.87463127396634
 20
-15.892260975709643
 42
-0.2709463975677943
 10
67.68860891566631
 20
-15.078283334009694
 42
-0.06414042354739781
 10
68.29634793995666
 20
-15.000000000000004
 10
72.79634793995666
 20
-15.000000000000004
 42
-0.04484884584842958
 10
74.69200330745684
 20
-15.170378613493465
 42
-0.0808290878192633
 10
76.46982334316593
 20
-15.800425008978767
  0
LWPOLYLINE
  5
52
330
17
100
AcDbEntity
  8
ID_CUT_SINGLELINE
100
AcDbPolyline
 90
12
 70
0
 10
78.45847747779789
 20
-18.046589458170146
 42
-0.05199180226342398
 10
78.7170915233334
 20
-19.006650656291107
 42
-0.03983023744639161
 10
78.79634793995666
 20
-20.000000000000004
 42
-0.042022023315836675
 10
78.70852737540076
 20
-21.043089785493205
 42
-0.05538840337469763
 10
78.42134793995666
 20
-22.046875000000004
 42
-0.057237813896569144
 10
77.95043509646521
 20
-22.901411137622233
 42
-0.05855375241675868
 10
77.29634793995666
 20
-23.625000000000004
 42
-0.0592017344265931
 10
76.4132568981549
 20
-24.229887286138563
 42
-0.044883671274168334
 10
75.42134793995666
 20
-24.640625000000004
 42
-0.04553978510758998
 10
74.12401206598014
 20
-24.91967711781695
 42
-0.03022207040729149
 10
72.79634793995666
 20
-25.0
 10
69.79634793995666
 20
-25.0
  0
LWPOLYLINE
  5
53
330
17
100
AcDbEntity
  8
ID_CUT_SINGLELINE
100
AcDbPolyline
 90
2
 70
0
 10
66.79634793995666
 20
-25.0
 10
78.79634793995666
 20
-35.0
  0
LWPOLYLINE
  5
54
330
17
100
AcDbEntity
  8
ID_CUT_SINGLELINE
100
AcDbPolyline
 90
37
 70
0
 10
94.79634793995666
 20
-17.0
 42
0.06396421538447936
 10
93.5796989425245
 20
-16.060337782081916
 42
0.05681213422530896
 10
92.17134793995666
 20
-15.4375
 42
0.04910136072783048
 10
90.50332871935504
 20
-15.091100032128558
 42
0.0266655771042976
 10
88.79634793995666
 20
-15.0
 42
0.03059424752298147
 10
87.55550940145436
 20
-15.075996175793094
 42
0.04112480424360917
 10
86.34009793995666
 20
-15.328125
 42
0.04112824026706247
 10
85.34705891318448
 20
-15.712095530768774
 42
0.053752564666960774
 10
84.44634793995667
 20
-16.275
 42
0.05531490737467678
 10
83.74939396410986
 20
-16.959641236218122
 42
0.059914915655812286
 10
83.22759793995667
 20
-17.784375
 42
0.06127560141301073
 10
82.8998123510807
 20
-18.766845861410452
 42
0.049947191966826614
 10
82.79634793995666
 20
-19.8
 42
0.07339360220597947
 10
82.94574131385592
 20
-20.812272486778408
 42
0.07403706711261954
 10
83.38228543995666
 20
-21.7375
 42
0.06075373931386478
 10
84.04986536122334
 20
-22.514155901318503
 42
0.0366605625982118
 10
84.85884793995666
 20
-23.15
 42
0.05024017521705201
 10
86.77348187701675
 20
-24.177274490171886
 42
0.002886739793014561
 10
88.79634793995666
 20
-25.0
 42
-0.0028867397930146164
 10
90.81921400289657
 20
-25.822725509828114
 42
-0.05024017521705221
 10
92.73384793995666
 20
-26.85
 42
-0.03666056259821202
 10
93.54283051868998
 20
-27.485844098681497
 42
-0.06075373931386428
 10
94.21041043995666
 20
-28.2625
 42
-0.07403706711261983
 10
94.6469545660574
 20
-29.187727513221592
 42
-0.07339360220597928
 10
94.79634793995666
 20
-30.2
 42
-0.04994719196682685
 10
94.69288352883262
 20
-31.233154138589548
 42
-0.06127560141301053
 10
94.36509793995666
 20
-32.215625
 42
-0.05991491565581188
 10
93.84330191580347
 20
-33.04035876378188
 42
-0.05531490737467639
 10
93.14634793995666
 20
-33.725
 42
-0.053752564666960385
 10
92.24563696672884
 20
-34.28790446923122
 42
-0.04112824026706276
 10
91.25259793995666
 20
-34.671875
 42
-0.04112480424360872
 10
90.03718647845896
 20
-34.924003824206906
 42
-0.03059424752298047
 10
88.79634793995666
 20
-35.0
 42
-0.026665577104297376
 10
87.08936716055828
 20
-34.90889996787144
 42
-0.0491013607278302
 10
85.42134793995666
 20
-34.5625
 42
-0.05681213422530907
 10
84.01299693738882
 20
-33.939662217918084
 42
-0.06396421538447938
 10
82.79634793995666
 20
-33.0
  0
LWPOLYLINE
  5
55
330
17
100
AcDbEntity
  8
ID_CUT_SINGLELINE
100
AcDbPolyline
 90
2
 70
0
 10
98.79634793995666
 20
-15.000000000000004
 10
112.79634793995666
 20
-15.000000000000004
  0
LWPOLYLINE
  5
56
330
17
100
AcDbEntity
  8
ID_CUT_SINGLELINE
100
AcDbPolyline
 90
2
 70
0
 10
105.79634793995666
 20
-15.000000000000004
 10
105.79634793995666
 20
-35.0
  0
LWPOLYLINE
  5
57
330
17
100
AcDbEntity
  8
ID_CUT_SINGLELINE
100
AcDbPolyline
 90
8
 70
0
 10
116.79634793995666
 20
-15.0
 10
116.79634793995666
 20
-29.0
 42
0.06414042354739775
 10
117.10948127599542
 20
-31.430956097161435
 42
0.27094639756779515
 10
120.36539184279522
 20
-34.68686666396124
 42
0.12881077383684464
 10
125.2273040371181
 20
-34.68686666396124
 42
0.27094639756779515
 10
128.4832146039179
 20
-31.430956097161435
 42
0.06414042354739773
 10
128.79634793995666
 20
-29.0
 10
128.79634793995666
 20
-15.0
  0
LWPOLYLINE
  5
58
330
17
100
AcDbEntity
  8
ID_CUT_SINGLELINE
100
AcDbPolyline
 90
10
 70
0
 10
132.79634793995666
 20
-15.0
 10
138.49454638109017
 20
-33.99399480377834
 42
0.013473837758539782
 10
138.62226984037204
 20
-34.38148439358
 42
0.048806351892859604
 10
138.79634793995666
 20
-34.74849870094459
 42
0.044930195748269335
 10
138.9213908457255
 20
-34.91991927815897
 42
0.45305121100228785
 10
139.2749081519208
 20
-34.91991927815897
 42
0.04493019574826928
 10
139.39995105768966
 20
-34.74849870094459
 42
0.04880635189285973
 10
139.57402915727428
 20
-34.38148439358
 42
0.013473837758538824
 10
139.70175261655615
 20
-33.99399480377834
 10
145.39995105768966
 20
-15.0
  0
LWPOLYLINE
  5
59
330
17
100
AcDbEntity
  8
ID_CUT_SINGLELINE
100
AcDbPolyline
 90
26
 70
0
 10
149.39995105768966
 20
-15.0
 10
152.2704582364318
 20
-34.13671452494767
 42
0.014237847808654426
 10
152.32761674656234
 20
-34.45559533990838
 42
0.05022036114386705
 10
152.42481756673484
 20
-34.76306059076341
 42
0.0482969812974718
 10
152.50753230958506
 20
-34.91337055287114
 42
0.43096789604656177
 10
152.79467582426304
 20
-34.95893768985843
 42
0.04829698129747141
 10
152.919860777265
 20
-34.841619571328074
 42
0.05022036114386694
 10
153.10747321202786
 20
-34.57935166584228
 42
0.01423784780865419
 10
153.2605446574921
 20
-34.293832486077
 10
156.96878886336802
 20
-26.87734407432513
 42
-0.02208020907306599
 10
157.13273068543745
 20
-26.582736389884502
 42
-0.058427366538409416
 10
157.34052683524914
 20
-26.31973711650347
 42
-0.06414042354739496
 10
157.51054054200884
 20
-26.188524593499572
 42
-0.2709463975677882
 10
157.91398907225164
 20
-26.188524593499572
 42
-0.06414042354739441
 10
158.08400277901134
 20
-26.31973711650347
 42
-0.058427366538407605
 10
158.29179892882303
 20
-26.582736389884502
 42
-0.022080209073065113
 10
158.45574075089243
 20
-26.87734407432513
 10
162.1639849567684
 20
-34.293832486077
 42
0.014237847808654093
 10
162.3170564022326
 20
-34.57935166584228
 42
0.05022036114386638
 10
162.50466883699548
 20
-34.841619571328074
 42
0.04829698129747169
 10
162.6298537899974
 20
-34.95893768985843
 42
0.43096789604656505
 10
162.9169973046754
 20
-34.91337055287114
 42
0.048296981297476324
 10
162.9997120475256
 20
-34.76306059076341
 42
0.050220361143865716
 10
163.0969128676981
 20
-34.45559533990838
 42
0.014237847808652504
 10
163.15407137782864
 20
-34.13671452494767
 10
166.02457855657082
 20
-15.0
  0
LWPOLYLINE
  5
5A
330
17
100
AcDbEntity
  8
ID_CUT_SINGLELINE
100
AcDbPolyline
 90
2
 70
0
 10
170.02457855657082
 20
-15.0
 10
182.02457855657082
 20
-35.0
  0
LWPOLYLINE
  5
5B
330
17
100
AcDbEntity
  8
ID_CUT_SINGLELINE
100
AcDbPolyline
 90
2
 70
0
 10
170.02457855657082
 20
-35.0
 10
175.25283492342953
 20
-26.286239388568816
  0
LWPOLYLINE
  5
5C
330
17
100
AcDbEntity
  8
ID_CUT_SINGLELINE
100
AcDbPolyline
 90
2
 70
0
 10
176.7963221897121
 20
-23.713760611431184
 10
182.02457855657082
 20
-15.0
  0
LWPOLYLINE
  5
5D
330
17
100
AcDbEntity
  8
ID_CUT_SINGLELINE
100
AcDbPolyline
 90
6
 70
0
 10
186.02457855657082
 20
-15.0
 10
191.2479982818555
 20
-22.83512958792702
 42
0.051370641873925295
 10
191.57826742448873
 20
-23.23476041127232
 42
0.4095895655534935
 10
192.4708896886529
 20
-23.23476041127232
 42
0.05137064187392521
 10
192.80115883128613
 20
-22.83512958792702
 10
198.02457855657082
 20
-15.0
  0
LWPOLYLINE
  5
5E
330
17
100
AcDbEntity
  8
ID_CUT_SINGLELINE
100
AcDbPolyline
 90
2
 70
0
 10
192.02457855657082
 20
-23.417564793963507
 10
192.02457855657082
 20
-35.0
  0
LWPOLYLINE
  5
5F
330
17
100
AcDbEntity
  8
ID_CUT_SINGLELINE
100
AcDbPolyline
 90
18
 70
0
 10
202.02457855657082
 20
-15.000000000000004
 10
212.6245785565708
 20
-15.000000000000004
 42
-0.024324848365413806
 10
212.91226105714762
 20
-15.014003952522003
 42
-0.058800419529488585
 10
213.19206017797092
 20
-15.075030630999851
 42
-0.06433684342056059
 10
213.3653566743174
 20
-15.161043025385368
 42
-0.2375231105811109
 10
213.5473184412632
 20
-15.482422147505222
 42
-0.06433684342055822
 10
213.53191314917163
 20
-15.675275678998634
 42
-0.05880041952948777
 10
213.4402876342102
 20
-15.946599412769888
 42
-0.02432484836541518
 10
213.30428449897227
 20
-16.200490095997566
 10
202.74487261416937
 20
-33.79950990400244
 42
0.02432484836541586
 10
202.60886947893144
 20
-34.053400587230115
 42
0.058800419529486024
 10
202.51724396397
 20
-34.32472432100137
 42
0.06433684342056065
 10
202.50183867187843
 20
-34.51757785249478
 42
0.23752311058110978
 10
202.68380043882422
 20
-34.83895697461464
 42
0.06433684342056081
 10
202.85709693517072
 20
-34.92496936900015
 42
0.05880041952948641
 10
203.13689605599401
 20
-34.985996047478
 42
0.02432484836541597
 10
203.42457855657082
 20
-35.0
 10
214.02457855657082
 20
-35.0
  0
LWPOLYLINE
  5
60
330
17
100
AcDbEntity
  8
ID_CUT_SINGLELINE
100
AcDbPolyline
 90
16
 70
0
 10
9.886859966642593
 20
-58.5
 42
0.022340412224689413
 10
9.680019153186386
 20
-56.790170802972156
 42
0.027093516698145997
 10
9.30562730352101
 20
-55.10989012544201
 42
0.025975286343047105
 10
8.839322277226591
 20
-53.72756420340636
 42
0.03738737434303053
 10
8.20303118592262
 20
-52.41712455594845
 42
0.03708228578138053
 10
7.541491544289546
 20
-51.45201119710357
 42
0.062490676402211454
 10
6.706491962853893
 20
-50.64079670848067
 42
0.06843023127817405
 10
5.873499444715183
 20
-50.17541887020694
 42
0.1886083539868552
 10
4.013360521927412
 20
-50.17541887020694
 42
0.06843023127817582
 10
3.1803680037887014
 20
-50.64079670848067
 42
0.06249067640221123
 10
2.345368422353048
 20
-51.45201119710357
 42
0.03708228578138039
 10
1.6838287807199734
 20
-52.41712455594845
 42
0.037387374343031306
 10
1.0475376894160033
 20
-53.72756420340636
 42
0.02597528634304755
 10
0.5812326631215836
 20
-55.10989012544201
 42
0.027093516698146455
 10
0.20684081345620833
 20
-56.790170802972156
 42
0.0223404122246895
 10
8.881784197001252e-16
 20
-58.5
  0
LWPOLYLINE
  5
61
330
17
100
AcDbEntity
  8
ID_CUT_SINGLELINE
100
AcDbPolyline
 90
16
 70
0
 10
0.0
 20
-61.5
 42
0.0223404122246895
 10
0.20684081345620728
 20
-63.209829197027844
 42
0.027093516698146566
 10
0.5812326631215825
 20
-64.890109874558
 42
0.025975286343046883
 10
1.047537689416001
 20
-66.27243579659364
 42
0.03738737434303053
 10
1.6838287807199723
 20
-67.58287544405155
 42
0.037082285781380835
 10
2.3453684223530478
 20
-68.54798880289643
 42
0.06249067640221123
 10
3.1803680037887
 20
-69.35920329151934
 42
0.06843023127817471
 10
4.013360521927411
 20
-69.82458112979306
 42
0.1886083539868538
 10
5.873499444715182
 20
-69.82458112979306
 42
0.06843023127817482
 10
6.706491962853892
 20
-69.35920329151934
 42
0.062490676402211176
 10
7.541491544289546
 20
-68.54798880289643
 42
0.0370822857813805
 10
8.20303118592262
 20
-67.58287544405155
 42
0.03738737434303047
 10
8.839322277226591
 20
-66.27243579659365
 42
0.025975286343046897
 10
9.30562730352101
 20
-64.890109874558
 42
0.027093516698145984
 10
9.680019153186386
 20
-63.209829197027844
 42
0.022340412224689413
 10
9.886859966642593
 20
-61.50000000000001
  0
LWPOLYLINE
  5
62
330
17
100
AcDbEntity
  8
ID_CUT_SINGLELINE
100
AcDbPolyline
 90
2
 70
0
 10
2.9434299833212973
 20
-65.0
 10
6.943429983321297
 20
-55.0
  0
LWPOLYLINE
  5
63
330
17
100
AcDbEntity
  8
ID_CUT_SINGLELINE
100
AcDbPolyline
 90
10
 70
0
 10
14.908008703347136
 20
-53.6616202127273
 10
18.27054245384145
 20
-50.29908646223298
 42
-0.01866355246877764
 10
18.419496033459897
 20
-50.16085635357059
 42
-0.05618179601604381
 10
18.58644422723314
 20
-50.04700648488533
 42
-0.060637822540961346
 10
18.69806866186351
 20
-50.00433517064616
 42
-0.32956244656061684
 10
18.89871760638248
 20
-50.087446684741764
 42
-0.060637822540958376
 10
18.94747482539507
 20
-50.19655025507567
 42
-0.05618179601604157
 10
18.985021011134428
 20
-50.39510446918412
 42
-0.018663552468782433
 10
18.99260365016531
 20
-50.59817400261367
 10
18.99260365016531
 20
-70.0
  0
LWPOLYLINE
  5
64
330
17
100
AcDbEntity
  8
ID_CUT_SINGLELINE
100
AcDbPolyline
 90
2
 70
0
 10
13.886859966642593
 20
-70.0
 10
24.098347333688032
 20
-70.0
  0
LWPOLYLINE
  5
65
330
17
100
AcDbEntity
  8
ID_CUT_SINGLELINE
100
AcDbPolyline
 90
36
 70
0
 10
28.098347333688032
 20
-54.0
 42
-0.06333864644059446
 10
28.209037545298077
 20
-53.12970869626305
 42
-0.06961551058177022
 10
28.543659833688032
 20
-52.3203125
 42
-0.06586768724149118
 10
29.090121563643734
 20
-51.61993599138048
 42
-0.0506358805186205
 10
29.785847333688032
 20
-51.0625
 42
-0.04870188759723188
 10
30.701117174333426
 20
-50.58951075090403
 42
-0.034314473141521924
 10
31.684284833688032
 20
-50.2734375
 42
-0.03452191119322491
 10
32.882401236398735
 20
-50.063538753552635
 42
-0.026109479282846838
 10
34.09834733368803
 20
-50.0
 42
-0.026448366367393283
 10
35.31505492615166
 20
-50.06440490860436
 42
-0.03671284794835809
 10
36.51240983368803
 20
-50.28125
 42
-0.03765209135863839
 10
37.50125002784082
 20
-50.617548770372466
 42
-0.05294223599625854
 10
38.41084733368803
 20
-51.125
 42
-0.05623964588921412
 10
39.11758914462724
 20
-51.75369781503666
 42
-0.0642669187854637
 10
39.65303483368803
 20
-52.53125
 42
-0.06678226710713943
 10
39.99266654645759
 20
-53.48732768008354
 42
-0.0520378645665929
 10
40.09834733368803
 20
-54.5
 42
-0.06113945547277566
 10
39.99127691949367
 20
-55.37235141878732
 42
-0.0414610803070932
 10
39.70772233368803
 20
-56.2080078125
 42
-0.03682717034405595
 10
39.23574532988777
 20
-57.10662460422435
 42
-0.021835659053840606
 10
38.66084733368803
 20
-57.9453125
 42
-0.03473040257530103
 10
37.0849502273782
 20
-59.763962972626025
 42
-0.01022526680839955
 10
35.34834733368803
 20
-61.4375
 42
-0.004466490236216902
 10
33.492316051338626
 20
-63.12381440856517
 42
0.011570830893491849
 10
31.660847333688032
 20
-64.8359375
 42
0.008885757572529782
 10
30.88174675112018
 20
-65.62641002772091
 42
0.017187318693132926
 10
30.145222333688032
 20
-66.4560546875
 42
0.01943108791788571
 10
29.57719265957192
 20
-67.19896191107036
 42
0.03758701286786683
 10
29.098347333688032
 20
-68.0
 42
0.02389586155536618
 10
28.92189582995643
 20
-68.39955324260228
 42
0.047657577175879436
 10
28.804597333688033
 20
-68.81875
 42
0.05109791283025667
 10
28.780327353291064
 20
-69.13964197124965
 42
0.09485140517948064
 10
28.848347333688032
 20
-69.45
 42
0.22672418623915522
 10
29.35922558345902
 20
-69.89807008669646
 42
0.06862863569479227
 10
30.098347333688032
 20
-70.0
 10
40.09834733368803
 20
-70.0
  0
LWPOLYLINE
  5
66
330
17
100
AcDbEntity
  8
ID_CUT_SINGLELINE
100
AcDbPolyline
 90
40
 70
0
 10
44.09834733368803
 20
-52.0
 42
-0.06396421538447927
 10
45.314996331120184
 20
-51.060337782081916
 42
-0.056812134225309015
 10
46.72334733368803
 20
-50.4375
 42
-0.049101360727830425
 10
48.39136655428965
 20
-50.09110003212856
 42
-0.026665577104297657
 10
50.09834733368803
 20
-50.0
 42
-0.06662202108809176
 10
52.373668148086054
 20
-50.30452457295468
 42
-0.09699037073851587
 10
54.41084733368803
 20
-51.3125
 42
-0.10185421839230656
 10
55.63239185708479
 20
-52.7195542901284
 42
-0.12868663581553266
 10
56.09834733368803
 20
-54.5
 42
-0.08029347599129652
 10
56.019868294625624
 20
-54.985550540789866
 42
-0.07387628606780058
 10
55.79756608368803
 20
-55.425390625
 42
-0.06134328547247083
 10
55.43627702372096
 20
-55.82266998564366
 42
-0.03306890438336148
 10
55.00459733368803
 20
-56.146875
 42
-0.04783509701919549
 10
53.83317844406867
 20
-56.76038067168631
 42
-0.004680474745750446
 10
52.59834733368803
 20
-57.25
 42
0.004680474745750446
 10
51.36351622330739
 20
-57.73961932831369
 42
0.047835097019195465
 10
50.19209733368803
 20
-58.353125
 42
0.03306890438336156
 10
49.7604176436551
 20
-58.67733001435634
 42
0.06134328547247083
 10
49.39912858368803
 20
-59.074609375
 42
0.0738762860678006
 10
49.17682637275044
 20
-59.514449459210134
 42
0.16162898085694452
 10
49.17682637275044
 20
-60.485550540789866
 42
0.0738762860678006
 10
49.39912858368803
 20
-60.925390625
 42
0.06134328547247083
 10
49.7604176436551
 20
-61.32266998564366
 42
0.03306890438336156
 10
50.19209733368803
 20
-61.646875
 42
0.04783509701919541
 10
51.36351622330739
 20
-62.26038067168631
 42
0.004680474745750002
 10
52.59834733368803
 20
-62.75
 42
-0.004680474745749947
 10
53.83317844406867
 20
-63.23961932831369
 42
-0.04783509701919527
 10
55.00459733368803
 20
-63.853125
 42
-0.0330689043833605
 10
55.43627702372096
 20
-64.17733001435634
 42
-0.061343285472470664
 10
55.79756608368803
 20
-64.574609375
 42
-0.07387628606780022
 10
56.019868294625624
 20
-65.01444945921013
 42
-0.08029347599129652
 10
56.09834733368803
 20
-65.5
 42
-0.1286866358155327
 10
55.63239185708479
 20
-67.2804457098716
 42
-0.10185421839230667
 10
54.41084733368803
 20
-68.6875
 42
-0.0969903707385162
 10
52.373668148086054
 20
-69.69547542704531
 42
-0.06662202108809215
 10
50.09834733368803
 20
-70.0
 42
-0.026665577104297376
 10
48.39136655428965
 20
-69.90889996787145
 42
-0.0491013607278302
 10
46.72334733368803
 20
-69.5625
 42
-0.05681213422530907
 10
45.314996331120184
 20
-68.93966221791808
 42
-0.06396421538447938
 10
44.09834733368803
 20
-68.0
  0
LWPOLYLINE
  5
67
330
17
100
AcDbEntity
  8
ID_CUT_SINGLELINE
100
AcDbPolyline
 90
6
 70
0
 10
65.75842710158875
 20
-50.0
 10
60.2503620566387
 20
-61.016130089900095
 42
0.04685932533300292
 10
60.10555323429704
 20
-61.38948318451308
 42
0.44054195990878847
 10
60.4597294678234
 20
-61.96255236836615
 42
0.046859325333002695
 10
60.85842710158875
 20
-62.0
 10
66.75842710158875
 20
-62.0
  0
LWPOLYLINE
  5
68
330
17
100
AcDbEntity
  8
ID_CUT_SINGLELINE
100
AcDbPolyline
 90
2
 70
0
 10
69.75842710158875
 20
-50.0
 10
69.75842710158875
 20
-70.0
  0
LWPOLYLINE
  5
69
330
17
100
AcDbEntity
  8
ID_CUT_SINGLELINE
100
AcDbPolyline
 90
28
 70
0
 10
85.75842710158875
 20
-50.0
 10
75.35842710158875
 20
-50.0
 42
0.06414042354739691
 10
74.7101721423457
 20
-50.08350222294367
 42
0.2709463975677932
 10
73.84192932453242
 20
-50.95174504075696
 42
0.06414042354739764
 10
73.75842710158875
 20
-51.60000000000001
 10
73.75842710158875
 20
-57.400000000000006
 42
0.06414042354739753
 10
73.84192932453242
 20
-58.04825495924305
 42
0.2709463975677943
 10
74.7101721423457
 20
-58.916497777056335
 42
0.06414042354739825
 10
75.35842710158875
 20
-59.0
 10
79.75842710158875
 20
-59.0
 42
-0.03050806371292751
 10
81.08705845490867
 20
-59.0811434635818
 42
-0.04762396224118295
 10
82.38342710158875
 20
-59.3671875
 42
-0.04819706629041033
 10
83.381599445635
 20
-59.79944221191437
 42
-0.06212113590743981
 10
84.25842710158875
 20
-60.4375
 42
-0.061958404445014326
 10
84.92128196320783
 20
-61.234304977292446
 42
-0.05447133079678962
 10
85.38342710158875
 20
-62.1640625
 42
-0.05256542248904484
 10
85.67382644093529
 20
-63.31370733502318
 42
-0.03561236159544067
 10
85.75842710158875
 20
-64.5
 42
-0.04401560177153985
 10
85.65329710965018
 20
-65.69192186050695
 42
-0.05660162380217123
 10
85.31311460158875
 20
-66.8359375
 42
-0.05512657896704169
 10
84.78852233265057
 20
-67.76883800410619
 42
-0.05641463557447821
 10
84.07092710158875
 20
-68.5625
 42
-0.11004055768949175
 10
82.06168005035818
 20
-69.67003916617605
 42
-0.07126551979294252
 10
79.75842710158875
 20
-70.0
 42
-0.025866437764922576
 10
78.05429691022856
 20
-69.91178142028899
 42
-0.04415544754713437
 10
76.38342710158875
 20
-69.5875
 42
-0.04898114370382958
 10
74.99379242138859
 20
-69.0359495390648
 42
-0.0596638358534216
 10
73.75842710158875
 20
-68.2
  0
LWPOLYLINE
  5
6A
330
17
100
AcDbEntity
  8
ID_CUT_SINGLELINE
100
AcDbPolyline
 90
19
 70
0
 10
100.75842710158875
 20
-51.0
 42
0.058734202836809996
 10
99.65106890554215
 20
-50.43656751227074
 42
0.050213654446945616
 10
98.44592710158875
 20
-50.125
 42
0.03399579028848292
 10
97.10609514824279
 20
-50.011265767857836
 42
0.004179653542441551
 10
95.75842710158875
 20
-50.0
 42
0.06309756005528286
 10
94.3960655497085
 20
-50.17261059459368
 42
0.07298455340629405
 10
93.13342710158875
 20
-50.703125
 42
0.0676621569836101
 10
92.08295599421102
 20
-51.55016378619749
 42
0.05140195303242364
 10
91.25842710158875
 20
-52.625
 42
0.04792025645286708
 10
90.58062204143614
 20
-54.00732367108098
 42
0.03307791325407614
 10
90.13342710158875
 20
-55.484375
 42
0.03231278006843676
 10
89.84576812451735
 20
-57.2307269075308
 42
0.024667722747099136
 10
89.75842710158875
 20
-59.0
 10
89.75842710158875
 20
-64.0
 42
0.06414042354739775
 10
90.07156043762751
 20
-66.43095609716144
 42
0.27094639756779515
 10
93.32747100442731
 20
-69.68686666396124
 42
0.06414042354739775
 10
95.75842710158875
 20
-70.0
 42
0.0488816999113587
 10
97.74148182079577
 20
-69.80566548171724
 42
0.09601892917116661
 10
99.56177365569008
 20
-69.06417864839797
  0
LWPOLYLINE
  5
6B
330
17
100
AcDbEntity
  8
ID_CUT_SINGLELINE
100
AcDbPolyline
 90
10
 70
0
 10
101.3684892567852
 20
-66.66923006089979
 42
0.051073750733413026
 10
101.67338495612682
 20
-65.3529007610983
 42
0.03139857237698623
 10
101.75842710158875
 20
-64.0
 42
0.08892755339333346
 10
101.34026696707197
 20
-61.667464905708314
 42
0.21870064221907665
 10
98.09096219588044
 20
-58.41816013451678
 42
0.08892755339333346
 10
95.75842710158875
 20
-58.0
 42
0.037803113051031595
 10
94.80567452693842
 20
-58.072137115953026
 42
0.05195421700814263
 10
93.88342710158875
 20
-58.3125
 42
0.04171848740598558
 10
93.28270677096445
 20
-58.59689366680175
 42
0.06505410147833846
 10
92.75842710158875
 20
-59.0
  0
LWPOLYLINE
  5
6C
330
17
100
AcDbEntity
  8
ID_CUT_SINGLELINE
100
AcDbPolyline
 90
10
 70
0
 10
105.75842710158875
 20
-50.0
 10
116.25842710158875
 20
-50.0
 42
-0.02582489106424448
 10
116.56998202036738
 20
-50.01610248282431
 42
-0.05849918990043511
 10
116.87275082701063
 20
-50.08385254915625
 42
-0.0636071857541303
 10
117.06713759302056
 20
-50.18114377806218
 42
-0.21634802285209595
 10
117.2872531143513
 20
-50.53729817302673
 42
-0.06360718575412791
 10
117.28734063038566
 20
-50.75467294240619
 42
-0.05849918990043283
 10
117.21253580528082
 20
-51.05577634641416
 42
-0.02582489106424687
 10
117.08760670833881
 20
-51.34164078649988
 10
107.75842710158875
 20
-70.0
  0
LWPOLYLINE
  5
6D
330
17
100
AcDbEntity
  8
ID_CUT_SINGLELINE
100
AcDbPolyline
 90
17
 70
0
 10
124.39489951236244
 20
-58.7
 42
-0.07484402071509288
 10
123.68377037323077
 20
-57.82700546261034
 42
-0.06743820133770528
 10
123.24489951236245
 20
-56.7875
 42
-0.07020046623314323
 10
123.10098967786566
 20
-55.63894041001952
 42
-0.07670639812898646
 10
123.29489951236245
 20
-54.5
 42
-0.01503762714112217
 10
123.82768508008353
 20
-53.04864941452372
 42
-0.0515721676214094
 10
124.54489951236245
 20
-51.6875
 42
-0.038261972991105495
 10
125.05782904121676
 20
-51.032688037253095
 42
-0.05953258503724414
 10
125.68552451236245
 20
-50.4921875
 42
-0.07373480629443055
 10
126.45362050833053
 20
-50.12609916044107
 42
-0.07452862842085858
 10
127.29489951236245
 20
-50.0
 42
-0.11892853605864723
 10
129.75458959774892
 20
-50.59344841443485
 42
-0.13438920667033308
 10
131.60739951236246
 20
-52.2875
 42
-0.0587272074453943
 10
132.07879694177214
 20
-53.27435147276039
 42
-0.06821585805840781
 10
132.28708701236246
 20
-54.345312500000006
 42
-0.07235337293241995
 10
132.19659063349755
 20
-55.36421780026339
 42
-0.08642977843457399
 10
131.79489951236246
 20
-56.3
  0
LWPOLYLINE
  5
6E
330
17
100
AcDbEntity
  8
ID_CUT_SINGLELINE
100
AcDbPolyline
 90
13
 70
0
 10
129.79489951236246
 20
-58.8
 42
0.00021673167599209822
 10
127.84489951236245
 20
-60.15
 42
-0.00021673167599201495
 10
125.89489951236244
 20
-61.5
 42
-0.04376216459893169
 10
124.41982161315737
 20
-62.339962356430355
 42
0.030407844412966692
 10
122.91989951236245
 20
-63.141875
 42
0.02925846255804613
 10
122.29330581939095
 20
-63.580063441057426
 42
0.06263417376571356
 10
121.76052451236245
 20
-64.121953125
 42
0.08168995388187111
 10
121.41443054681253
 20
-64.77269193159033
 42
0.0816260853564071
 10
121.29489951236245
 20
-65.5
 42
0.048564088102018475
 10
121.3804478108729
 20
-66.37870007133344
 42
0.04766125557982144
 10
121.63239951236245
 20
-67.225
 42
0.04561632699365741
 10
121.98865613359756
 20
-67.91642288230693
 42
0.07394091984527228
 10
122.49489951236245
 20
-68.5
  0
LWPOLYLINE
  5
6F
330
17
100
AcDbEntity
  8
ID_CUT_SINGLELINE
100
AcDbPolyline
 90
15
 70
0
 10
125.49489951236245
 20
-69.7
 42
0.09109772543303052
 10
126.37043860994999
 20
-69.95361804541015
 42
0.025070180233693794
 10
127.29489951236245
 20
-70.0
 42
0.030222070407292544
 10
128.62256363838594
 20
-69.91967711781695
 42
0.04553978510759026
 10
129.91989951236246
 20
-69.640625
 42
0.04488367127416817
 10
130.9118084705607
 20
-69.22988728613856
 42
0.05920173442659288
 10
131.79489951236246
 20
-68.625
 42
0.05855375241675868
 10
132.44898666887102
 20
-67.90141113762223
 42
0.057237813896569144
 10
132.91989951236246
 20
-67.046875
 42
0.05538840337469764
 10
133.20707894780656
 20
-66.04308978549321
 42
0.042022023315836675
 10
133.29489951236246
 20
-65.0
 42
0.1633210758224599
 10
132.9369472632453
 20
-63.93337614255933
 42
0.067868392530062
 10
132.10739951236246
 20
-63.1
 42
0.043056040491183015
 10
130.98822231791246
 20
-62.38876570111405
 42
0.010857025587831425
 10
129.79489951236246
 20
-61.8
  0
LWPOLYLINE
  5
70
330
17
100
AcDbEntity
  8
ID_CUT_SINGLELINE
100
AcDbPolyline
 90
19
 70
0
 10
138.29489951236246
 20
-69.0
 42
0.058734202836810356
 10
139.40225770840905
 20
-69.56343248772926
 42
0.05021365444694606
 10
140.60739951236246
 20
-69.875
 42
0.033995790288482645
 10
141.94723146570843
 20
-69.98873423214216
 42
0.004179653542441329
 10
143.29489951236246
 20
-70.0
 42
0.06309756005528293
 10
144.6572610642427
 20
-69.82738940540632
 42
0.07298455340629421
 10
145.91989951236246
 20
-69.296875
 42
0.06766215698361057
 10
146.9703706197402
 20
-68.44983621380251
 42
0.051401953032424
 10
147.79489951236246
 20
-67.375
 42
0.04792025645286723
 10
148.47270457251508
 20
-65.99267632891902
 42
0.03307791325407619
 10
148.91989951236246
 20
-64.515625
 42
0.03231278006843653
 10
149.20755848943386
 20
-62.7692730924692
 42
0.024667722747098886
 10
149.29489951236246
 20
-61.0
 10
149.29489951236246
 20
-56.0
 42
0.06414042354739774
 10
148.9817661763237
 20
-53.569043902838565
 42
0.27094639756779515
 10
145.7258556095239
 20
-50.31313333603876
 42
0.0641404235473977
 10
143.29489951236246
 20
-50.0
 42
0.04888169991135903
 10
141.31184479315544
 20
-50.19433451828276
 42
0.09601892917116689
 10
139.49155295826114
 20
-50.93582135160203
  0
LWPOLYLINE
  5
71
330
17
100
AcDbEntity
  8
ID_CUT_SINGLELINE
100
AcDbPolyline
 90
10
 70
0
 10
137.68483735716603
 20
-53.33076993910021
 42
0.051073750733413685
 10
137.3799416578244
 20
-54.6470992389017
 42
0.03139857237698668
 10
137.29489951236246
 20
-56.0
 42
0.08892755339333357
 10
137.71305964687926
 20
-58.332535094291686
 42
0.21870064221907687
 10
140.96236441807076
 20
-61.58183986548322
 42
0.08892755339333351
 10
143.29489951236246
 20
-62.0
 42
0.037803113051031595
 10
144.2476520870128
 20
-61.927862884046974
 42
0.05195421700814263
 10
145.16989951236246
 20
-61.6875
 42
0.0417184874059853
 10
145.77061984298675
 20
-61.40310633319825
 42
0.06505410147833801
 10
146.29489951236246
 20
-61.0
  0
LWPOLYLINE
  5
72
330
17
100
AcDbEntity
  8
ID_CUT_SINGLELINE
100
AcDbPolyline
 90
2
 70
0
 10
153.29489951236246
 20
-60.0
 10
161.29489951236246
 20
-60.0
  0
LWPOLYLINE
  5
73
330
17
100
AcDbEntity
  8
ID_CUT_SINGLELINE
100
AcDbPolyline
 90
8
 70
0
 10
0.0
 20
-105.0
 10
0.0
 20
-86.5
 42
-0.06414042354739753
 10
0.07828333400968997
 20
-85.89226097570965
 42
-0.2709463975677943
 10
0.892260975709641
 20
-85.0782833340097
 42
-0.06414042354739781
 10
1.4999999999999996
 20
-85.0
 10
5.999999999999998
 20
-85.0
 42
-0.04484884584842958
 10
7.895655367500185
 20
-85.17037861349347
 42
-0.0808290878192633
 10
9.67347540320926
 20
-85.80042500897876
  0
LWPOLYLINE
  5
74
330
17
100
AcDbEntity
  8
ID_CUT_SINGLELINE
100
AcDbPolyline
 90
12
 70
0
 10
11.662129537841217
 20
-88.04658945817015
 42
-0.05199180226342398
 10
11.920743583376732
 20
-89.0066506562911
 42
-0.03983023744639161
 10
11.999999999999996
 20
-90.0
 42
-0.042022023315836675
 10
11.91217943544411
 20
-91.04308978549321
 42
-0.05538840337469763
 10
11.624999999999996
 20
-92.046875
 42
-0.057237813896569144
 10
11.154087156508556
 20
-92.90141113762223
 42
-0.05855375241675868
 10
10.499999999999996
 20
-93.625
 42
-0.0592017344265931
 10
9.616908958198238
 20
-94.22988728613856
 42
-0.044883671274168334
 10
8.624999999999996
 20
-94.640625
 42
-0.04553978510758998
 10
7.3276641260234845
 20
-94.91967711781695
 42
-0.03022207040729149
 10
5.999999999999998
 20
-95.0
 10
2.999999999999999
 20
-95.0
  0
LWPOLYLINE
  5
75
330
17
100
AcDbEntity
  8
ID_CUT_SINGLELINE
100
AcDbPolyline
 90
10
 70
0
 10
15.999999999999996
 20
-105.0
 10
18.57865187009393
 20
-98.12359501308285
 42
-0.060901145538560054
 10
18.823767128751932
 20
-97.65325809301918
 42
-0.18336909713630262
 10
19.673544105250585
 20
-97.06436225047003
 42
-0.060901145538560165
 10
20.199999999999996
 20
-97.0
 10
25.799999999999997
 20
-97.0
 42
-0.06090114553856022
 10
26.326455894749408
 20
-97.06436225047003
 42
-0.18336909713630237
 10
27.17623287124806
 20
-97.65325809301918
 42
-0.060901145538559034
 10
27.421348129906065
 20
-98.12359501308285
 10
29.999999999999996
 20
-105.0
  0
LWPOLYLINE
  5
76
330
17
100
AcDbEntity
  8
ID_CUT_SINGLELINE
100
AcDbPolyline
 90
18
 70
0
 10
20.199999999999996
 20
-93.8
 10
21.499999999999996
 20
-88.2
 42
0.0005684973451910188
 10
21.66705755925464
 20
-87.4766345762792
 42
-0.005513249221472223
 10
21.841249999999995
 20
-86.755
 42
-0.007223911951245167
 10
21.976312431970058
 20
-86.25200583060855
 42
-0.026766655989858532
 10
22.144999999999996
 20
-85.76
 42
-0.029632768047935208
 10
22.29178615446856
 20
-85.45067126823369
 42
-0.08285563746265892
 10
22.501249999999995
 20
-85.185
 42
-0.09917558908478553
 10
22.7327289408832
 20
-85.04620993045789
 42
-0.17289537674071323
 10
23.267271059116794
 20
-85.04620993045789
 42
-0.09917558908478548
 10
23.498749999999998
 20
-85.185
 42
-0.08285563746265884
 10
23.708213845531432
 20
-85.45067126823369
 42
-0.029632768047935222
 10
23.854999999999997
 20
-85.76
 42
-0.026766655989860128
 10
24.023687568029935
 20
-86.25200583060855
 42
-0.0072239119512466175
 10
24.158749999999998
 20
-86.755
 42
-0.0055132492214722715
 10
24.33294244074535
 20
-87.4766345762792
 42
0.0005684973451897629
 10
24.499999999999996
 20
-88.2
 10
25.799999999999997
 20
-93.8
  0
LWPOLYLINE
  5
77
330
17
100
AcDbEntity
  8
ID_CUT_SINGLELINE
100
AcDbPolyline
 90
18
 70
0
 10
34.0
 20
-105.0
 10
34.0
 20
-86.4
 42
-0.01330553146706998
 10
34.007229648243666
 20
-86.12836980074393
 42
-0.04847823904194228
 10
34.0476864806771
 20
-85.8608638164263
 42
-0.04412749844208135
 10
34.09398431990163
 20
-85.72794654985495
 42
-0.45815688784202374
 10
34.3179218364732
 20
-85.66156249721898
 42
-0.04412749844207818
 10
34.42917832609389
 20
-85.74777434783675
 42
-0.04847823904193958
 10
34.60888674415111
 20
-85.95001453033187
 42
-0.013305531467071507
 10
34.76298369083358
 20
-86.17382106282089
 10
46.23701630916642
 20
-103.82617893717911
 42
0.013305531467071202
 10
46.39111325584889
 20
-104.04998546966813
 42
0.04847823904194195
 10
46.57082167390611
 20
-104.25222565216325
 42
0.044127498442080464
 10
46.68207816352681
 20
-104.33843750278102
 42
0.45815688784201675
 10
46.90601568009837
 20
-104.27205345014504
 42
0.04412749844208057
 10
46.9523135193229
 20
-104.1391361835737
 42
0.04847823904194044
 10
46.992770351756334
 20
-103.87163019925607
 42
0.013305531467069184
 10
47.0
 20
-103.6
 10
47.0
 20
-85.0
  0
LWPOLYLINE
  5
78
330
17
100
AcDbEntity
  8
ID_CUT_SINGLELINE
100
AcDbPolyline
 90
10
 70
0
 10
63.0
 20
-85.0
 10
53.0
 20
-85.0
 42
0.06414042354739848
 10
52.18968130094619
 20
-85.10437777867959
 42
0.2709463975677949
 10
51.104377778679584
 20
-86.18968130094619
 42
0.0641404235473973
 10
51.0
 20
-87.0
 10
51.0
 20
-103.0
 42
0.06414042354739775
 10
51.104377778679584
 20
-103.81031869905381
 42
0.2709463975677952
 10
52.18968130094619
 20
-104.89562222132041
 42
0.06414042354739787
 10
53.0
 20
-105.0
 10
63.0
 20
-105.0
  0
LWPOLYLINE
  5
79
330
17
100
AcDbEntity
  8
ID_CUT_SINGLELINE
100
AcDbPolyline
 90
2
 70
0
 10
51.0
 20
-95.0
 10
60.0
 20
-95.0
  0
LWPOLYLINE
  5
7A
330
17
100
AcDbEntity
  8
ID_CUT_SINGLELINE
100
AcDbPolyline
 90
6
 70
0
 10
67.0
 20
-85.0
 10
67.0
 20
-103.0
 42
0.06414042354739775
 10
67.10437777867959
 20
-103.81031869905381
 42
0.270946397567795
 10
68.18968130094619
 20
-104.89562222132041
 42
0.06414042354739781
 10
69.0
 20
-105.0
 10
79.0
 20
-105.0
  0
LWPOLYLINE
  5
7B
330
17
100
AcDbEntity
  8
ID_CUT_SINGLELINE
100
AcDbPolyline
 90
2
 70
0
 10
83.0
 20
-95.0
 10
91.0
 20
-95.0
  0
LWPOLYLINE
  5
7C
330
17
100
AcDbEntity
  8
ID_CUT_SINGLELINE
100
AcDbPolyline
 90
10
 70
0
 10
95.0
 20
-105.0
 10
97.57865187009394
 20
-98.12359501308285
 42
-0.060901145538560054
 10
97.82376712875194
 20
-97.65325809301918
 42
-0.18336909713630262
 10
98.67354410525058
 20
-97.06436225047003
 42
-0.060901145538560165
 10
99.2
 20
-97.0
 10
104.8
 20
-97.0
 42
-0.06090114553856022
 10
105.32645589474942
 20
-97.06436225047003
 42
-0.18336909713630237
 10
106.17623287124806
 20
-97.65325809301918
 42
-0.060901145538559034
 10
106.42134812990606
 20
-98.12359501308285
 10
109.0
 20
-105.0
  0
LWPOLYLINE
  5
7D
330
17
100
AcDbEntity
  8
ID_CUT_SINGLELINE
100
AcDbPolyline
 90
18
 70
0
 10
99.2
 20
-93.8
 10
100.5
 20
-88.2
 42
0.0005684973451910188
 10
100.66705755925464
 20
-87.4766345762792
 42
-0.005513249221472223
 10
100.84125
 20
-86.755
 42
-0.007223911951245167
 10
100.97631243197006
 20
-86.25200583060855
 42
-0.026766655989858532
 10
101.145
 20
-85.76
 42
-0.029632768047935208
 10
101.29178615446857
 20
-85.45067126823369
 42
-0.08285563746265892
 10
101.50125
 20
-85.185
 42
-0.09917558908478553
 10
101.7327289408832
 20
-85.04620993045789
 42
-0.17289537674071323
 10
102.2672710591168
 20
-85.04620993045789
 42
-0.09917558908478548
 10
102.49875
 20
-85.185
 42
-0.08285563746265884
 10
102.70821384553143
 20
-85.45067126823369
 42
-0.029632768047935222
 10
102.855
 20
-85.76
 42
-0.026766655989860128
 10
103.02368756802994
 20
-86.25200583060855
 42
-0.0072239119512466175
 10
103.15875
 20
-86.755
 42
-0.0055132492214722715
 10
103.33294244074536
 20
-87.4766345762792
 42
0.0005684973451897629
 10
103.5
 20
-88.2
 10
104.8
 20
-93.8
  0
LWPOLYLINE
  5
7E
330
17
100
AcDbEntity
  8
ID_CUT_SINGLELINE
100
AcDbPolyline
 90
16
 70
0
 10
122.88685996664259
 20
-93.5
 42
0.022340412224689413
 10
122.68001915318638
 20
-91.79017080297216
 42
0.027093516698145997
 10
122.305627303521
 20
-90.109890125442
 42
0.025975286343047105
 10
121.83932227722659
 20
-88.72756420340636
 42
0.03738737434303053
 10
121.20303118592263
 20
-87.41712455594845
 42
0.03708228578138053
 10
120.54149154428954
 20
-86.45201119710357
 42
0.062490676402211454
 10
119.70649196285389
 20
-85.64079670848068
 42
0.06843023127817405
 10
118.87349944471518
 20
-85.17541887020694
 42
0.1886083539868552
 10
117.01336052192741
 20
-85.17541887020694
 42
0.06843023127817582
 10
116.1803680037887
 20
-85.64079670848068
 42
0.06249067640221123
 10
115.34536842235305
 20
-86.45201119710357
 42
0.03708228578138039
 10
114.68382878071998
 20
-87.41712455594845
 42
0.037387374343031306
 10
114.047537689416
 20
-88.72756420340636
 42
0.02597528634304755
 10
113.58123266312158
 20
-90.109890125442
 42
0.027093516698146455
 10
113.20684081345621
 20
-91.79017080297216
 42
0.0223404122246895
 10
113.0
 20
-93.5
  0
LWPOLYLINE
  5
7F
330
17
100
AcDbEntity
  8
ID_CUT_SINGLELINE
100
AcDbPolyline
 90
16
 70
0
 10
113.0
 20
-96.5
 42
0.0223404122246895
 10
113.20684081345621
 20
-98.20982919702784
 42
0.027093516698146566
 10
113.58123266312158
 20
-99.890109874558
 42
0.025975286343046883
 10
114.047537689416
 20
-101.27243579659364
 42
0.03738737434303053
 10
114.68382878071998
 20
-102.58287544405155
 42
0.037082285781380835
 10
115.34536842235305
 20
-103.54798880289643
 42
0.06249067640221123
 10
116.1803680037887
 20
-104.35920329151934
 42
0.06843023127817471
 10
117.01336052192741
 20
-104.82458112979306
 42
0.1886083539868538
 10
118.87349944471518
 20
-104.82458112979306
 42
0.06843023127817482
 10
119.70649196285389
 20
-104.35920329151934
 42
0.062490676402211176
 10
120.54149154428954
 20
-103.54798880289643
 42
0.0370822857813805
 10
121.20303118592263
 20
-102.58287544405155
 42
0.03738737434303047
 10
121.83932227722659
 20
-101.27243579659365
 42
0.025975286343046897
 10
122.305627303521
 20
-99.890109874558
 42
0.027093516698145984
 10
122.68001915318638
 20
-98.20982919702784
 42
0.022340412224689413
 10
122.88685996664259
 20
-96.5
  0
LWPOLYLINE
  5
80
330
17
100
AcDbEntity
  8
ID_CUT_SINGLELINE
100
AcDbPolyline
 90
2
 70
0
 10
115.9434299833213
 20
-100.0
 10
119.9434299833213
 20
-90.0
  0
LWPOLYLINE
  5
81
330
17
100
AcDbEntity
  8
ID_CUT_SINGLELINE
100
AcDbPolyline
 90
10
 70
0
 10
127.90800870334714
 20
-88.6616202127273
 10
131.27054245384144
 20
-85.29908646223298
 42
-0.01866355246877764
 10
131.4194960334599
 20
-85.16085635357058
 42
-0.05618179601604381
 10
131.58644422723313
 20
-85.04700648488533
 42
-0.060637822540961346
 10
131.69806866186352
 20
-85.00433517064616
 42
-0.32956244656061684
 10
131.8987176063825
 20
-85.08744668474176
 42
-0.060637822540958376
 10
131.94747482539506
 20
-85.19655025507566
 42
-0.05618179601604157
 10
131.98502101113442
 20
-85.39510446918412
 42
-0.018663552468782433
 10
131.9926036501653
 20
-85.59817400261366
 10
131.9926036501653
 20
-105.0
  0
LWPOLYLINE
  5
82
330
17
100
AcDbEntity
  8
ID_CUT_SINGLELINE
100
AcDbPolyline
 90
2
 70
0
 10
126.88685996664259
 20
-105.0
 10
137.09834733368803
 20
-105.0
  0
LWPOLYLINE
  5
83
330
17
100
AcDbEntity
  8
ID_CUT_SINGLELINE
100
AcDbPolyline
 90
6
 70
0
 10
0.0
 20
-120.0
 10
0.0
 20
-138.0
 42
0.06414042354739775
 10
0.10437777867958675
 20
-138.81031869905382
 42
0.270946397567795
 10
1.1896813009461882
 20
-139.89562222132042
 42
0.06414042354739781
 10
2.0
 20
-140.0
 10
12.0
 20
-140.0
  0
LWPOLYLINE
  5
84
330
17
100
AcDbEntity
  8
ID_CUT_SINGLELINE
100
AcDbPolyline
 90
10
 70
0
 10
16.0
 20
-140.0
 10
18.57865187009393
 20
-133.12359501308285
 42
-0.060901145538560054
 10
18.823767128751935
 20
-132.65325809301916
 42
-0.18336909713630262
 10
19.67354410525059
 20
-132.06436225047003
 42
-0.060901145538560165
 10
20.2
 20
-132.0
 10
25.8
 20
-132.0
 42
-0.06090114553856022
 10
26.32645589474941
 20
-132.06436225047003
 42
-0.18336909713630237
 10
27.176232871248065
 20
-132.65325809301916
 42
-0.060901145538559034
 10
27.42134812990607
 20
-133.12359501308285
 10
30.0
 20
-140.0
  0
LWPOLYLINE
  5
85
330
17
100
AcDbEntity
  8
ID_CUT_SINGLELINE
100
AcDbPolyline
 90
18
 70
0
 10
20.2
 20
-128.8
 10
21.5
 20
-123.2
 42
0.0005684973451910188
 10
21.667057559254644
 20
-122.4766345762792
 42
-0.005513249221472223
 10
21.84125
 20
-121.755
 42
-0.007223911951245167
 10
21.976312431970058
 20
-121.25200583060855
 42
-0.026766655989858532
 10
22.145
 20
-120.76
 42
-0.029632768047935208
 10
22.29178615446856
 20
-120.45067126823369
 42
-0.08285563746265892
 10
22.50125
 20
-120.185
 42
-0.09917558908478553
 10
22.732728940883206
 20
-120.04620993045789
 42
-0.17289537674071323
 10
23.267271059116794
 20
-120.04620993045789
 42
-0.09917558908478548
 10
23.49875
 20
-120.185
 42
-0.08285563746265884
 10
23.70821384553144
 20
-120.45067126823369
 42
-0.029632768047935222
 10
23.855
 20
-120.76
 42
-0.026766655989860128
 10
24.02368756802994
 20
-121.25200583060855
 42
-0.0072239119512466175
 10
24.15875
 20
-121.755
 42
-0.0055132492214722715
 10
24.332942440745356
 20
-122.4766345762792
 42
0.0005684973451897629
 10
24.5
 20
-123.2
 10
25.8
 20
-128.8
  0
LWPOLYLINE
  5
86
330
17
100
AcDbEntity
  8
ID_CUT_SINGLELINE
100
AcDbPolyline
 90
37
 70
0
 10
46.0
 20
-122.0
 42
0.06396421538447936
 10
44.78335100256784
 20
-121.06033778208192
 42
0.05681213422530896
 10
43.375
 20
-120.4375
 42
0.04910136072783048
 10
41.706980779398386
 20
-120.09110003212857
 42
0.0266655771042976
 10
40.0
 20
-120.0
 42
0.03059424752298147
 10
38.7591614614977
 20
-120.0759961757931
 42
0.04112480424360917
 10
37.54375
 20
-120.328125
 42
0.04112824026706247
 10
36.550710973227815
 20
-120.71209553076878
 42
0.053752564666960774
 10
35.65
 20
-121.275
 42
0.05531490737467678
 10
34.953046024153196
 20
-121.95964123621812
 42
0.059914915655812286
 10
34.43125
 20
-122.784375
 42
0.06127560141301073
 10
34.103464411124044
 20
-123.76684586141045
 42
0.049947191966826614
 10
34.0
 20
-124.8
 42
0.07339360220597947
 10
34.14939337389926
 20
-125.81227248677841
 42
0.07403706711261954
 10
34.5859375
 20
-126.7375
 42
0.06075373931386478
 10
35.25351742126667
 20
-127.5141559013185
 42
0.0366605625982118
 10
36.0625
 20
-128.15
 42
0.05024017521705201
 10
37.97713393706008
 20
-129.1772744901719
 42
0.002886739793014561
 10
40.0
 20
-130.0
 42
-0.0028867397930146164
 10
42.02286606293992
 20
-130.8227255098281
 42
-0.05024017521705221
 10
43.9375
 20
-131.85
 42
-0.03666056259821202
 10
44.74648257873333
 20
-132.4858440986815
 42
-0.06075373931386428
 10
45.4140625
 20
-133.2625
 42
-0.07403706711261983
 10
45.85060662610074
 20
-134.1877275132216
 42
-0.07339360220597928
 10
46.0
 20
-135.2
 42
-0.04994719196682685
 10
45.896535588875956
 20
-136.23315413858955
 42
-0.06127560141301053
 10
45.56875
 20
-137.215625
 42
-0.05991491565581188
 10
45.046953975846804
 20
-138.04035876378188
 42
-0.05531490737467639
 10
44.35
 20
-138.725
 42
-0.053752564666960385
 10
43.449289026772185
 20
-139.28790446923122
 42
-0.04112824026706276
 10
42.45625
 20
-139.671875
 42
-0.04112480424360872
 10
41.24083853850231
 20
-139.92400382420692
 42
-0.03059424752298047
 10
40.0
 20
-140.0
 42
-0.026665577104297376
 10
38.293019220601614
 20
-139.90889996787143
 42
-0.0491013607278302
 10
36.625
 20
-139.5625
 42
-0.05681213422530907
 10
35.21664899743215
 20
-138.93966221791808
 42
-0.06396421538447938
 10
34.0
 20
-138.0
  0
LWPOLYLINE
  5
87
330
17
100
AcDbEntity
  8
ID_CUT_SINGLELINE
100
AcDbPolyline
 90
10
 70
0
 10
62.0
 20
-120.0
 10
52.0
 20
-120.0
 42
0.06414042354739848
 10
51.18968130094619
 20
-120.10437777867959
 42
0.2709463975677949
 10
50.104377778679584
 20
-121.18968130094619
 42
0.0641404235473973
 10
50.0
 20
-122.0
 10
50.0
 20
-138.0
 42
0.06414042354739775
 10
50.104377778679584
 20
-138.81031869905382
 42
0.2709463975677952
 10
51.18968130094619
 20
-139.89562222132042
 42
0.06414042354739787
 10
52.0
 20
-140.0
 10
62.0
 20
-140.0
  0
LWPOLYLINE
  5
88
330
17
100
AcDbEntity
  8
ID_CUT_SINGLELINE
100
AcDbPolyline
 90
2
 70
0
 10
50.0
 20
-130.0
 10
59.0
 20
-130.0
  0
LWPOLYLINE
  5
89
330
17
100
AcDbEntity
  8
ID_CUT_SINGLELINE
100
AcDbPolyline
 90
8
 70
0
 10
66.0
 20
-140.0
 10
66.0
 20
-121.5
 42
-0.06414042354739753
 10
66.07828333400968
 20
-120.89226097570965
 42
-0.2709463975677943
 10
66.89226097570965
 20
-120.0782833340097
 42
-0.06414042354739781
 10
67.5
 20
-120.0
 10
72.0
 20
-120.0
 42
-0.04484884584842958
 10
73.89565536750018
 20
-120.17037861349347
 42
-0.0808290878192633
 10
75.67347540320927
 20
-120.80042500897876
  0
LWPOLYLINE
  5
8A
330
17
100
AcDbEntity
  8
ID_CUT_SINGLELINE
100
AcDbPolyline
 90
12
 70
0
 10
77.66212953784122
 20
-123.04658945817015
 42
-0.05199180226342398
 10
77.92074358337673
 20
-124.0066506562911
 42
-0.03983023744639161
 10
78.0
 20
-125.0
 42
-0.042022023315836675
 10
77.9121794354441
 20
-126.04308978549321
 42
-0.05538840337469763
 10
77.625
 20
-127.046875
 42
-0.057237813896569144
 10
77.15408715650855
 20
-127.90141113762223
 42
-0.05855375241675868
 10
76.5
 20
-128.625
 42
-0.0592017344265931
 10
75.61690895819824
 20
-129.22988728613856
 42
-0.044883671274168334
 10
74.625
 20
-129.640625
 42
-0.04553978510758998
 10
73.32766412602348
 20
-129.91967711781695
 42
-0.03022207040729149
 10
72.0
 20
-130.0
 10
69.0
 20
-130.0
  0
LWPOLYLINE
  5
8B
330
17
100
AcDbEntity
  8
ID_CUT_SINGLELINE
100
AcDbPolyline
 90
2
 70
0
 10
66.0
 20
-130.0
 10
78.0
 20
-140.0
  0
LWPOLYLINE
  5
8C
330
17
100
AcDbEntity
  8
ID_CUT_SINGLELINE
100
AcDbPolyline
 90
2
 70
0
 10
82.0
 20
-130.0
 10
90.0
 20
-130.0
  0
LWPOLYLINE
  5
8D
330
17
100
AcDbEntity
  8
ID_CUT_SINGLELINE
100
AcDbPolyline
 90
16
 70
0
 10
103.88685996664259
 20
-128.5
 42
0.022340412224689413
 10
103.68001915318638
 20
-126.79017080297216
 42
0.027093516698145997
 10
103.305627303521
 20
-125.109890125442
 42
0.025975286343047105
 10
102.83932227722659
 20
-123.72756420340636
 42
0.03738737434303053
 10
102.20303118592263
 20
-122.41712455594845
 42
0.03708228578138053
 10
101.54149154428954
 20
-121.45201119710357
 42
0.062490676402211454
 10
100.70649196285389
 20
-120.64079670848068
 42
0.06843023127817405
 10
99.87349944471518
 20
-120.17541887020694
 42
0.1886083539868552
 10
98.01336052192741
 20
-120.17541887020694
 42
0.06843023127817582
 10
97.1803680037887
 20
-120.64079670848068
 42
0.06249067640221123
 10
96.34536842235305
 20
-121.45201119710357
 42
0.03708228578138039
 10
95.68382878071998
 20
-122.41712455594845
 42
0.037387374343031306
 10
95.047537689416
 20
-123.72756420340636
 42
0.02597528634304755
 10
94.58123266312158
 20
-125.109890125442
 42
0.027093516698146455
 10
94.20684081345621
 20
-126.79017080297216
 42
0.0223404122246895
 10
94.0
 20
-128.5
  0
LWPOLYLINE
  5
8E
330
17
100
AcDbEntity
  8
ID_CUT_SINGLELINE
100
AcDbPolyline
 90
16
 70
0
 10
94.0
 20
-131.5
 42
0.0223404122246895
 10
94.20684081345621
 20
-133.20982919702783
 42
0.027093516698146566
 10
94.58123266312158
 20
-134.890109874558
 42
0.025975286343046883
 10
95.047537689416
 20
-136.27243579659364
 42
0.03738737434303053
 10
95.68382878071998
 20
-137.58287544405155
 42
0.037082285781380835
 10
96.34536842235305
 20
-138.54798880289644
 42
0.06249067640221123
 10
97.1803680037887
 20
-139.35920329151932
 42
0.06843023127817471
 10
98.01336052192741
 20
-139.82458112979305
 42
0.1886083539868538
 10
99.87349944471518
 20
-139.82458112979305
 42
0.06843023127817482
 10
100.70649196285389
 20
-139.35920329151932
 42
0.062490676402211176
 10
101.54149154428954
 20
-138.54798880289644
 42
0.0370822857813805
 10
102.20303118592263
 20
-137.58287544405155
 42
0.03738737434303047
 10
102.83932227722659
 20
-136.27243579659364
 42
0.025975286343046897
 10
103.305627303521
 20
-134.890109874558
 42
0.027093516698145984
 10
103.68001915318638
 20
-133.20982919702786
 42
0.022340412224689413
 10
103.88685996664259
 20
-131.5
  0
LWPOLYLINE
  5
8F
330
17
100
AcDbEntity
  8
ID_CUT_SINGLELINE
100
AcDbPolyline
 90
2
 70
0
 10
96.9434299833213
 20
-135.0
 10
100.9434299833213
 20
-125.0
  0
LWPOLYLINE
  5
90
330
17
100
AcDbEntity
  8
ID_CUT_SINGLELINE
100
AcDbPolyline
 90
36
 70
0
 10
107.88685996664259
 20
-124.0
 42
-0.06333864644059446
 10
107.99755017825264
 20
-123.12970869626305
 42
-0.06961551058177022
 10
108.33217246664259
 20
-122.3203125
 42
-0.06586768724149118
 10
108.8786341965983
 20
-121.61993599138049
 42
-0.0506358805186205
 10
109.57435996664259
 20
-121.0625
 42
-0.04870188759723188
 10
110.48962980728798
 20
-120.58951075090403
 42
-0.034314473141521924
 10
111.47279746664259
 20
-120.2734375
 42
-0.03452191119322491
 10
112.6709138693533
 20
-120.06353875355263
 42
-0.026109479282846838
 10
113.88685996664259
 20
-120.0
 42
-0.026448366367393283
 10
115.10356755910621
 20
-120.06440490860436
 42
-0.03671284794835809
 10
116.30092246664259
 20
-120.28125
 42
-0.03765209135863839
 10
117.28976266079538
 20
-120.61754877037247
 42
-0.05294223599625854
 10
118.19935996664259
 20
-121.125
 42
-0.05623964588921412
 10
118.9061017775818
 20
-121.75369781503666
 42
-0.0642669187854637
 10
119.44154746664259
 20
-122.53125
 42
-0.06678226710713943
 10
119.78117917941215
 20
-123.48732768008354
 42
-0.0520378645665929
 10
119.88685996664259
 20
-124.5
 42
-0.06113945547277566
 10
119.77978955244822
 20
-125.37235141878732
 42
-0.0414610803070932
 10
119.49623496664259
 20
-126.2080078125
 42
-0.03682717034405595
 10
119.02425796284233
 20
-127.10662460422435
 42
-0.021835659053840606
 10
118.44935996664259
 20
-127.9453125
 42
-0.03473040257530103
 10
116.87346286033275
 20
-129.76396297262602
 42
-0.01022526680839955
 10
115.13685996664259
 20
-131.4375
 42
-0.004466490236216902
 10
113.28082868429318
 20
-133.12381440856518
 42
0.011570830893491849
 10
111.44935996664259
 20
-134.8359375
 42
0.008885757572529782
 10
110.67025938407474
 20
-135.6264100277209
 42
0.017187318693132926
 10
109.93373496664259
 20
-136.4560546875
 42
0.01943108791788571
 10
109.36570529252648
 20
-137.19896191107034
 42
0.03758701286786683
 10
108.88685996664259
 20
-138.0
 42
0.02389586155536618
 10
108.71040846291099
 20
-138.39955324260228
 42
0.047657577175879436
 10
108.59310996664259
 20
-138.81875
 42
0.05109791283025667
 10
108.56883998624562
 20
-139.13964197124966
 42
0.09485140517948064
 10
108.63685996664259
 20
-139.45
 42
0.22672418623915522
 10
109.14773821641357
 20
-139.89807008669646
 42
0.06862863569479227
 10
109.88685996664259
 20
-140.0
 10
119.88685996664259
 20
-140.0
  0
LWPOLYLINE
  5
91
330
17
100
AcDbEntity
  8
ID_CUT_SINGLELINE
100
AcDbPolyline
 90
18
 70
0
 10
9.646572751793558
 20
-155.65456592946794
 42
0.03981469732100631
 10
8.856934193982815
 20
-155.35355932358067
 42
0.027188544951180723
 10
8.032776276134339
 20
-155.16037945377258
 42
0.026584198127785143
 10
7.0203279075068945
 20
-155.03550370930665
 42
0.01739292274809276
 10
5.999999999999998
 20
-155.0
 10
1.9999999999999996
 20
-155.0
 42
0.0641887124095951
 10
1.1897472121932033
 20
-155.1044485141584
 42
0.27084315763380284
 10
0.10444851415839568
 20
-156.1897472121932
 42
0.06418871240959331
 10
0.0
 20
-157.0
 10
0.0
 20
-173.0
 42
0.06418871240959298
 10
0.10444851415839557
 20
-173.8102527878068
 42
0.27084315763380007
 10
1.1897472121932036
 20
-174.8955514858416
 42
0.06418871240959298
 10
1.9999999999999996
 20
-175.0
 10
5.999999999999998
 20
-175.0
 42
0.017392922748093703
 10
7.0203279075068945
 20
-174.96449629069335
 42
0.026584198127785643
 10
8.032776276134339
 20
-174.83962054622742
 42
0.027188544951180612
 10
8.856934193982815
 20
-174.64644067641933
 42
0.039814697321006697
 10
9.646572751793558
 20
-174.3454340705321
  0
LWPOLYLINE
  5
92
330
17
100
AcDbEntity
  8
ID_CUT_SINGLELINE
100
AcDbPolyline
 90
7
 70
0
 10
11.672274928433886
 20
-157.8673765159291
 42
-0.05351707773306869
 10
11.92833489352426
 20
-158.91757292183695
 42
-0.03306769762496908
 10
11.999999999999996
 20
-160.0
 42
-0.0610258310013109
 10
11.822462131902155
 20
-161.449195260272
 42
-0.08479560352507295
 10
11.240531272915028
 20
-162.77723562035388
 42
-0.08854081572307182
 10
10.243433564090836
 20
-163.8288483910196
 42
-0.06901223092013728
 10
8.962125091660122
 20
-164.52480010379054
  0
LWPOLYLINE
  5
93
330
17
100
AcDbEntity
  8
ID_CUT_SINGLELINE
100
AcDbPolyline
 90
7
 70
0
 10
11.672274928433886
 20
-172.1326234840709
 42
0.05351707773306846
 10
11.92833489352426
 20
-171.08242707816308
 42
0.033067697624969
 10
11.999999999999996
 20
-170.0
 42
0.06102583100131146
 10
11.822462131902153
 20
-168.550804739728
 42
0.08479560352507319
 10
11.240531272915028
 20
-167.22276437964612
 42
0.08854081572307182
 10
10.243433564090836
 20
-166.1711516089804
 42
0.06901223092013728
 10
8.962125091660122
 20
-165.4751998962095
  0
LWPOLYLINE
  5
94
330
17
100
AcDbEntity
  8
ID_CUT_SINGLELINE
100
AcDbPolyline
 90
2
 70
0
 10
0.0
 20
-165.0
 10
5.999999999999998
 20
-165.0
  0
LWPOLYLINE
  5
95
330
17
100
AcDbEntity
  8
ID_CUT_SINGLELINE
100
AcDbPolyline
 90
17
 70
0
 10
19.099999999999998
 20
-163.7
 42
-0.07484402071509288
 10
18.38887086086832
 20
-162.82700546261034
 42
-0.06743820133770528
 10
17.949999999999996
 20
-161.7875
 42
-0.07020046623314323
 10
17.8060901655032
 20
-160.63894041001953
 42
-0.07670639812898646
 10
17.999999999999996
 20
-159.5
 42
-0.01503762714112217
 10
18.53278556772108
 20
-158.04864941452374
 42
-0.0515721676214094
 10
19.249999999999996
 20
-156.6875
 42
-0.038261972991105495
 10
19.762929528854315
 20
-156.0326880372531
 42
-0.05953258503724414
 10
20.390624999999996
 20
-155.4921875
 42
-0.07373480629443055
 10
21.158720995968082
 20
-155.12609916044107
 42
-0.07452862842085858
 10
21.999999999999996
 20
-155.0
 42
-0.11892853605864723
 10
24.459690085386462
 20
-155.59344841443485
 42
-0.13438920667033308
 10
26.312499999999996
 20
-157.2875
 42
-0.0587272074453943
 10
26.783897429409684
 20
-158.27435147276037
 42
-0.06821585805840781
 10
26.992187499999996
 20
-159.3453125
 42
-0.07235337293241995
 10
26.901691121135098
 20
-160.3642178002634
 42
-0.08642977843457399
 10
26.499999999999996
 20
-161.3
  0
LWPOLYLINE
  5
96
330
17
100
AcDbEntity
  8
ID_CUT_SINGLELINE
100
AcDbPolyline
 90
13
 70
0
 10
24.499999999999996
 20
-163.8
 42
0.00021673167599209822
 10
22.549999999999997
 20
-165.15
 42
-0.00021673167599201495
 10
20.599999999999994
 20
-166.5
 42
-0.04376216459893169
 10
19.124922100794915
 20
-167.33996235643036
 42
0.030407844412966692
 10
17.624999999999996
 20
-168.141875
 42
0.02925846255804613
 10
16.9984063070285
 20
-168.58006344105743
 42
0.06263417376571356
 10
16.465624999999996
 20
-169.121953125
 42
0.08168995388187111
 10
16.119531034450073
 20
-169.77269193159032
 42
0.0816260853564071
 10
15.999999999999996
 20
-170.5
 42
0.048564088102018475
 10
16.08554829851044
 20
-171.37870007133344
 42
0.04766125557982144
 10
16.337499999999995
 20
-172.225
 42
0.04561632699365741
 10
16.69375662123511
 20
-172.91642288230693
 42
0.07394091984527228
 10
17.199999999999996
 20
-173.5
  0
LWPOLYLINE
  5
97
330
17
100
AcDbEntity
  8
ID_CUT_SINGLELINE
100
AcDbPolyline
 90
15
 70
0
 10
20.199999999999996
 20
-174.7
 42
0.09109772543303052
 10
21.07553909758754
 20
-174.95361804541014
 42
0.025070180233693794
 10
21.999999999999996
 20
-175.0
 42
0.030222070407292544
 10
23.327664126023485
 20
-174.91967711781695
 42
0.04553978510759026
 10
24.624999999999996
 20
-174.640625
 42
0.04488367127416817
 10
25.616908958198238
 20
-174.22988728613856
 42
0.05920173442659288
 10
26.499999999999996
 20
-173.625
 42
0.05855375241675868
 10
27.154087156508556
 20
-172.90141113762223
 42
0.057237813896569144
 10
27.624999999999996
 20
-172.046875
 42
0.05538840337469764
 10
27.91217943544411
 20
-171.0430897854932
 42
0.042022023315836675
 10
27.999999999999996
 20
-170.0
 42
0.1633210758224599
 10
27.642047750882824
 20
-168.93337614255933
 42
0.067868392530062
 10
26.812499999999996
 20
-168.1
 42
0.043056040491183015
 10
25.693322805549997
 20
-167.38876570111404
 42
0.010857025587831425
 10
24.499999999999996
 20
-166.8
  0
LWPOLYLINE
  5
98
330
17
100
AcDbEntity
  8
ID_CUT_SINGLELINE
100
AcDbPolyline
 90
2
 70
0
 10
31.999999999999996
 20
-165.0
 10
40.0
 20
-165.0
  0
LWPOLYLINE
  5
99
330
17
100
AcDbEntity
  8
ID_CUT_SINGLELINE
100
AcDbPolyline
 90
37
 70
0
 10
56.0
 20
-157.0
 42
0.06396421538447936
 10
54.78335100256784
 20
-156.06033778208192
 42
0.05681213422530896
 10
53.375
 20
-155.4375
 42
0.04910136072783048
 10
51.706980779398386
 20
-155.09110003212857
 42
0.0266655771042976
 10
50.0
 20
-155.0
 42
0.03059424752298147
 10
48.7591614614977
 20
-155.07599617579308
 42
0.04112480424360917
 10
47.54375
 20
-155.328125
 42
0.04112824026706247
 10
46.550710973227815
 20
-155.71209553076878
 42
0.053752564666960774
 10
45.65
 20
-156.275
 42
0.05531490737467678
 10
44.953046024153196
 20
-156.95964123621812
 42
0.059914915655812286
 10
44.43125
 20
-157.784375
 42
0.06127560141301073
 10
44.103464411124044
 20
-158.76684586141045
 42
0.049947191966826614
 10
44.0
 20
-159.8
 42
0.07339360220597947
 10
44.14939337389926
 20
-160.8122724867784
 42
0.07403706711261954
 10
44.5859375
 20
-161.7375
 42
0.06075373931386478
 10
45.25351742126667
 20
-162.5141559013185
 42
0.0366605625982118
 10
46.0625
 20
-163.15
 42
0.05024017521705201
 10
47.97713393706008
 20
-164.1772744901719
 42
0.002886739793014561
 10
50.0
 20
-165.0
 42
-0.0028867397930146164
 10
52.02286606293992
 20
-165.8227255098281
 42
-0.05024017521705221
 10
53.9375
 20
-166.85
 42
-0.03666056259821202
 10
54.74648257873333
 20
-167.4858440986815
 42
-0.06075373931386428
 10
55.4140625
 20
-168.2625
 42
-0.07403706711261983
 10
55.85060662610074
 20
-169.1877275132216
 42
-0.07339360220597928
 10
56.0
 20
-170.2
 42
-0.04994719196682685
 10
55.896535588875956
 20
-171.23315413858955
 42
-0.06127560141301053
 10
55.56875
 20
-172.215625
 42
-0.05991491565581188
 10
55.046953975846804
 20
-173.04035876378188
 42
-0.05531490737467639
 10
54.35
 20
-173.725
 42
-0.053752564666960385
 10
53.449289026772185
 20
-174.28790446923122
 42
-0.04112824026706276
 10
52.45625
 20
-174.671875
 42
-0.04112480424360872
 10
51.24083853850231
 20
-174.92400382420692
 42
-0.03059424752298047
 10
50.0
 20
-175.0
 42
-0.026665577104297376
 10
48.293019220601614
 20
-174.90889996787143
 42
-0.0491013607278302
 10
46.625
 20
-174.5625
 42
-0.05681213422530907
 10
45.21664899743215
 20
-173.93966221791808
 42
-0.06396421538447938
 10
44.0
 20
-173.0
  0
LWPOLYLINE
  5
9A
330
17
100
AcDbEntity
  8
ID_CUT_SINGLELINE
100
AcDbPolyline
 90
28
 70
0
 10
72.0
 20
-155.0
 10
61.6
 20
-155.0
 42
0.06414042354739691
 10
60.951745040756954
 20
-155.08350222294368
 42
0.2709463975677932
 10
60.08350222294367
 20
-155.95174504075695
 42
0.06414042354739764
 10
60.0
 20
-156.6
 10
60.0
 20
-162.4
 42
0.06414042354739753
 10
60.08350222294367
 20
-163.04825495924305
 42
0.2709463975677943
 10
60.951745040756954
 20
-163.91649777705632
 42
0.06414042354739825
 10
61.6
 20
-164.0
 10
66.0
 20
-164.0
 42
-0.03050806371292751
 10
67.32863135331992
 20
-164.0811434635818
 42
-0.04762396224118295
 10
68.625
 20
-164.3671875
 42
-0.04819706629041033
 10
69.62317234404625
 20
-164.79944221191437
 42
-0.06212113590743981
 10
70.5
 20
-165.4375
 42
-0.061958404445014326
 10
71.16285486161908
 20
-166.23430497729245
 42
-0.05447133079678962
 10
71.625
 20
-167.1640625
 42
-0.05256542248904484
 10
71.91539933934654
 20
-168.3137073350232
 42
-0.03561236159544067
 10
72.0
 20
-169.5
 42
-0.04401560177153985
 10
71.89487000806143
 20
-170.69192186050697
 42
-0.05660162380217123
 10
71.5546875
 20
-171.8359375
 42
-0.05512657896704169
 10
71.03009523106182
 20
-172.7688380041062
 42
-0.05641463557447821
 10
70.3125
 20
-173.5625
 42
-0.11004055768949175
 10
68.30325294876943
 20
-174.67003916617605
 42
-0.07126551979294252
 10
66.0
 20
-175.0
 42
-0.025866437764922576
 10
64.29586980863981
 20
-174.91178142028897
 42
-0.04415544754713437
 10
62.625
 20
-174.5875
 42
-0.04898114370382958
 10
61.23536531979983
 20
-174.0359495390648
 42
-0.0596638358534216
 10
60.0
 20
-173.2
  0
LWPOLYLINE
  5
9B
330
17
100
AcDbEntity
  8
ID_CUT_SINGLELINE
100
AcDbPolyline
 90
2
 70
0
 10
76.0
 20
-165.0
 10
84.0
 20
-165.0
  0
LWPOLYLINE
  5
9C
330
17
100
AcDbEntity
  8
ID_CUT_SINGLELINE
100
AcDbPolyline
 90
14
 70
0
 10
99.0
 20
-155.0
 10
99.0
 20
-169.0
 42
-0.030508063712927507
 10
98.9188565364182
 20
-170.32863135331993
 42
-0.04762396224118283
 10
98.6328125
 20
-171.625
 42
-0.04819706629041039
 10
98.20055778808563
 20
-172.62317234404625
 42
-0.06212113590743995
 10
97.5625
 20
-173.5
 42
-0.06195840444501427
 10
96.76569502270755
 20
-174.16285486161908
 42
-0.05447133079678959
 10
95.8359375
 20
-174.625
 42
-0.05256542248904477
 10
94.68629266497682
 20
-174.91539933934655
 42
-0.035612361595440546
 10
93.5
 20
-175.0
 42
-0.0702844927307322
 10
91.31919480793543
 20
-174.69192456174935
 42
-0.1181077925319903
 10
89.4375
 20
-173.625
 42
-0.11856467970811091
 10
88.34681581184097
 20
-171.97412485762436
 42
-0.08717288532595041
 10
88.0
 20
-170.0
  0
LWPOLYLINE
  5
9D
330
17
100
AcDbEntity
  8
ID_CUT_SINGLELINE
100
AcDbPolyline
 90
10
 70
0
 10
104.02114873670455
 20
-158.6616202127273
 10
107.38368248719885
 20
-155.299086462233
 42
-0.01866355246877764
 10
107.5326360668173
 20
-155.16085635357058
 42
-0.05618179601604381
 10
107.69958426059054
 20
-155.04700648488534
 42
-0.060637822540961346
 10
107.81120869522091
 20
-155.00433517064616
 42
-0.32956244656061684
 10
108.01185763973989
 20
-155.08744668474176
 42
-0.060637822540958376
 10
108.06061485875247
 20
-155.19655025507566
 42
-0.05618179601604157
 10
108.09816104449183
 20
-155.39510446918413
 42
-0.018663552468782433
 10
108.10574368352272
 20
-155.59817400261366
 10
108.10574368352272
 20
-175.0
  0
LWPOLYLINE
  5
9E
330
17
100
AcDbEntity
  8
ID_CUT_SINGLELINE
100
AcDbPolyline
 90
2
 70
0
 10
103.0
 20
-175.0
 10
113.21148736704544
 20
-175.0
  0
LWPOLYLINE
  5
9F
330
17
100
AcDbEntity
  8
ID_CUT_SINGLELINE
100
AcDbPolyline
 90
2
 70
0
 10
117.21148736704544
 20
-165.0
 10
125.21148736704544
 20
-165.0
  0
LWPOLYLINE
  5
A0
330
17
100
AcDbEntity
  8
ID_CUT_SINGLELINE
100
AcDbPolyline
 90
12
 70
0
 10
141.07571932701654
 20
-163.5
 42
0.0268497110385339
 10
140.82608485953816
 20
-161.7840601391165
 42
0.03162545870687547
 10
140.37824013127064
 20
-160.109890125442
 42
0.030497226355529705
 10
139.81218983413694
 20
-158.71535725366567
 42
0.040709699081207515
 10
139.05512479015258
 20
-157.41712455594845
 42
0.08607648334181305
 10
137.36056930086087
 20
-155.70774141551703
 42
0.31923873900472066
 10
132.92663739320113
 20
-155.70774141551703
 42
0.08607648334181293
 10
131.2320819039094
 20
-157.41712455594845
 42
0.04070969908120749
 10
130.47501685992506
 20
-158.71535725366567
 42
0.030497226355529344
 10
129.90896656279133
 20
-160.109890125442
 42
0.03162545870687513
 10
129.46112183452385
 20
-161.7840601391165
 42
0.026849711038533883
 10
129.21148736704544
 20
-163.5
  0
LWPOLYLINE
  5
A1
330
17
100
AcDbEntity
  8
ID_CUT_SINGLELINE
100
AcDbPolyline
 90
12
 70
0
 10
129.21148736704544
 20
-166.5
 42
0.026849711038533883
 10
129.46112183452382
 20
-168.2159398608835
 42
0.03162545870687524
 10
129.90896656279133
 20
-169.890109874558
 42
0.0304972263555289
 10
130.47501685992506
 20
-171.28464274633433
 42
0.04070969908120682
 10
131.2320819039094
 20
-172.58287544405155
 42
0.08607648334181317
 10
132.92663739320113
 20
-174.29225858448297
 42
0.3192387390047211
 10
137.36056930086087
 20
-174.29225858448297
 42
0.08607648334181274
 10
139.05512479015258
 20
-172.58287544405155
 42
0.040709699081206474
 10
139.81218983413694
 20
-171.28464274633433
 42
0.030497226355528248
 10
140.37824013127064
 20
-169.890109874558
 42
0.03162545870687546
 10
140.82608485953816
 20
-168.2159398608835
 42
0.0268497110385339
 10
141.07571932701654
 20
-166.5
  0
LWPOLYLINE
  5
A2
330
17
100
AcDbEntity
  8
ID_CUT_SINGLELINE
100
AcDbPolyline
 90
16
 70
0
 10
154.96257929365913
 20
-163.5
 42
0.022340412224689413
 10
154.75573848020292
 20
-161.79017080297217
 42
0.027093516698145997
 10
154.38134663053756
 20
-160.109890125442
 42
0.025975286343047105
 10
153.91504160424313
 20
-158.72756420340636
 42
0.03738737434303053
 10
153.27875051293915
 20
-157.41712455594845
 42
0.03708228578138053
 10
152.6172108713061
 20
-156.45201119710356
 42
0.062490676402211454
 10
151.78221128987045
 20
-155.64079670848068
 42
0.06843023127817405
 10
150.94921877173172
 20
-155.17541887020695
 42
0.1886083539868552
 10
149.08907984894395
 20
-155.17541887020695
 42
0.06843023127817582
 10
148.25608733080526
 20
-155.64079670848068
 42
0.06249067640221123
 10
147.4210877493696
 20
-156.45201119710356
 42
0.03708228578138039
 10
146.75954810773652
 20
-157.41712455594845
 42
0.037387374343031306
 10
146.12325701643255
 20
-158.72756420340636
 42
0.02597528634304755
 10
145.65695199013814
 20
-160.109890125442
 42
0.027093516698146455
 10
145.28256014047275
 20
-161.79017080297217
 42
0.0223404122246895
 10
145.07571932701654
 20
-163.5
  0
LWPOLYLINE
  5
A3
330
17
100
AcDbEntity
  8
ID_CUT_SINGLELINE
100
AcDbPolyline
 90
16
 70
0
 10
145.07571932701654
 20
-166.5
 42
0.0223404122246895
 10
145.28256014047275
 20
-168.20982919702783
 42
0.027093516698146566
 10
145.6569519901381
 20
-169.890109874558
 42
0.025975286343046883
 10
146.12325701643255
 20
-171.27243579659364
 42
0.03738737434303053
 10
146.75954810773652
 20
-172.58287544405155
 42
0.037082285781380835
 10
147.4210877493696
 20
-173.54798880289644
 42
0.06249067640221123
 10
148.25608733080523
 20
-174.35920329151932
 42
0.06843023127817471
 10
149.08907984894395
 20
-174.82458112979305
 42
0.1886083539868538
 10
150.94921877173172
 20
-174.82458112979305
 42
0.06843023127817482
 10
151.78221128987045
 20
-174.35920329151932
 42
0.062490676402211176
 10
152.6172108713061
 20
-173.54798880289644
 42
0.0370822857813805
 10
153.27875051293915
 20
-172.58287544405155
 42
0.03738737434303047
 10
153.91504160424313
 20
-171.27243579659364
 42
0.025975286343046897
 10
154.38134663053756
 20
-169.890109874558
 42
0.027093516698145984
 10
154.75573848020292
 20
-168.20982919702786
 42
0.022340412224689413
 10
154.96257929365913
 20
-166.5
  0
LWPOLYLINE
  5
A4
330
17
100
AcDbEntity
  8
ID_CUT_SINGLELINE
100
AcDbPolyline
 90
2
 70
0
 10
148.01914931033784
 20
-170.0
 10
152.01914931033784
 20
-160.0
  0
ENDSEC
  0
SECTION
  2
OBJECTS
  0
DICTIONARY
  5
A
330
0
100
AcDbDictionary
281
1
  3
ACAD_COLOR
350
B
  3
ACAD_GROUP
350
C
  3
ACAD_LAYOUT
350
D
  3
ACAD_MATERIAL
350
E
  3
ACAD_MLEADERSTYLE
350
F
  3
ACAD_MLINESTYLE
350
10
  3
ACAD_PLOTSETTINGS
350
11
  3
ACAD_PLOTSTYLENAME
350
12
  3
ACAD_SCALELIST
350
14
  3
ACAD_TABLESTYLE
350
15
  3
ACAD_VISUALSTYLE
350
16
  3
EZDXF_META
350
2D
  0
DICTIONARY
  5
B
330
A
100
AcDbDictionary
281
1
  0
DICTIONARY
  5
C
330
A
100
AcDbDictionary
281
1
  0
DICTIONARY
  5
D
330
A
100
AcDbDictionary
281
1
  3
Model
350
1A
  3
Layout1
350
1E
  0
DICTIONARY
  5
E
330
A
100
AcDbDictionary
281
1
  3
ByBlock
350
1F
  3
ByLayer
350
20
  3
Global
350
21
  0
DICTIONARY
  5
F
330
A
100
AcDbDictionary
281
1
  3
Standard
350
2C
  0
DICTIONARY
  5
10
330
A
100
AcDbDictionary
281
1
  3
Standard
350
22
  0
DICTIONARY
  5
11
330
A
100
AcDbDictionary
281
1
  0
ACDBDICTIONARYWDFLT
  5
12
330
A
100
AcDbDictionary
281
1
  3
Normal
350
13
100
AcDbDictionaryWithDefault
340
13
  0
ACDBPLACEHOLDER
  5
13
330
12
  0
DICTIONARY
  5
14
330
A
100
AcDbDictionary
281
1
  0
DICTIONARY
  5
15
330
A
100
AcDbDictionary
281
1
  0
DICTIONARY
  5
16
330
A
100
AcDbDictionary
281
1
  0
LAYOUT
  5
1A
330
D
100
AcDbPlotSettings
  1

  4
A3
  6

 40
7.5
 41
20.0
 42
7.5
 43
20.0
 44
420.0
 45
297.0
 46
0.0
 47
0.0
 48
0.0
 49
0.0
140
0.0
141
0.0
142
1.0
143
1.0
 70
1024
 72
1
 73
0
 74
5
  7

 75
16
 76
0
 77
2
 78
300
147
1.0
148
0.0
149
0.0
100
AcDbLayout
  1
Model
 70
1
 71
0
 10
0.0
 20
0.0
 11
420.0
 21
297.0
 12
0.0
 22
0.0
 32
0.0
 14
1e+20
 24
1e+20
 34
1e+20
 15
-1e+20
 25
-1e+20
 35
-1e+20
146
0.0
 13
0.0
 23
0.0
 33
0.0
 16
1.0
 26
0.0
 36
0.0
 17
0.0
 27
1.0
 37
0.0
 76
1
330
17
  0
LAYOUT
  5
1E
330
D
100
AcDbPlotSettings
  1

  4
A3
  6

 40
7.5
 41
20.0
 42
7.5
 43
20.0
 44
420.0
 45
297.0
 46
0.0
 47
0.0
 48
0.0
 49
0.0
140
0.0
141
0.0
142
1.0
143
1.0
 70
0
 72
1
 73
0
 74
5
  7

 75
16
 76
0
 77
2
 78
300
147
1.0
148
0.0
149
0.0
100
AcDbLayout
  1
Layout1
 70
1
 71
1
 10
0.0
 20
0.0
 11
420.0
 21
297.0
 12
0.0
 22
0.0
 32
0.0
 14
1e+20
 24
1e+20
 34
1e+20
 15
-1e+20
 25
-1e+20
 35
-1e+20
146
0.0
 13
0.0
 23
0.0
 33
0.0
 16
1.0
 26
0.0
 36
0.0
 17
0.0
 27
1.0
 37
0.0
 76
1
330
1B
  0
MATERIAL
  5
1F
102
{ACAD_REACTORS
330
E
102
}
330
E
100
AcDbMaterial
  1
ByBlock
  2

 70
0
 40
1.0
 71
1
 41
1.0
 91
-1023410177
 42
1.0
 72
1
  3

 73
1
 74
1
 75
1
 44
0.5
 73
0
 45
1.0
 46
1.0
 77
1
  4

 78
1
 79
1
170
1
 48
1.0
171
1
  6

172
1
173
1
174
1
140
1.0
141
1.0
175
1
  7

176
1
177
1
178
1
143
1.0
179
1
  8

270
1
271
1
272
1
145
1.0
146
1.0
273
1
  9

274
1
275
1
276
1
 42
1.0
 72
1
  3

 73
1
 74
1
 75
1
 94
63
  0
MATERIAL
  5
20
102
{ACAD_REACTORS
330
E
102
}
330
E
100
AcDbMaterial
  1
ByLayer
  2

 70
0
 40
1.0
 71
1
 41
1.0
 91
-1023410177
 42
1.0
 72
1
  3

 73
1
 74
1
 75
1
 44
0.5
 73
0
 45
1.0
 46
1.0
 77
1
  4

 78
1
 79
1
170
1
 48
1.0
171
1
  6

172
1
173
1
174
1
140
1.0
141
1.0
175
1
  7

176
1
177
1
178
1
143
1.0
179
1
  8

270
1
271
1
272
1
145
1.0
146
1.0
273
1
  9

274
1
275
1
276
1
 42
1.0
 72
1
  3

 73
1
 74
1
 75
1
 94
63
  0
MATERIAL
  5
21
102
{ACAD_REACTORS
330
E
102
}
330
E
100
AcDbMaterial
  1
Global
  2

 70
0
 40
1.0
 71
1
 41
1.0
 91
-1023410177
 42
1.0
 72
1
  3

 73
1
 74
1
 75
1
 44
0.5
 73
0
 45
1.0
 46
1.0
 77
1
  4

 78
1
 79
1
170
1
 48
1.0
171
1
  6

172
1
173
1
174
1
140
1.0
141
1.0
175
1
  7

176
1
177
1
178
1
143
1.0
179
1
  8

270
1
271
1
272
1
145
1.0
146
1.0
273
1
  9

274
1
275
1
276
1
 42
1.0
 72
1
  3

 73
1
 74
1
 75
1
 94
63
  0
MLINESTYLE
  5
22
102
{ACAD_REACTORS
330
10
102
}
330
10
100
AcDbMlineStyle
  2
Standard
 70
0
  3

 62
256
 51
90.0
 52
90.0
 71
2
 49
0.5
 62
256
  6
BYLAYER
 49
-0.5
 62
256
  6
BYLAYER
  0
MLEADERSTYLE
  5
2C
102
{ACAD_REACTORS
330
F
102
}
330
F
100
AcDbMLeaderStyle
179
2
170
2
171
1
172
0
 90
2
 40
0.0
 41
0.0
173
1
 91
-1056964608
 92
-2
290
1
 42
2.0
291
1
 43
8.0
  3
Standard
 44
4.0
300

342
29
174
1
175
1
176
0
178
1
 93
-1056964608
 45
4.0
292
0
297
0
 46
4.0
 94
-1056964608
 47
1.0
 49
1.0
140
1.0
294
1
141
0.0
177
0
142
1.0
295
0
296
0
143
3.75
271
0
272
9
273
9
  0
DICTIONARY
  5
2D
330
A
100
AcDbDictionary
280
1
281
1
  3
CREATED_BY_EZDXF
350
2E
  3
WRITTEN_BY_EZDXF
350
A7
  0
DICTIONARYVAR
  5
2E
330
2D
100
DictionaryVariables
280
0
  1
1.4.2 @ 2026-09-19T06:44:38.328892+00:00
  0
DICTIONARYVAR
  5
A7
330
2D
100
DictionaryVariables
280
0
  1
1.4.2 @ 2026-09-19T06:44:38.352154+00:00
  0
ENDSEC
  0
EOF
