  0
SECTION
  2
HEADER
  9
$ACADVER
  1
AC1024
  9
$ACADMAINTVER
 70
6
  9
$DWGCODEPAGE
  3
ANSI_1252
  9
$LASTSAVEDBY
  1
ezdxf
  9
$INSBASE
 10
0.0
 20
0.0
 30
0.0
  9
$EXTMIN
 10
1e+20
 20
1e+20
 30
1e+20
  9
$EXTMAX
 10
-1e+20
 20
-1e+20
 30
-1e+20
  9
$LIMMIN
 10
0.0
 20
0.0
  9
$LIMMAX
 10
420.0
 20
297.0
  9
$ORTHOMODE
 70
0
  9
$REGENMODE
 70
1
  9
$FILLMODE
 70
1
  9
$QTEXTMODE
 70
0
  9
$MIRRTEXT
 70
1
  9
$LTSCALE
 40
1.0
  9
$ATTMODE
 70
1
  9
$TEXTSIZE
 40
2.5
  9
$TRACEWID
 40
1.0
  9
$TEXTSTYLE
  7
Standard
  9
$CLAYER
  8
0
  9
$CELTYPE
  6
ByLayer
  9
$CECOLOR
 62
256
  9
$CELTSCALE
 40
1.0
  9
$DISPSILH
 70
0
  9
$DIMSCALE
 40
1.0
  9
$DIMASZ
 40
2.5
  9
$DIMEXO
 40
0.625
  9
$DIMDLI
 40
3.75
  9
$DIMRND
 40
0.0
  9
$DIMDLE
 40
0.0
  9
$DIMEXE
 40
1.25
  9
$DIMTP
 40
0.0
  9
$DIMTM
 40
0.0
  9
$DIMTXT
 40
2.5
  9
$DIMCEN
 40
2.5
  9
$DIMTSZ
 40
0.0
  9
$DIMTOL
 70
0
  9
$DIMLIM
 70
0
  9
$DIMTIH
 70
0
  9
$DIMTOH
 70
0
  9
$DIMSE1
 70
0
  9
$DIMSE2
 70
0
  9
$DIMTAD
 70
1
  9
$DIMZIN
 70
8
  9
$DIMBLK
  1

  9
$DIMASO
 70
1
  9
$DIMSHO
 70
1
  9
$DIMPOST
  1

  9
$DIMAPOST
  1

  9
$DIMALT
 70
0
  9
$DIMALTD
 70
3
  9
$DIMALTF
 40
0.03937007874
  9
$DIMLFAC
 40
1.0
  9
$DIMTOFL
 70
1
  9
$DIMTVP
 40
0.0
  9
$DIMTIX
 70
0
  9
$DIMSOXD
 70
0
  9
$DIMSAH
 70
0
  9
$DIMBLK1
  1

  9
$DIMBLK2
  1

  9
$DIMSTYLE
  2
ISO-25
  9
$DIMCLRD
 70
0
  9
$DIMCLRE
 70
0
  9
$DIMCLRT
 70
0
  9
$DIMTFAC
 40
1.0
  9
$DIMGAP
 40
0.625
  9
$DIMJUST
 70
0
  9
$DIMSD1
 70
0
  9
$DIMSD2
 70
0
  9
$DIMTOLJ
 70
0
  9
$DIMTZIN
 70
8
  9
$DIMALTZ
 70
0
  9
$DIMALTTZ
 70
0
  9
$DIMUPT
 70
0
  9
$DIMDEC
 70
2
  9
$DIMTDEC
 70
2
  9
$DIMALTU
 70
2
  9
$DIMALTTD
 70
3
  9
$DIMTXSTY
  7
Standard
  9
$DIMAUNIT
 70
0
  9
$DIMADEC
 70
0
  9
$DIMALTRND
 40
0.0
  9
$DIMAZIN
 70
0
  9
$DIMDSEP
 70
44
  9
$DIMATFIT
 70
3
  9
$DIMFRAC
 70
0
  9
$DIMLDRBLK
  1

  9
$DIMLUNIT
 70
2
  9
$DIMLWD
 70
-2
  9
$DIMLWE
 70
-2
  9
$DIMTMOVE
 70
0
  9
$DIMFXL
 40
1.0
  9
$DIMFXLON
 70
0
  9
$DIMJOGANG
 40
0.785398163397
  9
$DIMTFILL
 70
0
  9
$DIMTFILLCLR
 70
0
  9
$DIMARCSYM
 70
0
  9
$DIMLTYPE
  6

  9
$DIMLTEX1
  6

  9
$DIMLTEX2
  6

  9
$DIMTXTDIRECTION
 70
0
  9
$LUNITS
 70
2
  9
$LUPREC
 70
4
  9
$SKETCHINC
 40
1.0
  9
$FILLETRAD
 40
10.0
  9
$AUNITS
 70
0
  9
$AUPREC
 70
2
  9
$MENU
  1
.
  9
$ELEVATION
 40
0.0
  9
$PELEVATION
 40
0.0
  9
$THICKNESS
 40
0.0
  9
$LIMCHECK
 70
0
  9
$CHAMFERA
 40
0.0
  9
$CHAMFERB
 40
0.0
  9
$CHAMFERC
 40
0.0
  9
$CHAMFERD
 40
0.0
  9
$SKPOLY
 70
0
  9
$TDCREATE
 40
2461323.333865741
  9
$TDUCREATE
 40
2458532.153996898
  9
$TDUPDATE
 40
2461323.333865741
  9
$TDUUPDATE
 40
2458532.1544311
  9
$TDINDWG
 40
0.0
  9
$TDUSRTIMER
 40
0.0
  9
$USRTIMER
 70
1
  9
$ANGBASE
 50
0.0
  9
$ANGDIR
 70
0
  9
$PDMODE
 70
0
  9
$PDSIZE
 40
0.0
  9
$PLINEWID
 40
0.0
  9
$SPLFRAME
 70
0
  9
$SPLINETYPE
 70
6
  9
$SPLINESEGS
 70
8
  9
$HANDSEED
  5
76
  9
$SURFTAB1
 70
6
  9
$SURFTAB2
 70
6
  9
$SURFTYPE
 70
6
  9
$SURFU
 70
6
  9
$SURFV
 70
6
  9
$UCSBASE
  2

  9
$UCSNAME
  2

  9
$UCSORG
 10
0.0
 20
0.0
 30
0.0
  9
$UCSXDIR
 10
1.0
 20
0.0
 30
0.0
  9
$UCSYDIR
 10
0.0
 20
1.0
 30
0.0
  9
$UCSORTHOREF
  2

  9
$UCSORTHOVIEW
 70
0
  9
$UCSORGTOP
 10
0.0
 20
0.0
 30
0.0
  9
$UCSORGBOTTOM
 10
0.0
 20
0.0
 30
0.0
  9
$UCSORGLEFT
 10
0.0
 20
0.0
 30
0.0
  9
$UCSORGRIGHT
 10
0.0
 20
0.0
 30
0.0
  9
$UCSORGFRONT
 10
0.0
 20
0.0
 30
0.0
  9
$UCSORGBACK
 10
0.0
 20
0.0
 30
0.0
  9
$PUCSBASE
  2

  9
$PUCSNAME
  2

  9
$PUCSORG
 10
0.0
 20
0.0
 30
0.0
  9
$PUCSXDIR
 10
1.0
 20
0.0
 30
0.0
  9
$PUCSYDIR
 10
0.0
 20
1.0
 30
0.0
  9
$PUCSORTHOREF
  2

  9
$PUCSORTHOVIEW
 70
0
  9
$PUCSORGTOP
 10
0.0
 20
0.0
 30
0.0
  9
$PUCSORGBOTTOM
 10
0.0
 20
0.0
 30
0.0
  9
$PUCSORGLEFT
 10
0.0
 20
0.0
 30
0.0
  9
$PUCSORGRIGHT
 10
0.0
 20
0.0
 30
0.0
  9
$PUCSORGFRONT
 10
0.0
 20
0.0
 30
0.0
  9
$PUCSORGBACK
 10
0.0
 20
0.0
 30
0.0
  9
$USERI1
 70
0
  9
$USERI2
 70
0
  9
$USERI3
 70
0
  9
$USERI4
 70
0
  9
$USERI5
 70
0
  9
$USERR1
 40
0.0
  9
$USERR2
 40
0.0
  9
$USERR3
 40
0.0
  9
$USERR4
 40
0.0
  9
$USERR5
 40
0.0
  9
$WORLDVIEW
 70
1
  9
$SHADEDGE
 70
3
  9
$SHADEDIF
 70
70
  9
$TILEMODE
 70
1
  9
$MAXACTVP
 70
64
  9
$PINSBASE
 10
0.0
 20
0.0
 30
0.0
  9
$PLIMCHECK
 70
0
  9
$PEXTMIN
 10
1e+20
 20
1e+20
 30
1e+20
  9
$PEXTMAX
 10
-1e+20
 20
-1e+20
 30
-1e+20
  9
$PLIMMIN
 10
0.0
 20
0.0
  9
$PLIMMAX
 10
420.0
 20
297.0
  9
$UNITMODE
 70
0
  9
$VISRETAIN
 70
1
  9
$PLINEGEN
 70
0
  9
$PSLTSCALE
 70
1
  9
$TREEDEPTH
 70
3020
  9
$CMLSTYLE
  2
Standard
  9
$CMLJUST
 70
0
  9
$CMLSCALE
 40
20.0
  9
$PROXYGRAPHICS
 70
1
  9
$MEASUREMENT
 70
1
  9
$CELWEIGHT
370
-1
  9
$ENDCAPS
280
0
  9
$JOINSTYLE
280
0
  9
$LWDISPLAY
290
0
  9
$INSUNITS
 70
4
  9
$HYPERLINKBASE
  1

  9
$STYLESHEET
  1

  9
$XEDIT
290
1
  9
$CEPSNTYPE
380
0
  9
$PSTYLEMODE
290
1
  9
$FINGERPRINTGUID
  2
{48E18375-39BC-4945-89AC-891363A890BE}
  9
$VERSIONGUID
  2
{0D3A71E2-0A05-4831-A57A-AD86EDEFA401}
  9
$EXTNAMES
290
1
  9
$PSVPSCALE
 40
0.0
  9
$OLESTARTUP
290
0
  9
$SORTENTS
280
127
  9
$INDEXCTL
280
0
  9
$HIDETEXT
280
1
  9
$XCLIPFRAME
280
1
  9
$HALOGAP
280
0
  9
$OBSCOLOR
 70
257
  9
$OBSLTYPE
280
0
  9
$INTERSECTIONDISPLAY
280
0
  9
$INTERSECTIONCOLOR
 70
257
  9
$DIMASSOC
280
2
  9
$PROJECTNAME
  1

  9
$CAMERADISPLAY
290
0
  9
$LENSLENGTH
 40
50.0
  9
$CAMERAHEIGHT
 40
0.0
  9
$STEPSPERSEC
 40
24.0
  9
$STEPSIZE
 40
100.0
  9
$3DDWFPREC
 40
2.0
  9
$PSOLWIDTH
 40
0.005
  9
$PSOLHEIGHT
 40
0.08
  9
$LOFTANG1
 40
1.570796326795
  9
$LOFTANG2
 40
1.570796326795
  9
$LOFTMAG1
 40
0.0
  9
$LOFTMAG2
 40
0.0
  9
$LOFTPARAM
 70
7
  9
$LOFTNORMALS
280
1
  9
$LATITUDE
 40
37.795
  9
$LONGITUDE
 40
-122.394
  9
$NORTHDIRECTION
 40
0.0
  9
$TIMEZONE
 70
-8000
  9
$LIGHTGLYPHDISPLAY
280
1
  9
$TILEMODELIGHTSYNCH
280
1
  9
$CMATERIAL
347
20
  9
$SOLIDHIST
280
0
  9
$SHOWHIST
280
1
  9
$DWFFRAME
280
2
  9
$DGNFRAME
280
2
  9
$REALWORLDSCALE
290
1
  9
$INTERFERECOLOR
 62
256
  9
$CSHADOW
280
0
  9
$SHADOWPLANELOCATION
 40
0.0
  0
ENDSEC
  0
SECTION
  2
CLASSES
  0
CLASS
  1
ACDBDICTIONARYWDFLT
  2
AcDbDictionaryWithDefault
  3
ObjectDBX Classes
 90
0
 91
0
280
0
281
0
  0
CLASS
  1
SUN
  2
AcDbSun
  3
SCENEOE
 90
1153
 91
0
280
0
281
0
  0
CLASS
  1
VISUALSTYLE
  2
AcDbVisualStyle
  3
ObjectDBX Classes
 90
4095
 91
0
280
0
281
0
  0
CLASS
  1
MATERIAL
  2
AcDbMaterial
  3
ObjectDBX Classes
 90
1153
 91
0
280
0
281
0
  0
CLASS
  1
SCALE
  2
AcDbScale
  3
ObjectDBX Classes
 90
1153
 91
0
280
0
281
0
  0
CLASS
  1
TABLESTYLE
  2
AcDbTableStyle
  3
ObjectDBX Classes
 90
4095
 91
0
280
0
281
0
  0
CLASS
  1
MLEADERSTYLE
  2
AcDbMLeaderStyle
  3
ACDB_MLEADERSTYLE_CLASS
 90
4095
 91
0
280
0
281
0
  0
CLASS
  1
DICTIONARYVAR
  2
AcDbDictionaryVar
  3
ObjectDBX Classes
 90
0
 91
0
280
0
281
0
  0
CLASS
  1
CELLSTYLEMAP
  2
AcDbCellStyleMap
  3
ObjectDBX Classes
 90
1152
 91
0
280
0
281
0
  0
CLASS
  1
MENTALRAYRENDERSETTINGS
  2
AcDbMentalRayRenderSettings
  3
SCENEOE
 90
1024
 91
0
280
0
281
0
  0
CLASS
  1
ACDBDETAILVIEWSTYLE
  2
AcDbDetailViewStyle
  3
ObjectDBX Classes
 90
1025
 91
0
280
0
281
0
  0
CLASS
  1
ACDBSECTIONVIEWSTYLE
  2
AcDbSectionViewStyle
  3
ObjectDBX Classes
 90
1025
 91
0
280
0
281
0
  0
CLASS
  1
RASTERVARIABLES
  2
AcDbRasterVariables
  3
ISM
 90
0
 91
0
280
0
281
0
  0
CLASS
  1
ACDBPLACEHOLDER
  2
AcDbPlaceHolder
  3
ObjectDBX Classes
 90
0
 91
0
280
0
281
0
  0
CLASS
  1
LAYOUT
  2
AcDbLayout
  3
ObjectDBX Classes
 90
0
 91
0
280
0
281
0
  0
ENDSEC
  0
SECTION
  2
TABLES
  0
TABLE
  2
VPORT
  5
8
330
0
100
AcDbSymbolTable
 70
1
  0
VPORT
  5
23
330
8
100
AcDbSymbolTableRecord
100
AcDbViewportTableRecord
  2
*Active
 70
0
 10
0.0
 20
0.0
 11
1.0
 21
1.0
 12
0.0
 22
0.0
 13
0.0
 23
0.0
 14
0.5
 24
0.5
 15
0.5
 25
0.5
 16
0.0
 26
0.0
 36
1.0
 17
0.0
 27
0.0
 37
0.0
 40
1000.0
 41
1.34
 42
50.0
 43
0.0
 44
0.0
 50
0.0
 51
0.0
 71
0
 72
1000
 73
1
 74
3
 75
0
 76
0
 77
0
 78
0
281
0
 65
0
146
0.0
  0
ENDTAB
  0
TABLE
  2
LTYPE
  5
2
330
0
100
AcDbSymbolTable
 70
3
  0
LTYPE
  5
24
330
2
100
AcDbSymbolTableRecord
100
AcDbLinetypeTableRecord
  2
ByBlock
 70
0
  3

 72
65
 73
0
 40
0.0
  0
LTYPE
  5
25
330
2
100
AcDbSymbolTableRecord
100
AcDbLinetypeTableRecord
  2
ByLayer
 70
0
  3

 72
65
 73
0
 40
0.0
  0
LTYPE
  5
26
330
2
100
AcDbSymbolTableRecord
100
AcDbLinetypeTableRecord
  2
Continuous
 70
0
  3

 72
65
 73
0
 40
0.0
  0
ENDTAB
  0
TABLE
  2
LAYER
  5
1
330
0
100
AcDbSymbolTable
 70
3
  0
LAYER
  5
27
330
1
100
AcDbSymbolTableRecord
100
AcDbLayerTableRecord
  2
0
 70
0
 62
7
  6
Continuous
370
-3
390
13
347
21
  0
LAYER
  5
28
330
1
100
AcDbSymbolTableRecord
100
AcDbLayerTableRecord
  2
Defpoints
 70
0
 62
7
  6
Continuous
290
0
370
-3
390
13
347
21
  0
LAYER
  5
2F
330
1
100
AcDbSymbolTableRecord
100
AcDbLayerTableRecord
  2
ID_CUT_SINGLELINE
 70
0
 62
3
  6
Continuous
370
0
390
13
347
21
  0
ENDTAB
  0
TABLE
  2
STYLE
  5
5
330
0
100
AcDbSymbolTable
 70
1
  0
STYLE
  5
29
330
5
100
AcDbSymbolTableRecord
100
AcDbTextStyleTableRecord
  2
Standard
 70
0
 40
0.0
 41
1.0
 50
0.0
 71
0
 42
2.5
  3
txt
  4

  0
ENDTAB
  0
TABLE
  2
VIEW
  5
7
330
0
100
AcDbSymbolTable
 70
0
  0
ENDTAB
  0
TABLE
  2
UCS
  5
6
330
0
100
AcDbSymbolTable
 70
0
  0
ENDTAB
  0
TABLE
  2
APPID
  5
3
330
0
100
AcDbSymbolTable
 70
3
  0
APPID
  5
2A
330
3
100
AcDbSymbolTableRecord
100
AcDbRegAppTableRecord
  2
ACAD
 70
0
  0
APPID
  5
73
330
3
100
AcDbSymbolTableRecord
100
AcDbRegAppTableRecord
  2
HATCHBACKGROUNDCOLOR
 70
0
  0
APPID
  5
74
330
3
100
AcDbSymbolTableRecord
100
AcDbRegAppTableRecord
  2
EZDXF
 70
0
  0
ENDTAB
  0
TABLE
  2
DIMSTYLE
  5
4
330
0
100
AcDbSymbolTable
 70
1
100
AcDbDimStyleTable
  0
DIMSTYLE
105
2B
330
4
100
AcDbSymbolTableRecord
100
AcDbDimStyleTableRecord
  2
Standard
 70
0
 40
1.0
 41
2.5
 42
0.625
 43
3.75
 44
1.25
 45
0.0
 46
0.0
 47
0.0
 48
0.0
 49
2.5
140
2.5
141
2.5
142
0.0
143
0.03937007874
144
1.0
145
0.0
146
1.0
147
0.625
148
0.0
 69
0
 70
0
 71
0
 72
0
 73
0
 74
0
 75
0
 76
0
 77
1
 78
8
 79
3
170
0
171
3
172
1
173
0
174
0
175
0
176
0
177
0
178
0
179
2
271
2
272
2
273
2
274
3
275
0
276
0
277
2
278
44
279
0
280
0
281
0
282
0
283
0
284
8
285
0
286
0
288
0
289
3
290
0
371
-2
372
-2
  0
ENDTAB
  0
TABLE
  2
BLOCK_RECORD
  5
9
330
0
100
AcDbSymbolTable
 70
2
  0
BLOCK_RECORD
  5
17
330
9
100
AcDbSymbolTableRecord
100
AcDbBlockTableRecord
  2
*Model_Space
340
1A
 70
0
280
1
281
0
  0
BLOCK_RECORD
  5
1B
330
9
100
AcDbSymbolTableRecord
100
AcDbBlockTableRecord
  2
*Paper_Space
340
1E
 70
0
280
1
281
0
  0
ENDTAB
  0
ENDSEC
  0
SECTION
  2
BLOCKS
  0
BLOCK
  5
18
330
17
100
AcDbEntity
  8
0
100
AcDbBlockBegin
  2
*Model_Space
 70
0
 10
0.0
 20
0.0
 30
0.0
  3
*Model_Space
  1

  0
ENDBLK
  5
19
330
17
100
AcDbEntity
  8
0
100
AcDbBlockEnd
  0
BLOCK
  5
1C
330
1B
100
AcDbEntity
  8
0
100
AcDbBlockBegin
  2
*Paper_Space
 70
0
 10
0.0
 20
0.0
 30
0.0
  3
*Paper_Space
  1

  0
ENDBLK
  5
1D
330
1B
100
AcDbEntity
  8
0
100
AcDbBlockEnd
  0
ENDSEC
  0
SECTION
  2
ENTITIES
  0
LWPOLYLINE
  5
30
102
{ACAD_REACTORS
330
36
102
}
330
17
100
AcDbEntity
  8
ID_CUT_SINGLELINE
100
AcDbPolyline
 90
2
 70
0
 10
1.5
 20
0.0
 10
1.5
 20
5.0
  0
LWPOLYLINE
  5
31
102
{ACAD_REACTORS
330
36
102
}
330
17
100
AcDbEntity
  8
ID_CUT_SINGLELINE
100
AcDbPolyline
 90
3
 70
0
 10
0.0
 20
3.5
 10
1.5
 20
5.0
 10
3.0
 20
3.5
  0
LWPOLYLINE
  5
32
102
{ACAD_REACTORS
330
36
102
}
330
17
100
AcDbEntity
  8
ID_CUT_SINGLELINE
100
AcDbPolyline
 90
2
 70
0
 10
4.5
 20
0.0
 10
4.5
 20
5.0
  0
LWPOLYLINE
  5
33
102
{ACAD_REACTORS
330
36
102
}
330
17
100
AcDbEntity
  8
ID_CUT_SINGLELINE
100
AcDbPolyline
 90
2
 70
0
 10
7.5
 20
0.0
 10
7.5
 20
5.0
  0
LWPOLYLINE
  5
34
102
{ACAD_REACTORS
330
36
102
}
330
17
100
AcDbEntity
  8
ID_CUT_SINGLELINE
100
AcDbPolyline
 90
2
 70
0
 10
4.5
 20
2.5
 10
7.5
 20
2.5
  0
LWPOLYLINE
  5
35
102
{ACAD_REACTORS
330
36
102
}
330
17
100
AcDbEntity
  8
ID_CUT_SINGLELINE
100
AcDbPolyline
 90
40
 70
0
 10
8.5
 20
4.5
 42
-0.06396421538447927
 10
8.80416224935804
 20
4.734915554479521
 42
-0.056812134225309015
 10
9.15625
 20
4.890625
 42
-0.049101360727830425
 10
9.573254805150404
 20
4.97722499196786
 42
-0.026665577104297657
 10
10.0
 20
5.0
 42
-0.06662202108809176
 10
10.568830203599505
 20
4.923868856761329
 42
-0.09699037073851587
 10
11.078125
 20
4.671875
 42
-0.10185421839230656
 10
11.38351113084919
 20
4.320111427467899
 42
-0.12868663581553266
 10
11.5
 20
3.875
 42
-0.08029347599129652
 10
11.4803802402344
 20
3.753612364802533
 42
-0.07387628606780058
 10
11.4248046875
 20
3.6436523437500004
 42
-0.06134328547247083
 10
11.334482422508232
 20
3.5443325035890862
 42
-0.03306890438336148
 10
11.2265625
 20
3.46328125
 42
-0.04783509701919549
 10
10.93370777759516
 20
3.309904832078422
 42
-0.004680474745750446
 10
10.625
 20
3.1875
 42
0.004680474745750446
 10
10.31629222240484
 20
3.065095167921578
 42
0.047835097019195465
 10
10.0234375
 20
2.91171875
 42
0.03306890438336156
 10
9.915517577491768
 20
2.8306674964109138
 42
0.06134328547247083
 10
9.8251953125
 20
2.7313476562499996
 42
0.0738762860678006
 10
9.7696197597656
 20
2.621387635197467
 42
0.16162898085694452
 10
9.7696197597656
 20
2.378612364802533
 42
0.0738762860678006
 10
9.8251953125
 20
2.2686523437500004
 42
0.06134328547247083
 10
9.915517577491768
 20
2.1693325035890862
 42
0.03306890438336156
 10
10.0234375
 20
2.08828125
 42
0.04783509701919541
 10
10.31629222240484
 20
1.934904832078422
 42
0.004680474745750002
 10
10.625
 20
1.8125
 42
-0.004680474745749947
 10
10.93370777759516
 20
1.690095167921578
 42
-0.04783509701919527
 10
11.2265625
 20
1.53671875
 42
-0.0330689043833605
 10
11.334482422508232
 20
1.4556674964109138
 42
-0.061343285472470664
 10
11.4248046875
 20
1.3563476562499999
 42
-0.07387628606780022
 10
11.4803802402344
 20
1.246387635197467
 42
-0.08029347599129652
 10
11.5
 20
1.125
 42
-0.1286866358155327
 10
11.38351113084919
 20
0.679888572532101
 42
-0.10185421839230667
 10
11.078125
 20
0.328125
 42
-0.0969903707385162
 10
10.568830203599505
 20
0.0761311432386713
 42
-0.06662202108809215
 10
10.0
 20
0.0
 42
-0.026665577104297376
 10
9.573254805150404
 20
0.02277500803213938
 42
-0.0491013607278302
 10
9.15625
 20
0.109375
 42
-0.05681213422530907
 10
8.80416224935804
 20
0.26508444552047916
 42
-0.06396421538447938
 10
8.5
 20
0.5
  0
LWPOLYLINE
  5
37
102
{ACAD_REACTORS
330
3D
102
}
330
17
100
AcDbEntity
  8
ID_CUT_SINGLELINE
100
AcDbPolyline
 90
2
 70
0
 10
1.5
 20
-10.0
 10
1.5
 20
-5.0
  0
LWPOLYLINE
  5
38
102
{ACAD_REACTORS
330
3D
102
}
330
17
100
AcDbEntity
  8
ID_CUT_SINGLELINE
100
AcDbPolyline
 90
3
 70
0
 10
0.0
 20
-6.5
 10
1.5
 20
-5.0
 10
3.0
 20
-6.5
  0
LWPOLYLINE
  5
39
102
{ACAD_REACTORS
330
3D
102
}
330
17
100
AcDbEntity
  8
ID_CUT_SINGLELINE
100
AcDbPolyline
 90
2
 70
0
 10
4.5
 20
-5.000000000000001
 10
6.5
 20
-5.000000000000001
  0
LWPOLYLINE
  5
3A
102
{ACAD_REACTORS
330
3D
102
}
330
17
100
AcDbEntity
  8
ID_CUT_SINGLELINE
100
AcDbPolyline
 90
2
 70
0
 10
5.5
 20
-5.000000000000001
 10
5.5
 20
-10.0
  0
LWPOLYLINE
  5
3B
102
{ACAD_REACTORS
330
3D
102
}
330
17
100
AcDbEntity
  8
ID_CUT_SINGLELINE
100
AcDbPolyline
 90
2
 70
0
 10
4.5
 20
-10.0
 10
6.5
 20
-10.0
  0
LWPOLYLINE
  5
3C
102
{ACAD_REACTORS
330
3D
102
}
330
17
100
AcDbEntity
  8
ID_CUT_SINGLELINE
100
AcDbPolyline
 90
40
 70
0
 10
7.5
 20
-5.5
 42
-0.06396421538447927
 10
7.804162249358038
 20
-5.265084445520479
 42
-0.056812134225309015
 10
8.15625
 20
-5.109375
 42
-0.049101360727830425
 10
8.573254805150404
 20
-5.02277500803214
 42
-0.026665577104297657
 10
9.0
 20
-5.0
 42
-0.06662202108809176
 10
9.568830203599504
 20
-5.076131143238671
 42
-0.09699037073851587
 10
10.078125
 20
-5.328125
 42
-0.10185421839230656
 10
10.38351113084919
 20
-5.679888572532101
 42
-0.12868663581553266
 10
10.5
 20
-6.125
 42
-0.08029347599129652
 10
10.480380240234398
 20
-6.2463876351974665
 42
-0.07387628606780058
 10
10.4248046875
 20
-6.35634765625
 42
-0.06134328547247083
 10
10.334482422508232
 20
-6.455667496410914
 42
-0.03306890438336148
 10
10.2265625
 20
-6.53671875
 42
-0.04783509701919549
 10
9.93370777759516
 20
-6.690095167921578
 42
-0.004680474745750446
 10
9.625
 20
-6.8125
 42
0.004680474745750446
 10
9.31629222240484
 20
-6.934904832078422
 42
0.047835097019195465
 10
9.0234375
 20
-7.08828125
 42
0.03306890438336156
 10
8.915517577491766
 20
-7.169332503589086
 42
0.06134328547247083
 10
8.8251953125
 20
-7.26865234375
 42
0.0738762860678006
 10
8.7696197597656
 20
-7.3786123648025335
 42
0.16162898085694452
 10
8.7696197597656
 20
-7.6213876351974665
 42
0.0738762860678006
 10
8.8251953125
 20
-7.73134765625
 42
0.06134328547247083
 10
8.915517577491766
 20
-7.830667496410914
 42
0.03306890438336156
 10
9.0234375
 20
-7.91171875
 42
0.04783509701919541
 10
9.31629222240484
 20
-8.065095167921578
 42
0.004680474745750002
 10
9.625
 20
-8.1875
 42
-0.004680474745749947
 10
9.93370777759516
 20
-8.309904832078422
 42
-0.04783509701919527
 10
10.2265625
 20
-8.46328125
 42
-0.0330689043833605
 10
10.334482422508232
 20
-8.544332503589086
 42
-0.061343285472470664
 10
10.4248046875
 20
-8.64365234375
 42
-0.07387628606780022
 10
10.480380240234398
 20
-8.753612364802533
 42
-0.08029347599129652
 10
10.5
 20
-8.875
 42
-0.1286866358155327
 10
10.38351113084919
 20
-9.320111427467898
 42
-0.10185421839230667
 10
10.078125
 20
-9.671875
 42
-0.0969903707385162
 10
9.568830203599504
 20
-9.92386885676133
 42
-0.06662202108809215
 10
9.0
 20
-10.0
 42
-0.026665577104297376
 10
8.573254805150404
 20
-9.97722499196786
 42
-0.0491013607278302
 10
8.15625
 20
-9.890625
 42
-0.05681213422530907
 10
7.804162249358038
 20
-9.734915554479521
 42
-0.06396421538447938
 10
7.5
 20
-9.5
  0
LWPOLYLINE
  5
3E
102
{ACAD_REACTORS
330
45
102
}
330
17
100
AcDbEntity
  8
ID_CUT_SINGLELINE
100
AcDbPolyline
 90
2
 70
0
 10
1.5
 20
-20.0
 10
1.5
 20
-15.0
  0
LWPOLYLINE
  5
3F
102
{ACAD_REACTORS
330
45
102
}
330
17
100
AcDbEntity
  8
ID_CUT_SINGLELINE
100
AcDbPolyline
 90
3
 70
0
 10
0.0
 20
-16.5
 10
1.5
 20
-15.0
 10
3.0
 20
-16.5
  0
LWPOLYLINE
  5
40
102
{ACAD_REACTORS
330
45
102
}
330
17
100
AcDbEntity
  8
ID_CUT_SINGLELINE
100
AcDbPolyline
 90
2
 70
0
 10
4.5
 20
-20.0
 10
4.5
 20
-15.0
  0
LWPOLYLINE
  5
41
102
{ACAD_REACTORS
330
45
102
}
330
17
100
AcDbEntity
  8
ID_CUT_SINGLELINE
100
AcDbPolyline
 90
2
 70
0
 10
7.5
 20
-20.0
 10
7.5
 20
-15.0
  0
LWPOLYLINE
  5
42
102
{ACAD_REACTORS
330
45
102
}
330
17
100
AcDbEntity
  8
ID_CUT_SINGLELINE
100
AcDbPolyline
 90
2
 70
0
 10
4.5
 20
-17.5
 10
7.5
 20
-17.5
  0
LWPOLYLINE
  5
43
102
{ACAD_REACTORS
330
45
102
}
330
17
100
AcDbEntity
  8
ID_CUT_SINGLELINE
100
AcDbPolyline
 90
10
 70
0
 10
8.755287184176137
 20
-15.915405053181825
 10
9.595920621799715
 20
-15.074771615558245
 42
-0.01866355246877764
 10
9.633159016704326
 20
-15.040214088392647
 42
-0.05618179601604381
 10
9.674896065147637
 20
-15.011751621221332
 42
-0.060637822540961346
 10
9.70280217380523
 20
-15.00108379266154
 42
-0.32956244656061684
 10
9.752964409934972
 20
-15.021861671185441
 42
-0.060637822540958376
 10
9.765153714688118
 20
-15.049137563768918
 42
-0.05618179601604157
 10
9.77454026112296
 20
-15.09877611729603
 42
-0.018663552468782433
 10
9.77643592088068
 20
-15.149543500653417
 10
9.77643592088068
 20
-20.0
  0
LWPOLYLINE
  5
44
102
{ACAD_REACTORS
330
45
102
}
330
17
100
AcDbEntity
  8
ID_CUT_SINGLELINE
100
AcDbPolyline
 90
2
 70
0
 10
8.5
 20
-20.0
 10
11.052871841761359
 20
-20.0
  0
LWPOLYLINE
  5
46
102
{ACAD_REACTORS
330
4B
102
}
330
17
100
AcDbEntity
  8
ID_CUT_SINGLELINE
100
AcDbPolyline
 90
2
 70
0
 10
1.5
 20
-30.0
 10
1.5
 20
-25.0
  0
LWPOLYLINE
  5
47
102
{ACAD_REACTORS
330
4B
102
}
330
17
100
AcDbEntity
  8
ID_CUT_SINGLELINE
100
AcDbPolyline
 90
3
 70
0
 10
0.0
 20
-26.5
 10
1.5
 20
-25.0
 10
3.0
 20
-26.5
  0
LWPOLYLINE
  5
48
102
{ACAD_REACTORS
330
4B
102
}
330
17
100
AcDbEntity
  8
ID_CUT_SINGLELINE
100
AcDbPolyline
 90
14
 70
0
 10
7.25
 20
-25.0
 10
7.25
 20
-28.5
 42
-0.030508063712927507
 10
7.229714134104549
 20
-28.83215783832998
 42
-0.04762396224118283
 10
7.158203125
 20
-29.15625
 42
-0.04819706629041039
 10
7.050139447021408
 20
-29.405793086011563
 42
-0.06212113590743995
 10
6.890625
 20
-29.625
 42
-0.06195840444501427
 10
6.6914237556768885
 20
-29.79071371540477
 42
-0.05447133079678959
 10
6.458984375
 20
-29.90625
 42
-0.05256542248904477
 10
6.171573166244205
 20
-29.978849834836634
 42
-0.035612361595440546
 10
5.875
 20
-30.0
 42
-0.0702844927307322
 10
5.32979870198386
 20
-29.92298114043734
 42
-0.1181077925319903
 10
4.859375
 20
-29.65625
 42
-0.11856467970811091
 10
4.586703952960241
 20
-29.24353121440609
 42
-0.08717288532595041
 10
4.5
 20
-28.75
  0
LWPOLYLINE
  5
49
102
{ACAD_REACTORS
330
4B
102
}
330
17
100
AcDbEntity
  8
ID_CUT_SINGLELINE
100
AcDbPolyline
 90
10
 70
0
 10
8.505287184176137
 20
-25.915405053181825
 10
9.345920621799715
 20
-25.074771615558245
 42
-0.01866355246877764
 10
9.383159016704326
 20
-25.040214088392645
 42
-0.05618179601604381
 10
9.424896065147637
 20
-25.011751621221332
 42
-0.060637822540961346
 10
9.45280217380523
 20
-25.00108379266154
 42
-0.32956244656061684
 10
9.502964409934972
 20
-25.02186167118544
 42
-0.060637822540958376
 10
9.51515371468812
 20
-25.049137563768916
 42
-0.05618179601604157
 10
9.52454026112296
 20
-25.09877611729603
 42
-0.018663552468782433
 10
9.52643592088068
 20
-25.149543500653415
 10
9.52643592088068
 20
-30.0
  0
LWPOLYLINE
  5
4A
102
{ACAD_REACTORS
330
4B
102
}
330
17
100
AcDbEntity
  8
ID_CUT_SINGLELINE
100
AcDbPolyline
 90
2
 70
0
 10
8.25
 20
-30.0
 10
10.802871841761359
 20
-30.0
  0
LWPOLYLINE
  5
4C
102
{ACAD_REACTORS
330
52
102
}
330
17
100
AcDbEntity
  8
ID_CUT_SINGLELINE
100
AcDbPolyline
 90
2
 70
0
 10
1.5
 20
-40.0
 10
1.5
 20
-35.0
  0
LWPOLYLINE
  5
4D
102
{ACAD_REACTORS
330
52
102
}
330
17
100
AcDbEntity
  8
ID_CUT_SINGLELINE
100
AcDbPolyline
 90
3
 70
0
 10
0.0
 20
-36.5
 10
1.5
 20
-35.0
 10
3.0
 20
-36.5
  0
LWPOLYLINE
  5
4E
102
{ACAD_REACTORS
330
52
102
}
330
17
100
AcDbEntity
  8
ID_CUT_SINGLELINE
100
AcDbPolyline
 90
22
 70
0
 10
4.5
 20
-40.0
 10
4.5
 20
-35.16948400150982
 42
-0.014191076041177333
 10
4.5017046281303115
 20
-35.1094362350108
 42
-0.05013729283313018
 10
4.511051006764543
 20
-35.050376425349356
 42
-0.04810341200965659
 10
4.522045233370887
 20
-35.02056107803771
 42
-0.43227090303804216
 10
4.5733542605362025
 20
-35.0043873320335
 42
-0.048103412009659736
 10
4.599459060880886
 20
-35.02250824130843
 42
-0.050137292833122335
 10
4.640984489505405
 20
-35.065532126399965
 42
-0.014191076041175556
 10
4.676816108232686
 20
-35.11374763342797
 10
6.121780274183869
 20
-37.17798215621537
 42
0.05393751728383001
 10
6.197801357198804
 20
-37.264921871235444
 42
0.3904707108422253
 10
6.399391407634305
 20
-37.264921871235444
 42
0.05393751728383076
 10
6.47541249064924
 20
-37.17798215621537
 10
7.920376656600423
 20
-35.11374763342797
 42
-0.014191076041176889
 10
7.956208275327704
 20
-35.065532126399965
 42
-0.0501372928331235
 10
7.997733703952223
 20
-35.02250824130843
 42
-0.04810341200965849
 10
8.023838504296906
 20
-35.0043873320335
 42
-0.43227090303804244
 10
8.075147531462221
 20
-35.02056107803771
 42
-0.048103412009657495
 10
8.086141758068566
 20
-35.050376425349356
 42
-0.0501372928331305
 10
8.095488136702798
 20
-35.1094362350108
 42
-0.014191076041177805
 10
8.097192764833109
 20
-35.16948400150982
 10
8.097192764833109
 20
-40.0
  0
LWPOLYLINE
  5
4F
102
{ACAD_REACTORS
330
52
102
}
330
17
100
AcDbEntity
  8
ID_CUT_SINGLELINE
100
AcDbPolyline
 90
10
 70
0
 10
9.352479949009245
 20
-35.91540505318183
 10
10.193113386632824
 20
-35.07477161555825
 42
-0.01866355246877764
 10
10.230351781537436
 20
-35.040214088392645
 42
-0.05618179601604381
 10
10.272088829980746
 20
-35.011751621221336
 42
-0.060637822540961346
 10
10.299994938638338
 20
-35.00108379266154
 42
-0.32956244656061684
 10
10.350157174768082
 20
-35.02186167118544
 42
-0.060637822540958376
 10
10.362346479521229
 20
-35.049137563768916
 42
-0.05618179601604157
 10
10.371733025956068
 20
-35.09877611729603
 42
-0.018663552468782433
 10
10.37362868571379
 20
-35.149543500653415
 10
10.37362868571379
 20
-40.0
  0
LWPOLYLINE
  5
50
102
{ACAD_REACTORS
330
52
102
}
330
17
100
AcDbEntity
  8
ID_CUT_SINGLELINE
100
AcDbPolyline
 90
2
 70
0
 10
9.09719276483311
 20
-40.0
 10
11.65006460659447
 20
-40.0
  0
LWPOLYLINE
  5
51
102
{ACAD_REACTORS
330
52
102
}
330
17
100
AcDbEntity
  8
ID_CUT_SINGLELINE
100
AcDbPolyline
 90
10
 70
0
 10
12.65006460659447
 20
-35.0
 10
15.27506460659447
 20
-35.0
 42
-0.02582489106424448
 10
15.352953336289128
 20
-35.00402562070608
 42
-0.05849918990043511
 10
15.428645537949938
 20
-35.02096313728906
 42
-0.0636071857541303
 10
15.477242229452422
 20
-35.04528594451555
 42
-0.21634802285209595
 10
15.532271109785107
 20
-35.13432454325668
 42
-0.06360718575412791
 10
15.532292988793696
 20
-35.18866823560155
 42
-0.05849918990043283
 10
15.513591782517489
 20
-35.263944086603544
 42
-0.02582489106424687
 10
15.482359508281984
 20
-35.33541019662497
 10
13.15006460659447
 20
-40.0
  0
LWPOLYLINE
  5
53
102
{ACAD_REACTORS
330
65
102
}
330
17
100
AcDbEntity
  8
ID_CUT_SINGLELINE
100
AcDbPolyline
 90
2
 70
0
 10
1.5
 20
-50.0
 10
1.5
 20
-45.0
  0
LWPOLYLINE
  5
54
102
{ACAD_REACTORS
330
65
102
}
330
17
100
AcDbEntity
  8
ID_CUT_SINGLELINE
100
AcDbPolyline
 90
3
 70
0
 10
0.0
 20
-46.5
 10
1.5
 20
-45.0
 10
3.0
 20
-46.5
  0
LWPOLYLINE
  5
55
102
{ACAD_REACTORS
330
65
102
}
330
17
100
AcDbEntity
  8
ID_CUT_SINGLELINE
100
AcDbPolyline
 90
18
 70
0
 10
6.911643187948389
 20
-45.163641482366984
 42
0.03981469732100631
 10
6.714233548495704
 20
-45.08838983089517
 42
0.027188544951180723
 10
6.508194069033585
 20
-45.040094863443144
 42
0.026584198127785143
 10
6.255081976876724
 20
-45.00887592732666
 42
0.01739292274809276
 10
6.0
 20
-45.0
 10
5.0
 20
-45.0
 42
0.0641887124095951
 10
4.797436803048301
 20
-45.0261121285396
 42
0.27084315763380284
 10
4.526112128539599
 20
-45.2974368030483
 42
0.06418871240959331
 10
4.5
 20
-45.5
 10
4.5
 20
-49.5
 42
0.06418871240959298
 10
4.526112128539599
 20
-49.7025631969517
 42
0.27084315763380007
 10
4.797436803048301
 20
-49.9738878714604
 42
0.06418871240959298
 10
5.0
 20
-50.0
 10
6.0
 20
-50.0
 42
0.017392922748093703
 10
6.255081976876724
 20
-49.99112407267334
 42
0.026584198127785643
 10
6.508194069033585
 20
-49.959905136556856
 42
0.027188544951180612
 10
6.714233548495704
 20
-49.91161016910483
 42
0.039814697321006697
 10
6.911643187948389
 20
-49.83635851763302
  0
LWPOLYLINE
  5
56
102
{ACAD_REACTORS
330
65
102
}
330
17
100
AcDbEntity
  8
ID_CUT_SINGLELINE
100
AcDbPolyline
 90
7
 70
0
 10
7.4180687321084715
 20
-45.716844128982274
 42
-0.05351707773306869
 10
7.482083723381065
 20
-45.97939323045924
 42
-0.03306769762496908
 10
7.499999999999999
 20
-46.25
 42
-0.0610258310013109
 10
7.455615532975539
 20
-46.612298815068
 42
-0.08479560352507295
 10
7.310132818228757
 20
-46.94430890508847
 42
-0.08854081572307182
 10
7.060858391022709
 20
-47.2072120977549
 42
-0.06901223092013728
 10
6.74053127291503
 20
-47.381200025947635
  0
LWPOLYLINE
  5
57
102
{ACAD_REACTORS
330
65
102
}
330
17
100
AcDbEntity
  8
ID_CUT_SINGLELINE
100
AcDbPolyline
 90
7
 70
0
 10
7.4180687321084715
 20
-49.283155871017726
 42
0.05351707773306846
 10
7.482083723381065
 20
-49.02060676954077
 42
0.033067697624969
 10
7.499999999999999
 20
-48.75
 42
0.06102583100131146
 10
7.455615532975538
 20
-48.387701184932
 42
0.08479560352507319
 10
7.310132818228757
 20
-48.05569109491153
 42
0.08854081572307182
 10
7.060858391022709
 20
-47.7927879022451
 42
0.06901223092013728
 10
6.74053127291503
 20
-47.61879997405237
  0
LWPOLYLINE
  5
58
102
{ACAD_REACTORS
330
65
102
}
330
17
100
AcDbEntity
  8
ID_CUT_SINGLELINE
100
AcDbPolyline
 90
2
 70
0
 10
4.5
 20
-47.5
 10
6.0
 20
-47.5
  0
LWPOLYLINE
  5
59
102
{ACAD_REACTORS
330
65
102
}
330
17
100
AcDbEntity
  8
ID_CUT_SINGLELINE
100
AcDbPolyline
 90
17
 70
0
 10
9.274999999999999
 20
-47.175
 42
-0.07484402071509288
 10
9.09721771521708
 20
-46.956751365652586
 42
-0.06743820133770528
 10
8.987499999999999
 20
-46.696875
 42
-0.07020046623314323
 10
8.9515225413758
 20
-46.40973510250488
 42
-0.07670639812898646
 10
9.0
 20
-46.125
 42
-0.01503762714112217
 10
9.13319639193027
 20
-45.762162353630934
 42
-0.0515721676214094
 10
9.3125
 20
-45.421875
 42
-0.038261972991105495
 10
9.440732382213579
 20
-45.25817200931328
 42
-0.05953258503724414
 10
9.59765625
 20
-45.123046875
 42
-0.07373480629443055
 10
9.78968024899202
 20
-45.03152479011027
 42
-0.07452862842085858
 10
10.0
 20
-45.0
 42
-0.11892853605864723
 10
10.614922521346616
 20
-45.14836210360871
 42
-0.13438920667033308
 10
11.078125
 20
-45.571875
 42
-0.0587272074453943
 10
11.195974357352421
 20
-45.81858786819009
 42
-0.06821585805840781
 10
11.248046875
 20
-46.086328125
 42
-0.07235337293241995
 10
11.225422780283775
 20
-46.34105445006585
 42
-0.08642977843457399
 10
11.125
 20
-46.575
  0
LWPOLYLINE
  5
5A
102
{ACAD_REACTORS
330
65
102
}
330
17
100
AcDbEntity
  8
ID_CUT_SINGLELINE
100
AcDbPolyline
 90
13
 70
0
 10
10.625
 20
-47.2
 42
0.00021673167599209822
 10
10.1375
 20
-47.5375
 42
-0.00021673167599201495
 10
9.649999999999999
 20
-47.875
 42
-0.04376216459893169
 10
9.28123052519873
 20
-48.08499058910759
 42
0.030407844412966692
 10
8.90625
 20
-48.28546875
 42
0.02925846255804613
 10
8.749601576757126
 20
-48.39501586026436
 42
0.06263417376571356
 10
8.616406249999999
 20
-48.53048828125
 42
0.08168995388187111
 10
8.52988275861252
 20
-48.69317298289758
 42
0.0816260853564071
 10
8.5
 20
-48.875
 42
0.048564088102018475
 10
8.52138707462761
 20
-49.09467501783336
 42
0.04766125557982144
 10
8.584374999999998
 20
-49.30625
 42
0.04561632699365741
 10
8.673439155308778
 20
-49.47910572057673
 42
0.07394091984527228
 10
8.799999999999999
 20
-49.625
  0
LWPOLYLINE
  5
5B
102
{ACAD_REACTORS
330
65
102
}
330
17
100
AcDbEntity
  8
ID_CUT_SINGLELINE
100
AcDbPolyline
 90
15
 70
0
 10
9.549999999999999
 20
-49.925
 42
0.09109772543303052
 10
9.768884774396884
 20
-49.988404511352535
 42
0.025070180233693794
 10
10.0
 20
-50.0
 42
0.030222070407292544
 10
10.331916031505871
 20
-49.979919279454236
 42
0.04553978510759026
 10
10.65625
 20
-49.91015625
 42
0.04488367127416817
 10
10.90422723954956
 20
-49.80747182153464
 42
0.05920173442659288
 10
11.125
 20
-49.65625
 42
0.05855375241675868
 10
11.288521789127138
 20
-49.47535278440556
 42
0.057237813896569144
 10
11.40625
 20
-49.26171875
 42
0.05538840337469764
 10
11.478044858861027
 20
-49.0107724463733
 42
0.042022023315836675
 10
11.5
 20
-48.75
 42
0.1633210758224599
 10
11.410511937720706
 20
-48.48334403563983
 42
0.067868392530062
 10
11.203125
 20
-48.275
 42
0.043056040491183015
 10
10.9233307013875
 20
-48.09719142527851
 42
0.010857025587831425
 10
10.625
 20
-47.95
  0
LWPOLYLINE
  5
5C
102
{ACAD_REACTORS
330
65
102
}
330
17
100
AcDbEntity
  8
ID_CUT_SINGLELINE
100
AcDbPolyline
 90
2
 70
0
 10
12.5
 20
-47.5
 10
14.5
 20
-47.5
  0
LWPOLYLINE
  5
5D
102
{ACAD_REACTORS
330
65
102
}
330
17
100
AcDbEntity
  8
ID_CUT_SINGLELINE
100
AcDbPolyline
 90
37
 70
0
 10
18.5
 20
-45.5
 42
0.06396421538447936
 10
18.19583775064196
 20
-45.26508444552048
 42
0.05681213422530896
 10
17.84375
 20
-45.109375
 42
0.04910136072783048
 10
17.426745194849595
 20
-45.02277500803214
 42
0.0266655771042976
 10
17.0
 20
-45.0
 42
0.03059424752298147
 10
16.689790365374424
 20
-45.01899904394827
 42
0.04112480424360917
 10
16.3859375
 20
-45.08203125
 42
0.04112824026706247
 10
16.137677743306952
 20
-45.178023882692194
 42
0.053752564666960774
 10
15.9125
 20
-45.31875
 42
0.05531490737467678
 10
15.738261506038299
 20
-45.48991030905453
 42
0.059914915655812286
 10
15.6078125
 20
-45.69609375
 42
0.06127560141301073
 10
15.525866102781011
 20
-45.94171146535261
 42
0.049947191966826614
 10
15.5
 20
-46.2
 42
0.07339360220597947
 10
15.537348343474815
 20
-46.4530681216946
 42
0.07403706711261954
 10
15.646484375
 20
-46.684375
 42
0.06075373931386478
 10
15.813379355316668
 20
-46.878538975329626
 42
0.0366605625982118
 10
16.015625
 20
-47.0375
 42
0.05024017521705201
 10
16.49428348426502
 20
-47.294318622542974
 42
0.002886739793014561
 10
17.0
 20
-47.5
 42
-0.0028867397930146164
 10
17.50571651573498
 20
-47.705681377457026
 42
-0.05024017521705221
 10
17.984375
 20
-47.9625
 42
-0.03666056259821202
 10
18.18662064468333
 20
-48.121461024670374
 42
-0.06075373931386428
 10
18.353515625
 20
-48.315625
 42
-0.07403706711261983
 10
18.462651656525185
 20
-48.5469318783054
 42
-0.07339360220597928
 10
18.5
 20
-48.8
 42
-0.04994719196682685
 10
18.47413389721899
 20
-49.05828853464739
 42
-0.06127560141301053
 10
18.3921875
 20
-49.30390625
 42
-0.05991491565581188
 10
18.2617384939617
 20
-49.51008969094547
 42
-0.05531490737467639
 10
18.0875
 20
-49.68125
 42
-0.053752564666960385
 10
17.862322256693048
 20
-49.821976117307806
 42
-0.04112824026706276
 10
17.6140625
 20
-49.91796875
 42
-0.04112480424360872
 10
17.31020963462558
 20
-49.98100095605173
 42
-0.03059424752298047
 10
17.0
 20
-50.0
 42
-0.026665577104297376
 10
16.573254805150405
 20
-49.97722499196786
 42
-0.0491013607278302
 10
16.15625
 20
-49.890625
 42
-0.05681213422530907
 10
15.804162249358038
 20
-49.73491555447952
 42
-0.06396421538447938
 10
15.5
 20
-49.5
  0
LWPOLYLINE
  5
5E
102
{ACAD_REACTORS
330
65
102
}
330
17
100
AcDbEntity
  8
ID_CUT_SINGLELINE
100
AcDbPolyline
 90
28
 70
0
 10
22.5
 20
-45.0
 10
19.9
 20
-45.0
 42
0.06414042354739691
 10
19.737936260189237
 20
-45.02087555573592
 42
0.2709463975677932
 10
19.52087555573592
 20
-45.23793626018924
 42
0.06414042354739764
 10
19.5
 20
-45.4
 10
19.5
 20
-46.85
 42
0.06414042354739753
 10
19.52087555573592
 20
-47.01206373981076
 42
0.2709463975677943
 10
19.737936260189237
 20
-47.22912444426408
 42
0.06414042354739825
 10
19.9
 20
-47.25
 10
21.0
 20
-47.25
 42
-0.03050806371292751
 10
21.33215783832998
 20
-47.27028586589545
 42
-0.04762396224118295
 10
21.65625
 20
-47.341796875
 42
-0.04819706629041033
 10
21.905793086011563
 20
-47.44986055297859
 42
-0.06212113590743981
 10
22.125
 20
-47.609375
 42
-0.061958404445014326
 10
22.29071371540477
 20
-47.80857624432311
 42
-0.05447133079678962
 10
22.40625
 20
-48.041015625
 42
-0.05256542248904484
 10
22.478849834836634
 20
-48.3284268337558
 42
-0.03561236159544067
 10
22.5
 20
-48.625
 42
-0.04401560177153985
 10
22.473717502015358
 20
-48.92298046512674
 42
-0.05660162380217123
 10
22.388671875
 20
-49.208984375
 42
-0.05512657896704169
 10
22.257523807765455
 20
-49.44220950102655
 42
-0.05641463557447821
 10
22.078125
 20
-49.640625
 42
-0.11004055768949175
 10
21.575813237192357
 20
-49.91750979154401
 42
-0.07126551979294252
 10
21.0
 20
-50.0
 42
-0.025866437764922576
 10
20.573967452159952
 20
-49.977945355072244
 42
-0.04415544754713437
 10
20.15625
 20
-49.896875
 42
-0.04898114370382958
 10
19.808841329949956
 20
-49.7589873847662
 42
-0.0596638358534216
 10
19.5
 20
-49.55
  0
LWPOLYLINE
  5
5F
102
{ACAD_REACTORS
330
65
102
}
330
17
100
AcDbEntity
  8
ID_CUT_SINGLELINE
100
AcDbPolyline
 90
2
 70
0
 10
23.5
 20
-47.5
 10
25.5
 20
-47.5
  0
LWPOLYLINE
  5
60
102
{ACAD_REACTORS
330
65
102
}
330
17
100
AcDbEntity
  8
ID_CUT_SINGLELINE
100
AcDbPolyline
 90
12
 70
0
 10
29.466057989992777
 20
-47.125
 42
0.0268497110385339
 10
29.40364937312318
 20
-46.69601503477912
 42
0.03162545870687547
 10
29.291688191056302
 20
-46.2774725313605
 42
0.030497226355529705
 10
29.150175616772874
 20
-45.92883931341642
 42
0.040709699081207515
 10
28.960909355776785
 20
-45.60428113898711
 42
0.08607648334181305
 10
28.537270483453856
 20
-45.17693535387926
 42
0.31923873900472066
 10
27.42878750653892
 20
-45.17693535387926
 42
0.08607648334181293
 10
27.005148634215992
 20
-45.60428113898711
 42
0.04070969908120749
 10
26.815882373219903
 20
-45.92883931341642
 42
0.030497226355529344
 10
26.674369798936475
 20
-46.2774725313605
 42
0.03162545870687513
 10
26.5624086168696
 20
-46.69601503477912
 42
0.026849711038533883
 10
26.5
 20
-47.125
  0
LWPOLYLINE
  5
61
102
{ACAD_REACTORS
330
65
102
}
330
17
100
AcDbEntity
  8
ID_CUT_SINGLELINE
100
AcDbPolyline
 90
12
 70
0
 10
26.5
 20
-47.875
 42
0.026849711038533883
 10
26.5624086168696
 20
-48.30398496522088
 42
0.03162545870687524
 10
26.674369798936475
 20
-48.7225274686395
 42
0.0304972263555289
 10
26.815882373219903
 20
-49.07116068658358
 42
0.04070969908120682
 10
27.005148634215992
 20
-49.39571886101289
 42
0.08607648334181317
 10
27.42878750653892
 20
-49.82306464612074
 42
0.3192387390047211
 10
28.537270483453856
 20
-49.82306464612074
 42
0.08607648334181274
 10
28.960909355776785
 20
-49.39571886101289
 42
0.040709699081206474
 10
29.150175616772874
 20
-49.07116068658358
 42
0.030497226355528248
 10
29.291688191056302
 20
-48.7225274686395
 42
0.03162545870687546
 10
29.40364937312318
 20
-48.30398496522088
 42
0.0268497110385339
 10
29.466057989992777
 20
-47.875
  0
LWPOLYLINE
  5
62
102
{ACAD_REACTORS
330
65
102
}
330
17
100
AcDbEntity
  8
ID_CUT_SINGLELINE
100
AcDbPolyline
 90
16
 70
0
 10
32.937772981653424
 20
-47.125
 42
0.022340412224689413
 10
32.88606277828937
 20
-46.69754270074304
 42
0.027093516698145997
 10
32.79246481587303
 20
-46.2774725313605
 42
0.025975286343047105
 10
32.67588855929942
 20
-45.93189105085159
 42
0.03738737434303053
 10
32.51681578647343
 20
-45.60428113898711
 42
0.03708228578138053
 10
32.351430876065166
 20
-45.36300279927589
 42
0.062490676402211454
 10
32.142680980706245
 20
-45.16019917712017
 42
0.06843023127817405
 10
31.93443285117157
 20
-45.04385471755174
 42
0.1886083539868552
 10
31.46939812047463
 20
-45.04385471755174
 42
0.06843023127817582
 10
31.261149990939952
 20
-45.16019917712017
 42
0.06249067640221123
 10
31.05240009558104
 20
-45.36300279927589
 42
0.03708228578138039
 10
30.88701518517277
 20
-45.60428113898711
 42
0.037387374343031306
 10
30.727942412346778
 20
-45.93189105085159
 42
0.02597528634304755
 10
30.611366155773172
 20
-46.2774725313605
 42
0.027093516698146455
 10
30.51776819335683
 20
-46.69754270074304
 42
0.0223404122246895
 10
30.466057989992777
 20
-47.125
  0
LWPOLYLINE
  5
63
102
{ACAD_REACTORS
330
65
102
}
330
17
100
AcDbEntity
  8
ID_CUT_SINGLELINE
100
AcDbPolyline
 90
16
 70
0
 10
30.466057989992777
 20
-47.875
 42
0.0223404122246895
 10
30.51776819335683
 20
-48.30245729925696
 42
0.027093516698146566
 10
30.611366155773172
 20
-48.7225274686395
 42
0.025975286343046883
 10
30.727942412346778
 20
-49.06810894914841
 42
0.03738737434303053
 10
30.88701518517277
 20
-49.39571886101289
 42
0.037082285781380835
 10
31.05240009558104
 20
-49.63699720072411
 42
0.06249067640221123
 10
31.261149990939952
 20
-49.83980082287983
 42
0.06843023127817471
 10
31.46939812047463
 20
-49.95614528244826
 42
0.1886083539868538
 10
31.93443285117157
 20
-49.95614528244826
 42
0.06843023127817482
 10
32.142680980706245
 20
-49.83980082287983
 42
0.062490676402211176
 10
32.351430876065166
 20
-49.63699720072411
 42
0.0370822857813805
 10
32.51681578647343
 20
-49.39571886101289
 42
0.03738737434303047
 10
32.67588855929942
 20
-49.06810894914841
 42
0.025975286343046897
 10
32.79246481587303
 20
-48.7225274686395
 42
0.027093516698145984
 10
32.88606277828937
 20
-48.302457299256965
 42
0.022340412224689413
 10
32.937772981653424
 20
-47.875
  0
LWPOLYLINE
  5
64
102
{ACAD_REACTORS
330
65
102
}
330
17
100
AcDbEntity
  8
ID_CUT_SINGLELINE
100
AcDbPolyline
 90
2
 70
0
 10
31.2019154858231
 20
-48.75
 10
32.2019154858231
 20
-46.25
  0
LWPOLYLINE
  5
66
102
{ACAD_REACTORS
330
6C
102
}
330
17
100
AcDbEntity
  8
ID_CUT_SINGLELINE
100
AcDbPolyline
 90
2
 70
0
 10
1.5
 20
-60.0
 10
1.5
 20
-55.0
  0
LWPOLYLINE
  5
67
102
{ACAD_REACTORS
330
6C
102
}
330
17
100
AcDbEntity
  8
ID_CUT_SINGLELINE
100
AcDbPolyline
 90
3
 70
0
 10
0.0
 20
-56.5
 10
1.5
 20
-55.0
 10
3.0
 20
-56.5
  0
LWPOLYLINE
  5
68
102
{ACAD_REACTORS
330
6C
102
}
330
17
100
AcDbEntity
  8
ID_CUT_SINGLELINE
100
AcDbPolyline
 90
10
 70
0
 10
4.5
 20
-60.0
 10
5.144662967523482
 20
-58.28089875327071
 42
-0.060901145538560054
 10
5.205941782187984
 20
-58.16331452325479
 42
-0.18336909713630262
 10
5.418386026312647
 20
-58.01609056261751
 42
-0.060901145538560165
 10
5.55
 20
-58.0
 10
6.95
 20
-58.0
 42
-0.06090114553856022
 10
7.081613973687353
 20
-58.01609056261751
 42
-0.18336909713630237
 10
7.294058217812016
 20
-58.16331452325479
 42
-0.060901145538559034
 10
7.355337032476518
 20
-58.28089875327071
 10
8.0
 20
-60.0
  0
LWPOLYLINE
  5
69
102
{ACAD_REACTORS
330
6C
102
}
330
17
100
AcDbEntity
  8
ID_CUT_SINGLELINE
100
AcDbPolyline
 90
18
 70
0
 10
5.55
 20
-57.2
 10
5.875
 20
-55.8
 42
0.0005684973451910188
 10
5.916764389813661
 20
-55.6191586440698
 42
-0.005513249221472223
 10
5.9603125
 20
-55.43875
 42
-0.007223911951245167
 10
5.9940781079925145
 20
-55.313001457652135
 42
-0.026766655989858532
 10
6.03625
 20
-55.19
 42
-0.029632768047935208
 10
6.07294653861714
 20
-55.11266781705842
 42
-0.08285563746265892
 10
6.1253125
 20
-55.04625
 42
-0.09917558908478553
 10
6.1831822352208015
 20
-55.01155248261447
 42
-0.17289537674071323
 10
6.3168177647791985
 20
-55.01155248261447
 42
-0.09917558908478548
 10
6.3746875
 20
-55.04625
 42
-0.08285563746265884
 10
6.42705346138286
 20
-55.11266781705842
 42
-0.029632768047935222
 10
6.46375
 20
-55.19
 42
-0.026766655989860128
 10
6.505921892007485
 20
-55.313001457652135
 42
-0.0072239119512466175
 10
6.5396875
 20
-55.43875
 42
-0.0055132492214722715
 10
6.583235610186339
 20
-55.6191586440698
 42
0.0005684973451897629
 10
6.625
 20
-55.8
 10
6.95
 20
-57.2
  0
LWPOLYLINE
  5
6A
102
{ACAD_REACTORS
330
6C
102
}
330
17
100
AcDbEntity
  8
ID_CUT_SINGLELINE
100
AcDbPolyline
 90
10
 70
0
 10
9.255287184176137
 20
-55.91540505318183
 10
10.095920621799715
 20
-55.07477161555825
 42
-0.01866355246877764
 10
10.133159016704326
 20
-55.040214088392645
 42
-0.05618179601604381
 10
10.174896065147637
 20
-55.011751621221336
 42
-0.060637822540961346
 10
10.20280217380523
 20
-55.00108379266154
 42
-0.32956244656061684
 10
10.252964409934972
 20
-55.02186167118544
 42
-0.060637822540958376
 10
10.265153714688118
 20
-55.049137563768916
 42
-0.05618179601604157
 10
10.27454026112296
 20
-55.09877611729603
 42
-0.018663552468782433
 10
10.27643592088068
 20
-55.149543500653415
 10
10.27643592088068
 20
-60.0
  0
LWPOLYLINE
  5
6B
102
{ACAD_REACTORS
330
6C
102
}
330
17
100
AcDbEntity
  8
ID_CUT_SINGLELINE
100
AcDbPolyline
 90
2
 70
0
 10
9.0
 20
-60.0
 10
11.552871841761359
 20
-60.0
  0
LWPOLYLINE
  5
6D
102
{ACAD_REACTORS
330
72
102
}
330
17
100
AcDbEntity
  8
ID_CUT_SINGLELINE
100
AcDbPolyline
 90
2
 70
0
 10
1.5
 20
-70.0
 10
1.5
 20
-65.0
  0
LWPOLYLINE
  5
6E
102
{ACAD_REACTORS
330
72
102
}
330
17
100
AcDbEntity
  8
ID_CUT_SINGLELINE
100
AcDbPolyline
 90
3
 70
0
 10
0.0
 20
-66.5
 10
1.5
 20
-65.0
 10
3.0
 20
-66.5
  0
LWPOLYLINE
  5
6F
102
{ACAD_REACTORS
330
72
102
}
330
17
100
AcDbEntity
  8
ID_CUT_SINGLELINE
100
AcDbPolyline
 90
18
 70
0
 10
4.5
 20
-70.0
 10
4.5
 20
-65.35
 42
-0.01330553146706998
 10
4.501807412060916
 20
-65.28209245018598
 42
-0.04847823904194228
 10
4.511921620169275
 20
-65.21521595410658
 42
-0.04412749844208135
 10
4.523496079975408
 20
-65.18198663746374
 42
-0.45815688784202374
 10
4.579480459118299
 20
-65.16539062430475
 42
-0.04412749844207818
 10
4.6072945815234725
 20
-65.18694358695919
 42
-0.04847823904193958
 10
4.652221686037778
 20
-65.23750363258297
 42
-0.013305531467071507
 10
4.690745922708395
 20
-65.29345526570522
 10
7.559254077291605
 20
-69.70654473429478
 42
0.013305531467071202
 10
7.597778313962223
 20
-69.76249636741703
 42
0.04847823904194195
 10
7.642705418476528
 20
-69.81305641304081
 42
0.044127498442080464
 10
7.670519540881702
 20
-69.83460937569525
 42
0.45815688784201675
 10
7.726503920024593
 20
-69.81801336253626
 42
0.04412749844208057
 10
7.738078379830726
 20
-69.78478404589342
 42
0.04847823904194044
 10
7.748192587939084
 20
-69.71790754981402
 42
0.013305531467069184
 10
7.75
 20
-69.65
 10
7.75
 20
-65.0
  0
LWPOLYLINE
  5
70
102
{ACAD_REACTORS
330
72
102
}
330
17
100
AcDbEntity
  8
ID_CUT_SINGLELINE
100
AcDbPolyline
 90
19
 70
0
 10
11.5
 20
-65.25
 42
0.058734202836809996
 10
11.223160450988349
 20
-65.10914187806769
 42
0.050213654446945616
 10
10.921875
 20
-65.03125
 42
0.03399579028848292
 10
10.586917011663507
 20
-65.00281644196446
 42
0.004179653542441551
 10
10.25
 20
-65.0
 42
0.06309756005528286
 10
9.909409612029938
 20
-65.04315264864842
 42
0.07298455340629405
 10
9.59375
 20
-65.17578125
 42
0.0676621569836101
 10
9.331132223155567
 20
-65.38754094654936
 42
0.05140195303242364
 10
9.125
 20
-65.65625
 42
0.04792025645286708
 10
8.955548734961846
 20
-66.00183091777025
 42
0.03307791325407614
 10
8.84375
 20
-66.37109375
 42
0.03231278006843676
 10
8.77183525573215
 20
-66.8076817268827
 42
0.024667722747099136
 10
8.75
 20
-67.25
 10
8.75
 20
-68.5
 42
0.06414042354739775
 10
8.82828333400969
 20
-69.10773902429035
 42
0.27094639756779515
 10
9.642260975709641
 20
-69.9217166659903
 42
0.06414042354739775
 10
10.25
 20
-70.0
 42
0.0488816999113587
 10
10.745763679801755
 20
-69.95141637042931
 42
0.09601892917116661
 10
11.200836638525331
 20
-69.76604466209949
  0
LWPOLYLINE
  5
71
102
{ACAD_REACTORS
330
72
102
}
330
17
100
AcDbEntity
  8
ID_CUT_SINGLELINE
100
AcDbPolyline
 90
10
 70
0
 10
11.65251553879911
 20
-69.16730751522495
 42
0.051073750733413026
 10
11.728739463634517
 20
-68.83822519027457
 42
0.03139857237698623
 10
11.75
 20
-68.5
 42
0.08892755339333346
 10
11.645459966370804
 20
-67.91686622642708
 42
0.21870064221907665
 10
10.833133773572921
 20
-67.10454003362919
 42
0.08892755339333346
 10
10.25
 20
-67.0
 42
0.037803113051031595
 10
10.011811856337415
 20
-67.01803427898825
 42
0.05195421700814263
 10
9.78125
 20
-67.078125
 42
0.04171848740598558
 10
9.631069917343927
 20
-67.14922341670044
 42
0.06505410147833846
 10
9.5
 20
-67.25
  0
ENDSEC
  0
SECTION
  2
OBJECTS
  0
DICTIONARY
  5
A
330
0
100
AcDbDictionary
281
1
  3
ACAD_COLOR
350
B
  3
ACAD_GROUP
350
C
  3
ACAD_LAYOUT
350
D
  3
ACAD_MATERIAL
350
E
  3
ACAD_MLEADERSTYLE
350
F
  3
ACAD_MLINESTYLE
350
10
  3
ACAD_PLOTSETTINGS
350
11
  3
ACAD_PLOTSTYLENAME
350
12
  3
ACAD_SCALELIST
350
14
  3
ACAD_TABLESTYLE
350
15
  3
ACAD_VISUALSTYLE
350
16
  3
EZDXF_META
350
2D
  0
DICTIONARY
  5
B
330
A
100
AcDbDictionary
281
1
  0
DICTIONARY
  5
C
330
A
100
AcDbDictionary
281
1
  3
*A1
350
36
  3
*A2
350
3D
  3
*A3
350
45
  3
*A4
350
4B
  3
*A5
350
52
  3
*A6
350
65
  3
*A7
350
6C
  3
*A8
350
72
  0
DICTIONARY
  5
D
330
A
100
AcDbDictionary
281
1
  3
Model
350
1A
  3
Layout1
350
1E
  0
DICTIONARY
  5
E
330
A
100
AcDbDictionary
281
1
  3
ByBlock
350
1F
  3
ByLayer
350
20
  3
Global
350
21
  0
DICTIONARY
  5
F
330
A
100
AcDbDictionary
281
1
  3
Standard
350
2C
  0
DICTIONARY
  5
10
330
A
100
AcDbDictionary
281
1
  3
Standard
350
22
  0
DICTIONARY
  5
11
330
A
100
AcDbDictionary
281
1
  0
ACDBDICTIONARYWDFLT
  5
12
330
A
100
AcDbDictionary
281
1
  3
Normal
350
13
100
AcDbDictionaryWithDefault
340
13
  0
ACDBPLACEHOLDER
  5
13
330
12
  0
DICTIONARY
  5
14
330
A
100
AcDbDictionary
281
1
  0
DICTIONARY
  5
15
330
A
100
AcDbDictionary
281
1
  0
DICTIONARY
  5
16
330
A
100
AcDbDictionary
281
1
  0
LAYOUT
  5
1A
330
D
100
AcDbPlotSettings
  1

  4
A3
  6

 40
7.5
 41
20.0
 42
7.5
 43
20.0
 44
420.0
 45
297.0
 46
0.0
 47
0.0
 48
0.0
 49
0.0
140
0.0
141
0.0
142
1.0
143
1.0
 70
1024
 72
1
 73
0
 74
5
  7

 75
16
 76
0
 77
2
 78
300
147
1.0
148
0.0
149
0.0
100
AcDbLayout
  1
Model
 70
1
 71
0
 10
0.0
 20
0.0
 11
420.0
 21
297.0
 12
0.0
 22
0.0
 32
0.0
 14
1e+20
 24
1e+20
 34
1e+20
 15
-1e+20
 25
-1e+20
 35
-1e+20
146
0.0
 13
0.0
 23
0.0
 33
0.0
 16
1.0
 26
0.0
 36
0.0
 17
0.0
 27
1.0
 37
0.0
 76
1
330
17
  0
LAYOUT
  5
1E
330
D
100
AcDbPlotSettings
  1

  4
A3
  6

 40
7.5
 41
20.0
 42
7.5
 43
20.0
 44
420.0
 45
297.0
 46
0.0
 47
0.0
 48
0.0
 49
0.0
140
0.0
141
0.0
142
1.0
143
1.0
 70
0
 72
1
 73
0
 74
5
  7

 75
16
 76
0
 77
2
 78
300
147
1.0
148
0.0
149
0.0
100
AcDbLayout
  1
Layout1
 70
1
 71
1
 10
0.0
 20
0.0
 11
420.0
 21
297.0
 12
0.0
 22
0.0
 32
0.0
 14
1e+20
 24
1e+20
 34
1e+20
 15
-1e+20
 25
-1e+20
 35
-1e+20
146
0.0
 13
0.0
 23
0.0
 33
0.0
 16
1.0
 26
0.0
 36
0.0
 17
0.0
 27
1.0
 37
0.0
 76
1
330
1B
  0
MATERIAL
  5
1F
102
{ACAD_REACTORS
330
E
102
}
330
E
100
AcDbMaterial
  1
ByBlock
  2

 70
0
 40
1.0
 71
1
 41
1.0
 91
-1023410177
 42
1.0
 72
1
  3

 73
1
 74
1
 75
1
 44
0.5
 73
0
 45
1.0
 46
1.0
 77
1
  4

 78
1
 79
1
170
1
 48
1.0
171
1
  6

172
1
173
1
174
1
140
1.0
141
1.0
175
1
  7

176
1
177
1
178
1
143
1.0
179
1
  8

270
1
271
1
272
1
145
1.0
146
1.0
273
1
  9

274
1
275
1
276
1
 42
1.0
 72
1
  3

 73
1
 74
1
 75
1
 94
63
  0
MATERIAL
  5
20
102
{ACAD_REACTORS
330
E
102
}
330
E
100
AcDbMaterial
  1
ByLayer
  2

 70
0
 40
1.0
 71
1
 41
1.0
 91
-1023410177
 42
1.0
 72
1
  3

 73
1
 74
1
 75
1
 44
0.5
 73
0
 45
1.0
 46
1.0
 77
1
  4

 78
1
 79
1
170
1
 48
1.0
171
1
  6

172
1
173
1
174
1
140
1.0
141
1.0
175
1
  7

176
1
177
1
178
1
143
1.0
179
1
  8

270
1
271
1
272
1
145
1.0
146
1.0
273
1
  9

274
1
275
1
276
1
 42
1.0
 72
1
  3

 73
1
 74
1
 75
1
 94
63
  0
MATERIAL
  5
21
102
{ACAD_REACTORS
330
E
102
}
330
E
100
AcDbMaterial
  1
Global
  2

 70
0
 40
1.0
 71
1
 41
1.0
 91
-1023410177
 42
1.0
 72
1
  3

 73
1
 74
1
 75
1
 44
0.5
 73
0
 45
1.0
 46
1.0
 77
1
  4

 78
1
 79
1
170
1
 48
1.0
171
1
  6

172
1
173
1
174
1
140
1.0
141
1.0
175
1
  7

176
1
177
1
178
1
143
1.0
179
1
  8

270
1
271
1
272
1
145
1.0
146
1.0
273
1
  9

274
1
275
1
276
1
 42
1.0
 72
1
  3

 73
1
 74
1
 75
1
 94
63
  0
MLINESTYLE
  5
22
102
{ACAD_REACTORS
330
10
102
}
330
10
100
AcDbMlineStyle
  2
Standard
 70
0
  3

 62
256
 51
90.0
 52
90.0
 71
2
 49
0.5
 62
256
  6
BYLAYER
 49
-0.5
 62
256
  6
BYLAYER
  0
MLEADERSTYLE
  5
2C
102
{ACAD_REACTORS
330
F
102
}
330
F
100
AcDbMLeaderStyle
179
2
170
2
171
1
172
0
 90
2
 40
0.0
 41
0.0
173
1
 91
-1056964608
 92
-2
290
1
 42
2.0
291
1
 43
8.0
  3
Standard
 44
4.0
300

342
29
174
1
175
1
176
0
178
1
 93
-1056964608
 45
4.0
292
0
297
0
 46
4.0
 94
-1056964608
 47
1.0
 49
1.0
140
1.0
294
1
141
0.0
177
0
142
1.0
295
0
296
0
143
3.75
271
0
272
9
273
9
  0
DICTIONARY
  5
2D
330
A
100
AcDbDictionary
280
1
281
1
  3
CREATED_BY_EZDXF
350
2E
  3
WRITTEN_BY_EZDXF
350
75
  0
DICTIONARYVAR
  5
2E
330
2D
100
DictionaryVariables
280
0
  1
1.4.2 @ 2026-10-09T04:00:46.626022+00:00
  0
GROUP
  5
36
102
{ACAD_REACTORS
330
C
102
}
330
C
100
AcDbGroup
300
LaserFont 3 outside-face ID: H3
 70
1
 71
1
340
30
340
31
340
32
340
33
340
34
340
35
  0
GROUP
  5
3D
102
{ACAD_REACTORS
330
C
102
}
330
C
100
AcDbGroup
300
LaserFont 3 outside-face ID: I3
 70
1
 71
1
340
37
340
38
340
39
340
3A
340
3B
340
3C
  0
GROUP
  5
45
102
{ACAD_REACTORS
330
C
102
}
330
C
100
AcDbGroup
300
LaserFont 3 outside-face ID: H1
 70
1
 71
1
340
3E
340
3F
340
40
340
41
340
42
340
43
340
44
  0
GROUP
  5
4B
102
{ACAD_REACTORS
330
C
102
}
330
C
100
AcDbGroup
300
LaserFont 3 outside-face ID: J1
 70
1
 71
1
340
46
340
47
340
48
340
49
340
4A
  0
GROUP
  5
52
102
{ACAD_REACTORS
330
C
102
}
330
C
100
AcDbGroup
300
LaserFont 3 outside-face ID: M17
 70
1
 71
1
340
4C
340
4D
340
4E
340
4F
340
50
340
51
  0
GROUP
  5
65
102
{ACAD_REACTORS
330
C
102
}
330
C
100
AcDbGroup
300
LaserFont 3 outside-face ID: B8-S5-O0
 70
1
 71
1
340
53
340
54
340
55
340
56
340
57
340
58
340
59
340
5A
340
5B
340
5C
340
5D
340
5E
340
5F
340
60
340
61
340
62
340
63
340
64
  0
GROUP
  5
6C
102
{ACAD_REACTORS
330
C
102
}
330
C
100
AcDbGroup
300
LaserFont 3 outside-face ID: A1
 70
1
 71
1
340
66
340
67
340
68
340
69
340
6A
340
6B
  0
GROUP
  5
72
102
{ACAD_REACTORS
330
C
102
}
330
C
100
AcDbGroup
300
LaserFont 3 outside-face ID: N6
 70
1
 71
1
340
6D
340
6E
340
6F
340
70
340
71
  0
DICTIONARYVAR
  5
75
330
2D
100
DictionaryVariables
280
0
  1
1.4.2 @ 2026-10-09T04:00:46.642351+00:00
  0
ENDSEC
  0
EOF
