  0
SECTION
  2
HEADER
  9
$ACADVER
  1
AC1024
  9
$ACADMAINTVER
 70
6
  9
$DWGCODEPAGE
  3
ANSI_1252
  9
$LASTSAVEDBY
  1
ezdxf
  9
$INSBASE
 10
0.0
 20
0.0
 30
0.0
  9
$EXTMIN
 10
1e+20
 20
1e+20
 30
1e+20
  9
$EXTMAX
 10
-1e+20
 20
-1e+20
 30
-1e+20
  9
$LIMMIN
 10
0.0
 20
0.0
  9
$LIMMAX
 10
420.0
 20
297.0
  9
$ORTHOMODE
 70
0
  9
$REGENMODE
 70
1
  9
$FILLMODE
 70
1
  9
$QTEXTMODE
 70
0
  9
$MIRRTEXT
 70
1
  9
$LTSCALE
 40
1.0
  9
$ATTMODE
 70
1
  9
$TEXTSIZE
 40
2.5
  9
$TRACEWID
 40
1.0
  9
$TEXTSTYLE
  7
Standard
  9
$CLAYER
  8
0
  9
$CELTYPE
  6
ByLayer
  9
$CECOLOR
 62
256
  9
$CELTSCALE
 40
1.0
  9
$DISPSILH
 70
0
  9
$DIMSCALE
 40
1.0
  9
$DIMASZ
 40
2.5
  9
$DIMEXO
 40
0.625
  9
$DIMDLI
 40
3.75
  9
$DIMRND
 40
0.0
  9
$DIMDLE
 40
0.0
  9
$DIMEXE
 40
1.25
  9
$DIMTP
 40
0.0
  9
$DIMTM
 40
0.0
  9
$DIMTXT
 40
2.5
  9
$DIMCEN
 40
2.5
  9
$DIMTSZ
 40
0.0
  9
$DIMTOL
 70
0
  9
$DIMLIM
 70
0
  9
$DIMTIH
 70
0
  9
$DIMTOH
 70
0
  9
$DIMSE1
 70
0
  9
$DIMSE2
 70
0
  9
$DIMTAD
 70
1
  9
$DIMZIN
 70
8
  9
$DIMBLK
  1

  9
$DIMASO
 70
1
  9
$DIMSHO
 70
1
  9
$DIMPOST
  1

  9
$DIMAPOST
  1

  9
$DIMALT
 70
0
  9
$DIMALTD
 70
3
  9
$DIMALTF
 40
0.03937007874
  9
$DIMLFAC
 40
1.0
  9
$DIMTOFL
 70
1
  9
$DIMTVP
 40
0.0
  9
$DIMTIX
 70
0
  9
$DIMSOXD
 70
0
  9
$DIMSAH
 70
0
  9
$DIMBLK1
  1

  9
$DIMBLK2
  1

  9
$DIMSTYLE
  2
ISO-25
  9
$DIMCLRD
 70
0
  9
$DIMCLRE
 70
0
  9
$DIMCLRT
 70
0
  9
$DIMTFAC
 40
1.0
  9
$DIMGAP
 40
0.625
  9
$DIMJUST
 70
0
  9
$DIMSD1
 70
0
  9
$DIMSD2
 70
0
  9
$DIMTOLJ
 70
0
  9
$DIMTZIN
 70
8
  9
$DIMALTZ
 70
0
  9
$DIMALTTZ
 70
0
  9
$DIMUPT
 70
0
  9
$DIMDEC
 70
2
  9
$DIMTDEC
 70
2
  9
$DIMALTU
 70
2
  9
$DIMALTTD
 70
3
  9
$DIMTXSTY
  7
Standard
  9
$DIMAUNIT
 70
0
  9
$DIMADEC
 70
0
  9
$DIMALTRND
 40
0.0
  9
$DIMAZIN
 70
0
  9
$DIMDSEP
 70
44
  9
$DIMATFIT
 70
3
  9
$DIMFRAC
 70
0
  9
$DIMLDRBLK
  1

  9
$DIMLUNIT
 70
2
  9
$DIMLWD
 70
-2
  9
$DIMLWE
 70
-2
  9
$DIMTMOVE
 70
0
  9
$DIMFXL
 40
1.0
  9
$DIMFXLON
 70
0
  9
$DIMJOGANG
 40
0.785398163397
  9
$DIMTFILL
 70
0
  9
$DIMTFILLCLR
 70
0
  9
$DIMARCSYM
 70
0
  9
$DIMLTYPE
  6

  9
$DIMLTEX1
  6

  9
$DIMLTEX2
  6

  9
$DIMTXTDIRECTION
 70
0
  9
$LUNITS
 70
2
  9
$LUPREC
 70
4
  9
$SKETCHINC
 40
1.0
  9
$FILLETRAD
 40
10.0
  9
$AUNITS
 70
0
  9
$AUPREC
 70
2
  9
$MENU
  1
.
  9
$ELEVATION
 40
0.0
  9
$PELEVATION
 40
0.0
  9
$THICKNESS
 40
0.0
  9
$LIMCHECK
 70
0
  9
$CHAMFERA
 40
0.0
  9
$CHAMFERB
 40
0.0
  9
$CHAMFERC
 40
0.0
  9
$CHAMFERD
 40
0.0
  9
$SKPOLY
 70
0
  9
$TDCREATE
 40
2461303.447662037
  9
$TDUCREATE
 40
2458532.153996898
  9
$TDUPDATE
 40
2461303.447662037
  9
$TDUUPDATE
 40
2458532.1544311
  9
$TDINDWG
 40
0.0
  9
$TDUSRTIMER
 40
0.0
  9
$USRTIMER
 70
1
  9
$ANGBASE
 50
0.0
  9
$ANGDIR
 70
0
  9
$PDMODE
 70
0
  9
$PDSIZE
 40
0.0
  9
$PLINEWID
 40
0.0
  9
$SPLFRAME
 70
0
  9
$SPLINETYPE
 70
6
  9
$SPLINESEGS
 70
8
  9
$HANDSEED
  5
43
  9
$SURFTAB1
 70
6
  9
$SURFTAB2
 70
6
  9
$SURFTYPE
 70
6
  9
$SURFU
 70
6
  9
$SURFV
 70
6
  9
$UCSBASE
  2

  9
$UCSNAME
  2

  9
$UCSORG
 10
0.0
 20
0.0
 30
0.0
  9
$UCSXDIR
 10
1.0
 20
0.0
 30
0.0
  9
$UCSYDIR
 10
0.0
 20
1.0
 30
0.0
  9
$UCSORTHOREF
  2

  9
$UCSORTHOVIEW
 70
0
  9
$UCSORGTOP
 10
0.0
 20
0.0
 30
0.0
  9
$UCSORGBOTTOM
 10
0.0
 20
0.0
 30
0.0
  9
$UCSORGLEFT
 10
0.0
 20
0.0
 30
0.0
  9
$UCSORGRIGHT
 10
0.0
 20
0.0
 30
0.0
  9
$UCSORGFRONT
 10
0.0
 20
0.0
 30
0.0
  9
$UCSORGBACK
 10
0.0
 20
0.0
 30
0.0
  9
$PUCSBASE
  2

  9
$PUCSNAME
  2

  9
$PUCSORG
 10
0.0
 20
0.0
 30
0.0
  9
$PUCSXDIR
 10
1.0
 20
0.0
 30
0.0
  9
$PUCSYDIR
 10
0.0
 20
1.0
 30
0.0
  9
$PUCSORTHOREF
  2

  9
$PUCSORTHOVIEW
 70
0
  9
$PUCSORGTOP
 10
0.0
 20
0.0
 30
0.0
  9
$PUCSORGBOTTOM
 10
0.0
 20
0.0
 30
0.0
  9
$PUCSORGLEFT
 10
0.0
 20
0.0
 30
0.0
  9
$PUCSORGRIGHT
 10
0.0
 20
0.0
 30
0.0
  9
$PUCSORGFRONT
 10
0.0
 20
0.0
 30
0.0
  9
$PUCSORGBACK
 10
0.0
 20
0.0
 30
0.0
  9
$USERI1
 70
0
  9
$USERI2
 70
0
  9
$USERI3
 70
0
  9
$USERI4
 70
0
  9
$USERI5
 70
0
  9
$USERR1
 40
0.0
  9
$USERR2
 40
0.0
  9
$USERR3
 40
0.0
  9
$USERR4
 40
0.0
  9
$USERR5
 40
0.0
  9
$WORLDVIEW
 70
1
  9
$SHADEDGE
 70
3
  9
$SHADEDIF
 70
70
  9
$TILEMODE
 70
1
  9
$MAXACTVP
 70
64
  9
$PINSBASE
 10
0.0
 20
0.0
 30
0.0
  9
$PLIMCHECK
 70
0
  9
$PEXTMIN
 10
1e+20
 20
1e+20
 30
1e+20
  9
$PEXTMAX
 10
-1e+20
 20
-1e+20
 30
-1e+20
  9
$PLIMMIN
 10
0.0
 20
0.0
  9
$PLIMMAX
 10
420.0
 20
297.0
  9
$UNITMODE
 70
0
  9
$VISRETAIN
 70
1
  9
$PLINEGEN
 70
0
  9
$PSLTSCALE
 70
1
  9
$TREEDEPTH
 70
3020
  9
$CMLSTYLE
  2
Standard
  9
$CMLJUST
 70
0
  9
$CMLSCALE
 40
20.0
  9
$PROXYGRAPHICS
 70
1
  9
$MEASUREMENT
 70
1
  9
$CELWEIGHT
370
-1
  9
$ENDCAPS
280
0
  9
$JOINSTYLE
280
0
  9
$LWDISPLAY
290
0
  9
$INSUNITS
 70
4
  9
$HYPERLINKBASE
  1

  9
$STYLESHEET
  1

  9
$XEDIT
290
1
  9
$CEPSNTYPE
380
0
  9
$PSTYLEMODE
290
1
  9
$FINGERPRINTGUID
  2
{247AAF5E-1401-4333-9DC6-576A97B85EEB}
  9
$VERSIONGUID
  2
{D314D9B8-3517-4E67-BAFF-6DD5483D6123}
  9
$EXTNAMES
290
1
  9
$PSVPSCALE
 40
0.0
  9
$OLESTARTUP
290
0
  9
$SORTENTS
280
127
  9
$INDEXCTL
280
0
  9
$HIDETEXT
280
1
  9
$XCLIPFRAME
280
1
  9
$HALOGAP
280
0
  9
$OBSCOLOR
 70
257
  9
$OBSLTYPE
280
0
  9
$INTERSECTIONDISPLAY
280
0
  9
$INTERSECTIONCOLOR
 70
257
  9
$DIMASSOC
280
2
  9
$PROJECTNAME
  1

  9
$CAMERADISPLAY
290
0
  9
$LENSLENGTH
 40
50.0
  9
$CAMERAHEIGHT
 40
0.0
  9
$STEPSPERSEC
 40
24.0
  9
$STEPSIZE
 40
100.0
  9
$3DDWFPREC
 40
2.0
  9
$PSOLWIDTH
 40
0.005
  9
$PSOLHEIGHT
 40
0.08
  9
$LOFTANG1
 40
1.570796326795
  9
$LOFTANG2
 40
1.570796326795
  9
$LOFTMAG1
 40
0.0
  9
$LOFTMAG2
 40
0.0
  9
$LOFTPARAM
 70
7
  9
$LOFTNORMALS
280
1
  9
$LATITUDE
 40
37.795
  9
$LONGITUDE
 40
-122.394
  9
$NORTHDIRECTION
 40
0.0
  9
$TIMEZONE
 70
-8000
  9
$LIGHTGLYPHDISPLAY
280
1
  9
$TILEMODELIGHTSYNCH
280
1
  9
$CMATERIAL
347
20
  9
$SOLIDHIST
280
0
  9
$SHOWHIST
280
1
  9
$DWFFRAME
280
2
  9
$DGNFRAME
280
2
  9
$REALWORLDSCALE
290
1
  9
$INTERFERECOLOR
 62
256
  9
$CSHADOW
280
0
  9
$SHADOWPLANELOCATION
 40
0.0
  0
ENDSEC
  0
SECTION
  2
CLASSES
  0
CLASS
  1
ACDBDICTIONARYWDFLT
  2
AcDbDictionaryWithDefault
  3
ObjectDBX Classes
 90
0
 91
0
280
0
281
0
  0
CLASS
  1
SUN
  2
AcDbSun
  3
SCENEOE
 90
1153
 91
0
280
0
281
0
  0
CLASS
  1
VISUALSTYLE
  2
AcDbVisualStyle
  3
ObjectDBX Classes
 90
4095
 91
0
280
0
281
0
  0
CLASS
  1
MATERIAL
  2
AcDbMaterial
  3
ObjectDBX Classes
 90
1153
 91
0
280
0
281
0
  0
CLASS
  1
SCALE
  2
AcDbScale
  3
ObjectDBX Classes
 90
1153
 91
0
280
0
281
0
  0
CLASS
  1
TABLESTYLE
  2
AcDbTableStyle
  3
ObjectDBX Classes
 90
4095
 91
0
280
0
281
0
  0
CLASS
  1
MLEADERSTYLE
  2
AcDbMLeaderStyle
  3
ACDB_MLEADERSTYLE_CLASS
 90
4095
 91
0
280
0
281
0
  0
CLASS
  1
DICTIONARYVAR
  2
AcDbDictionaryVar
  3
ObjectDBX Classes
 90
0
 91
0
280
0
281
0
  0
CLASS
  1
CELLSTYLEMAP
  2
AcDbCellStyleMap
  3
ObjectDBX Classes
 90
1152
 91
0
280
0
281
0
  0
CLASS
  1
MENTALRAYRENDERSETTINGS
  2
AcDbMentalRayRenderSettings
  3
SCENEOE
 90
1024
 91
0
280
0
281
0
  0
CLASS
  1
ACDBDETAILVIEWSTYLE
  2
AcDbDetailViewStyle
  3
ObjectDBX Classes
 90
1025
 91
0
280
0
281
0
  0
CLASS
  1
ACDBSECTIONVIEWSTYLE
  2
AcDbSectionViewStyle
  3
ObjectDBX Classes
 90
1025
 91
0
280
0
281
0
  0
CLASS
  1
RASTERVARIABLES
  2
AcDbRasterVariables
  3
ISM
 90
0
 91
0
280
0
281
0
  0
CLASS
  1
ACDBPLACEHOLDER
  2
AcDbPlaceHolder
  3
ObjectDBX Classes
 90
0
 91
0
280
0
281
0
  0
CLASS
  1
LAYOUT
  2
AcDbLayout
  3
ObjectDBX Classes
 90
0
 91
0
280
0
281
0
  0
ENDSEC
  0
SECTION
  2
TABLES
  0
TABLE
  2
VPORT
  5
8
330
0
100
AcDbSymbolTable
 70
1
  0
VPORT
  5
23
330
8
100
AcDbSymbolTableRecord
100
AcDbViewportTableRecord
  2
*Active
 70
0
 10
0.0
 20
0.0
 11
1.0
 21
1.0
 12
0.0
 22
0.0
 13
0.0
 23
0.0
 14
0.5
 24
0.5
 15
0.5
 25
0.5
 16
0.0
 26
0.0
 36
1.0
 17
0.0
 27
0.0
 37
0.0
 40
1000.0
 41
1.34
 42
50.0
 43
0.0
 44
0.0
 50
0.0
 51
0.0
 71
0
 72
1000
 73
1
 74
3
 75
0
 76
0
 77
0
 78
0
281
0
 65
0
146
0.0
  0
ENDTAB
  0
TABLE
  2
LTYPE
  5
2
330
0
100
AcDbSymbolTable
 70
3
  0
LTYPE
  5
24
330
2
100
AcDbSymbolTableRecord
100
AcDbLinetypeTableRecord
  2
ByBlock
 70
0
  3

 72
65
 73
0
 40
0.0
  0
LTYPE
  5
25
330
2
100
AcDbSymbolTableRecord
100
AcDbLinetypeTableRecord
  2
ByLayer
 70
0
  3

 72
65
 73
0
 40
0.0
  0
LTYPE
  5
26
330
2
100
AcDbSymbolTableRecord
100
AcDbLinetypeTableRecord
  2
Continuous
 70
0
  3

 72
65
 73
0
 40
0.0
  0
ENDTAB
  0
TABLE
  2
LAYER
  5
1
330
0
100
AcDbSymbolTable
 70
3
  0
LAYER
  5
27
330
1
100
AcDbSymbolTableRecord
100
AcDbLayerTableRecord
  2
0
 70
0
 62
7
  6
Continuous
370
-3
390
13
347
21
  0
LAYER
  5
28
330
1
100
AcDbSymbolTableRecord
100
AcDbLayerTableRecord
  2
Defpoints
 70
0
 62
7
  6
Continuous
290
0
370
-3
390
13
347
21
  0
LAYER
  5
2F
330
1
100
AcDbSymbolTableRecord
100
AcDbLayerTableRecord
  2
ID_CUT_SINGLELINE
 70
0
 62
3
  6
Continuous
370
0
390
13
347
21
  0
ENDTAB
  0
TABLE
  2
STYLE
  5
5
330
0
100
AcDbSymbolTable
 70
1
  0
STYLE
  5
29
330
5
100
AcDbSymbolTableRecord
100
AcDbTextStyleTableRecord
  2
Standard
 70
0
 40
0.0
 41
1.0
 50
0.0
 71
0
 42
2.5
  3
txt
  4

  0
ENDTAB
  0
TABLE
  2
VIEW
  5
7
330
0
100
AcDbSymbolTable
 70
0
  0
ENDTAB
  0
TABLE
  2
UCS
  5
6
330
0
100
AcDbSymbolTable
 70
0
  0
ENDTAB
  0
TABLE
  2
APPID
  5
3
330
0
100
AcDbSymbolTable
 70
3
  0
APPID
  5
2A
330
3
100
AcDbSymbolTableRecord
100
AcDbRegAppTableRecord
  2
ACAD
 70
0
  0
APPID
  5
40
330
3
100
AcDbSymbolTableRecord
100
AcDbRegAppTableRecord
  2
HATCHBACKGROUNDCOLOR
 70
0
  0
APPID
  5
41
330
3
100
AcDbSymbolTableRecord
100
AcDbRegAppTableRecord
  2
EZDXF
 70
0
  0
ENDTAB
  0
TABLE
  2
DIMSTYLE
  5
4
330
0
100
AcDbSymbolTable
 70
1
100
AcDbDimStyleTable
  0
DIMSTYLE
105
2B
330
4
100
AcDbSymbolTableRecord
100
AcDbDimStyleTableRecord
  2
Standard
 70
0
 40
1.0
 41
2.5
 42
0.625
 43
3.75
 44
1.25
 45
0.0
 46
0.0
 47
0.0
 48
0.0
 49
2.5
140
2.5
141
2.5
142
0.0
143
0.03937007874
144
1.0
145
0.0
146
1.0
147
0.625
148
0.0
 69
0
 70
0
 71
0
 72
0
 73
0
 74
0
 75
0
 76
0
 77
1
 78
8
 79
3
170
0
171
3
172
1
173
0
174
0
175
0
176
0
177
0
178
0
179
2
271
2
272
2
273
2
274
3
275
0
276
0
277
2
278
44
279
0
280
0
281
0
282
0
283
0
284
8
285
0
286
0
288
0
289
3
290
0
371
-2
372
-2
  0
ENDTAB
  0
TABLE
  2
BLOCK_RECORD
  5
9
330
0
100
AcDbSymbolTable
 70
2
  0
BLOCK_RECORD
  5
17
330
9
100
AcDbSymbolTableRecord
100
AcDbBlockTableRecord
  2
*Model_Space
340
1A
 70
0
280
1
281
0
  0
BLOCK_RECORD
  5
1B
330
9
100
AcDbSymbolTableRecord
100
AcDbBlockTableRecord
  2
*Paper_Space
340
1E
 70
0
280
1
281
0
  0
ENDTAB
  0
ENDSEC
  0
SECTION
  2
BLOCKS
  0
BLOCK
  5
18
330
17
100
AcDbEntity
  8
0
100
AcDbBlockBegin
  2
*Model_Space
 70
0
 10
0.0
 20
0.0
 30
0.0
  3
*Model_Space
  1

  0
ENDBLK
  5
19
330
17
100
AcDbEntity
  8
0
100
AcDbBlockEnd
  0
BLOCK
  5
1C
330
1B
100
AcDbEntity
  8
0
100
AcDbBlockBegin
  2
*Paper_Space
 70
0
 10
0.0
 20
0.0
 30
0.0
  3
*Paper_Space
  1

  0
ENDBLK
  5
1D
330
1B
100
AcDbEntity
  8
0
100
AcDbBlockEnd
  0
ENDSEC
  0
SECTION
  2
ENTITIES
  0
LWPOLYLINE
  5
30
330
17
100
AcDbEntity
  8
ID_CUT_SINGLELINE
100
AcDbPolyline
 90
8
 70
0
 10
0.0
 20
0.0
 10
0.0
 20
18.499999999999996
 42
-0.06414042354739753
 10
0.07828333400968997
 20
19.107739024290357
 42
-0.2709463975677943
 10
0.892260975709641
 20
19.921716665990306
 42
-0.06414042354739781
 10
1.4999999999999996
 20
19.999999999999996
 10
5.999999999999998
 20
19.999999999999996
 42
-0.04484884584842958
 10
7.895655367500185
 20
19.829621386506535
 42
-0.0808290878192633
 10
9.67347540320926
 20
19.199574991021233
  0
LWPOLYLINE
  5
31
330
17
100
AcDbEntity
  8
ID_CUT_SINGLELINE
100
AcDbPolyline
 90
12
 70
0
 10
11.662129537841217
 20
16.953410541829854
 42
-0.05199180226342398
 10
11.920743583376732
 20
15.993349343708893
 42
-0.03983023744639161
 10
11.999999999999996
 20
14.999999999999996
 42
-0.042022023315836675
 10
11.91217943544411
 20
13.956910214506795
 42
-0.05538840337469763
 10
11.624999999999996
 20
12.953124999999996
 42
-0.057237813896569144
 10
11.154087156508556
 20
12.098588862377767
 42
-0.05855375241675868
 10
10.499999999999996
 20
11.374999999999996
 42
-0.0592017344265931
 10
9.616908958198238
 20
10.770112713861439
 42
-0.044883671274168334
 10
8.624999999999996
 20
10.359374999999996
 42
-0.04553978510758998
 10
7.3276641260234845
 20
10.08032288218305
 42
-0.03022207040729149
 10
5.999999999999998
 20
9.999999999999998
 10
2.999999999999999
 20
9.999999999999998
  0
LWPOLYLINE
  5
32
330
17
100
AcDbEntity
  8
ID_CUT_SINGLELINE
100
AcDbPolyline
 90
10
 70
0
 10
15.999999999999996
 20
0.0
 10
18.57865187009393
 20
6.876404986917146
 42
-0.060901145538560054
 10
18.823767128751932
 20
7.346741906980828
 42
-0.18336909713630262
 10
19.673544105250585
 20
7.93563774952997
 42
-0.060901145538560165
 10
20.199999999999996
 20
8.0
 10
25.799999999999997
 20
8.0
 42
-0.06090114553856022
 10
26.326455894749408
 20
7.93563774952997
 42
-0.18336909713630237
 10
27.17623287124806
 20
7.346741906980828
 42
-0.060901145538559034
 10
27.421348129906065
 20
6.876404986917146
 10
29.999999999999996
 20
0.0
  0
LWPOLYLINE
  5
33
330
17
100
AcDbEntity
  8
ID_CUT_SINGLELINE
100
AcDbPolyline
 90
18
 70
0
 10
20.199999999999996
 20
11.2
 10
21.499999999999996
 20
16.8
 42
0.0005684973451910188
 10
21.66705755925464
 20
17.523365423720804
 42
-0.005513249221472223
 10
21.841249999999995
 20
18.244999999999997
 42
-0.007223911951245167
 10
21.976312431970058
 20
18.74799416939145
 42
-0.026766655989858532
 10
22.144999999999996
 20
19.24
 42
-0.029632768047935208
 10
22.29178615446856
 20
19.549328731766302
 42
-0.08285563746265892
 10
22.501249999999995
 20
19.814999999999998
 42
-0.09917558908478553
 10
22.7327289408832
 20
19.953790069542112
 42
-0.17289537674071323
 10
23.267271059116794
 20
19.953790069542112
 42
-0.09917558908478548
 10
23.498749999999998
 20
19.814999999999998
 42
-0.08285563746265884
 10
23.708213845531432
 20
19.549328731766302
 42
-0.029632768047935222
 10
23.854999999999997
 20
19.24
 42
-0.026766655989860128
 10
24.023687568029935
 20
18.74799416939145
 42
-0.0072239119512466175
 10
24.158749999999998
 20
18.244999999999997
 42
-0.0055132492214722715
 10
24.33294244074535
 20
17.523365423720804
 42
0.0005684973451897629
 10
24.499999999999996
 20
16.8
 10
25.799999999999997
 20
11.2
  0
LWPOLYLINE
  5
34
330
17
100
AcDbEntity
  8
ID_CUT_SINGLELINE
100
AcDbPolyline
 90
18
 70
0
 10
34.0
 20
0.0
 10
34.0
 20
18.6
 42
-0.01330553146706998
 10
34.007229648243666
 20
18.871630199256074
 42
-0.04847823904194228
 10
34.0476864806771
 20
19.139136183573697
 42
-0.04412749844208135
 10
34.09398431990163
 20
19.272053450145044
 42
-0.45815688784202374
 10
34.3179218364732
 20
19.338437502781016
 42
-0.04412749844207818
 10
34.42917832609389
 20
19.252225652163247
 42
-0.04847823904193958
 10
34.60888674415111
 20
19.04998546966813
 42
-0.013305531467071507
 10
34.76298369083358
 20
18.826178937179108
 10
46.23701630916642
 20
1.1738210628208918
 42
0.013305531467071202
 10
46.39111325584889
 20
0.9500145303318692
 42
0.04847823904194195
 10
46.57082167390611
 20
0.7477743478367518
 42
0.044127498442080464
 10
46.68207816352681
 20
0.6615624972189852
 42
0.45815688784201675
 10
46.90601568009837
 20
0.7279465498549574
 42
0.04412749844208057
 10
46.9523135193229
 20
0.8608638164263057
 42
0.04847823904194044
 10
46.992770351756334
 20
1.1283698007439296
 42
0.013305531467069184
 10
47.0
 20
1.4
 10
47.0
 20
20.0
  0
LWPOLYLINE
  5
35
330
17
100
AcDbEntity
  8
ID_CUT_SINGLELINE
100
AcDbPolyline
 90
10
 70
0
 10
63.0
 20
19.999999999999996
 10
53.0
 20
19.999999999999996
 42
0.06414042354739848
 10
52.18968130094619
 20
19.89562222132041
 42
0.2709463975677949
 10
51.104377778679584
 20
18.81031869905381
 42
0.0641404235473973
 10
51.0
 20
17.999999999999996
 10
51.0
 20
1.9999999999999996
 42
0.06414042354739775
 10
51.104377778679584
 20
1.1896813009461882
 42
0.2709463975677952
 10
52.18968130094619
 20
0.10437777867958678
 42
0.06414042354739787
 10
53.0
 20
0.0
 10
63.0
 20
0.0
  0
LWPOLYLINE
  5
36
330
17
100
AcDbEntity
  8
ID_CUT_SINGLELINE
100
AcDbPolyline
 90
2
 70
0
 10
51.0
 20
9.999999999999998
 10
60.0
 20
9.999999999999998
  0
LWPOLYLINE
  5
37
330
17
100
AcDbEntity
  8
ID_CUT_SINGLELINE
100
AcDbPolyline
 90
6
 70
0
 10
67.0
 20
20.0
 10
67.0
 20
2.0
 42
0.06414042354739775
 10
67.10437777867959
 20
1.1896813009461882
 42
0.270946397567795
 10
68.18968130094619
 20
0.10437777867958675
 42
0.06414042354739781
 10
69.0
 20
0.0
 10
79.0
 20
0.0
  0
LWPOLYLINE
  5
38
330
17
100
AcDbEntity
  8
ID_CUT_SINGLELINE
100
AcDbPolyline
 90
2
 70
0
 10
83.0
 20
10.0
 10
91.0
 20
10.0
  0
LWPOLYLINE
  5
39
330
17
100
AcDbEntity
  8
ID_CUT_SINGLELINE
100
AcDbPolyline
 90
10
 70
0
 10
95.0
 20
0.0
 10
97.57865187009394
 20
6.876404986917146
 42
-0.060901145538560054
 10
97.82376712875194
 20
7.346741906980828
 42
-0.18336909713630262
 10
98.67354410525058
 20
7.93563774952997
 42
-0.060901145538560165
 10
99.2
 20
8.0
 10
104.8
 20
8.0
 42
-0.06090114553856022
 10
105.32645589474942
 20
7.93563774952997
 42
-0.18336909713630237
 10
106.17623287124806
 20
7.346741906980828
 42
-0.060901145538559034
 10
106.42134812990606
 20
6.876404986917146
 10
109.0
 20
0.0
  0
LWPOLYLINE
  5
3A
330
17
100
AcDbEntity
  8
ID_CUT_SINGLELINE
100
AcDbPolyline
 90
18
 70
0
 10
99.2
 20
11.2
 10
100.5
 20
16.8
 42
0.0005684973451910188
 10
100.66705755925464
 20
17.523365423720804
 42
-0.005513249221472223
 10
100.84125
 20
18.244999999999997
 42
-0.007223911951245167
 10
100.97631243197006
 20
18.74799416939145
 42
-0.026766655989858532
 10
101.145
 20
19.24
 42
-0.029632768047935208
 10
101.29178615446857
 20
19.549328731766302
 42
-0.08285563746265892
 10
101.50125
 20
19.814999999999998
 42
-0.09917558908478553
 10
101.7327289408832
 20
19.953790069542112
 42
-0.17289537674071323
 10
102.2672710591168
 20
19.953790069542112
 42
-0.09917558908478548
 10
102.49875
 20
19.814999999999998
 42
-0.08285563746265884
 10
102.70821384553143
 20
19.549328731766302
 42
-0.029632768047935222
 10
102.855
 20
19.24
 42
-0.026766655989860128
 10
103.02368756802994
 20
18.74799416939145
 42
-0.0072239119512466175
 10
103.15875
 20
18.244999999999997
 42
-0.0055132492214722715
 10
103.33294244074536
 20
17.523365423720804
 42
0.0005684973451897629
 10
103.5
 20
16.8
 10
104.8
 20
11.2
  0
LWPOLYLINE
  5
3B
330
17
100
AcDbEntity
  8
ID_CUT_SINGLELINE
100
AcDbPolyline
 90
16
 70
0
 10
122.88685996664259
 20
11.5
 42
0.022340412224689413
 10
122.68001915318638
 20
13.209829197027842
 42
0.027093516698145997
 10
122.305627303521
 20
14.890109874557995
 42
0.025975286343047105
 10
121.83932227722659
 20
16.272435796593644
 42
0.03738737434303053
 10
121.20303118592263
 20
17.582875444051552
 42
0.03708228578138053
 10
120.54149154428954
 20
18.54798880289643
 42
0.062490676402211454
 10
119.70649196285389
 20
19.35920329151933
 42
0.06843023127817405
 10
118.87349944471518
 20
19.82458112979306
 42
0.1886083539868552
 10
117.01336052192741
 20
19.824581129793057
 42
0.06843023127817582
 10
116.1803680037887
 20
19.35920329151933
 42
0.06249067640221123
 10
115.34536842235305
 20
18.54798880289643
 42
0.03708228578138039
 10
114.68382878071998
 20
17.582875444051552
 42
0.037387374343031306
 10
114.047537689416
 20
16.272435796593644
 42
0.02597528634304755
 10
113.58123266312158
 20
14.890109874557995
 42
0.027093516698146455
 10
113.20684081345621
 20
13.209829197027842
 42
0.0223404122246895
 10
113.0
 20
11.5
  0
LWPOLYLINE
  5
3C
330
17
100
AcDbEntity
  8
ID_CUT_SINGLELINE
100
AcDbPolyline
 90
16
 70
0
 10
113.0
 20
8.500000000000002
 42
0.0223404122246895
 10
113.20684081345621
 20
6.790170802972159
 42
0.027093516698146566
 10
113.58123266312158
 20
5.109890125442007
 42
0.025975286343046883
 10
114.047537689416
 20
3.7275642034063554
 42
0.03738737434303053
 10
114.68382878071998
 20
2.4171245559484507
 42
0.037082285781380835
 10
115.34536842235305
 20
1.4520111971035707
 42
0.06249067640221123
 10
116.1803680037887
 20
0.6407967084806693
 42
0.06843023127817471
 10
117.01336052192741
 20
0.1754188702069408
 42
0.1886083539868538
 10
118.87349944471518
 20
0.17541887020694003
 42
0.06843023127817482
 10
119.70649196285389
 20
0.6407967084806676
 42
0.062490676402211176
 10
120.54149154428954
 20
1.4520111971035679
 42
0.0370822857813805
 10
121.20303118592263
 20
2.4171245559484467
 42
0.03738737434303047
 10
121.83932227722659
 20
3.7275642034063514
 42
0.025975286343046897
 10
122.305627303521
 20
5.109890125442002
 42
0.027093516698145984
 10
122.68001915318638
 20
6.790170802972153
 42
0.022340412224689413
 10
122.88685996664259
 20
8.499999999999995
  0
LWPOLYLINE
  5
3D
330
17
100
AcDbEntity
  8
ID_CUT_SINGLELINE
100
AcDbPolyline
 90
2
 70
0
 10
115.9434299833213
 20
5.0
 10
119.9434299833213
 20
15.0
  0
LWPOLYLINE
  5
3E
330
17
100
AcDbEntity
  8
ID_CUT_SINGLELINE
100
AcDbPolyline
 90
10
 70
0
 10
127.90800870334714
 20
16.3383797872727
 10
131.27054245384144
 20
19.70091353776702
 42
-0.01866355246877764
 10
131.4194960334599
 20
19.839143646429413
 42
-0.05618179601604381
 10
131.58644422723313
 20
19.95299351511467
 42
-0.060637822540961346
 10
131.69806866186352
 20
19.99566482935384
 42
-0.32956244656061684
 10
131.8987176063825
 20
19.912553315258236
 42
-0.060637822540958376
 10
131.94747482539506
 20
19.80344974492433
 42
-0.05618179601604157
 10
131.98502101113442
 20
19.604895530815877
 42
-0.018663552468782433
 10
131.9926036501653
 20
19.401825997386332
 10
131.9926036501653
 20
0.0
  0
LWPOLYLINE
  5
3F
330
17
100
AcDbEntity
  8
ID_CUT_SINGLELINE
100
AcDbPolyline
 90
2
 70
0
 10
126.88685996664259
 20
0.0
 10
137.09834733368803
 20
0.0
  0
ENDSEC
  0
SECTION
  2
OBJECTS
  0
DICTIONARY
  5
A
330
0
100
AcDbDictionary
281
1
  3
ACAD_COLOR
350
B
  3
ACAD_GROUP
350
C
  3
ACAD_LAYOUT
350
D
  3
ACAD_MATERIAL
350
E
  3
ACAD_MLEADERSTYLE
350
F
  3
ACAD_MLINESTYLE
350
10
  3
ACAD_PLOTSETTINGS
350
11
  3
ACAD_PLOTSTYLENAME
350
12
  3
ACAD_SCALELIST
350
14
  3
ACAD_TABLESTYLE
350
15
  3
ACAD_VISUALSTYLE
350
16
  3
EZDXF_META
350
2D
  0
DICTIONARY
  5
B
330
A
100
AcDbDictionary
281
1
  0
DICTIONARY
  5
C
330
A
100
AcDbDictionary
281
1
  0
DICTIONARY
  5
D
330
A
100
AcDbDictionary
281
1
  3
Model
350
1A
  3
Layout1
350
1E
  0
DICTIONARY
  5
E
330
A
100
AcDbDictionary
281
1
  3
ByBlock
350
1F
  3
ByLayer
350
20
  3
Global
350
21
  0
DICTIONARY
  5
F
330
A
100
AcDbDictionary
281
1
  3
Standard
350
2C
  0
DICTIONARY
  5
10
330
A
100
AcDbDictionary
281
1
  3
Standard
350
22
  0
DICTIONARY
  5
11
330
A
100
AcDbDictionary
281
1
  0
ACDBDICTIONARYWDFLT
  5
12
330
A
100
AcDbDictionary
281
1
  3
Normal
350
13
100
AcDbDictionaryWithDefault
340
13
  0
ACDBPLACEHOLDER
  5
13
330
12
  0
DICTIONARY
  5
14
330
A
100
AcDbDictionary
281
1
  0
DICTIONARY
  5
15
330
A
100
AcDbDictionary
281
1
  0
DICTIONARY
  5
16
330
A
100
AcDbDictionary
281
1
  0
LAYOUT
  5
1A
330
D
100
AcDbPlotSettings
  1

  4
A3
  6

 40
7.5
 41
20.0
 42
7.5
 43
20.0
 44
420.0
 45
297.0
 46
0.0
 47
0.0
 48
0.0
 49
0.0
140
0.0
141
0.0
142
1.0
143
1.0
 70
1024
 72
1
 73
0
 74
5
  7

 75
16
 76
0
 77
2
 78
300
147
1.0
148
0.0
149
0.0
100
AcDbLayout
  1
Model
 70
1
 71
0
 10
0.0
 20
0.0
 11
420.0
 21
297.0
 12
0.0
 22
0.0
 32
0.0
 14
1e+20
 24
1e+20
 34
1e+20
 15
-1e+20
 25
-1e+20
 35
-1e+20
146
0.0
 13
0.0
 23
0.0
 33
0.0
 16
1.0
 26
0.0
 36
0.0
 17
0.0
 27
1.0
 37
0.0
 76
1
330
17
  0
LAYOUT
  5
1E
330
D
100
AcDbPlotSettings
  1

  4
A3
  6

 40
7.5
 41
20.0
 42
7.5
 43
20.0
 44
420.0
 45
297.0
 46
0.0
 47
0.0
 48
0.0
 49
0.0
140
0.0
141
0.0
142
1.0
143
1.0
 70
0
 72
1
 73
0
 74
5
  7

 75
16
 76
0
 77
2
 78
300
147
1.0
148
0.0
149
0.0
100
AcDbLayout
  1
Layout1
 70
1
 71
1
 10
0.0
 20
0.0
 11
420.0
 21
297.0
 12
0.0
 22
0.0
 32
0.0
 14
1e+20
 24
1e+20
 34
1e+20
 15
-1e+20
 25
-1e+20
 35
-1e+20
146
0.0
 13
0.0
 23
0.0
 33
0.0
 16
1.0
 26
0.0
 36
0.0
 17
0.0
 27
1.0
 37
0.0
 76
1
330
1B
  0
MATERIAL
  5
1F
102
{ACAD_REACTORS
330
E
102
}
330
E
100
AcDbMaterial
  1
ByBlock
  2

 70
0
 40
1.0
 71
1
 41
1.0
 91
-1023410177
 42
1.0
 72
1
  3

 73
1
 74
1
 75
1
 44
0.5
 73
0
 45
1.0
 46
1.0
 77
1
  4

 78
1
 79
1
170
1
 48
1.0
171
1
  6

172
1
173
1
174
1
140
1.0
141
1.0
175
1
  7

176
1
177
1
178
1
143
1.0
179
1
  8

270
1
271
1
272
1
145
1.0
146
1.0
273
1
  9

274
1
275
1
276
1
 42
1.0
 72
1
  3

 73
1
 74
1
 75
1
 94
63
  0
MATERIAL
  5
20
102
{ACAD_REACTORS
330
E
102
}
330
E
100
AcDbMaterial
  1
ByLayer
  2

 70
0
 40
1.0
 71
1
 41
1.0
 91
-1023410177
 42
1.0
 72
1
  3

 73
1
 74
1
 75
1
 44
0.5
 73
0
 45
1.0
 46
1.0
 77
1
  4

 78
1
 79
1
170
1
 48
1.0
171
1
  6

172
1
173
1
174
1
140
1.0
141
1.0
175
1
  7

176
1
177
1
178
1
143
1.0
179
1
  8

270
1
271
1
272
1
145
1.0
146
1.0
273
1
  9

274
1
275
1
276
1
 42
1.0
 72
1
  3

 73
1
 74
1
 75
1
 94
63
  0
MATERIAL
  5
21
102
{ACAD_REACTORS
330
E
102
}
330
E
100
AcDbMaterial
  1
Global
  2

 70
0
 40
1.0
 71
1
 41
1.0
 91
-1023410177
 42
1.0
 72
1
  3

 73
1
 74
1
 75
1
 44
0.5
 73
0
 45
1.0
 46
1.0
 77
1
  4

 78
1
 79
1
170
1
 48
1.0
171
1
  6

172
1
173
1
174
1
140
1.0
141
1.0
175
1
  7

176
1
177
1
178
1
143
1.0
179
1
  8

270
1
271
1
272
1
145
1.0
146
1.0
273
1
  9

274
1
275
1
276
1
 42
1.0
 72
1
  3

 73
1
 74
1
 75
1
 94
63
  0
MLINESTYLE
  5
22
102
{ACAD_REACTORS
330
10
102
}
330
10
100
AcDbMlineStyle
  2
Standard
 70
0
  3

 62
256
 51
90.0
 52
90.0
 71
2
 49
0.5
 62
256
  6
BYLAYER
 49
-0.5
 62
256
  6
BYLAYER
  0
MLEADERSTYLE
  5
2C
102
{ACAD_REACTORS
330
F
102
}
330
F
100
AcDbMLeaderStyle
179
2
170
2
171
1
172
0
 90
2
 40
0.0
 41
0.0
173
1
 91
-1056964608
 92
-2
290
1
 42
2.0
291
1
 43
8.0
  3
Standard
 44
4.0
300

342
29
174
1
175
1
176
0
178
1
 93
-1056964608
 45
4.0
292
0
297
0
 46
4.0
 94
-1056964608
 47
1.0
 49
1.0
140
1.0
294
1
141
0.0
177
0
142
1.0
295
0
296
0
143
3.75
271
0
272
9
273
9
  0
DICTIONARY
  5
2D
330
A
100
AcDbDictionary
280
1
281
1
  3
CREATED_BY_EZDXF
350
2E
  3
WRITTEN_BY_EZDXF
350
42
  0
DICTIONARYVAR
  5
2E
330
2D
100
DictionaryVariables
280
0
  1
1.4.2 @ 2026-09-19T06:44:38.380257+00:00
  0
DICTIONARYVAR
  5
42
330
2D
100
DictionaryVariables
280
0
  1
1.4.2 @ 2026-09-19T06:44:38.384257+00:00
  0
ENDSEC
  0
EOF
